<svg xmlns="http://www.w3.org/2000/svg" version="1.0" viewBox="0 0 1200 1040"><path fill="#B9B9B9" fill-opacity=".17" stroke="#B9B9B9" stroke-opacity=".17" stroke-width=".1" d="M315.3 160.7c2.6.2 6.7.2 9 0s.2-.3-4.8-.3c-4.9 0-6.8.1-4.2.3zm640.5 63c2.3.2 6.1.2 8.5 0 2.3-.2.4-.4-4.3-.4s-6.6.2-4.2.4z"/><path fill="#BCBCBC" fill-opacity=".16" stroke="#BCBCBC" stroke-opacity=".16" stroke-width=".1" d="M657.3 960.7c1.5.2 3.9.2 5.5 0 1.5-.2.2-.4-2.8-.4s-4.3.2-2.7.4z"/><path fill="#BBB" fill-opacity=".18" stroke="#BBB" stroke-opacity=".18" stroke-width=".1" d="M1153.3 595.5c0 2.7.2 3.8.4 2.2.2-1.5.2-3.7 0-5-.2-1.2-.4 0-.4 2.8z"/><path fill="#333" stroke="#333" stroke-width=".1" d="M1143.8 294.7c1.8.2 4.5.2 6 0s0-.4-3.3-.4-4.5.2-2.7.4zM545.3 451.5c0 3.3.2 4.5.4 2.7.2-1.8.2-4.5 0-6s-.4 0-.4 3.3zm607 115c0 4.4.2 6.1.4 3.7.2-2.3.2-5.9 0-8-.2-2-.4-.1-.4 4.3zm-433 10.5c0 4.7.2 6.6.4 4.2.2-2.3.2-6.1 0-8.5-.2-2.3-.4-.4-.4 4.3zm-115.2 1.7c-.1 1.2.5 2.5 1.2 2.9.6.4.9.4.5-.1-.4-.4-.2-1.5.5-2.3.8-1.1.8-1.4 0-.9-.6.4-1.4.1-1.6-.5-.3-.7-.6-.3-.6.9zm91.4 1.3c-.4.6-1 .8-1.5.5-.4-.3-.6.5-.2 1.7.4 1.6.7 1.8 1 .8.2-.8 1.1-2.1 2-2.8.9-.6 1.1-1.2.5-1.2-.7 0-1.5.5-1.8 1zm-107 2c.3.5.1 1-.6 1s-1 .3-.7.6c.4.3 1.5.1 2.6-.5 1.2-.6 2.3-.7 3-.1.9.7.9.7.2-.2-1.2-1.5-5.4-2.2-4.5-.8zm41.5 1.7c0 1.2-.6 2.4-1.2 2.6-.7.3-.8.6-.3.6 2.4.2 3.7-1.6 2.6-3.5-1-1.8-1-1.8-1.1.3zm23.8-.2c-.4.4-.2 1.7.3 2.8 1 1.8.9 1.9-1.4 1.3-2.7-.6-4.5.8-2.6 2 .8.4.9.3.5-.5-.7-1.1 1.8-.9 6.3.5 1.2.4 1.2.1-.1-1.3-.9-1-1.8-2.6-1.9-3.6-.2-1.1-.7-1.6-1.1-1.2zm-13.3 3.5c-.3.5-.2 1.7.2 2.5.7 1.2 1.1 1.1 2.2-.8 1.3-2.1 1.3-2.1-.4-.7-1.7 1.4-1.8 1.3-1.2-.3.7-1.8.2-2.3-.8-.7zm47.5 1.1c0 1.4.5 1.9 1.4 1.6.7-.3 1.9 0 2.5.6.6.6 1.1.9 1.1.6 0-.3-1.1-1.5-2.5-2.7L688 586v2.1zm-15.4.8c-.3.5.1 1.1.9 1.5 1.5.6 2.9-.7 1.8-1.8-.9-.9-2.1-.8-2.7.3zM480.5 632c4.4 4.4 8.2 8 8.5 8 .2 0-3.1-3.6-7.5-8s-8.2-8-8.5-8c-.2 0 3.1 3.6 7.5 8zm285.3 205.7c1.2.2 3 .2 4 0 .9-.3-.1-.5-2.3-.4-2.2 0-3 .2-1.7.4z"/><g stroke="#000" stroke-width=".1"><path d="M293 162.6c-51.9 4.9-119.5 15.6-194.9 30.9-42 8.5-96.2 20.3-96.9 21-.3.3.5 2.7 1.7 5.3 5.2 10.6 24.4 53.1 32.9 72.8C89.8 417.9 127.4 544 139.2 639c2 16.5 1.7 70.9-.6 89-7.5 60.5-24.6 117.8-57.2 191.5-4.8 11-19.9 42.2-33.6 69.4-13.6 27.2-24.6 49.6-24.4 49.8.2.2 4.1-3.5 8.7-8.3C72.3 989.2 166 950.7 243 943.9c15.7-1.4 40.4-.6 50 1.5 17.2 3.8 38.8 12.3 72.1 28.4 44.7 21.7 62.2 27.2 93 29.3 40.7 2.7 67.5-3 133.7-28.7 32.4-12.6 35-13.2 58.6-14 35.2-1.2 54 2.6 92.4 19 14.2 6.1 34.8 13.7 46.4 17.1 17.7 5.4 43.7 9.3 63.9 9.7l11.6.3 9.4-4.7c5.2-2.6 11-5 13-5.3 9.4-1.4 22.4 4.4 45.3 20.4 7.7 5.4 16.2 11 18.7 12.5 20 11.5 52.8 11.1 103.1-1.4 13.4-3.3 13.1-3.1 12.3-9.5-2.2-17.6-.1-29.4 8-45.5 7.4-14.9 11.7-30.4 21-77.5 3.5-17.6 7.6-36.4 9-41.8 2.7-10.6 9.6-29.2 17.7-47.7 10.5-24.1 19.5-55.1 24.3-83.3 5.8-34.5 6-37.9 6-130.7 0-85.4 0-85.5 2.3-95.8 3-13.6 7.4-30.7 18.2-70.2 20-73.2 27-107.1 27-130.7v-8.5l-3.2.5c-1.8.2-8.5 1.6-14.8 3-30.9 6.9-57.6 5.2-77.4-4.8-22.8-11.7-30.2-16.2-43.8-27.2-23.6-19-31.1-23.4-46.9-27.7-27.9-7.6-60.6-8.4-101.4-2.5-21.6 3.1-44.3 7.9-89.6 18.8-65.7 15.8-88.6 20.1-118.6 22.3-50.2 3.7-99.9-8.8-177.8-44.4-13.2-6.1-32.7-15-43.2-19.9C403 168.1 352.8 157 293 162.6zm381.4 184.9c27.8 6 42.8 13.4 56.7 28.2 12.3 13.1 20.6 28.3 25.7 47.1 2.3 8.7 2.6 11.5 2.6 27.2 0 16.4-.2 18.2-3.2 29.3-1.7 6.5-4.1 14-5.4 16.5l-2.3 4.7-.7-5.8c-.4-3.2-1.2-7.5-1.8-9.5-2.3-8.5-.9-15.2 4.4-20.1 1.4-1.4 2.6-2.9 2.6-3.5 0-1.5-6 4.5-7.6 7.6-1.8 3.6-1.8 11.3.2 21.1 1.5 7.4 1.5 8.4-.1 14.3-1.6 6-1.6 6.6 0 10.9 1.5 3.8 1.6 5.2.7 8.3-1.7 5.6-6.3 12-14 19.5-10.4 10-11.5 13.1-12.2 34.7-.5 16.9-.6 17.7-3.3 22.3-9 15.3-27.2 26.3-56.5 34.3-8.7 2.4-10.7 2.6-20.1 1.9-8.7-.5-11.9-1.2-19-4.2-25.4-10.4-43.3-24.1-50.7-38.7-3.9-7.8-4.1-10.6-1.9-24.1 1.7-10.4 1.9-19.5.5-24.5-.5-1.9-1-3.8-1-4.3 0-.4-3-4.6-6.6-9.4-11.1-14.6-13.7-22.9-9.4-30.1 1.7-2.7 1.9-4.3 1.4-10s-.2-7.8 2.1-14.7c4.1-11.6 4.6-14.5 3.4-18.9-1.1-4-5.8-11.1-6.7-10.1-.3.3.2 1.3 1 2.2 5.1 5.9 6 13.1 2.7 21.5-1.1 2.9-2.7 7.5-3.4 10.3l-1.3 5-1.5-3.5c-.8-1.9-2.3-9.7-3.2-17.2-2.9-24.2.8-45.6 11.4-66.5 9-17.7 26-35.2 42.1-43.3 19.9-9.9 51.2-13.5 74.4-8.5zm-271.1 95.7c13.1 25 28.4 48.9 47.6 74.5 20.8 27.7 45.6 56.4 62.6 72.3 37.1 34.8 50 45.5 72.5 60.5 21.2 14.2 40.8 25.3 71.5 40.4 25.8 12.8 49.8 22.4 93.7 37.8 9.3 3.2 16.8 6 16.8 6.3 0 1.6-28.3 19.8-44.2 28.4l-8.7 4.7-8.8-3.6c-4.8-2-18-7.4-29.3-11.9-67.1-27.1-118.9-55.6-159.3-87.7-45.7-36.4-79.2-76.8-97.5-117.5-12.6-28-21.3-65.9-22.7-98.5-.3-6.8-.8-13.6-1-15.2-.3-1.5-.3-2.7-.1-2.7.3 0 3.3 5.5 6.9 12.2zm506.2 36c-8.2 41.5-22.6 78.2-41.7 106.6-29.5 43.7-85.3 87.8-148 116.9l-15.7 7.3-11.3-4.4c-6.2-2.4-20.5-8.9-31.7-14.6l-20.4-10.2 19.4-7.7c31.2-12.5 53.9-23.9 73.9-37.3 27.7-18.6 46.5-31.8 54.8-38.6 33.2-26.8 67.5-60.4 92.6-90.6 10-12 27.4-35.1 28.4-37.6 1.5-3.6 1.3 2.3-.3 10.2zM453.7 675.1c9.1 5.7 10.4 19.2 2.4 26.3-1.1 1.1-2.1 2.4-2.1 3 0 2.4 8.4 18.6 9.9 19 .9.3 11.1-1.5 22.6-3.9 20-4.2 21.1-4.3 23.2-2.7 1.2.9 9.1 7.4 17.5 14.3s18.6 15 22.5 17.9c4 3 6.9 5.7 6.5 6.1-.4.4-7.2 1.9-15.2 3.3-29.4 5.5-35.7 6.8-44.5 9.2-4.9 1.4-9.4 2.9-9.8 3.3-.5.5.6 4 2.3 7.8 2.9 6.4 3.5 7.2 8.1 9.3 6.6 3 10.1 8.2 10.7 15.8.3 4.8 0 6.2-1.9 8.6-6.1 7.8-21.8 8.8-26.8 1.7-5.1-7.2-4.8-16.7.8-23l3-3.3-2.5-5.6c-3.2-7.3-3.7-7.8-10.7-11.3-7.7-3.9-19.4-6.9-27.2-6.9-5.3 0-7.5.6-15.1 4.4-20.3 10-37.5 13.7-65.9 14.2-17.4.2-20.8.5-25.6 2.3-3 1.2-6.3 2.7-7.3 3.4-1.7 1.2-1.7 1.4.1 4.5 1.8 3.3 1.8 3.3-.6 5.3-6.5 5.4-21-2.3-24.2-12.9-1.6-5.4-.4-9.1 5.3-17.3 4.6-6.6 9.1-10.5 17.9-15.3 13.2-7.2 31.6-10.8 65.8-12.6 23.9-1.3 36.7-3.7 47.6-9 4.4-2.1 8.9-4.8 9.9-5.9 1.9-2.1 1.9-2.2-2.5-10.8-4.3-8.6-4.5-8.7-9.6-10.3-2.9-1-5.9-2.3-6.8-3-4.7-3.9-5.8-12.5-2.5-19 4.6-9 16-12.2 24.7-6.9zM835.9 701c10.1 5.1 12.9 17.9 5.7 25.7-2.2 2.4-4.3 3.5-7.1 3.9-2.2.3-5 .7-6.1.9-2.1.5-12.4 14.8-12.4 17.2 0 .7 1.9 2.7 4.3 4.6 12.9 10.5 25.5 15 61.7 21.8 30.7 5.8 53.6 16.1 63.9 28.9 4.2 5.3 9.3 16.2 9.4 20.3.1 5.5-4.4 12.1-10.5 15.1-11.1 5.6-22.6 1.1-15.8-6.2l2-2.1-4.3-2.9c-7.4-5.1-10.3-6.2-20.4-7.2-29.6-3.3-55.2-12.2-74.1-25.8l-7.7-5.5-10.5-.1c-17.8-.1-28 3.4-33.4 11.6-4.2 6.1-4.3 6.9-1.5 10.7 6.1 8.2.8 23.9-8.6 25.7-5.4 1-13.3-1.4-17.6-5.4-3.5-3.1-3.9-3.9-3.9-8.5 0-8.7 7.3-17.7 14.3-17.7 2.2 0 3.5-1.3 7.2-6.7 2.5-3.7 4.5-7.3 4.5-7.9 0-1.8-16.4-8.8-36.4-15.4l-18.7-6.2 12.3-7c6.8-3.9 18.5-11.2 26-16.4 7.5-5.2 14.3-9.4 15.1-9.4.7 0 7.6 2.2 15.3 5 7.6 2.7 14.6 5 15.4 5 .8 0 4.1-4 7.3-8.9l5.8-8.9-3-4.8c-3.8-5.9-4-11.2-.8-16.9 4.4-7.7 14.5-10.7 22.6-6.5zm-254.7 8c6.8 3.9 21 11.4 31.7 16.7l19.4 9.7-6.4 1.8c-3.5 1.1-19.4 5.2-35.2 9.2l-28.8 7.3-8.2-6c-16-11.7-42.4-33.7-40.4-33.7 1.3 0 54.4-11.4 55.4-11.9.1-.1 5.7 3.1 12.5 6.9z"/><path d="M594.8 452.5c-11.5 2.9-20.6 9.3-24.3 17.1-1.5 3.3-1.6 4.6-.7 9.5 2.3 12.6 6.6 17.1 16.9 17.7 5.7.4 7 .1 14-3.4 5.9-2.9 9.3-3.9 14.8-4.3 6.2-.5 7.7-1.1 12.3-4.4 6.6-4.9 8.2-7.2 8.2-12 0-8-5.1-15.4-13-18.9-5.9-2.7-20.3-3.3-28.2-1.3zm84.8 6c-7 2.5-12 8.6-13.2 16.4-.6 3.5-.2 4.7 2 8 4 5.7 9.5 9.7 14.6 10.6 5.3.9 10.6 3.4 17.5 8.3 7.9 5.6 17.6 5.7 24 .1 3.8-3.4 7.5-12 7.5-17.5 0-10.2-12.9-21.8-28.7-25.9-7.1-1.9-18.5-1.9-23.7 0zm-35.8 33c-4.3 2.9-7.6 8.2-11.3 18-1.4 3.8-3.4 8.1-4.3 9.5-2.6 3.9-2.3 16 .4 19.7 2.8 3.7 8 4.2 13.2 1.3l3.9-2.2 3.8 2.6c7.2 4.9 12.3 4.6 16.1-1.1 3.6-5.3 3.8-10.4.9-20.7-5.6-19.9-5.5-19.7-10.5-24.7-2.7-2.7-5.7-4.9-6.7-4.9s-3.5 1.1-5.5 2.5zm-69.4 54.1c1.8 4.8 3.6 15.5 3.6 21.8 0 4 .7 9.4 1.6 12.2 2.6 7.6 7 11.7 5.7 5.2-.6-2.9-.5-3.1 1.8-2.5l2.4.6-2.4-1.8c-2.2-1.7-2.3-2.1-1.2-5.4.7-2 1.7-3.8 2.4-4.1.9-.3.9-.5-.1-.5-1.5-.1-.8-3.5 2.1-10.4 2.8-6.8 1.8-8.4-8.3-12.9-5.8-2.7-8-3.3-7.6-2.2zm134.3 10.5c-4.9 1.5-9.5 3.3-10.3 4-1.5 1.3-1.9 7.5-.5 8.3.5.3.9 3.2 1 6.3.2 3.2.3 7.6.4 9.8.2 3.4-.1 4-2 4.3-1.7.3-2.2-.3-2.6-2.5l-.4-2.8-.2 2.7c-.1 2.5-1 3.2-3.2 3-.4-.1-.4.9-.1 2.1.5 1.8.7 1.9 1 .4.5-2.3 4.2-2.3 4.2.1 0 1-.6 2.4-1.2 3.2-1.1 1.2-1 1.2.5.1.9-.7 1.7-2.2 1.7-3.2 0-1.1.7-1.9 1.5-1.9 2 0 1.9 1.9-.2 4.2-1.3 1.5-1.4 1.8-.1 1.8 4.3 0 10.2-11.5 11.2-22 .6-6.3 1.5-8.3 8-18.3 2.2-3.2 2.4-3.2-8.7.4zm-118.6 24.1c-.1.9.4 2 .9 2.3.6.3 1 1.5 1 2.5s.4 2.1.9 2.4c.4.3.6-.6.3-1.9-.4-2.1-.1-2.5 2.2-2.5 2.1 0 2.6-.5 2.5-2.3-.1-1.5-.3-1.7-.6-.6-.2.9-1.5 1.9-2.9 2.2-1.9.3-2.8-.1-3.4-1.7-.7-1.6-.9-1.7-.9-.4zm8.1 4c-1.4 1.4-1.6 4.8-.4 4.8.5 0 .8-1 .8-2.3-.1-1.6.5-2.2 1.9-2.2 1.6 0 2 .6 1.8 2.8-.1 1.5.2 2.5.8 2.2 2.2-1.4.2-6.5-2.6-6.5-.6 0-1.6.5-2.3 1.2zm8.4.6c1.2.9 2.4 2.4 2.7 3.2.4 1.2.6 1.1.6-.3.1-.9.6-1.7 1.3-1.7 1.9 0 .3-1-3.3-2-3.3-.9-3.4-.9-1.3.8zm80.9.8c-.4 1.6-1.1 4.4-1.5 6.1-.5 1.8-.5 3.3-.1 3.3.8 0 3.3-11.1 2.6-11.8-.2-.2-.7.9-1 2.4zm-73.5.2c0 .5.7 1.3 1.6 1.6 1 .4 1.3 1.3 1 2.8l-.6 2.3 1.1-2.3c1.3-2.4 6.4-3.2 7.1-1 .3.7.7.6 1.1-.5.6-1.7-1.5-2.3-6.6-1.7-1 .1-2.5-.4-3.3-1-.8-.8-1.4-.8-1.4-.2zm29.4 2.4c-.3.4-.9.6-1.3.4-.9-.6-.7 3.1.2 4 .4.4.7-.2.7-1.4 0-1.6.7-2.1 3.3-2.4l3.2-.3-2.8-.6c-1.5-.4-3-.2-3.3.3zm14.6 1.3c.6.8.9 2.4.5 3.7-.5 2-.5 2.1.5.5.7-1 .9-2.4.6-3.2-.3-.8 0-1.6.7-1.9.7-.2.1-.5-1.2-.5-1.9-.1-2.1.2-1.1 1.4zm19.1-.2c-1.3.6-2.8 2.2-3.2 3.5-.6 1.5-.5 2.1.1 1.7.6-.3 1-1.3 1-2.1s1.1-1.9 2.5-2.4 2.5-1.2 2.5-1.5c0-.7-.2-.7-2.9.8zm4.5-.2c.3.5.1.9-.5.9-.5 0-.8 1.1-.6 2.5.4 3.8 1.5 4.3 1.5.7 0-2.1.5-3.2 1.8-3.4 1.4-.3 1.3-.5-.6-1-1.2-.3-2-.2-1.6.3z"/></g><path fill="#666" stroke="#666" stroke-width=".1" d="m732 542.7-5.5 5.8 5.8-5.5c5.3-5 6.2-6 5.4-6-.1 0-2.7 2.6-5.7 5.7zm112 4.8c-2.4 2.5-4.2 4.5-3.9 4.5.3 0 2.5-2 4.9-4.5 2.4-2.5 4.2-4.5 3.9-4.5-.3 0-2.5 2-4.9 4.5zm-232 33.4c0 1.1.4 2.3 1 2.6.6.4.7-.1.3-1.1-.4-1.2-.3-1.5.5-1s1 .2.6-.8c-.9-2.2-2.4-2-2.4.3zm58 3.6c0 .8.5 1.5 1.1 1.5.5 0 .7.5.3 1.2-.4.6-.3.8.4.5 1.2-.8.4-4.7-.9-4.7-.5 0-.9.7-.9 1.5zm-77 .9c0 .8-.5 1.6-1 1.8-.6.2-.1.9 1.1 1.6 1.7 1.1 2 1.1 1.3 0-.5-.7-.7-2.1-.6-3.1.2-.9.1-1.7-.2-1.7-.3 0-.6.6-.6 1.4zm36.5.5c.3.5-.3 1.2-1.2 1.4-1 .3-.6.4 1 .4 3-.1 3.6-1.2 1.1-2.1-.8-.3-1.2-.2-.9.3zM356.3 782.7c2.6.2 6.7.2 9 0s.2-.3-4.8-.3c-4.9 0-6.8.1-4.2.3z"/><path fill="#818181" fill-opacity=".42" stroke="#818181" stroke-opacity=".42" stroke-width=".1" d="M1152.4 536c0 9.1.2 12.8.3 8.2.2-4.5.2-11.9 0-16.5-.1-4.5-.3-.8-.3 8.3z"/><path fill="gray" fill-opacity=".42" stroke="gray" stroke-opacity=".42" stroke-width=".1" d="M1153.4 628c0 11.3.2 15.9.3 10.2.2-5.6.2-14.8 0-20.5-.1-5.6-.3-1-.3 10.3z"/><path fill="#CCC" stroke="#CCC" stroke-width=".1" d="M653.3 345.7c1.5.2 3.9.2 5.5 0 1.5-.2.2-.4-2.8-.4s-4.3.2-2.7.4zm106 104.3c0 3.6.2 5 .4 3.2.2-1.7.2-4.7 0-6.5-.2-1.7-.4-.3-.4 3.3zm-134 79.5c0 2.2.2 3 .4 1.7.2-1.2.2-3 0-4-.3-.9-.5.1-.4 2.3zM835 623.7l-6.5 6.8 6.8-6.5c3.7-3.5 6.7-6.6 6.7-6.7 0-.8-1 .2-7 6.4z"/><path fill="#999" stroke="#999" stroke-width=".1" d="m851.9 539.7-3.4 3.8 3.8-3.4c3.4-3.3 4.2-4.1 3.4-4.1-.2 0-1.9 1.7-3.8 3.7zm-16 16-3.4 3.8 3.8-3.4c3.4-3.3 4.2-4.1 3.4-4.1-.2 0-1.9 1.7-3.8 3.7z"/><g fill="#FFF" stroke="#FFF" stroke-width=".1"><path d="M636 347.1c-28.6 3-47.3 12.7-64.8 33.6-19.9 23.7-28.1 53.6-23.8 86.7 1.7 13.1 2.9 17.6 4 14.6.3-.8 1.7-4.7 3.1-8.5 3.8-10 3.7-15.3-.4-21.1-3.2-4.7-3.4-6.7-.3-4.8 2.8 1.8 6.2 9.4 6.2 13.8 0 2.3-1.4 8.2-3.1 13.1-2.8 7.9-3.1 9.9-2.6 16.5.4 6.4.2 7.9-1.4 9.9-2.7 3.3-2.5 11.5.4 17.2 3.5 6.9 13.6 19.8 18.1 23.1 2.3 1.7 6.1 3.9 8.6 5 13.1 5.7 14.4 7.3 11.1 14.2-3.1 6.6-3.4 9.3-1.3 11.4 1.4 1.4 2.2 1.6 3.5.8 1.3-.8 2.1-.6 3.4.6 1.5 1.6 1.7 1.6 2.8.1 1.5-2.1 4.2-1.1 5.5 1.9.5 1.3.9 1.8.9 1.1.1-.6.8-1.9 1.7-2.7 1.8-1.8 5.4-.5 5.4 1.9 0 2.2 1.4 1.8 2.5-.8 1.5-3.4 5.3-3.5 6.6 0l1.1 2.8 1-2.8c.5-1.5 1.6-2.7 2.3-2.7 2.4 0 4.5 1.2 4.5 2.6 0 .8.5 1.4 1 1.4.6 0 1-.9 1-2 0-2.3 4-4.6 6.5-3.7.8.4 1.8 2 2.1 3.7.7 3.4 2 3.9 2.9 1.1.3-1 1.4-2.6 2.4-3.5 2.6-2.4 5.6-.7 6.5 3.6l.6 3.2 1.6-2.3c2.3-3.2 5.8-2.5 6.2 1.3l.4 2.9 2.3-2.9c2-2.4 2.7-2.7 4.2-1.8 1 .6 1.9 2.1 2.1 3.3.4 2.6 1.4 2.7 3 .1s3.8-2.5 5.3.2c1 1.9 1.2 1.9 2.1.5 1.3-2.4 4.7-2.1 5.7.5.8 2 1 2.1 1.6.5.8-1.9 4-2.3 5-.6.5.7 1.4.4 2.7-.8 2.1-1.8 2.1-4.3.2-14.1-.9-4.6 1.3-6.6 9.4-8.8 13.1-3.4 20-7.3 28.5-16.3 11.1-11.7 13.5-17.8 10.2-25.8-1.3-3.1-1.3-4 0-8 1.9-5.6 1.9-9.2-.1-18.9-2.2-10.4-1.5-16.5 2.3-21.1 3.3-4.1 5.9-6 6.9-5.1.3.4-1.2 2.8-3.5 5.4-3.7 4.2-4.1 5.2-4.1 9.8 0 5.2 2.3 19.3 3.4 20.3.8.8 2.3-3.4 5.8-16.2 3.6-13.4 4.9-35.3 2.8-48.3-5.1-32-24.7-60.4-50.6-73.5-5.7-2.9-21.4-8.3-27.1-9.3-2.1-.3-6.3-1.3-9.3-2-5.9-1.5-22.5-1.7-35-.3zM622.8 453c2.6 1.2 6.2 3.5 8 5.3 5.8 5.6 7.6 17.1 3.3 22.1-.9 1-4.3 3.6-7.5 5.8-5.1 3.3-6.7 3.8-11.6 3.8-4.5 0-7.2.8-13.9 4-9.5 4.6-15 5.1-21.8 2.1-4.6-2.1-6.5-4.5-8.8-11.1-4.5-12.7 0-22.2 13.8-29.1 12.1-6.2 28.4-7.4 38.5-2.9zm79.6 4.5c14.5 3.8 26.9 13.4 29.6 22.8 1.1 4.3 1.1 5.5-.4 10.2-1.9 6.2-5 11-8.9 13.9-2.3 1.7-4.3 2.1-9.6 2-6.4 0-7.1-.3-14.4-5.2-7.4-4.9-12.8-7.2-17.1-7.2-3 0-9.3-4.8-13.1-10-3.4-4.6-3.5-4.9-2.5-9.9 1.2-6.2 2-7.8 5.7-11.2 3.1-2.9 6.3-4.7 10.2-6 4.3-1.3 14.4-1 20.5.6zm-47.7 34.1c1.7 1.3 4.1 4 5.4 6.1 2.8 4.5 8 22 8.6 29.2 1.4 14.9-8.1 22.1-19 14.4l-4.2-2.9-4 2.3c-7.3 4.1-12.1 2.5-15-5.2-2-5.1-1.4-12.1 1.4-17 1-1.7 3-6.2 4.4-10.1 3.8-9.9 7.9-15.9 12.4-18.2 4.1-2.2 5.3-2 10 1.4zm-257.2-49c3 46 11.6 81.4 27.2 112.9 19.2 38.5 54.6 79 98.8 113 42 32.3 89.4 57.7 162.5 87 9.1 3.7 19.4 7.8 22.8 9.3l6.4 2.6 8.1-4.4c18.2-9.7 45-27.6 42.6-28.4-13-4.5-63.7-23.1-73.4-26.9-14.7-5.8-57.4-26.8-77.5-38.3-28.5-16.1-54.5-35-77-55.8-29.3-27.1-34.2-31.9-42.6-41.1-36.7-40-68.9-84.6-90.9-125.5-3.7-6.9-6.9-12.7-7.1-12.9-.2-.3-.2 3.5.1 8.5z"/><path d="M904.2 478.4c-6.9 9.8-22.9 29.8-33.8 42.1-27.9 31.6-72.1 72-98 89.8-5.5 3.8-16.4 11.3-24.4 16.8-18.9 13.1-32.2 21-49.8 29.8-14.4 7.2-40.1 18.3-49.9 21.5-2.9 1-5.3 2.1-5.3 2.5 0 1.1 41.9 21.2 52.1 25l8.6 3.3 6.4-2.7c11.5-4.9 37.8-18.4 51.2-26.5 35.5-21.2 69.6-49.4 91.7-75.7 20.1-24.1 36.6-55.3 46.6-88.3 4.8-15.6 11.4-45 10.2-45-.3 0-2.7 3.3-5.6 7.4zm-334.8 65.1c1.8 4.7 1.7 14.5-.3 26.9-2 12.5-2 13-.2 18 5.9 16.9 23.8 31.5 54.2 44.1 5.1 2.2 8.6 2.8 17.5 3.2 10.2.5 11.9.3 22-2.5 28.1-7.9 46.5-19.6 54-34.4 2.2-4.3 2.4-6 2.4-18.6 0-12.6 1-19.8 3.6-26.6 1.5-4-3.3.3-7.4 6.6-3.5 5.3-4.3 7.7-5.3 14.3-1.2 9.1-4 16.3-7.5 19.6-2 1.9-3.6 2.3-10.3 2.4-4.3.1-8.4.6-9.1 1-.7.4-1.6.2-2.1-.6-.6-1-.9-1.1-.9-.2 0 1.6-3.2 1.7-4.8.1-.9-.9-1.6-.8-3 .5-2.2 2-3.9 2.2-4.4.5-.3-.9-.9-.8-2.2.4-2 2-4.3 1.4-5.2-1.4-.6-2-.6-2-2.5.1-2.3 2.5-4.7 2.7-5.6.6-.5-1.4-.7-1.4-2.4 0-2.1 2-5.4 1.2-7-1.7l-1.1-2-1.4 2.1c-2 2.8-6.2 2.8-7.3-.1-.6-1.8-.9-1.9-1.4-.5-.9 2.5-4.6 2.1-5.8-.7l-1.1-2.3-2.5 2.5c-2.6 2.6-2.6 2.6-4.2.5-1.3-1.6-2-1.8-3.4-.9s-2.1.6-3.6-1.3c-1.2-1.6-2.1-2-2.5-1.2-.9 1.3-4.6 1.5-4.6.1 0-.5-.7-.7-1.5-.4-.8.4-2.2.1-3-.6-.8-.6-1.9-.9-2.5-.5-.6.4-1.7.2-2.4-.4-.7-.6-2-.9-2.9-.5-.8.3-1.8.1-2.1-.5-.4-.6-1.3-.8-2.1-.4-5.3 2-10.4-9.8-10.6-24.1-.1-10.3-2.5-19.3-5.9-21.5-2.3-1.5-2.4-1.5-1.6.4z"/><path d="M636.3 571.8c-1.4.9-4.6 11.9-3.8 13.2.3.5 2.4 1 4.6 1h3.9v-4.4c0-4.4-1.7-10.6-2.8-10.6-.4 0-1.2.4-1.9.8zm-49.3 2.6c-1.4 3.7-1 6 1.1 6.4 2.1.4 3.1-5.2 1.3-7.6-1.1-1.5-1.4-1.4-2.4 1.2zm59.6-.2c-1.9 3-3.9 10.6-3.1 11.8.3.6 2.7 1 5.2 1h4.5l-.7-5.8c-1.1-9-3.1-11.3-5.9-7zm-46.9 2.7c-2.2 5.3-2.2 5.1 1.3 5.1 2.6 0 3-.4 3-2.8 0-1.6-.6-3.6-1.3-4.6-1.3-1.7-1.5-1.5-3 2.3zm16.7-.4c-2.8 6.8-.9 11.9 3.6 9.5 1.9-1 2.1-1.7 1.5-5.3-1.4-8.9-2.7-9.9-5.1-4.2zm-23.4-2.2c0 .1-.4 1.7-.9 3.5-.9 3-.8 3.2 1.5 3.2 2.1 0 2.4-.5 2.4-3.5 0-2.4-.5-3.5-1.5-3.5-.8 0-1.5.1-1.5.3zm14.1 3.8c-1.4 4.7-.5 6.5 2.8 5.4 3.3-1 2.5-9.5-.9-9.5-.4 0-1.2 1.9-1.9 4.1zm17.5 1c-.9 2.9-1.6 5.4-1.6 5.6 0 .2 1.6.3 3.6.3h3.5l-.3-5.2c-.2-4-.7-5.4-2-5.6-1.3-.2-2.1 1-3.2 4.9zm32-2.3c-.3.5-.8 2.8-1.2 5.1-.7 4.5.2 6.1 3.9 6.1 1.4 0 1.7-.9 1.7-4.4 0-2.4-.3-5.1-.6-6-.7-1.7-2.9-2.2-3.8-.8zm8.6 2.9C662.4 587 663 590 667 590c2 0 3-1.9 3-5.8 0-7-2.9-9.6-4.8-4.5zm8.7 2c-1.5 3.9-.7 5.8 2.5 6.1 2.8.3 2.9.2 2.2-2.8-.3-1.8-.6-3.9-.6-4.6 0-2.5-3-1.5-4.1 1.3zm9.2-1.4c-.6.9-1.3 2.8-1.4 4.4-.2 2.4.2 2.8 2.6 3.1 2.8.3 2.9.2 2.2-3-1.1-5.2-1.9-6.2-3.4-4.5zm13.1.9c-.7.7-1.2 2.5-1.2 4 0 2.1.5 2.8 2 2.8 1.6 0 2-.7 2-3.4 0-3.9-1.1-5.1-2.8-3.4zm-6.6 1.4c-1.3 3.5-.7 5.4 1.9 5.4 2.6 0 2.9-.9 1.9-4.8-.7-2.5-2.9-2.9-3.8-.6zm-104.1.4c-.3.5-.1 1.8.4 2.7.9 1.6 1 1.4 1.1-1 0-2.8-.5-3.4-1.5-1.7zm3.5 1.9c0 1.1.5 2.3 1 2.6.6.3 1 .2 1-.4 0-.5.3-1.6.6-2.5.4-1.1.1-1.6-1-1.6-.9 0-1.6.8-1.6 1.9zm5.2.5c.2 1.5.8 2.6 1.3 2.6 1.5 0 1.2-4.3-.3-4.8-1-.3-1.3.4-1 2.2zm5 1.8c.5 3.2 2.8 3.5 2.8.4 0-1.7-.5-2.6-1.6-2.6-1 0-1.4.7-1.2 2.2zm5.3.5c.2 1 .4 2.1.4 2.5.2 1.7 2.9.7 3.4-1.1.6-2.3 0-3.1-2.4-3.1-1.1 0-1.6.6-1.4 1.7zm6.5.7c0 3.2 2.8 5.6 4.1 3.5 1.4-2.1.7-4.1-1.8-5-2-.7-2.3-.5-2.3 1.5zm8 3.2c0 4.4 1.8 4.2 3.7-.4 1.3-3.1 1.2-3.2-1.2-3.2-2.2 0-2.5.4-2.5 3.6zm7-1.8c0 1 .6 2.7 1.4 3.7 1.2 1.6 1.6 1.7 3 .6.9-.7 1.6-2.4 1.6-3.7 0-2-.5-2.4-3-2.4-2.2 0-3 .5-3 1.8zm8.7-.1c-2.2 2.1.5 8 2.9 6.5 1.3-.8 3.4-4.6 3.4-6.1 0-1.2-5.2-1.5-6.3-.4zm8.3.8c0 2.7 2.3 6.5 4.1 6.5 3.4 0 4-6.5.7-7.4-3.6-.9-4.8-.7-4.8.9zm9 1.3c0 1 .7 2.7 1.5 3.8 1.5 1.9 1.5 1.9 3 0 2.5-3.3 1.9-5.6-1.5-5.6-2.2 0-3 .5-3 1.8zm30.6-1.1c-1.1 1.1-.6 5.5.6 5.1 1.8-.6 2.9-4.6 1.3-5.1-.7-.3-1.6-.3-1.9 0zm4.9 1.4c-.4 1.1-.4 2.3-.1 2.6.8.9 3.6-1.7 3.6-3.3 0-2.2-2.8-1.6-3.5.7zm5.5.6c0 2.5.1 2.6 1.6 1.1.9-.9 1.3-2.1 1-2.7-1.3-2-2.6-1.1-2.6 1.6zm-32 .7c0 2.5 2.2 5.1 3.3 3.9.4-.3.7-1.9.7-3.5 0-2.1-.5-2.8-2-2.8-1.4 0-2 .7-2 2.4zm7.7-1.7c-1.1 1-.8 4.1.3 4.8 1.5.9 4-1.4 4-3.6 0-1.9-2.9-2.7-4.3-1.2zm7.3 1.7c0 3.3 1.6 4.2 2.9 1.7 1.6-2.9 1.3-4.1-.9-4.1-1.5 0-2 .7-2 2.4zm-239 81.8c-6.3 3.2-9 7.6-9 14.9 0 7.6 3.1 11.5 10.5 13.3 5 1.2 5 1.3 9.7 10.3l4.8 9.1-2.1 2.6c-2.8 3.6-14.7 9.1-24.8 11.5-7.9 1.9-15.5 2.7-50.1 5.1-38.6 2.7-60.2 12.8-70.4 32.7-4 8 0 17.5 9.6 22.4 3.7 1.9 9.2 2.5 12.2 1.3 2-.8 2-3.8.1-6.8-1.5-2.2-1.4-2.4.7-3.8 1.3-.8 5-2.5 8.3-3.6 5.1-1.8 9.1-2.2 27-2.6 28.8-.6 44.5-4.1 65-14.4 8.9-4.4 9-4.5 16.7-3.9 8.5.7 20.7 4.4 27.5 8.4 6.6 3.9 12.9 17.1 8.8 18.6-2.2.9-5.5 8.2-5.5 12.5 0 4.8 3.8 12.3 7.1 13.9 3.2 1.7 12.2 1.6 16.2-.1 3.7-1.6 7.2-5.1 8.2-8.4 2-6.7-4.8-18.5-11.4-19.8-2.8-.6-3.7-1.7-7.1-8.4-2.1-4.2-3.5-8.1-3.2-8.8 1.6-2.5 17.6-6.6 45.2-11.6 28.6-5.2 26.9-3.8 14.8-12.8-5.7-4.2-16.6-12.9-24.2-19.2-7.7-6.4-14.2-11.6-14.5-11.6-.3.1-10 2-21.6 4.4-11.5 2.4-21.5 4.1-22 3.9-1.2-.4-10.5-18.6-10.5-20.4 0-.6 1.2-2 2.6-3.2 5.7-4.4 6.9-12.5 2.9-19.4-4.7-7.9-13.2-10.3-21.5-6.1zm385.5 25.3c-2.2.8-4.1 1.5-4.2 1.5-.2 0-1.6 1.9-3.3 4.2-4.2 5.7-4.2 12.5 0 18.6l2.9 4.4-6 9c-3.3 4.9-6.6 9.1-7.2 9.4-.7.2-8.1-2.1-16.5-5.1l-15.4-5.5-11.1 7.8c-12.9 9-21 14.1-31.9 20.1-4.3 2.3-7.8 4.4-7.8 4.6 0 .2 7.1 2.6 15.8 5.5 18.3 6 37.2 13.7 37.8 15.5.3.7-1.5 4.4-4 8.3-4.2 6.4-5 7.1-8.7 7.7-7.7 1.3-15.1 12-13.4 19.4 1.3 6 9.8 11.1 18.4 11.1 4.4 0 5.2-.4 8.4-3.9 5.5-6.1 6.3-16.7 1.8-21.5-2.8-3-2.7-3.8 1.9-10.6 3.4-5 4.8-6.1 9.6-8 9.1-3.3 14.8-4.2 25.7-3.8l10.2.3 8.3 5.8c19.8 13.7 42.4 21.6 71.2 24.8 8.7.9 11.7 1.7 17.2 4.6 6.4 3.4 11.3 7.3 9 7.3-.6 0-1.8 1.3-2.7 2.9-2.1 4.2-.1 6.1 6.8 6.1 8.9 0 16-4.8 18.8-12.9 2.4-7-5.7-22.6-16-30.7-13.2-10.4-29.1-16.2-62.2-22.8-22.7-4.5-38.1-9.2-46.3-14-6.8-4-14.5-10.4-14.2-11.9.1-.8 2.6-5.1 5.5-9.6 4.4-6.7 5.8-8.1 8-8.1 8 0 14.4-4.7 15.7-11.5 2.4-12.8-10.1-23.4-22.1-19zm-262 4.2c-3.3.8-15.1 3.3-26.3 5.7l-20.2 4.2 3.2 3.1c5 4.6 33.6 27.3 39.8 31.5l5.5 3.7 25-6.3c25.4-6.4 40.4-10.5 41.7-11.3.5-.2-6.3-3.9-15-8.2-8.6-4.3-22.3-11.5-30.4-16-8.1-4.4-15.3-8.1-16-8-.7.1-4 .8-7.3 1.6z"/></g></svg>