<svg xmlns="http://www.w3.org/2000/svg" version="1.0" viewBox="0 0 512 512"><path fill="none" d="M281.4 59c0 18.4.2 26 .3 16.7.2-9.2.2-24.2 0-33.5-.1-9.2-.3-1.6-.3 16.8zM239 117.2c0 .5 6 .7 13.3.6 13.3-.2 11.7-.5-4.6-1-4.8-.2-8.7 0-8.7.4zm42.9.1c.4.4 6.6.6 13.7.5l12.9-.3-13.7-.5c-7.5-.3-13.4-.1-12.9.3zM406 164.8l.5 10.7.3-9.9c.1-5.5-.1-10.3-.5-10.7-.4-.5-.6 4-.3 9.9zm-124.7 71.7c0 2.7.2 3.8.4 2.2.2-1.5.2-3.7 0-5-.2-1.2-.4 0-.4 2.8zm-214 11.2c2 .2 5.4.2 7.5 0 2-.2.3-.4-3.8-.4s-5.8.2-3.7.4zM281.4 388c0 6.9.1 9.7.3 6.2.2-3.4.2-9 0-12.5-.2-3.4-.3-.6-.3 6.3z"/><path fill="#A50" fill-opacity=".01" stroke="#A50" stroke-opacity=".01" stroke-width=".1" d="M265.3 111.5c0 2.2.2 3 .4 1.7.2-1.2.2-3 0-4-.3-.9-.5.1-.4 2.3zm-150 3c0 3.3.2 4.5.4 2.7.2-1.8.2-4.5 0-6s-.4 0-.4 3.3zm-.5 115.2c-.2.5-.1 2.4.3 4.3.7 3.5.7 3.5.6-.8-.1-4.2-.3-4.8-.9-3.5zm150.5 7.3c0 2.5.2 3.5.4 2.2.2-1.2.2-3.2 0-4.5-.2-1.2-.4-.2-.4 2.3zM70 313.6c3.7.8 8.8.9 8.4.2-.3-.4-2.6-.7-5.2-.7-2.6.1-4 .3-3.2.5zm17.6.2c-.2.4 1.2.6 3.2.4 6.2-.6 6.9-1 2-1.1-2.6 0-4.9.3-5.2.7zM265.4 388c0 6.9.1 9.7.3 6.2.2-3.4.2-9 0-12.5-.2-3.4-.3-.6-.3 6.3zm-25.1 104.7c6.5.2 16.8.2 23 0 6.2-.1.9-.3-11.8-.3-12.6 0-17.7.2-11.2.3z"/><path fill="olive" fill-opacity=".01" stroke="olive" stroke-opacity=".01" stroke-width=".1" d="M68.3 326c0 5.3.1 5.3.4.8l.4-4.7 4.7-.3 4.7-.3-5.1-.5-5.1-.5v5.5zm106 2c0 2.5.2 3.5.4 2.2.2-1.2.2-3.2 0-4.5-.2-1.2-.4-.2-.4 2.3z"/><path fill="#930" stroke="#930" stroke-width=".1" d="m270.2 22.6-2.2 1.5V94h7V57.5c0-38.9.1-38.3-4.8-34.9zm-2.2 88.9v6.5h7v-13h-7v6.5zm0 125v6.5h7v-13h-7v6.5zm-163.7 88c0 2.7.2 3.8.4 2.2.2-1.5.2-3.7 0-5-.2-1.2-.4 0-.4 2.8zm331.1 8.9c-.3.7-.4 3.5-.2 6.2l.3 4.9.5-6.3c.5-6.3.4-7.3-.6-4.8zm-3.4 6.4.5 5.7.3-4.9c.2-2.7 0-5.2-.5-5.7-.4-.4-.6 1.8-.3 4.9zM56.6 350.7c.3 2.7.8 5 1.1 5.2.4.5 117.3-2.6 128.2-3.4 3.5-.2 6.6-.6 6.8-.8.2-.2-.1-1.6-.6-3.1L191 346H55.9l.7 4.7zm379.9 3.8-18 7.4 17.7.1h17.6l1.6-6.9c.9-3.9 1.6-7.2 1.6-7.5 0-1.2-3.1-.2-20.5 6.9zM406 366.6c-3.6 1.4-6.6 2.7-6.8 2.8-.1.2 1.9.1 4.6-.2 5.3-.5 9.3 1 12.6 4.7 1.8 2 2.9 2.1 17.6 2.1h15.6l1.7-5.3c.9-3 1.7-5.7 1.7-6 0-.4-9.1-.7-20.2-.6-19.2 0-20.7.2-26.8 2.5zm-16 6.3-6.5 2.6 4.3.3c3.6.3 4.7-.1 7.3-2.7 3.6-3.6 3.4-3.7-5.1-.2zm-267.3 3c1.2 8.9-3 16.5-11.2 20.2-5.5 2.5-10.3 2.4-15.9-.5l-4.8-2.4 2.8 2.9c6.8 7.1 20.4 7 27.1-.3 4.4-4.7 7.2-16.5 4.3-18.3-.5-.3-1-1.5-1-2.5s-.4-2.1-.9-2.4c-.5-.4-.7 1.1-.4 3.3zm54.1.1c.6 6.3-.6 10.7-4.1 14.7-6.4 7.2-14.9 9-23.1 4.9l-4.8-2.4 2.8 2.9c6.8 7.1 20.4 7 27.1-.3 3-3.1 5.3-9 5.3-13.1 0-2.9-2.4-10.7-3.3-10.7-.1 0-.1 1.8.1 4zm95-2.3-3.8.4V403h7v-14.4c0-14.2 0-14.5 2.3-14.9 1.7-.3 1.8-.4.2-.4-1.1 0-3.7.2-5.7.4zm103 5.4c-3.3 1.5-5 2.9-5.7 5l-1 2.9h10.2c5.6 0 10.7-.4 11.3-.8.6-.4 1.1-2.6 1.3-5l.2-4.2h-5.8c-3.6.1-7.6.8-10.5 2.1zm44.7 1.9c1.9 11.2-10.6 20.5-20.8 15.4l-3.2-1.6 2.6 2.7c5.4 5.6 15.1 5.1 20.7-1 3.1-3.4 3.3-4.1 3-9.1-.3-6.2-1.3-5.5 11-7.8 4-.8 7.6-1.7 7.9-2 .4-.3-4.4-.6-10.6-.6h-11.3l.7 4zm-53.4 12.4c-.6 2.4-1.3 5.1-1.7 6-.5 1.3.1 1.6 4 1.6h4.6l2.9-6 2.9-6h-11.6l-1.1 4.4zm-3.8 11.3-2 2.8-20.9.6c-31.7 1-116.4 1-120.7 0-3.2-.8-3.8-.7-3.3.6.3.8.6 1.7.6 1.9 0 .2 34.2.4 76 .4h76l2-4c1.1-2.1 2-4.2 2-4.5 0-.3-1.7-.5-3.8-.5-3 0-4.3.6-5.9 2.7zM218 413.8c0 .5 1.1 1.9 2.5 3.2l2.4 2.3 38.8.5c54.3.6 96.1-1.7 103-5.7 1.3-.7-19.3-1-72.4-1.1-40.9 0-74.3.4-74.3.8z"/><path fill="none" d="M354 260.6c0 .5.9 1.7 2 2.7 1.1.9 2 1.3 2 .8 0-.4-.9-1.6-2-2.6s-2-1.4-2-.9zm20.3 50.9c0 3.8.2 5.3.4 3.2.2-2 .2-5.2 0-7-.2-1.7-.4-.1-.4 3.8z"/><path fill-opacity=".01" stroke="#000" stroke-opacity=".01" stroke-width=".1" d="M89.8 223.7c3.4.2 8.8.2 12 0 3.1-.2.3-.3-6.3-.3s-9.2.1-5.7.3zm49.5 0c2.6.2 6.7.2 9 0s.2-.3-4.8-.3c-4.9 0-6.8.1-4.2.3zm90 0c2.6.2 6.8.2 9.5 0 2.6-.2.4-.3-4.8-.3s-7.4.1-4.7.3zm34 87.8c0 2.2.2 3 .4 1.7.2-1.2.2-3 0-4-.3-.9-.5.1-.4 2.3zm103.6 34.8c.4.4 5.7.6 11.7.5l10.9-.3-11.7-.5c-6.4-.3-11.4-.1-10.9.3z"/><g fill="#C60" stroke="#C60" stroke-width=".1"><path d="M275 57.9c0 35.4 0 35.9 2 35.4s2-1.4 2-34.7c0-33.7-.3-36.6-3.2-36.6-.4 0-.8 16.2-.8 35.9zm-157 50.6c-.5 1.4-1 5.1-1 8 0 4.4.3 5.3 1.5 4.9 1.1-.5 1.5-2.4 1.7-7.8l.2-7.1.6 7 .7 7-.1-6.9c-.1-7.5-1.8-9.9-3.6-5.1zm126-1.3c-1.4.5-8.8 3.2-16.5 5.9l-14 4.9h8.1c7.2 0 9.8-.6 23.5-5.3 8.5-3 16.1-5.6 16.9-6 .8-.3-2.3-.5-7-.6-4.7 0-9.6.5-11 1.1zm31 4.8c0 5.3.2 6 2 6s2-.7 2-6-.2-6-2-6-2 .7-2 6zm18.5-2.1c6.1 2.1 11.7 4.1 12.5 4.4 9.3 3.4 11 3.8 18.2 3.5l7.7-.3-16.7-5.8c-15.1-5.1-17.6-5.7-24.7-5.6h-8l11 3.8zm-173.9 16.3c.5.8.2.9-.9.5-1-.3-1.7-.2-1.7.3s-.7.6-1.7.3c-1.2-.5-1.4-.3-.8.7.6 1 .4 1.2-.9.7-1-.4-1.5-.3-1.1.3.3.6-.4.9-1.7.8-1.3-.1-8.8 2-16.7 4.8l-14.3 4.9 5.8.3c5.5.3 14-2.1 29.7-8.3 1.5-.6 1.7-.1 1.7 4.4 0 4.1.3 4.9 1.5 4.5 1-.4 1.5-2.1 1.5-5.4 0-4.1.3-4.9 2.2-5.3 1.2-.4 2.5-.2 2.8.2.3.5 4.8 2.3 10 4.1 5.2 1.7 10.9 3.8 12.7 4.6 1.7.8 6 1.4 9.5 1.3 7.3 0 7.4 0-9.5-6-6.6-2.3-13-4.2-14.3-4.2-1.3 0-2.4-.3-2.4-.8s-.7-.5-1.7-.2c-1.1.4-1.4.3-.9-.5.5-.8.2-1-.8-.6-.9.3-1.6.1-1.6-.5s-.7-.8-1.7-.4c-1.1.4-1.4.3-.9-.5.5-.8-.2-1.2-1.9-1.2s-2.4.4-1.9 1.2z"/><path d="M121.3 135c0 2.5.2 3.5.4 2.2.2-1.2.2-3.2 0-4.5-.2-1.2-.4-.2-.4 2.3zm278.5 29c.3 11.1.5 12 2.3 12 1.8 0 1.9-.8 1.9-10.8 0-7.1-.4-11.2-1.2-12-2.8-2.8-3.3-1.1-3 10.8zm-.2 18.2c.5.8.2.9-.9.5-1-.3-1.7-.2-1.7.4 0 .5.7 1.2 1.5 1.5.9.4 1.5 1.9 1.5 4 0 2.7.4 3.4 2 3.4s2-.7 2-3.5v-3.4l9.8 3.4c5.8 2.1 11.5 3.5 14.2 3.4h4.5l-5-1.8c-2.7-1-7.6-2.8-10.8-3.9-3.2-1.2-6.5-1.8-7.4-1.5-1.2.5-1.4.3-.8-.7.6-1 .4-1.2-.8-.7-1 .3-1.7.2-1.7-.3s-.7-.6-1.7-.3c-1.1.4-1.4.3-.9-.5.5-.8-.2-1.2-1.9-1.2s-2.4.4-1.9 1.2zm-5.1 1.8c.6 1 .4 1.2-.8.7-.9-.3-6.4 1.1-12.4 3.1-10.4 3.6-10.6 3.7-6.6 4 2.9.2 7.1-.7 13.3-3 8.4-3 10.3-4.5 7-5.6-.8-.3-1 0-.5.8zm-276.2 38.7c1.5.2 3.9.2 5.5 0 1.5-.2.2-.4-2.8-.4s-4.3.2-2.7.4zm.7 1.4c-6.8.5-11.7 1.8-24.5 6.4-8.8 3.1-17.1 6.1-18.5 6.5-1.8.6-.5.9 4.7.9 6.1.1 9.1-.6 21.3-4.9 7.8-2.8 14.5-5 14.8-5 .4 0 .5 2.5.4 5.5-.3 4.7-.2 5.4 1.2 4.9 1.2-.5 1.6-2 1.6-5.9 0-4.6.3-5.3 2.2-5.8 1.2-.4 2.5-.2 2.8.3.3.4 5.2 2.5 11 4.5s12.4 4.3 14.8 5.1c2.6.9 6.8 1.4 10.9 1.2l6.7-.3-19-6.4c-10.4-3.5-19.6-6.6-20.4-7-.8-.4-5.3-.4-10 0z"/><path d="M121.3 232.5c0 2.7.2 3.8.4 2.2.2-1.5.2-3.7 0-5-.2-1.2-.4 0-.4 2.8zm177.2-2.5c.3.5-1.7 1-4.5 1.2-4.9.3-4.9.3 10.3 5.5 13.9 4.8 16 5.3 23.7 5.2h8.5l-6.5-2.3c-3.6-1.2-9.4-3.3-13-4.5-3.6-1.3-7.4-2.7-8.5-3.1-4.8-2-10.7-3.2-10-2zm-55.1 1.8c-2.2.7-9.5 3.3-16.4 5.8l-12.5 4.3 9.3.1c5.1 0 10-.4 11-.9.9-.6 7.5-2.9 14.6-5.3s12.2-4.4 11.5-4.5c-6.6-.9-14.3-.7-17.5.5zm31.6 5.1c0 5.4.2 5.9 2 5.4 1.7-.5 2-1.4 2-5.9 0-4.7-.2-5.4-2-5.4s-2 .7-2 5.9zm108 22.9c-15.7 5.4-16.2 5.7-11.8 6 3.3.2 7.5-.7 14.9-3.3 10.6-3.7 13.7-5.2 8.4-4.2l-3 .6 3-1.3c3.9-1.8 5.5-.5 5.5 4.5 0 3.2.3 3.9 2 3.9 1.6 0 2-.7 2-3.5 0-1.9.4-3.5 1-3.5.5 0 5.3 1.6 10.7 3.5 6.8 2.4 11.5 3.5 15.3 3.5 5.4-.1 5.1-.2-12-6-9.6-3.3-17.9-6-18.5-5.9-.5 0-8.4 2.6-17.5 5.7zM82.3 311.7c-.7.3-1.3 1.1-1.3 1.8 0 1-2 1.4-7.2 1.7-6.1.3-7.2.1-7.6-1.5-.5-2-3.8-2.3-4.9-.3-.4.8-2.1 1.6-3.8 1.8-2.2.2-3 .8-3 2.3 0 1.5.8 2.1 3.3 2.3l3.2.3V335l2.8-.1 2.7-.1-2.5-.8c-2.4-.8-2.4-.8-.2-.9 2-.1 2.2-.6 2.2-6.5v-6.4l6.6-.4c3.6-.1 6.9-.1 7.3.2.3.3.6 3.3.6 6.7 0 5.9.2 6.3 2.3 6.3 2.1 0 2.2-.4 2.2-6.5 0-7-.2-6.8 6.3-6.5 2.1.1 4.5-.4 5.4-1.2 1.2-.9 1.5-.9.9-.1-.5.9-.2 1.1.8.7 1.4-.5 1.6.5 1.6 6.5 0 6.7.1 7.1 2.3 7.2 2.1.1 2.1.1-.3.9l-2.5.8 2.7.1 2.7.1-.6-8-.6-8H120v5c0 3.5-.5 5.2-1.6 5.8-2.8 1.5-1.3 4.7 2.4 5l3.3.3-.7-8-.7-8.1h16.6l-.6 8-.6 8 2.7-.1 2.7-.1-2.5-.8c-2.4-.8-2.4-.8-.2-.9 2.1-.1 2.2-.5 2.2-7.1v-7h15v7c0 6.6.1 7 2.3 7.1 1.8.1 1.6.3-.8.9l-3 .8 3.3.1 3.2.1-.6-8-.7-8H177v7c0 6 .3 7 1.8 7.1 1.4 0 1.4.2-.3.9-1.8.8-1.7.9.8.9l2.7.1v-15.6l2.8.1c2 0 2.7-.5 2.7-2 0-1.4-.8-2.1-2.8-2.3-1.6-.2-3.1-1-3.4-1.8-.8-2.1-3.3-1.7-3.3.6 0 1.8-.7 2-7.9 2-7 0-7.9-.2-8.4-2-.3-1.1-1-2-1.7-2s-1.4.9-1.7 2c-.5 1.8-1.4 2-7.8 2s-7.3-.2-7.8-2c-.3-1.1-1.2-2-2.1-2-.9 0-1.6.8-1.6 2 0 1.8-.7 2-8 2s-8-.2-8-2c0-1.1-.7-2-1.5-2s-1.5.9-1.5 2c0 1.8-.7 2-8 2-7.1 0-8.1-.2-7.8-1.8.2-1.1-.4-1.8-1.9-2-1.5-.2-2.3.2-2.3 1.2 0 1.1-1.7 1.5-7.5 1.8-6.5.3-7.5.1-7.5-1.4 0-2-1-2.7-2.7-2.1zm79 3.3c.5 1.8 1.4 2 8.4 2.2l7.8.2-8 .5-8 .6-.3 4.5c-.4 6.2-2.2 7.7-2.2 1.8 0-2.9.6-5 1.5-5.8 1.4-1.2 1.4-1.5 0-3-1.7-1.9-1.9-3-.6-3 .5 0 1.1.9 1.4 2zm-45.5 2.7c-2.1.2-5.7.2-8 0-2.4-.2-.7-.4 3.7-.4s6.3.2 4.3.4zm20 0c-2.1.2-5.7.2-8 0-2.4-.2-.7-.4 3.7-.4s6.3.2 4.3.4zm19 0c-2.1.2-5.7.2-8 0-2.4-.2-.7-.4 3.7-.4s6.3.2 4.3.4zm-51.8 6.8c0 2.5-.4 4.5-1 4.5-.5 0-1-2-1-4.5s.5-4.5 1-4.5c.6 0 1 2 1 4.5zm18.7 2.2c-.2 1.6-.4.5-.4-2.2 0-2.8.2-4 .4-2.8.2 1.3.2 3.5 0 5zm20.3-2.2c0 2.5-.4 4.5-1 4.5-.5 0-1-2-1-4.5s.5-4.5 1-4.5c.6 0 1 2 1 4.5zm304.8-1.4c-.2 1.5-2.1 2.9-6.4 4.9-5.6 2.5-6.1 2.6-5.7.9.7-2.7-.6-2.4-1.6.4-.6 1.5-3 3.2-7 4.9-6 2.6-6.2 2.6-5.5.6.4-1.4.2-1.8-.5-1.4-.6.4-1.1 1.5-1.1 2.5s-1.3 2.2-3.5 3c-2 .7-3.2 1.7-2.9 2.3.4.6-.1.8-1.3.4-1.3-.4-2-.2-2 .8 0 1.5 2 1.1 7.5-1.8l2.7-1.4-.3 4.8c-.3 3.3 0 4.9 1 5.2 1.7.7 2.2-3.3.5-4.4-.8-.5-.8-1.5-.2-3.4.7-1.9 2.7-3.4 7-5.3l6-2.8-.3 6.1c-.3 4.2 0 5.8.7 5.1.5-.6 1.1-3.4 1.3-6.4l.3-5.4 6.4-2.9 6.4-2.8-.6 4.7c-.3 2.7-.7 5.5-1 6.3-.2.8-.2 1.2 0 .7.3-.4.9-.5 1.4-.1.5.3.9-2.3.9-6 0-4.9.3-6.6 1.4-6.6.7 0 1.9-.7 2.6-1.5 1.5-1.8-.1-2.1-3-.5-1.5.8-1.7.6-1.3-1 .3-1.1.1-2-.5-2s-1.2.9-1.4 2.1zm-41 18.1c-.2 1.4-1.5 2.5-3.8 3.3-3 1-3.2 1.3-1.5 1.8 1.3.4 1.1.5-.7.3-3-.3-3.8.8-1.3 1.8 1 .4 1.5 2 1.5 5.1 0 2.5.5 4.5 1.1 4.5.5 0 .7-.5.3-1.2-.5-.8-.2-.9.9-.5 1.4.5 1.7-.2 1.9-4.6.1-4.7.2-4.8.5-1.2.3 2.2.9 4.4 1.5 5 .8.7.8.6.3-.4-.6-1-.4-1.3.6-.9 1.3.5 1.6-2.6 1-13.5-.1-2.4-1.9-2.1-2.3.5zm-14.8 6.6c0 .4-2.1 1.8-4.6 3-4.4 2.2-4.7 2.2-5.9.5-1.3-1.7-1.4-1.6-2.4 1-.7 1.9-2.5 3.4-5.7 4.7-4.4 1.9-4.7 2-5.9.3-1.2-1.7-1.4-1.6-2 .8-.4 1.5-1.7 3.1-3.1 3.8-3.3 1.5-3.2 4 .1 3.3 2.3-.4 2.5-.1 2.6 2.9.1 1.9.1 3.7 0 4.1 0 .4.6.5 1.4.2.8-.4 1.2-1 .9-1.5-.3-.5-.1-.9.3-.9.5 0 .7-1.6.5-3.5-.4-3.3-.2-3.6 3.9-5.5 6.3-2.8 6.9-2.6 7 2.2 0 2.4.3 3.7.6 3 .2-.6.9-1 1.4-.6.5.3.9-1.6.9-4.1 0-4.4.1-4.7 4.3-6.5 5.8-2.7 6.4-2.5 5.9 1.1-.3 2 0 3.4.9 4 1.9 1.1 2.9-.8 2.9-5.8 0-2.3.5-4.3 1.2-4.5.6-.2.8-1 .4-1.6-.8-1.3-5.6-1.7-5.6-.4zm-225.1 5.6c-.2.2-20 .8-43.9 1.5-23.9.6-48.1 1.4-53.8 1.7-9.8.6-10.3.7-10 2.8.3 2.1.7 2.1 19.1 2.4 13.8.2 18.7-.1 18.1-.9-.4-.8 0-.9 1.6-.4 1.3.4 2 .3 1.7-.2-.3-.5 2.1-.9 5.4-.8 3.2 0 5.9.3 5.9.7 0 .4.7.4 1.7.1 1.1-.4 1.4-.3.9.5-.5.9 4 1.2 18.3 1.2 11.7 0 19.1-.4 19.1-1 0-.5.7-.6 1.7-.3.9.4 1.4.2 1-.3-.3-.6 1.9-1 5.4-.9 3.2 0 5.9.3 5.9.7 0 .4.7.4 1.7.1 1.1-.4 1.4-.3.9.5-.5.9 3.2 1.2 14.9 1.2 14.6 0 15.7-.1 15-1.8-.4-.9-1.2-2.9-1.7-4.5l-1-2.7h-13.7c-7.6 0-14 .2-14.2.4zm259.9 10.3c5 .2 13.4.2 18.5 0 5-.1.9-.3-9.3-.3-10.2 0-14.3.2-9.2.3zm-365.5 5.8 1 4.5 11.1.2 11.1.2-11 .6-11 .6h12c11.8-.1 12-.1 11.8-2.4-.2-1.2.2-2.2.8-2.2.5 0 .8-.4.5-.9-.3-.4.2-1.7 1-2.7.9-1 1.2-1.3.8-.5-.5.9-.3 1.2.5.7 3-1.9-1.2-2.6-14.8-2.6H59.3l1 4.5zm59.8-2.8c1.2 1.4 1.2 1.6-.1.9-1.2-.6-1.1-.4.1.6.9.7 1.4 1.9 1.1 2.7-.2.8 0 1.1.5.8.6-.4 1.5.5 2.2 1.9 1 2.4 1.4 2.5 8.3 2.2 7-.3 7.3-.4 7.1-2.6-.2-1.6.1-2.1.9-1.6s.9.2.5-.9.1-2 1.4-2.7c3.9-2.1.6-3-11.3-3-11.2 0-11.9.1-10.7 1.7zm14.2 8c-1.8.2-4.8.2-6.5 0-1.8-.2-.4-.4 3.2-.4s5 .2 3.3.4zm39.8-8c1.2 1.4 1.2 1.6-.1.9-1.2-.6-1.1-.4.1.6.9.7 1.4 1.9 1.1 2.7-.3.8 0 1.1.6.7.5-.3 1.2.1 1.6.9.4 1.2 2.8 1.5 12.7 1.5 6.6 0 11.9-.3 11.7-.8-.2-.4-1-2.4-1.8-4.5l-1.4-3.7h-12.9c-12 0-12.8.1-11.6 1.7zm10.7 9c3.4.2 9 .2 12.5 0 3.4-.2.6-.3-6.3-.3-6.9 0-9.7.1-6.2.3zm90.2 13.7c0 12.9.1 13.4 2 12.9s2-1.4 2-13.4c0-12.2-.1-12.9-2-12.9s-2 .7-2 13.4zM67.8 377.7c3.4.2 8.8.2 12 0 3.1-.2.3-.3-6.3-.3s-9.2.1-5.7.3zm58 4.3.4 5 7.6-.1c4.3 0 7.2-.3 6.5-.5-.7-.3-.9-1.2-.6-2.1.5-1.2.3-1.4-.7-.8-1 .6-1.2.2-.8-1.9.5-2.6.5-2.6-5.6-2.8l-6.1-.1 6.5-.7 6.5-.7-7-.1-7-.2.3 5zm54.3-2.2c.7 1.9.6 3.8-.1 5.7-.6 1.5-.8 3-.5 3.3.3.3.5 0 .5-.6 0-.9 3.9-1.2 13.6-1.2 10.5 0 13.4-.3 13-1.3-.2-.6-1-2.9-1.7-5l-1.2-3.7h-24.6l1 2.8zm17.7-1.1c-3.2.2-8.4.2-11.5 0-3.2-.2-.6-.3 5.7-.3s8.9.1 5.8.3zm244.7-.9c-.6.5-5.3 1.6-10.5 2.6l-9.6 1.7v3.6c0 2 .2 3.1.4 2.4.2-.7 4-1.1 11.7-1.1h11.3l1.6-4.7c.9-2.6 1.6-4.8 1.6-5 0-.7-5.7-.2-6.5.5zM63 379.9c0 .4.5 2.2 1.1 4l1.1 3.1H75c8 0 9.9-.3 10.4-1.6.9-2.2.8-2.6-.5-1.8-.8.5-1-.1-.7-2l.5-2.6H73.9c-6 0-10.9.4-10.9.9zm307.8 8.8c1.2.2 3.2.2 4.5 0 1.2-.2.2-.4-2.3-.4s-3.5.2-2.2.4zm-302.9 6.5 1.8 5.3 15.4.2c14.9.3 15.3.2 12.1-1.4-1.8-.9-4.2-2.8-5.2-4.2-1.1-1.4-2.5-3.2-3-3.9-.8-.8-4.5-1.2-12-1.2H66.1l1.8 5.2zm21.9 4.5c-3.8.2-9.8.2-13.5 0-3.8-.2-.7-.3 6.7-.3s10.5.1 6.8.3zm33.8-6.9c-.8 1.6-2.2 3.5-3.2 4.3-1.5 1.2.2 1.5 13.7 2l15.4.5-16.8.1c-9.2 0-17.1.3-17.4.7-.4.3 8.3.6 19.3.6 19 0 19.8-.1 16.6-1.7-1.8-.9-4.2-3-5.4-4.7-3.1-4.5-3.5-4.6-12.5-4.6-8 0-8.3.1-9.7 2.8zm54 0c-.8 1.6-2.2 3.5-3.2 4.3-1.5 1.2.7 1.5 17.7 2l19.4.5-20.8.1c-11.5 0-21.1.4-21.4.7-.4.3 9 .6 20.9.6 11.8 0 21.7-.3 22.1-.6.3-.3-.3-2.3-1.4-4.2-1-2-1.9-4.2-1.9-4.9 0-1-3.6-1.3-15-1.3h-14.9l-1.5 2.8zm199.4.9c-.8 2.1-1.6 4.1-1.8 4.5-.2.4 4.8.9 11 1.1l11.3.3-11.8.1c-6.5 0-12.1.3-12.4.7-.4.3 6.1.6 14.3.5 8.2 0 14.2-.3 13.4-.6-2.3-.8-6-4.5-6-5.9 0-2.4-4.9-4.4-10.8-4.4-5.8 0-5.8 0-7.2 3.7zm44.6-.4c-.7 1.9-2.6 4.3-4.1 5.5l-2.8 2.2 12.9-.2 12.9-.2-11.5-.5-11.5-.5 11.8-.6 11.8-.5 1.9-4.3 1.9-4.2H423l-1.4 3.3zM87 402c-9.1.3 15.2.8 54 1l70.5.5-69.7.2c-43.1.2-69.8.7-69.8 1.3 0 .5.5 1.9 1 3.2l1.1 2.3 70.4-.3c38.8-.1 70.5-.6 70.5-1s-.6-1.4-1.2-2.1c-1.1-1.1-1-1.3.2-.7.8.4.7.1-.4-.8-1-.8-1.5-1.9-1.1-2.5.4-.8-6.6-1.1-23.2-1.1-13.1 0-37.7-.2-54.8-.3-17-.1-38.4 0-47.5.3zm302 0c-12 .4-7.1.6 17.5.7 18.7 0 33.3-.1 32.5-.3-2.8-.7-33.6-.9-50-.4zm-18.5 5-1.6 3h67l1.6-3 1.6-3h-67l-1.6 3zm-23.7.7c1.2.2 3.2.2 4.5 0 1.2-.2.2-.4-2.3-.4s-3.5.2-2.2.4zm-38 1c1.2.2 3.2.2 4.5 0 1.2-.2.2-.4-2.3-.4s-3.5.2-2.2.4zm-55 3c21 .2 55.4.2 76.5 0 21-.1 3.8-.2-38.3-.2-42.1 0-59.3.1-38.2.2zm-176.7 4c.5 1.4 1.7 3.9 2.6 5.4l1.7 2.9 173.3.2 173.3.3 2.7-5c1.6-2.7 3-5.3 3.1-5.8.2-.4-14.8-.6-33.5-.4-28.4.2-34.4.5-37.8 1.9-8.2 3.3-20.2 4-79.1 4.5-52.1.4-58.4.3-61.2-1.1-1.7-.9-3.6-2.5-4.2-3.6-1.1-2-2.2-2-71.5-2H76l1.1 2.7zm7.5 13.5c2.9 4.6 5.4 7.9 5.4 6.9 0-.8 42.1-1.1 164.5-1.1 129 0 164.5.3 164.5 1.2 0 1.2.8.2 4.5-5.5l1.7-2.7H254.6c-136.3 0-170.6.3-170 1.2zm8.3 11.5c.6 1 2.3 3.3 4 5.1l2.9 3.2H254c115.4 0 154.6-.3 155.7-1.2.7-.6 2.7-2.8 4.4-5l3.1-3.8H254.5c-154.5 0-162.5.1-161.6 1.7zM108 457l4.6 4h139.7c98.8 0 139.7.3 139.7 1.1 0 .5 2.7-1.1 6-3.7s6-4.9 6-5c0-.2-67.6-.4-150.2-.4H103.5l4.5 4zm12.1 9.9c5.4 4.2 15.9 10 16.4 9 .4-.6 41.2-.9 115.9-.9 63.4.1 116.1-.2 117.2-.6 3.9-1.4 14.7-6.5 16.7-7.9 1.9-1.3-13.2-1.5-133.2-1.5-132.3 0-135.3 0-133 1.9zm24.5 13.5c5.8 2.5 17.6 4.5 38.9 6.6 63.1 6.1 121.9 4 162.2-5.9l7.8-2h-106c-90.6 0-105.5.2-102.9 1.3z"/></g><path fill-opacity=".01" stroke="#000" stroke-opacity=".01" stroke-width=".1" d="M179.4 58.5c0 10.4.2 14.6.3 9.2.2-5.4.2-13.9 0-19-.1-5.1-.3-.7-.3 9.8zM460.3 308c0 3 .2 4.3.4 2.7.2-1.5.2-3.9 0-5.5-.2-1.5-.4-.2-.4 2.8zm-236 67.7c7.5.2 19.9.2 27.5 0 7.5-.1 1.3-.3-13.8-.3-15.1 0-21.3.2-13.7.3zm68 0c5.9.2 15.4.2 21 0 5.6-.1.8-.3-10.8-.3-11.5 0-16.1.2-10.2.3z"/><g stroke="#000" stroke-width=".1"><path d="M239.5 27c-3.8 1-9.7 2.6-13 3.4-7.5 2-16.2 2-25.8 0-10.1-2-14.5-1.6-16.9 1.7-1.8 2.4-2 4.8-2.3 31.4l-.4 28.7 2.4 2.4c3.4 3.4 7.3 3.1 20.1-1.7 14.1-5.4 23.8-6.2 36.1-3 7.9 2 20.2 2.8 25.1 1.5l2.2-.6V27.1l-3.7-1c-5.7-1.6-16-1.2-23.8.9zm-4.4 9.9c2.1 1.7 2.4 2.7 2.3 8.8-.2 7.7-2.2 12.9-5.7 14.3l-2.2.9h2.3c1.8.1 2.2.7 2.3 3.3l.2 3.3.6-3.5c.7-4 3.9-5.5 4.8-2.2.3 1.4 1.1 1.8 2.4 1.5 1.4-.4 1.9 0 1.9 1.5 0 2.3-3.5 5.2-6.1 5.2-.9 0-2.4.9-3.3 1.9-1.7 1.8-1.6 2 2.1 4.5 2.4 1.7 5.1 2.6 7.6 2.6 3.1 0 3.8.3 3.5 1.7-.2 1.1-1.4 1.9-3.1 2.1-1.5.2-2.7.9-2.7 1.6 0 .8-.6 1.9-1.4 2.5-1.7 1.4-3.9-.9-3.1-3.1.6-1.4-6.6-7.1-9-7.1-1.3 0-9.2 5-12.5 7.9-2.5 2.2-2.5 2.2-4.9.3-2.7-2.2-2.2-4.9 1.1-4.9 1.3 0 4.5-1.4 7.2-3.1l5-3.1-4-2.4c-2.2-1.3-4.7-2.1-5.7-1.8-3.3 1-4.6-1.2-3.2-5.3 1.6-4.5 3.1-5.2 4.5-2.1.6 1.3 2.4 3.1 4.1 4l2.9 1.7-.6-2.4c-.5-2-.1-2.7 1.7-3.4 2.3-.9 2.3-1 .2-1-4.2-.2-10.6-14.9-8.5-19.6 2.7-6 14.3-8.7 19.3-4.6z"/><path d="M229.4 43.5c-.8 1.9.2 4.5 1.6 4.5.5 0 1-1.4 1-3 0-3.1-1.6-4.1-2.6-1.5zm-7.8.4c-1.1 1.7.2 6.3 1.7 5.8 1.8-.6 2-3 .4-5.1-1-1.4-1.6-1.6-2.1-.7zm14.4 83.4c14.3 5.9 24.7 17.1 29.6 31.7 2.5 7.5 2.3 20.5-.4 28.2-5.5 15.4-19.3 28.2-34.7 32.2-3.8.9 4.4 1.1 42.4 1l47-.1 6.4-3.1c10.3-5.1 18-15.2 21.8-28.7 2.3-8.2 1.7-27.5-1-35.5-4-11.6-11.1-20.5-20.1-25.2l-4.5-2.3-46-.2-46-.3 5.5 2.3zM95.8 150.5c8.2 4.1 14.2 10.2 18.1 18.5 2.2 4.7 2.6 6.9 2.6 14.5 0 7.7-.4 9.8-2.6 14.5-5 10.4-12.8 17.2-24.4 21.2-4.9 1.7-4.5 1.7 30.7 1.8 40.9 0 42.6-.3 50.7-8.2 17.5-17.2 13.2-54.4-7.4-63.9-3.6-1.7-7.1-1.9-39.4-1.9H88.7l7.1 3.5zm278.9 48.6c6.1 2.4 13.2 8.9 16.4 15 1.3 2.7 2.4 7 2.7 11 .4 5.7.1 7.5-2.2 12.5-4.2 9.1-10.8 15.1-19.9 18-4 1.2-3.7 1.3 7.3 1.3 9.4 0 12.3-.3 15.9-1.9 5.4-2.5 6.7-2.5 12.6.1 4 1.8 6.2 2.1 12.4 1.7 12-.7 18.7-5.3 23.5-15.8 1.5-3.5 2-6.7 2-14.1.1-9.1-.1-10-3.4-16.5-3-5.8-4.4-7.4-9-10.1l-5.4-3.3-29.1.1h-29l5.2 2zM84 245.4c0 .2 2.9 1.8 6.5 3.5 7.3 3.4 16.2 11.2 19.9 17.5 8.2 14.1 7.1 32-3 45.1l-2.6 3.5h7.1c4.6 0 7-.4 6.9-1.1-.2-.6.5-1.6 1.5-2.2 1.5-1 2.2-.8 3.7 1 1.5 1.9 2.8 2.3 7.8 2.3 5.1 0 6-.3 6.5-2 .3-1.1 1.2-2 2.1-2 .9 0 2.1.9 2.8 2 1.1 1.7 2.4 2 7.5 2 5.3 0 6.3-.3 6.8-2 .4-1.1 1.5-2 2.7-2 1.1 0 2.2.8 2.5 2 .5 1.7 1.4 2 6.7 2 5.1 0 6.3-.3 7.4-2.1 1-1.5 2-1.9 3.6-1.5 2.1.5 2.6-.1 4.5-4.4 7-16.3 4.1-39.1-6.6-51-2.5-2.8-6.9-6.3-9.7-7.8l-5.1-2.7-39.7-.3c-21.9-.1-39.8 0-39.8.2zm136.5 7c15.4 4.8 32 18.8 38.8 32.7 8.6 17.4 8.6 35 .2 52.2-7.8 15.9-24.1 29.1-41.7 33.7l-7.3 1.9H269c36.9 0 60.2-.3 63-1 11.4-2.6 22.4-10.6 29.8-21.7l3.5-5.2 13.6-.2c7.5-.1 14.3-.2 15.1-.4.8-.1 2.9-.2 4.7-.3 3.2-.1 4-.7 6.7-4.6 1.1-1.6 1.7-1.7 2.9-.7s2.3.9 5.6-.4c2.3-.9 4.1-2.2 4.1-2.9 0-.7.7-1.8 1.6-2.6 1.3-1 1.7-1 2.4 0 1.3 2.2 9.7-1.5 10.4-4.5.7-2.6 3.6-3.4 3.6-.9 0 2.3 8.1-1.8 9.7-4.9 1.5-2.8 3.1-3.4 3.9-1.2.3.8 1.5 1.1 3 .8 1.3-.2 2.4 0 2.4.6 0 1.2-2.4 3.8-4.1 4.4-.6.2-.9 1.9-.7 3.8l.3 3.5 3.2-6.5c5.9-11.8 6.2-27 .7-39-3.2-7-7.6-11.6-13.9-14.6-5-2.4-5.2-2.4-39.5-2.3-29.9 0-34 .2-30.9 1.4 9.7 3.5 19.4 13 22.9 22.3 3.1 8.2 2.5 19.7-1.5 27.6-3.4 6.7-10.2 13.4-17.3 17-6.1 3.1-8.7 3.4-7.7.8.4-.9 1.7-4.6 2.8-8.2 2.8-9 3-32.5.4-42-5.1-18.5-15.6-31.5-30.6-37.7l-5.6-2.3-58.5.1c-48.6 0-57.8.2-54.5 1.3zm-128 71.1c-3.3 1.9-6.1 3.8-6.3 4.4-.2.7 2 1.1 6.2 1.1H99v-4.5c0-2.5-.1-4.4-.2-4.4-.2.1-3 1.6-6.3 3.4zm12.5 1v4.5h5.8c3.1 0 6.2-.4 6.7-.8.6-.4 1-2.4 1-4.5V320H105v4.5zm20.2-.3.3 4.3 6.3.3 6.2.3V320h-13.1l.3 4.2zm18.8.3v4.5h13v-9h-13v4.5zm19-1c0 2.1.5 3.5 1.3 3.5 1.3 0 11.7-5.8 11.7-6.5 0-.3-2.9-.5-6.5-.5H163v3.5z"/><path d="M439.8 331.7c-3.7 1.5-3.8 1.8-3.8 6.4 0 5.5.8 5.9 5.8 2.9 2.8-1.8 3.2-2.5 3.2-6.5 0-5 .1-4.9-5.2-2.8zm-12.5 5.5c-3.7 1.6-4.3 2.3-4.3 4.8 0 2.8.2 3 4 3 4.5 0 5.3-1 4.8-6.2l-.3-3.4-4.2 1.8zM414 343l-3.5 1.9 3.8.1c3 0 3.7-.3 3.7-2 0-1.1-.1-2-.2-2-.2.1-1.9.9-3.8 2z"/></g><path fill="#630" stroke="#630" stroke-width=".1" d="M387.8 271.7c8.4.2 21.9.2 30 0 8.1-.1 1.2-.3-15.3-.3s-23.1.2-14.7.3zM138 313.8c0 .8-2.4 1.3-6.7 1.4l-6.8.2 6.4.3c5.9.4 9.4-.7 7.8-2.4-.4-.3-.7-.1-.7.5zm24.3.2c.3 1.1 2 1.5 7.3 1.6l6.9.1-6.5-.4c-3.5-.2-6.8-.9-7.3-1.6-.6-.8-.7-.8-.4.3zm-54 1.7c2 .2 5.4.2 7.5 0 2-.2.3-.4-3.8-.4s-5.8.2-3.7.4zm38.4 0c1.8.2 5 .2 7 0 2.1-.2.7-.4-3.2-.4-3.8 0-5.5.2-3.8.4zm-38.4 4c2 .2 5.4.2 7.5 0 2-.2.3-.4-3.8-.4s-5.8.2-3.7.4zm23.4 0 6.2.4.4 4.7.4 4.7-.1-5-.1-5-6.5-.1h-6.5l6.2.3zm15 0c1.8.2 5 .2 7 0 2.1-.2.7-.4-3.2-.4-3.8 0-5.5.2-3.8.4zm15.7.7c-.3.8-.4 2.9-.1 4.8.3 3 .4 2.9.5-.9l.2-4.2 6.8-.4 6.7-.3-6.8-.2c-5-.1-6.9.2-7.3 1.2zm-5.1 4.6c0 2.5.2 3.5.4 2.2.2-1.2.2-3.2 0-4.5-.2-1.2-.4-.2-.4 2.3zm111.5 48.7c1.2.2 3.2.2 4.5 0 1.2-.2.2-.4-2.3-.4s-3.5.2-2.2.4z"/><path fill="#AD5A25" fill-opacity=".13" stroke="#AD5A25" stroke-opacity=".13" stroke-width=".1" d="M279.4 59.5c0 18.1.2 25.7.3 16.8.2-8.9.2-23.7 0-33-.1-9.2-.3-2-.3 16.2zm-.1 53c0 2.7.2 3.8.4 2.2.2-1.5.2-3.7 0-5-.2-1.2-.4 0-.4 2.8zm0 124c0 2.7.2 3.8.4 2.2.2-1.5.2-3.7 0-5-.2-1.2-.4 0-.4 2.8zm.1 151.5c0 6.9.1 9.7.3 6.2.2-3.4.2-9 0-12.5-.2-3.4-.3-.6-.3 6.3z"/><path fill="#202020" fill-opacity=".03" stroke="#202020" stroke-opacity=".03" stroke-width=".1" d="M90.3 329.7c1.5.2 3.7.2 5 0 1.2-.2 0-.4-2.8-.4-2.7 0-3.8.2-2.2.4zm19.5 0c1.2.2 3 .2 4 0 .9-.3-.1-.5-2.3-.4-2.2 0-3 .2-1.7.4zm38.5 0c1.5.2 3.7.2 5 0 1.2-.2 0-.4-2.8-.4-2.7 0-3.8.2-2.2.4z"/><path fill="#330" stroke="#330" stroke-width=".1" d="M267.4 59.5c0 17.6.2 24.7.3 15.7.2-9 .2-23.4 0-32-.1-8.6-.3-1.3-.3 16.3zm-37.1 65.2c1.5.2 3.9.2 5.5 0 1.5-.2.2-.4-2.8-.4s-4.3.2-2.7.4zm-126 22c9.7.2 25.7.2 35.5 0 9.7-.1 1.7-.2-17.8-.2s-27.5.1-17.7.2zm-5 177.8c0 2.7.2 3.8.4 2.2.2-1.5.2-3.7 0-5-.2-1.2-.4 0-.4 2.8zm44 .5c0 2.5.2 3.5.4 2.2.2-1.2.2-3.2 0-4.5-.2-1.2-.4-.2-.4 2.3z"/><path fill="#333" stroke="#333" stroke-width=".1" d="M237.3 44.5c0 2.2.2 3 .4 1.7.2-1.2.2-3 0-4-.3-.9-.5.1-.4 2.3zm-11.5 8.2c.6.2 1.2 1.2 1.3 2.1 0 1 .3 1.2.5.5.3-.7 1.3-1 2.2-.7.9.3.6-.2-.8-1s-2.9-1.5-3.5-1.5c-.5 0-.4.3.3.6zm.2 8.3c0 .5.9 1 2.1 1 1.1 0 1.7-.5 1.4-1-.3-.6-1.3-1-2.1-1s-1.4.4-1.4 1zm9.4.5c-.4.9-.4 1.9 0 2.2.3.4.6-.1.6-1 0-2.5 2.8-2 3.3.5.5 2 .5 2 .4-.2-.2-2.9-3.4-4-4.3-1.5zm-8.9 2.8c-.4 1-.5 2.1-.1 2.4 1 1 1.8-.4 1.3-2.4-.4-1.7-.4-1.7-1.2 0z"/><path fill="#666" stroke="#666" stroke-width=".1" d="M228.4 42.4c-.3.8-.4 2.3-.1 3.3.3 1.1.5.7.6-1.1.1-2.3.5-2.7 2.1-2.3 1.1.3 1.8.1 1.4-.4-.8-1.4-3.4-1.1-4 .5zm-4.6 20.8c1.5 1.5 1.6 4.2 0 3.2-.7-.5-.8-.3-.3.6.6 1 .4 1.2-.9.7-1-.4-1.5-.3-1.1.4.4.5 1.6.7 2.8.3 1.2-.4 3.4-.7 4.8-.6 2.2 0 2.5-.3 2.1-2.4-.5-2.9-3.2-3.2-3.2-.4 0 1.1-.5 2-1.1 2-.6 0-.9-.9-.6-2 .3-1.1.1-1.8-.4-1.4-.5.3-.9 0-.9-.5 0-.6-.5-1.1-1.2-1.1-.9 0-.9.3 0 1.2zm1.6 6.7c.3.5 1.5.7 2.6.4 1.2-.3 2 0 2 .6 0 .7-.4.9-1 .6-.5-.3-2 .3-3.2 1.5-3.1 2.9-12.2 8-14.2 8s-2.1 1.7-.2 3.6c1.7 1.6 3.6 1.9 3.6.4 0-1.1 11.9-8.9 13.6-9 .6 0 3 1.4 5.2 3 3 2.1 4.2 3.7 4.2 5.5 0 1.6.6 2.5 1.5 2.5.8 0 1.5-.9 1.5-2 0-1.4.7-2 2.3-2 3 0 5.1-1.5 4.2-2.9-.4-.8-1.8-1-3.6-.6-2.2.5-3.9-.1-7.5-2.6l-4.7-3.2 2.4-2 2.4-2-2.7.7c-1.7.4-2.8.2-2.8-.4 0-.5-1.4-1-3.1-1-1.6 0-2.8.4-2.5.9z"/><path fill="#999" stroke="#999" stroke-width=".1" d="M221.2 37.5c-5.9 2.6-6.2 8.7-.9 18 2.5 4.5 5.8 5.5 10.7 3.5 3.7-1.5 5.1-5.1 5.3-13.4.2-5.7-.1-7-1.7-8.2-2.5-1.8-9.1-1.7-13.4.1zM233 43c1.1 2-.1 6-1.8 6-2.4 0-4.3-5.5-2.5-7.3 1.2-1.3 3.2-.7 4.3 1.3zm-7.6 2.3c.8 2.2.6 3.1-.8 4.5-1.6 1.6-1.8 1.6-3.2-.2-1.7-2.4-1.8-4.8-.2-6.4 1.7-1.7 3.1-1 4.2 2.1zm6.1 6.7c.8 1.3-1.4 4.2-2.5 3.5-.5-.3-1.2-.1-1.5.5-.5.8-1.1.7-2.1-.1-2.2-1.8-1.6-3.7 1.4-4.2 1.5-.2 3-.5 3.4-.6.4 0 1 .4 1.3.9zm-18.3 11.4c.3 1.6 0 2.7-.9 3-2.2.9-.4 2.8 2 2.2 1.2-.3 4 .6 6.8 2.2 4.8 2.7 7.3 2.5 4.9-.3-1.1-1.3-.8-1.5 1.9-1.5 1.7 0 3.1.4 3.1.9 0 .6 1.5.6 3.8 0 5.2-1.4 8.2-3 8.2-4.6 0-1.6-1.2-1.7-2.8-.1-.7.7-1.3.8-1.3.2-.1-.5-.2-1.4-.3-1.9-.3-2.3-2.1-1.7-2.6 1-.7 4-3 4.5-3 .6 0-3-.1-3.1-4.2-2.9l-4.3.1 3.8.4c3.1.4 3.7.8 3.7 2.8 0 2-.5 2.3-3.4 2.3-1.9 0-3.9.3-4.5.6-1.4.9-7.9-3.2-8.6-5.5-.9-2.8-2.8-2.3-2.3.5z"/><path fill="#300" stroke="#300" stroke-width=".1" d="M257.3 124.7c10.8.2 28.6.2 39.5 0 10.8-.1 1.9-.2-19.8-.2s-30.6.1-19.7.2zm-15.1 126c16.4.2 43.2.2 59.6 0 16.3-.1 2.9-.2-29.8-.2s-46.1.1-29.8.2zM445.3 334c0 3 .2 4.3.4 2.7.2-1.5.2-3.9 0-5.5-.2-1.5-.4-.2-.4 2.8z"/><path fill="#633" stroke="#633" stroke-width=".1" d="M261.3 220.7c7.1.2 18.3.2 25 0 6.7-.1 1-.3-12.8-.3-13.7 0-19.2.2-12.2.3zm105.5 51c1.2.2 3.2.2 4.5 0 1.2-.2.2-.4-2.3-.4s-3.5.2-2.2.4z"/><path fill="#A55" fill-opacity=".01" stroke="#A55" stroke-opacity=".01" stroke-width=".1" d="M286.8 92.7c2.9.2 7.4.2 10 0 2.6-.2.2-.3-5.3-.3s-7.6.1-4.7.3zm-179.5 28c1.5.2 3.9.2 5.5 0 1.5-.2.2-.4-2.8-.4s-4.3.2-2.7.4zm23 0c1.5.2 3.9.2 5.5 0 1.5-.2.2-.4-2.8-.4s-4.3.2-2.7.4zm-26.5 19c2.3.2 5.9.2 8 0 2-.2.1-.4-4.3-.4-4.4 0-6.1.2-3.7.4zm28 0c2.3.2 5.9.2 8 0 2-.2.1-.4-4.3-.4-4.4 0-6.1.2-3.7.4zm253.5 36c1.5.2 3.9.2 5.5 0 1.5-.2.2-.4-2.8-.4s-4.3.2-2.7.4zm24 0c1.5.2 3.9.2 5.5 0 1.5-.2.2-.4-2.8-.4s-4.3.2-2.7.4zm-.5 16c1.2.2 3.2.2 4.5 0 1.2-.2.2-.4-2.3-.4s-3.5.2-2.2.4zm-308 46c2.9.2 7.4.2 10 0 2.6-.2.2-.3-5.3-.3s-7.6.1-4.7.3zm31 0c2.3.2 6.1.2 8.5 0 2.3-.2.4-.4-4.3-.4s-6.6.2-4.2.4zm115 4c3.4.2 9 .2 12.5 0 3.4-.2.6-.3-6.3-.3-6.9 0-9.7.1-6.2.3zm42.5 0c4.3.2 11 .2 15 0 4-.1.5-.3-7.8-.3-8.2 0-11.5.2-7.2.3z"/><path fill="#FF8000" fill-opacity=".01" stroke="#FF8000" stroke-opacity=".01" stroke-width=".1" d="M212.3 126.7c2.6.2 6.7.2 9 0s.2-.3-4.8-.3c-4.9 0-6.8.1-4.2.3zm119.5 0c1.2.2 3.2.2 4.5 0 1.2-.2.2-.4-2.3-.4s-3.5.2-2.2.4zm-255 22c1.2.2 3.2.2 4.5 0 1.2-.2.2-.4-2.3-.4s-3.5.2-2.2.4zm-5.5 184c1.5.2 3.7.2 5 0 1.2-.2 0-.4-2.8-.4-2.7 0-3.8.2-2.2.4zm19 0c1.5.2 3.7.2 5 0 1.2-.2 0-.4-2.8-.4-2.7 0-3.8.2-2.2.4zm19.5 0c1.2.2 3 .2 4 0 .9-.3-.1-.5-2.3-.4-2.2 0-3 .2-1.7.4zm20 0c1.2.2 3.2.2 4.5 0 1.2-.2.2-.4-2.3-.4s-3.5.2-2.2.4zm18.5 0c1.5.2 3.7.2 5 0 1.2-.2 0-.4-2.8-.4-2.7 0-3.8.2-2.2.4zm19 0c1.5.2 3.7.2 5 0 1.2-.2 0-.4-2.8-.4-2.7 0-3.8.2-2.2.4z"/><path fill="#960" stroke="#960" stroke-width=".1" d="M253.3 105.7c2.6.2 6.7.2 9 0s.2-.3-4.8-.3c-4.9 0-6.8.1-4.2.3zm31.5 0c2.3.2 6.1.2 8.5 0 2.3-.2.4-.4-4.3-.4s-6.6.2-4.2.4zM120 113.9c0 4.6-.4 7.1-1.2 7.4-.8.3-.6.6.5.6 1.5.1 1.7-.9 1.7-7.4 0-4.1-.2-7.5-.5-7.5s-.5 3.1-.5 6.9zm0 21c0 3-.5 5.1-1.2 5.4-.8.3-.6.6.5.6 1.4.1 1.7-.8 1.7-5.4 0-3-.2-5.5-.5-5.5s-.5 2.2-.5 4.9zm-40.3 5.8c1.8.2 5 .2 7 0 2.1-.2.7-.4-3.2-.4-3.8 0-5.5.2-3.8.4zm76 0c1.8.2 5 .2 7 0 2.1-.2.7-.4-3.2-.4-3.8 0-5.5.2-3.8.4zm243.5 24L399 177l2.8-.1c2.3-.2 2.3-.2.5-.6-2.1-.4-2.3-1-2.6-12.1l-.3-11.7-.2 12.2zm0 24c-.2 4.1-.1 4.3 2.6 4.2 2.2-.1 2.3-.2.5-.6-1.7-.3-2.3-1.3-2.6-4.1l-.4-3.7-.1 4.2zm-28.9 4c1.5.2 3.9.2 5.5 0 1.5-.2.2-.4-2.8-.4s-4.3.2-2.7.4zm57 0c1.5.2 3.9.2 5.5 0 1.5-.2.2-.4-2.8-.4s-4.3.2-2.7.4zm-310.6 31c1.8.2 5 .2 7 0 2.1-.2.7-.4-3.2-.4-3.8 0-5.5.2-3.8.4zm3.3 8.7c0 3.4-.5 5.6-1.2 5.9-.8.3-.6.6.5.6 1.4.1 1.7-.8 1.7-5.9 0-3.3-.2-6-.5-6s-.5 2.4-.5 5.4zm172.5-2.4-7 .6 6.7.2c3.7.1 7-.3 7.3-.8.3-.6.5-.9.3-.8-.2.1-3.4.4-7.3.8zm-39.7.7c2.3.2 6.1.2 8.5 0 2.3-.2.4-.4-4.3-.4s-6.6.2-4.2.4zm-178 8c2.3.2 5.9.2 8 0 2-.2.1-.4-4.3-.4-4.4 0-6.1.2-3.7.4zm85 0c2.3.2 5.9.2 8 0 2-.2.1-.4-4.3-.4-4.4 0-6.1.2-3.7.4zm57 4c2.9.2 7.4.2 10 0 2.6-.2.2-.3-5.3-.3s-7.6.1-4.7.3zm108.5 0c2.6.2 6.8.2 9.5 0 2.6-.2.4-.3-4.8-.3s-7.4.1-4.7.3zm69.2 14.8-3 1.3 3.8-.5 3.7-.6v4.7c0 4.4.1 4.6 2.8 4.5 2.3-.2 2.4-.2.5-.6-1.9-.4-2.3-1.1-2.3-4.2 0-5-1.6-6.3-5.5-4.6zm-27.7 9.2c1.8.2 4.5.2 6 0s0-.4-3.3-.4-4.5.2-2.7.4zm63 0c1.8.2 4.5.2 6 0s0-.4-3.3-.4-4.5.2-2.7.4zM160 313c-1.2.7-1.2 1.1.3 2.8 1.6 1.7 1.6 2.1.2 3.2-.9.8-1.5 2.9-1.5 5.8 0 5.9 1.8 4.4 2.2-1.8l.3-4.5 8-.5 8-.4-8-.6c-7.5-.5-8-.6-7.9-2.8V312c-.1 0-.8.4-1.6 1zm-52.2 4.7c2.3.2 5.9.2 8 0 2-.2.1-.4-4.3-.4-4.4 0-6.1.2-3.7.4zm20 0c2.3.2 5.9.2 8 0 2-.2.1-.4-4.3-.4-4.4 0-6.1.2-3.7.4zm19 0c2.3.2 5.9.2 8 0 2-.2.1-.4-4.3-.4-4.4 0-6.1.2-3.7.4zm-27.6 6c-.1 3-.7 5.3-1.4 5.6-1 .4-1 .6 0 .6 1.8.1 2.4-2 1.9-7l-.4-4.4-.1 5.2zm4.1.3c0 3 .2 4.3.4 2.7.2-1.5.2-3.9 0-5.5-.2-1.5-.4-.2-.4 2.8zm-22.3.5c0 2.5.5 4.5 1 4.5.6 0 1-2 1-4.5s-.4-4.5-1-4.5c-.5 0-1 2-1 4.5zm20.3 0c0 2.7.2 3.8.4 2.2.2-1.5.2-3.7 0-5-.2-1.2-.4 0-.4 2.8zm18.7 0c0 2.5.5 4.5 1 4.5.6 0 1-2 1-4.5s-.4-4.5-1-4.5c-.5 0-1 2-1 4.5zm306.7 3.2c-.9.9-.9 10.1.1 10.6.4.3.8-2.2 1-5.4.3-5.9.1-6.5-1.1-5.2zm-26.1 13.6c-.5 1.5-.6 3.1-.2 3.4 1.1 1.1 1.8-.5 1.4-3.4l-.4-2.8-.8 2.8zm-23.4 7c1 .7 1.8 3.2 2.1 5.8l.4 4.4.1-4.7c.2-4-.1-4.9-2-5.8-2-1-2.1-.9-.6.3zm-242.4 5.4c2.3.2 5.9.2 8 0 2-.2.1-.4-4.3-.4-4.4 0-6.1.2-3.7.4zm-30.5 1c2.6.2 6.7.2 9 0s.2-.3-4.8-.3c-4.9 0-6.8.1-4.2.3zm-31.5 1c2.3.2 6.1.2 8.5 0 2.3-.2.4-.4-4.3-.4s-6.6.2-4.2.4zm-32.5 1c1.5.2 3.9.2 5.5 0 1.5-.2.2-.4-2.8-.4s-4.3.2-2.7.4zm13.5 8 15.2.4-1.6 2.4c-2.3 3.5-1.2 3.1 1.4-.5l2.3-3-16.3.2-16.3.2 15.3.3zm44.7 1.3c2.1 2.3 3.4 2.7 1.5.5-1.1-1.3.2-1.5 10.9-1.5 7.9 0 12 .4 11.6 1-.9 1.5.1 1.2 1.5-.5 1.1-1.3-.5-1.5-13-1.5-14.2 0-14.3 0-12.5 2zm54 0c2.1 2.3 3.4 2.7 1.5.5-1-1.2.5-1.5 11.7-1.8l12.8-.3-13.9-.2c-13.9-.2-13.9-.2-12.1 1.8zm-106.2 8.7c3.1.2 8.3.2 11.5 0 3.1-.2.5-.3-5.8-.3s-8.9.1-5.7.3zm58.4 0c-.4.3-.7 1.1-.7 1.7 0 .7.3.7.8-.1.4-.6 3.4-1.4 6.7-1.6l6-.3-6.1-.2c-3.3-.1-6.4.1-6.7.5zm53.3 0c0 .5 3.7.7 8.2.5 15-.5 16.5-.8 4.1-1-6.8-.1-12.3.1-12.3.5zm-109.7 4c3.1.2 8.3.2 11.5 0 3.1-.2.5-.3-5.8-.3s-8.9.1-5.7.3zm61.5 0c1.7.2 4.7.2 6.5 0 1.7-.2.3-.4-3.3-.4-3.6 0-5 .2-3.2.4zm56.5 0c3.1.2 8.3.2 11.5 0 3.1-.2.5-.3-5.8-.3s-8.9.1-5.7.3zM69 389.6c8.2.8 19.8.8 19.3.1-.2-.4-5.5-.6-11.6-.5-6.2.1-9.6.3-7.7.4zm55.7.1c-.3.5 3.7.8 8.8.8 5.1 0 9.1-.3 8.8-.8-.2-.4-4.2-.7-8.8-.7-4.6 0-8.6.3-8.8.7zm54 0c-.3.5 4.1.7 9.6.5 18.4-.4 20.4-.8 5.5-1-8.1-.1-14.9.1-15.1.5zm205.8 0c3.2.2 6.5.9 7.2 1.5 1 .8 1.2.7.7-.6-.5-1.3-1.9-1.6-7.3-1.4l-6.6.2 6 .3zm37.5 0c0 .5 3.7.7 8.2.5 14.3-.4 15.7-.9 3.6-1-6.5-.1-11.8.1-11.8.5zm-302 6.8c-3.2 3.4-2.2 3.6 15.5 3.2l15-.3-15.9-.2-15.9-.2 2.3-2.5c1.3-1.4 2.1-2.5 1.8-2.5-.2 0-1.5 1.1-2.8 2.5zm54 0c-1.8 1.9-2 2.6-.9 3 .8.3 10 .4 20.4.2l19-.2-19.9-.3-19.9-.2 2.3-2.5c1.3-1.4 2.1-2.5 1.8-2.5-.2 0-1.5 1.1-2.8 2.5zm221-2c0 .5.8 1.7 1.7 2.7 1.7 1.9 1.4 1.9-10.4 1.6-6.7-.2-11.9.1-11.6.5.3.4 6.1.7 13 .6l12.4-.1-2.3-2.7c-1.3-1.4-2.4-2.8-2.5-3-.2-.2-.3-.1-.3.4zm23.1 2.9-2.2 2.4 12.3-.1 12.3-.1-11.4-.3c-11.2-.4-11.3-.4-9.6-2.3 2.6-2.9 1.3-2.5-1.4.4zm-341.8 2.3c3.7.2 9.7.2 13.5 0 3.7-.2.6-.3-6.8-.3-7.4 0-10.5.1-6.7.3zm295.3 3.8c-.2.7 7.3.9 21.8.7 42.9-.4 45.8-.7 12.4-1.2-22.1-.3-33.9-.2-34.2.5zm-265.8.2c19.3.2 51.1.2 70.5 0 19.3-.1 3.5-.2-35.3-.2s-54.6.1-35.2.2zm211.5 5c1.5.2 3.7.2 5 0 1.2-.2 0-.4-2.8-.4-2.7 0-3.8.2-2.2.4zM145 410l-70.5.5 70.8.3c46.6.1 70.7-.1 70.7-.8 0-.6-.1-.9-.2-.8-.2.2-32 .5-70.8.8zm239.8.7c9.4.2 25 .2 34.5 0 9.4-.1 1.7-.3-17.3-.3s-26.7.2-17.2.3zm-157 9c2.3.2 5.9.2 8 0 2-.2.1-.4-4.3-.4-4.4 0-6.1.2-3.7.4zm89.9 0c1.8.2 5 .2 7 0 2.1-.2.7-.4-3.2-.4-3.8 0-5.5.2-3.8.4zm-149.4 5c47.8.2 125.6.2 173 0 47.4-.1 8.4-.2-86.8-.2s-133.9.1-86.2.2zm.5 3c47.5.2 124.9.2 172 0 47.1-.1 8.3-.2-86.3-.2s-133.2.1-85.7.2zm2.9 8c45.2.2 119.4.2 165 0 45.5-.1 8.6-.2-82.2-.2-90.7 0-128 .1-82.8.2zm1.1 3c45.3.2 119.1.2 164 0 44.9-.1 7.9-.2-82.3-.2s-127 .1-81.7.2zm5.5 11c42.3.2 111.1.2 153 0 41.9-.1 7.4-.2-76.8-.2-84.1 0-118.4.1-76.2.2zm0 3c41.6.2 109.8.2 151.5 0 41.6-.1 7.5-.2-75.8-.2s-117.4.1-75.7.2zm5 9c38.3.2 101.1.2 139.5 0 38.3-.1 6.9-.2-69.8-.2s-108.1.1-69.7.2zm1.4 3c37.5.2 99.1.2 137 0 37.8-.1 7.2-.2-68.2-.2-75.3 0-106.3.1-68.8.2zm8.6 11c31.3.2 82.1.2 113 0 30.9-.1 5.4-.2-56.8-.2-62.1 0-87.4.1-56.2.2zm1 3c30.2.2 79.2.2 109 0 29.8-.1 5.2-.2-54.8-.2s-84.3.1-54.2.2z"/><g fill="#C63" stroke="#C63" stroke-width=".1"><path d="M243.2 95.6c-2.7 1.9-2.8 4.8-.2 7.4 1.9 1.9 3.2 2 30.4 1.7 20.2-.1 28.8-.5 29.7-1.4 1.8-1.8 1.4-6.5-.7-8-1.4-1-8-1.3-29.4-1.3-23.3 0-27.9.2-29.8 1.6zm-121.5 18.1c.1 7.7.1 7.8-2.5 8.4-1.5.4-5.8.7-9.5.8-7.2.1-9.2 1.5-6.6 4.7 1.6 2 7.4 1.5 14-1.1 4.6-1.8 4.8-1.8 9.9.3 6.1 2.6 11.2 2.8 13 .7 2.5-3 .5-4.4-7.2-4.7l-7.3-.3-.5-8c-.4-6-.9-8.1-2-8.3-1.2-.2-1.5 1.1-1.3 7.5zm84.7 5.8c-.4.8-.4 2.2 0 3 .5 1.3 8.8 1.5 67 1.5 60.4 0 66.4-.1 67-1.6 1.7-4.4 2-4.4-67.6-4.4-57.6 0-65.9.2-66.4 1.5zm-84.7 16 .1 5.5H96c-21.3 0-26 .3-27 1.5-.6.8-.9 1.9-.5 2.5.4.7 17.7 1 53 1s52.6-.3 53-1c.4-.6.1-1.7-.5-2.5-1-1.2-5.4-1.5-25.1-1.5H125v-5.5c0-4.6-.3-5.5-1.7-5.5-1.5 0-1.8.9-1.6 5.5zm275.6 17.6c-.9.9-1.3 5-1.3 13.1v11.7l-7.2.3c-7 .3-7.3.4-7.3 2.8 0 2.3.4 2.5 5.5 2.8 3.4.2 7.1-.3 9.9-1.4 4.2-1.6 4.7-1.6 9.2 0 2.6 1 6.4 1.6 8.6 1.4 3.3-.3 3.8-.6 3.8-2.8 0-2.3-.4-2.5-4.5-2.7-2.5-.2-6.8-.5-9.7-.9l-5.2-.5-.3-12.5c-.2-10-.5-12.3-1.5-11.3zm-.6 32.6c-.4.3-.7 2.1-.7 3.9v3.4l-17.2.2c-13.2.2-17.3.6-17.3 1.6s8.4 1.3 39.8 1.5c37.4.2 39.7.1 39.7-1.5 0-1.7-1.6-1.8-21-1.8h-21v-4c0-3.8-.8-4.9-2.3-3.3zm-149.3 36.1c-2.1 1.5-2.4 4.2-.5 6.1 1.8 1.8 3.7 1.9 26.2 2 14 0 25-.4 26.1-1 2.3-1.2 2.5-6.4.2-7.3-2.2-.9-50.7-.7-52 .2zm-125.9 11.5v6.2l-26.5.1c-35.4.1-33.2-.1-32.8 2.6l.3 2.3 58.6.3c61.5.2 61.4.2 58.8-3.9-.7-1.1-5.7-1.4-27.6-1.4h-26.8l-.3-6.3c-.2-5.1-.6-6.2-2-6.2s-1.7 1-1.7 6.3zm81.5 11.2c-.6.8-1 2.2-.8 3.2.3 1.7 3.9 1.8 72.7 2.1 71.4.2 75.1.1 75.1-2.9 0-.4-.7-1.5-1.6-2.3-1.3-1.4-9.7-1.6-72.9-1.6-60.4.1-71.5.3-72.5 1.5zm193.7 14.2c-.4.3-.7 2.4-.7 4.5v3.8l-9.7.1c-5.4.1-13.5.1-17.9-.1-4.5-.1-8.4.2-8.8.8-1.7 2.8 2.8 3.2 43 3.2 22.5.1 41.5.1 42.2.1 1.6-.1 1.6-2.7-.1-3.4-.7-.3-10.1-.5-20.8-.6-10.7 0-20.6 0-22.1-.1-2.6 0-2.8-.3-2.8-4.5s-.7-5.4-2.3-3.8zm-272.6 73-.1 3.2-32.1.1c-19.6 0-32.8.4-34 1-2.2 1.2-3.4 5-2.4 7.9.6 2.1.7 2.1 67.4 2.1 36.7 0 67-.3 67.3-.6.7-.6-1.9-7.3-3.3-8.9-.6-.6-13-1.2-31.2-1.5l-30.2-.5-.6-3-.7-3-.1 3.2zM443 341c-8.9 4-42 17-43 17-.5 0-1-1.8-1.2-4-.4-5.6-2.2-5-2.6.8l-.3 4.8-6.2 2.6c-3.4 1.5-10.4 4.4-15.5 6.4-5.6 2.2-9.9 4.5-10.7 5.8-.7 1.1-2.7 7-4.5 13.1-1.7 6-3.8 12-4.6 13.2L353 403h-68.3c-52.9 0-68.7-.3-70.2-1.3-1.5-.9-7.8-1.1-26-.7l-24 .6 24.3.2c20.6.2 24.2.4 24.2 1.7 0 .8 1.2 2.3 2.7 3.2 2.4 1.6 6.2 1.8 35.8 2.2 18.1.1 49.9-.2 70.5-.8l37.5-1.1 2.2-2.5c2.2-2.5 2.2-2.5 23-2.8l20.8-.2-20.7-.3c-11.5-.1-20.8-.4-20.8-.7 0-.3.8-3.3 1.7-6.6l1.7-6.1 11.8.7c11.6.7 11.9.8 15.1 4 6.4 6.4 16 6.5 21.1.4 3.2-3.7 4-6.8 3.3-11.9l-.5-4 16.1-.3 16.2-.3-16.6-.2c-16.2-.2-16.6-.3-18.9-2.7-5.1-5.4-13.5-5.6-19.5-.4-2.9 2.6-4.1 3-8.1 2.7-4.6-.3-4.4-.4 11.2-6.6l15.9-6.2 20-.2 20-.3-18.5-.3-18.5-.3 19.5-7.8c17.6-7.1 19.5-8.1 19.8-10.4.2-1.7-.4-3-2-4.1-3-2.1-4.1-2-11.8 1.4zm-30 35.7c2.8 3.2 3.2 4.1 2.7 7.7-1.1 8.1-9.3 12-16.3 7.7-9.2-5.6-4.8-19.1 6.1-19.1 3.7 0 4.8.5 7.5 3.7zm-21.4 1.9c-.3.9-.6 3.1-.6 5v3.4h-11.5c-7.5 0-11.5-.4-11.5-1.1 0-5 7.5-8.8 17.4-8.9 5.8 0 6.7.2 6.2 1.6zM97.5 361c-1.1.5-10.2.9-20.2.9-11.5.1-18.3.5-18.3 1.1 0 .6 6.2 1 16.5 1h16.6l-2.6 2.7c-1.4 1.6-2.9 4.1-3.3 5.8l-.8 3-12 .5-11.9.6 11.8.2c11.7.2 11.7.2 11.7 2.6 0 1.4.4 3.6 1 5l1 2.6H76c-6.7 0-11 .4-11 1s4.4 1 11.1 1h11.1l3.9 3.4c7.5 6.4 17 6.7 24.8.9 3.8-2.9 7-9.3 7.1-13.9 0-3.9-1.7-9.1-4.2-12.7l-1.9-2.7H146l-2.3 2.6c-1.2 1.4-2.7 4-3.3 5.7-1 3.1-1.2 3.2-8.5 3.8l-7.4.5 7.3.2c6.9.2 7.2.3 7.2 2.6 0 1.4.4 3.6 1 5l1 2.6h-8.1c-5.1 0-7.8.4-7.4 1 .3.5 4.1 1 8.4 1 6.7 0 8.1.3 9.7 2.1 2.2 2.4 7.5 5.3 11.7 6.3 6.8 1.6 16.6-3.7 19.8-10.8 3-6.5 2.2-13.4-2.3-19.9l-1.9-2.7h13.5c8 0 13.6-.4 13.6-1 0-.9-25.4-2.1-40.5-1.9-21.5.2-46.8 0-52-.5-3.3-.3-6.9-.1-8 .4zm13.9 5.9c13.7 9 3.8 30.3-11.8 25.1-6.4-2.1-10.8-10-9.2-16.4.8-3.1 5.3-8.5 8-9.6 3.7-1.5 10-1.1 13 .9zm54 0c13.7 9 3.8 30.3-11.8 25.1-6.4-2.1-10.8-10-9.2-16.4.8-3.1 5.3-8.5 8-9.6 3.7-1.5 10-1.1 13 .9z"/><path d="M184.8 376.7c3.4.2 9 .2 12.5 0 3.4-.2.6-.3-6.3-.3-6.9 0-9.7.1-6.2.3zM180 388c0 .6 5.3 1 14 1s14-.4 14-1-5.3-1-14-1-14 .4-14 1zm243 0c0 .6 4.3 1 10.9 1 6.3 0 11.2-.4 11.6-1 .4-.6-3.5-1-10.9-1-7.1 0-11.6.4-11.6 1zM78.3 401.7c4.8.2 12.5.2 17 0 4.5-.1.6-.3-8.8-.3-9.3 0-13 .2-8.2.3zm43.9 0c6.5.2 17.1.2 23.6 0 6.4-.1 1.1-.3-11.8-.3s-18.2.2-11.8.3zm296.6 0c3.9.2 10.5.2 14.5 0 3.9-.1.7-.3-7.3-.3s-11.2.2-7.2.3zM75 412.1c0 .5 71.4.9 180 .9 99 0 180-.3 180-.8 0-.4-81-.8-180-.9-108.8-.1-180 .2-180 .8zm7.5 13.9c.9 1.4 344.5 1.4 344.5 0 0-.7-58.2-1-172.6-1-114.7 0-172.3.3-171.9 1zm7.5 11c0 .7 55.5 1 164.5 1s164.5-.3 164.5-1-55.5-1-164.5-1-164.5.3-164.5 1zm11.5 14c.4.7 52.3 1 152.5 1s152.1-.3 152.5-1c.4-.7-50.7-1-152.5-1s-152.9.3-152.5 1zm13 12c.9 1.4 276.1 1.4 277 0 .4-.7-46-1-138.5-1s-138.9.3-138.5 1zm22 14c.8 1.3 222.1 1.3 225 0 1.1-.5-47.4-.9-111.8-.9-75.6-.1-113.6.2-113.2.9z"/></g><path fill="#BF8040" fill-opacity=".02" stroke="#BF8040" stroke-opacity=".02" stroke-width=".1" d="M127.3 114.5c0 3.3.2 4.5.4 2.7.2-1.8.2-4.5 0-6s-.4 0-.4 3.3zm259.5 151.2c1.2.2 3.2.2 4.5 0 1.2-.2.2-.4-2.3-.4s-3.5.2-2.2.4zm22.5 0c1.5.2 3.9.2 5.5 0 1.5-.2.2-.4-2.8-.4s-4.3.2-2.7.4z"/><path fill="#B3661A" fill-opacity=".04" stroke="#B3661A" stroke-opacity=".04" stroke-width=".1" d="M395.4 166.5c0 4.9.1 7.1.3 4.8.2-2.3.2-6.4 0-9-.2-2.6-.3-.8-.3 4.2z"/><path fill="#AE5D23" fill-opacity=".09" stroke="#AE5D23" stroke-opacity=".09" stroke-width=".1" d="M404.4 165.5c0 5.5.1 7.6.3 4.7.2-2.9.2-7.4 0-10-.2-2.6-.3-.2-.3 5.3z"/><path fill="#A65927" fill-opacity=".18" stroke="#A65927" stroke-opacity=".18" stroke-width=".1" d="M66.3 327c0 3 .2 4.3.4 2.7.2-1.5.2-3.9 0-5.5-.2-1.5-.4-.2-.4 2.8z"/><path fill="#9C511B" fill-opacity=".37" stroke="#9C511B" stroke-opacity=".37" stroke-width=".1" d="M267.3 111.5c0 2.2.2 3 .4 1.7.2-1.2.2-3 0-4-.3-.9-.5.1-.4 2.3zm0 125c0 2.7.2 3.8.4 2.2.2-1.5.2-3.7 0-5-.2-1.2-.4 0-.4 2.8zm.1 151.5c0 6.9.1 9.7.3 6.2.2-3.4.2-9 0-12.5-.2-3.4-.3-.6-.3 6.3z"/><path fill="#C57335" fill-opacity=".45" stroke="#C57335" stroke-opacity=".45" stroke-width=".1" d="M125.3 116c0 2.5.2 3.5.4 2.2.2-1.2.2-3.2 0-4.5-.2-1.2-.4-.2-.4 2.3zm0 117.5c0 2.2.2 3 .4 1.7.2-1.2.2-3 0-4-.3-.9-.5.1-.4 2.3z"/><path fill="#B64924" fill-opacity=".03" stroke="#B64924" stroke-opacity=".03" stroke-width=".1" d="M230.3 402.7c6.4.2 17 .2 23.5 0 6.4-.1 1.1-.3-11.8-.3s-18.2.2-11.7.3zm67.9 0c9.2.2 24.5.2 34 0 9.5-.1 2-.3-16.7-.3s-26.5.2-17.3.3z"/><path fill="#B05B28" fill-opacity=".18" stroke="#B05B28" stroke-opacity=".18" stroke-width=".1" d="M176.3 327.5c0 2.7.2 3.8.4 2.2.2-1.5.2-3.7 0-5-.2-1.2-.4 0-.4 2.8z"/><path fill="#C77438" fill-opacity=".3" stroke="#C77438" stroke-opacity=".3" stroke-width=".1" d="M96.8 239.7c3.4.2 9 .2 12.5 0 3.4-.2.6-.3-6.3-.3-6.9 0-9.7.1-6.2.3zm37 0c3.4.2 8.8.2 12 0 3.1-.2.3-.3-6.3-.3s-9.2.1-5.7.3z"/><path fill="#C67336" fill-opacity=".35" stroke="#C67336" stroke-opacity=".35" stroke-width=".1" d="M387.8 177.7c1.2.2 3.2.2 4.5 0 1.2-.2.2-.4-2.3-.4s-3.5.2-2.2.4zm21.5 0c1.5.2 3.7.2 5 0 1.2-.2 0-.4-2.8-.4-2.7 0-3.8.2-2.2.4z"/><path fill="#C77338" fill-opacity=".36" stroke="#C77338" stroke-opacity=".36" stroke-width=".1" d="M108.3 122.7c1.5.2 3.7.2 5 0 1.2-.2 0-.4-2.8-.4-2.7 0-3.8.2-2.2.4zm22 0c1.5.2 3.7.2 5 0 1.2-.2 0-.4-2.8-.4-2.7 0-3.8.2-2.2.4z"/><path fill="#C57434" fill-opacity=".17" stroke="#C57434" stroke-opacity=".17" stroke-width=".1" d="M211.8 124.7c2.3.2 6.1.2 8.5 0 2.3-.2.4-.4-4.3-.4s-6.6.2-4.2.4zm117 0c1.8.2 4.5.2 6 0s0-.4-3.3-.4-4.5.2-2.7.4z"/><path fill="#2A2525" fill-opacity=".22" stroke="#2A2525" stroke-opacity=".22" stroke-width=".1" d="M97.8 221.7c2.9.2 7.4.2 10 0 2.6-.2.2-.3-5.3-.3s-7.6.1-4.7.3zm36.5 0c2.6.2 6.8.2 9.5 0 2.6-.2.4-.3-4.8-.3s-7.4.1-4.7.3zm102 0c1.5.2 3.7.2 5 0 1.2-.2 0-.4-2.8-.4-2.7 0-3.8.2-2.2.4z"/><path fill="#963" stroke="#963" stroke-width=".1" d="M381.8 196.7c7.8.2 20.6.2 28.5 0 7.8-.1 1.4-.3-14.3-.3-15.7 0-22.1.2-14.2.3z"/><path fill="#C86F37" fill-opacity=".09" stroke="#C86F37" stroke-opacity=".09" stroke-width=".1" d="M69.8 245.7c1.2.2 3.2.2 4.5 0 1.2-.2.2-.4-2.3-.4s-3.5.2-2.2.4z"/><path fill="#B86B33" fill-opacity=".2" stroke="#B86B33" stroke-opacity=".2" stroke-width=".1" d="M71.3 334.7c1.5.2 3.7.2 5 0 1.2-.2 0-.4-2.8-.4-2.7 0-3.8.2-2.2.4zm19 0c1.5.2 3.7.2 5 0 1.2-.2 0-.4-2.8-.4-2.7 0-3.8.2-2.2.4zm18.5 0c1.2.2 3.2.2 4.5 0 1.2-.2.2-.4-2.3-.4s-3.5.2-2.2.4zm21 0c1.2.2 3.2.2 4.5 0 1.2-.2.2-.4-2.3-.4s-3.5.2-2.2.4zm18.5 0c1.5.2 3.7.2 5 0 1.2-.2 0-.4-2.8-.4-2.7 0-3.8.2-2.2.4zm19 0c1.5.2 3.7.2 5 0 1.2-.2 0-.4-2.8-.4-2.7 0-3.8.2-2.2.4z"/><path fill="#262323" fill-opacity=".29" stroke="#262323" stroke-opacity=".29" stroke-width=".1" d="M230.3 373.7c6.4.2 17 .2 23.5 0 6.4-.1 1.1-.3-11.8-.3s-18.2.2-11.7.3z"/><path fill="#9CC" stroke="#9CC" stroke-width=".1" d="M115.4 375.4c-.3.8-.4 2.7-.2 4.3.3 2.3.5 2 .9-1.5.5-4.3.2-5.3-.7-2.8z"/><path fill="#9CF" stroke="#9CF" stroke-width=".1" d="M100.5 366.9c-1.1.5-2.2.7-2.5.6-.3-.2-2 1.7-3.9 4.1-2.6 3.4-3.1 4.8-2.3 5.6.7.7 1.2 1.9 1.2 2.7 0 1.4-.1 1.4-1 .1-1.3-2-1.3.1 0 3.4 1.1 2.9 4.6 6.7 5.4 5.8.3-.3.6 0 .6.7s.4 1 .9.6c.5-.3 1.2-.1 1.6.5.7 1.1 4.5 1.3 6.9.4.9-.3 1.4-1 1.1-1.4-.3-.5.3-.6 1.2-.4 1.2.3 2.7-.9 4.6-3.6 1.6-2.2 2.4-4 1.8-4-.6 0-1-1.7-1-3.8l.2-3.7.7 3.5.7 3.5.2-3.1c0-1.6-.4-3.5-1.1-4.2-.7-.7-.8-1.2-.3-1.2.4 0-.8-1.6-2.8-3.5-3.7-3.6-7.6-4.4-12.2-2.6zm55.5.1c1.1.7.7.8-1.5.6-2.4-.3-3.5.4-6.2 3.8-3.4 4.2-4 7.6-2.3 12 1.1 2.9 4.6 6.7 5.4 5.8.3-.3.6.1.6.8 0 .7.3 1 .7.7.3-.4 1.3-.1 2.1.6 1.2 1 1.6.9 2-.1.3-.9.8-1 1.6-.3 2 1.7 7-.8 9.6-4.7 3-4.2 3.8-11.3 1.6-13.5-.9-.9-1.6-2-1.6-2.6 0-1-1.4-1.5-3.3-1.2-.5.1-.6-.3-.3-.8.8-1.2-1.8-2.1-6.2-2.1-2.7 0-3.3.3-2.2 1zm246.6 8.2c.4.7.3.8-.5.4-2.7-1.7-7.6 5.7-6.5 9.9.3 1.4 1 2.2 1.5 1.9.5-.3.6.2.3 1-.8 2 5.2 4.7 9.3 4.2 2.6-.4 8.8-4.6 6.6-4.6-.4 0-.2-.5.5-1.2.8-.8.8-1.7.1-3.1-.8-1.4-.8-1.8 0-1.3.6.4 1.1.1 1.1-.7 0-2.1-4.8-6.9-6.2-6.1-.7.4-.8.3-.4-.4.5-.8-.4-1.2-2.9-1.2s-3.4.4-2.9 1.2z"/><path fill="#1C1C1C" fill-opacity=".33" stroke="#1C1C1C" stroke-opacity=".33" stroke-width=".1" d="M296.8 373.7c4.6.2 11.8.2 16 0 4.2-.1.5-.3-8.3-.3s-12.3.2-7.7.3z"/></svg>