<svg xmlns="http://www.w3.org/2000/svg" version="1.0" viewBox="0 0 4000 3854"><path fill-opacity=".06" stroke="#000" stroke-opacity=".06" stroke-width=".1" d="M440 1959.5c3 3 5.7 5.5 5.9 5.5.3 0-1.9-2.5-4.9-5.5-3-3-5.7-5.5-5.9-5.5-.3 0 1.9 2.5 4.9 5.5zM3880.5 2135c7.1 7.1 13.2 13 13.5 13 .2 0-5.4-5.9-12.5-13-7.1-7.2-13.2-13-13.5-13-.2 0 5.4 5.8 12.5 13zm-175 40c2.7 2.7 5.1 5 5.4 5 .3 0-1.7-2.3-4.4-5-2.7-2.8-5.1-5-5.4-5-.3 0 1.7 2.2 4.4 5zm-3417.6 13.7-3.4 3.8 3.8-3.4c2-1.9 3.7-3.6 3.7-3.8 0-.8-.8 0-4.1 3.4zm-84.9 77-8.5 8.8 8.8-8.5c4.8-4.6 8.7-8.6 8.7-8.7 0-.8-1.1.3-9 8.4zm1712.5 167.5-6 6.3 6.3-6c5.8-5.5 6.7-6.5 5.9-6.5-.1 0-2.9 2.8-6.2 6.2zm610 64-4 4.3 4.3-4c3.9-3.6 4.7-4.5 3.9-4.5-.2 0-2.1 1.9-4.2 4.2zm-978 795.8c5.5 5.5 10.2 10 10.5 10 .2 0-4-4.5-9.5-10s-10.2-10-10.5-10c-.2 0 4 4.5 9.5 10zm2037.4 35.7-3.4 3.8 3.8-3.4c2-1.9 3.7-3.6 3.7-3.8 0-.8-.8 0-4.1 3.4zM1402 3348.5c4.7 4.7 8.7 8.5 9 8.5.2 0-3.3-3.8-8-8.5s-8.7-8.5-9-8.5c-.2 0 3.3 3.8 8 8.5zm-880 71c4.7 4.7 8.7 8.5 9 8.5.2 0-3.3-3.8-8-8.5s-8.7-8.5-9-8.5c-.2 0 3.3 3.8 8 8.5zm-213 6c1.9 1.9 3.6 3.5 3.9 3.5.3 0-1-1.6-2.9-3.5s-3.6-3.5-3.9-3.5c-.3 0 1 1.6 2.9 3.5zm16 16c3 3 5.7 5.5 5.9 5.5.3 0-1.9-2.5-4.9-5.5-3-3-5.7-5.5-5.9-5.5-.3 0 1.9 2.5 4.9 5.5zm424 342c-4.1 4.1-7.2 7.5-6.9 7.5.2 0 3.8-3.4 7.9-7.5 4.1-4.1 7.2-7.5 6.9-7.5-.2 0-3.8 3.4-7.9 7.5z"/><path fill="#0C0C0C" fill-opacity=".25" stroke="#0C0C0C" stroke-opacity=".25" stroke-width=".1" d="M1965.3.7c1.5.2 3.9.2 5.5 0 1.5-.2.2-.4-2.8-.4s-4.3.2-2.7.4zm149.5 0c1.2.2 3.2.2 4.5 0 1.2-.2.2-.4-2.3-.4s-3.5.2-2.2.4zm-182 1c1.2.2 3 .2 4 0 .9-.3-.1-.5-2.3-.4-2.2 0-3 .2-1.7.4zm89 149c3.4.2 8.8.2 12 0 3.1-.2.3-.3-6.3-.3s-9.2.1-5.7.3zm70 0c3.4.2 8.8.2 12 0 3.1-.2.3-.3-6.3-.3s-9.2.1-5.7.3zm-120 1c1.2.2 3.2.2 4.5 0 1.2-.2.2-.4-2.3-.4s-3.5.2-2.2.4zm1048.6 818.8c0 5.5.1 7.6.3 4.7.2-2.9.2-7.4 0-10-.2-2.6-.3-.2-.3 5.3zM698.3 983c0 3.6.2 5 .4 3.2.2-1.7.2-4.7 0-6.5-.2-1.7-.4-.3-.4 3.3zm2608 20c0 2.5.2 3.5.4 2.2.2-1.2.2-3.2 0-4.5-.2-1.2-.4-.2-.4 2.3zm-2608 18c0 3.6.2 5 .4 3.2.2-1.7.2-4.7 0-6.5-.2-1.7-.4-.3-.4 3.3zm2608 38.5c0 2.2.2 3 .4 1.7.2-1.2.2-3 0-4-.3-.9-.5.1-.4 2.3zm-2524 14c0 2.7.2 3.8.4 2.2.2-1.5.2-3.7 0-5-.2-1.2-.4 0-.4 2.8zm2443.1 38.5c0 10.2.2 14.3.3 9.2.2-5 .2-13.4 0-18.5-.1-5-.3-.9-.3 9.3zm-155.1-6.5c0 3.3.2 4.5.4 2.7.2-1.8.2-4.5 0-6s-.4 0-.4 3.3zm-2131 19.5c0 3.6.2 5 .4 3.2.2-1.7.2-4.7 0-6.5-.2-1.7-.4-.3-.4 3.3zm0 20.5c0 2.7.2 3.8.4 2.2.2-1.5.2-3.7 0-5-.2-1.2-.4 0-.4 2.8zm735.5 295.2c2.3.2 6.1.2 8.5 0 2.3-.2.4-.4-4.3-.4s-6.6.2-4.2.4zm1219.5 54.8c0 2.7.2 3.8.4 2.2.2-1.5.2-3.7 0-5-.2-1.2-.4 0-.4 2.8zm-1778 13.5c0 3.6.2 5 .4 3.2.2-1.7.2-4.7 0-6.5-.2-1.7-.4-.3-.4 3.3zm0 35c0 3.6.2 5 .4 3.2.2-1.7.2-4.7 0-6.5-.2-1.7-.4-.3-.4 3.3zm1778 .5c0 2.7.2 3.8.4 2.2.2-1.5.2-3.7 0-5-.2-1.2-.4 0-.4 2.8zm202 377.5c0 2.5.2 3.5.4 2.2.2-1.2.2-3.2 0-4.5-.2-1.2-.4-.2-.4 2.3zm-1121.9 40c0 19 .2 26.7.3 17.2.2-9.4.2-25 0-34.5-.1-9.4-.3-1.7-.3 17.3zm1121.9 3.5c0 2.2.2 3 .4 1.7.2-1.2.2-3 0-4-.3-.9-.5.1-.4 2.3zM2028.5 2009c0 25.6.1 36 .2 23.2.2-12.7.2-33.7 0-46.5-.1-12.7-.2-2.3-.2 23.3zm-1115.2-32.5c0 2.2.2 3 .4 1.7.2-1.2.2-3 0-4-.3-.9-.5.1-.4 2.3zM1973.5 2320c0 24.5.1 34.5.2 22.2.2-12.2.2-32.2 0-44.5-.1-12.2-.2-2.2-.2 22.3zm259.9-12c0 9.1.2 12.8.3 8.2.2-4.5.2-11.9 0-16.5-.1-4.5-.3-.8-.3 8.3zm-465 3c0 5.2.1 7.4.3 4.7.2-2.6.2-6.8 0-9.5-.2-2.6-.3-.4-.3 4.8zm261 39.5c0 8.8.2 12.3.3 7.7.2-4.6.2-11.8 0-16-.1-4.2-.3-.5-.3 8.3zm1673.9 16.2c1.5.2 3.9.2 5.5 0 1.5-.2.2-.4-2.8-.4s-4.3.2-2.7.4zm-2454 314.3c0 2.5.2 3.5.4 2.2.2-1.2.2-3.2 0-4.5-.2-1.2-.4-.2-.4 2.3zm897-3.3c1.5.2 3.7.2 5 0 1.2-.2 0-.4-2.8-.4-2.7 0-3.8.2-2.2.4zm-43 1c1.5.2 3.9.2 5.5 0 1.5-.2.2-.4-2.8-.4s-4.3.2-2.7.4zm-267 1c1.5.2 3.7.2 5 0 1.2-.2 0-.4-2.8-.4-2.7 0-3.8.2-2.2.4zm216 0c2 .2 5.4.2 7.5 0 2-.2.3-.4-3.8-.4s-5.8.2-3.7.4zm-154.5 1c5.7.2 14.7.2 20 0 5.3-.1.7-.3-10.3-.3s-15.4.2-9.7.3zm60.4 0c5.9.2 15.8.2 22 0 6.2-.1 1.4-.3-10.7-.3s-17.2.2-11.3.3zm-.4 60c2.8.2 7.6.2 10.5 0 2.8-.2.5-.3-5.3-.3s-8.1.1-5.2.3zm54 0c1.2.2 3.2.2 4.5 0 1.2-.2.2-.4-2.3-.4s-3.5.2-2.2.4zm628.5 71.8c0 3.3.2 4.5.4 2.7.2-1.8.2-4.5 0-6s-.4 0-.4 3.3zm-1155.9 9c0 5.5.1 7.6.3 4.7.2-2.9.2-7.4 0-10-.2-2.6-.3-.2-.3 5.3zm39.9 12c0 2.7.2 3.8.4 2.2.2-1.5.2-3.7 0-5-.2-1.2-.4 0-.4 2.8zm60 9c0 2.2.2 3 .4 1.7.2-1.2.2-3 0-4-.3-.9-.5.1-.4 2.3zm1056 2c0 3.3.2 4.5.4 2.7.2-1.8.2-4.5 0-6s-.4 0-.4 3.3zm-833 28c0 2.7.2 3.8.4 2.2.2-1.5.2-3.7 0-5-.2-1.2-.4 0-.4 2.8zm225.7 13.7c0 .5 1.8.8 4 .8s4-.2 4-.4-1.8-.6-4-.8c-2.2-.2-4 0-4 .4zm-106.3 1.5c1.8.2 5 .2 7 0 2.1-.2.7-.4-3.2-.4-3.8 0-5.5.2-3.8.4zm-703.3 14.8c0 8.2.2 11.5.3 7.2.2-4.3.2-11 0-15-.1-4-.3-.5-.3 7.8zm1145.9-11c0 2.2.2 3 .4 1.7.2-1.2.2-3 0-4-.3-.9-.5.1-.4 2.3zm-738 6c0 2.2.2 3 .4 1.7.2-1.2.2-3 0-4-.3-.9-.5.1-.4 2.3zm620 27c0 2.2.2 3 .4 1.7.2-1.2.2-3 0-4-.3-.9-.5.1-.4 2.3zm-297.5 22.2c1.7.2 4.7.2 6.5 0 1.7-.2.3-.4-3.3-.4-3.6 0-5 .2-3.2.4zm75 126c3.9.2 10.5.2 14.5 0 3.9-.1.7-.3-7.3-.3s-11.2.2-7.2.3zm1301 76c1.2.2 3 .2 4 0 .9-.3-.1-.5-2.3-.4-2.2 0-3 .2-1.7.4zm10 0c1.2.2 3 .2 4 0 .9-.3-.1-.5-2.3-.4-2.2 0-3 .2-1.7.4zm-2842.5 102c1.5.2 3.7.2 5 0 1.2-.2 0-.4-2.8-.4-2.7 0-3.8.2-2.2.4zm2845.5 17c1.2.2 3 .2 4 0 .9-.3-.1-.5-2.3-.4-2.2 0-3 .2-1.7.4zm18 0c1.2.2 3 .2 4 0 .9-.3-.1-.5-2.3-.4-2.2 0-3 .2-1.7.4zm403.5 19.8c0 2.2.2 3 .4 1.7.2-1.2.2-3 0-4-.3-.9-.5.1-.4 2.3zm-1606 220.2c1.5.2 3.9.2 5.5 0 1.5-.2.2-.4-2.8-.4s-4.3.2-2.7.4zm35 0c1.5.2 3.7.2 5 0 1.2-.2 0-.4-2.8-.4-2.7 0-3.8.2-2.2.4z"/><g stroke="#000" stroke-width=".1"><path d="M1965 .7c-407.7 10.8-713.6 103.7-927.5 281.8-33.5 27.9-76.4 69.5-103.6 100.6-73.5 84.2-129.9 177.1-174 287.1-53.5 133.4-72.7 289.2-54.8 446.8 23.9 211.7 113.8 419.4 243.2 562.2l7.9 8.7-1.7 8.3c-.9 4.6-7.5 35.3-14.5 68.3-23.9 111.7-24 112.3-26.2 161.2-3.3 75.4 6.8 150.5 29.6 218.8 20.7 61.9 48.5 110.1 82.4 142.6 25.9 24.9 73.8 53.8 118.7 71.7 15 6 51.3 18.2 54 18.2.8 0 1.5.1 1.5.2.1.2 1.8 8.6 3.9 18.8 2.1 10.2 3.8 18.6 3.7 18.7-.1.1-8-5-17.6-11.3-48.3-31.8-121.2-76-252-152.9-121.1-71.2-160.3-94.6-251.4-150.1-20.1-12.2-28.1-19-40.6-34.5-15.1-18.8-24.3-35.9-43-80.4-19.4-46.2-31.9-69.8-50-94.6-18-24.8-33.7-41.3-57.4-60.2-56-45-114.8-64.7-164.4-55.2-57.4 11.1-105.4 60.6-129.7 134-11.8 35.9-18.9 78.8-22.9 139-.9 12.6-1.9 26.7-2.2 31.3l-.6 8.2-28.8 25.4c-38.6 34.2-54.2 48.8-68.8 64.9-27.2 29.8-45.1 55.4-59.7 85.2-7.6 15.5-11.3 26-15.1 42.1C.8 2316.7.6 2318.9.6 2338c0 19.6.2 21 3.1 32 7.1 26.9 18.5 46.3 39 66.1 14.8 14.4 28.6 24 48.9 34.2 60.1 30.1 147.8 42.5 222.9 31.6 14.3-2.1 23.3-3.7 57.5-10.8 33.2-6.9 44.6-8.2 73-8.8 42-.8 38-1.7 88 19.2 265.6 110.9 546.6 221.3 682.7 268.3l19.4 6.7-.5 3c-2.4 14.5-6.9 47.3-8.3 61.5-1.4 14-1.8 26.5-1.8 62 0 24.5.3 46.3.7 48.6l.8 4-5.3 1.9c-12.4 4.3-69.7 26.5-126.2 48.7-158.7 62.5-230.6 89.1-337.5 124.9-51.5 17.3-55.4 18.1-89.5 18.1-29.8-.1-46.4-3.1-87.5-15.8-47.4-14.6-60.5-16.9-97.5-16.9-33.2 0-55.7 2.7-94 11.5-52.4 11.9-63.7 17.1-86.5 40-28.5 28.6-47.7 67.2-52.1 105-1.6 13.9-.6 36.5 2.1 49.5 8 38 24.9 68.3 56.6 101.4 9.5 10 102.6 99.2 114 109.3 4.1 3.7 4.2 4.1 6.3 15 5.2 27.9 8.7 55.2 13.1 104 3.4 36.5 4.9 48.6 7.9 63.3 12.6 60.1 57.6 114 109.8 131.4 16.1 5.3 24.8 6.6 44.8 6.5 14.6 0 19.9-.5 28.4-2.3 31.3-6.7 62.9-22.4 92.1-45.9 13.7-11 37.8-35.5 50.4-51.2 20.3-25.4 35.8-49.9 55.3-87.5 31.8-61.2 48.4-90.3 67.3-118.5 5.6-8.3 6.1-8.8 18.6-16.5 141.3-86.7 294.7-186.9 389.3-254.3 18-12.8 24.6-17 25.2-16 .4.7 4.1 5.9 8.1 11.5 41.9 58.3 89.4 105.1 144.3 142.2 50.6 34.2 96.8 55.1 149.5 67.6 54.7 13.1 93.1 19.6 140 23.7 22 2 86.8 1.6 110-.5 35.3-3.4 69-8.6 101.5-15.7l18-4 8 1.9c21.7 5.2 54.2 10.9 79 14 101.2 12.6 198.4 3.9 288.5-25.9 27.9-9.2 47.3-17.1 74.5-30.4 59.9-29.3 106.6-62.6 153.6-109.6 22.6-22.5 37.6-39.6 54.2-61.7 6-8.1 10.4-13 11.1-12.6.6.4 9.2 6.3 19.1 13.2 90.8 63 260.5 171.5 387.1 247.4 11.4 6.8 14.5 9.7 30 28.2 22.2 26.4 41.5 58.9 55.9 94 3.1 7.7 8 19.4 10.7 26 11.4 27.7 23.7 48.6 39.7 67.7 8.1 9.7 34.6 35.6 51.8 50.7 39.8 34.8 75.5 55.3 109.3 62.6 11.5 2.5 34.5 3 46.2 1.1 20.3-3.3 43.4-12.8 60.3-24.7 11.1-7.9 29.9-26.5 38.7-38.2 27-36.4 43.1-82.7 52.3-150.2 2.1-15.4 10.5-102.2 10.5-108.3 0-1.7 8.1-8.8 60.9-53.6 21.3-18.1 58.5-55 70.5-70.1 25-31.3 40.9-62.7 47.3-93.5 1.4-6.4 1.8-13.1 1.8-27 0-16.8-.3-19.5-2.8-29.3-7.6-30.4-23.7-55.5-50.1-78.3-14.9-12.9-29.1-22.1-49.1-31.9-44.5-21.9-89.2-31.8-143-31.9-42 0-71.4 4.9-113 18.9-37.9 12.7-58 16-82.5 13.6-29.6-3-53.8-10.9-131.5-42.8-144.2-59.3-241.3-94.3-381.9-137.7-17-5.3-31-9.7-31.2-9.9-.2-.2.1-8.2.7-17.8.7-10.1.9-29.3.6-45.9-.8-38.9-3.4-66.9-9.8-104.3-1.7-9.9-2.9-18.1-2.7-18.3.3-.2 19.8-6.9 43.4-14.8 163-54.7 388-141.2 635.2-244.2 59.7-24.9 69.7-28.3 93.3-31.8 14.8-2.2 35-2.1 49.1.4 11.6 2 20.1 4.3 46.3 12.5 17.4 5.4 30.5 8.6 46 11.2 14.9 2.4 55 2.5 74.5.1 7.4-1 19.7-2 27.2-2.3 48.8-2 95.7-14.6 130.3-35 44.1-25.9 74-66.5 83.5-113.3 3.8-19 5.1-43.5 3-55.8-6.2-34.7-33.4-74.4-96.1-140.4-15.8-16.5-50-50.2-72.5-71.3l-6.1-5.7-.6-17.8c-1.7-48-10.5-97.9-26.7-151.6-6.8-22.5-17.1-50.7-23.1-63.5-13.1-27.8-32.3-48.3-61.3-65.6-38.1-22.7-79.9-26.4-124.6-11.1-23.3 8.1-52.2 24.7-76 43.9-12.8 10.3-42.6 38-53.8 50.1-23.1 24.9-39.5 52.7-54.6 92.6-3.7 9.6-9.2 24.2-12.3 32.5-11.5 30.3-29.1 61.8-46.3 83.2-14 17.3-19.7 22.8-28.8 27.9-88.6 49.4-237.2 136.4-333.7 195.4-72 44-176.3 110.5-175.2 111.6 1.6 1.6 130.4-45.1 223.4-81 78.8-30.4 255.6-101.3 302.3-121.3 56-23.9 80.6-41.5 113.5-80.8 21.7-25.9 34.6-46.6 54.6-87.5 29.2-59.7 35.9-70.3 55.4-87.7 24.8-22.1 53.3-41.5 67.9-46.2 11.3-3.6 12.1-3.6 16 .1 3 2.9 4.3 5.7 9.4 21.8 10.9 33.7 18.3 67.1 22.8 103 1.2 9.6 1.9 26.3 2.4 57.5.8 46.2.9 47.3 5.8 57 4.7 9.3 11.4 16.9 37.6 42.5 45.5 44.3 78.7 78 92.1 93.4 17.4 19.9 38.4 46.7 38.5 48.9 0 2.7-10.5 12.6-17.8 16.8-8.9 5.2-25.5 10.4-40.7 12.8-21.5 3.4-71.2 8.4-83.5 8.4-13.6.1-18.7-.7-50.5-8-13.2-3-30.4-6.5-38.1-7.8-53.1-9-98.6-3-157.4 20.8-40.9 16.6-80 36.9-200.5 104.2-30.8 17.2-72.9 40.6-93.5 52-136 75.4-287.4 163.4-375.3 218.4-14.3 8.8-26.3 15.8-26.8 15.5-.5-.3-.9-1.3-.9-2.3 0-1-2.5-11.9-5.6-24.2l-5.7-22.4.6-28.5c1.3-62.9 8.8-117.1 29.2-211.7 4.8-21.9 11.4-53.2 14.7-69.5l6.1-29.7 13.1-4.1c57.1-18.1 110.3-42.5 142.8-65.6 12.4-8.8 40.6-37.3 51.9-52.6 31.2-42 53.6-92.2 68.3-153.8 13.1-54.5 19.3-120.6 16.7-179.2-.6-14.4-1.6-30.8-2.2-36.3-1.7-16.7-9.8-58-26.4-135-5.7-26.4-11.8-54.9-13.5-63.2l-3.2-15.3 15.4-16.2c18.6-19.8 33-36.2 46.4-52.8 99.4-123.5 163.7-276.3 185.8-442 5.9-44.4 8-76.7 8-126 0-84.9-9.1-157.4-29.9-239.5-49.6-195.8-158.8-372.3-316-511-66.1-58.3-109.7-87.3-180.5-120C2602.6 78.4 2320.2 9.6 2126 1c-19.3-.8-132.9-1.1-161-.3zM2126.1 151c101.2 3.7 256.8 30.4 389.9 66.9 145.4 39.9 258.8 88.6 335 144 33.1 24 88.6 75.1 125 115.1 72.6 79.7 133.6 174.4 174.9 271.3 34.5 81 56.8 163.6 67.5 249.3 5.4 42.7 6.9 69.1 6.9 114.4 0 38.1-.9 57.1-4.4 92-14.4 143.4-63.1 280.9-142.7 403-10.8 16.6-29.4 43-30.3 43-.3 0-2.9-12.9-5.7-28.8-13.7-75.9-18.1-115.6-18.9-170.2-.6-36.8.3-56.5 3.8-84.5 3.9-31 8.3-50.4 26.9-121 14.6-55.4 18-86 16.1-147.2-1.3-41.8-2.3-58-5.1-80.8-7.3-58-24.9-97.9-54.6-123.6-6.8-5.9-18.4-14.4-18.4-13.5 0 .3 2.7 4.7 6.1 9.8 11 16.8 17.3 32.7 20.6 51.6 2.2 12.9 2.1 44.7-.1 63.7-4.6 39.6-16.9 98.4-29.1 140-11 37.4-19.2 58.3-42.9 109.9-25.8 56-33.2 78.4-40.5 122.1-15.1 90.2-15.6 181.4-1.6 290.5 5.4 41.4 12.5 82.5 26.5 153 13.6 68.6 14.8 77.4 15.7 120.5 2.1 101.9-19.4 193.4-57.3 243.8-7.2 9.6-17.5 18.4-37.4 32-24.7 16.8-54.2 31.9-101 51.7-53.3 22.6-61.8 26.3-78.5 34.5-52.4 25.8-104.5 63.1-142.5 102.1-34.5 35.5-56.8 69.9-68.8 106.6-13.2 40.2-15.5 77.5-7.6 123l.6 3.6-10.3 3.2c-71.7 22.2-159 32.3-308.9 36-295.2 7.2-446.2.4-546.5-24.6-12.9-3.3-31.7-8.4-32.2-8.8-.2-.1.6-6.3 1.7-13.7 7.9-53.4-1.1-106.8-26.1-155.9-32.4-63.4-92.6-119.4-168.4-156.5-9.3-4.6-39.3-17.2-66.5-28-71.4-28.4-94.6-39-120.7-55.1-22.3-13.7-46.6-33.7-55-45-30.6-41.5-48-96.8-55.5-175.9-1.7-18.7-1.8-100.2 0-113.4.7-5.1 5.1-29.9 9.8-55 22.8-122.3 29.3-161.4 34.9-212.6 9.3-85.6 7.6-166.3-5.1-243.5-8.5-51.2-17.4-78.4-47.2-143-34-74-39.8-90.9-54.1-158.5-9.6-45.7-14.1-80.8-14.1-110.6 0-37 6-59.2 22.5-83.8 3.1-4.6 5.4-8.5 5.2-8.8-1-.9-17.8 12.6-25.3 20.3-38.3 39.3-52.3 99.1-52.5 223.7-.1 54.2 4.4 83.1 22.6 144.2 12.7 42.7 18.5 69.7 22.2 103.5 2.5 22.9 2.5 93.8 0 124.5-2.9 34.6-6.4 63.3-11.6 94.5-5.5 32.9-13.1 74.2-13.8 75-.8.8-4.3-4.1-16.5-23.3-32.9-51.7-64-114-85.8-171.7-43.7-115.9-68.1-241.7-74-382.5-2.2-53.7-.5-90.9 6.6-140.5 23.9-167.1 94.6-322.2 205.3-450 51.4-59.3 122.2-121.7 178.1-157.2 185.5-117.4 449.3-182.7 783-193.8 59.3-2 132.1-2.4 170.1-1zM369.4 1914c26.2 8.1 51.7 24.7 74.6 48.7 18.2 18.9 28.6 35 51.8 79.8 15.7 30.4 20.2 38.3 30.9 54 18.1 26.3 39.8 49.2 68.5 72.1 14.6 11.7 58.3 33 139.8 68.2 142.8 61.5 318 128.5 453.5 173.2 10.5 3.5 19.2 6.4 19.4 6.6 1.3 1.1 23.6 108.7 28.5 137.9 8.8 52.1 13.6 103.1 13.6 144.2 0 13.3-.3 15.2-3.9 29.5-2.2 8.4-5 19.9-6.2 25.6-1.8 8.1-2.6 10.2-3.7 9.7-.8-.3-9.7-5.8-19.6-12.2-107.9-69.5-261.9-160-423.1-248.5-103.2-56.7-254.8-136.9-266.3-140.9-8.3-2.9-32.5-7.6-48.7-9.4-18.6-2.2-63.3-3.1-80.2-1.6-7.3.6-25.8 2.9-41 5-39.7 5.7-53.9 7.1-78.8 7.8-43.3 1.1-76.4-4.2-107.8-17.6-6.4-2.6-13.6-6.1-16.2-7.5-3.8-2.3-4.5-3.1-3.9-4.9 1.3-4.6 9.2-17.3 17.2-28 18.9-25.1 38.7-45.2 81.7-82.7 50-43.6 64.2-60 71.3-83 2.5-8.2 2.9-13.1 4.7-58 3-72.8 5.7-96.4 15-130.5 2-7.2 4.7-15.3 6.1-18.1 2.8-5.5 14.2-21.4 15.5-21.4.4 0 3.7.9 7.3 2zm2402 469.2c-.5.7-4.9 7.6-9.9 15.3-65.6 100.5-108.1 204.5-125.1 306-2.5 14.8-2.6 16.7-1.5 26 6.4 56.4 7.5 107.9 3.6 157.5-16 199.5-111 366.3-263.9 463.2-21.5 13.6-80.2 42.6-122.7 60.6-56.1 23.7-89.3 34-176.9 54.7-27.2 6.4-54.7 12.9-61.1 14.5l-11.6 3-26.9-6.4c-14.8-3.5-42.8-10.1-62.3-14.6-78.1-18.1-128.1-34.5-206.1-67.8-53.6-22.9-71.8-31.8-90.4-44.2-59.4-39.7-124.3-111.2-169.6-187-24-40-44.9-86.5-56.4-125.5-7.1-23.9-15.4-65.5-20.6-102.3-5.9-42.5-8-71.6-8-113.3 0-32.2 1-50.3 4.4-81.9 2.2-20.2 2.2-20.6.4-32.3-15.1-99-57-203.1-124-307.5-6-9.5-9.1-15.1-8-14.8.9.3 8 1.9 15.7 3.6 7.7 1.7 21.4 4.8 30.5 6.9 9.1 2.2 23.6 5.6 32.2 7.6 8.7 2 16 4 16.2 4.3.2.4 1.4 7.2 2.6 15.2 16.8 112.3 94.2 395.1 133.2 486.9 5.6 13.4 6.9 15.6 7.7 14.2.5-.7 2.2.9 4.6 4.6 29.2 44.1 79.1 90.8 131.5 123.1 86.3 53.1 189.4 84.1 316 94.9 29.3 2.5 111.6 2.5 141.4 0 94.9-8.1 175.7-25.9 249.6-55.2 65.7-26.1 115.6-56.6 154.9-95 22.5-22 38.2-42.8 49.8-66.2 3.1-6.2 6-11.3 6.4-11.3 1.1 0 12-26.3 19.8-47.6 40.3-110.6 102.5-343.8 119.2-446.6l2.3-13.8 8-3.1c12.4-4.8 37-12.7 47-15 5-1.2 17.7-4.3 28.1-6.9 10.5-2.6 19.4-4.8 19.8-4.8.5-.1.5.4.1 1zm-1397.8 42.7c14 6.9 33.4 17.8 64.1 36 14.5 8.6 18.7 11.7 30.3 22.4 40.9 37.7 62.4 71 76 117.3 3.1 10.6 10 39.4 10 41.8 0 .5-20.3-6.2-31-10.3l-5.5-2.1 3 2.5c29 24.8 71.6 46.8 122 63.1 9.9 3.2 18.1 5.8 18.2 5.9.2.1-1.3 3.8-3.1 8.2-12 28.4-20.8 70.7-24.5 118.2-.6 6.8-1.2 12.6-1.5 12.9-.6.5-9.8-2.6-32.7-11l-13.6-4.9-1.1-24.7c-2.2-46.6-8.3-83.2-18.6-112.7-3.6-10.4-8.4-21.5-9.2-21.5-.3 0-2.3 3.7-4.4 8.2-11.5 24.6-19.8 59.7-24.7 103.8-2.2 20.6-2.6 84.2-.5 104 3 29.2 8.7 58.7 14.8 77.3 1.4 4.3 2.4 8 2.2 8.3-1.1 1.1-53.8-36.6-64.9-46.4l-4.2-3.8 2.1-11.4c5.9-31.6 7.6-56.7 6.9-96.9-.3-16.8-1.3-37.6-2.2-46.1-12.4-121.9-57-247.4-119-334.5-3.9-5.5-7.4-10.5-7.8-11.2-1.2-1.9 3.1-.1 18.9 7.6zm1258.8 3.8c-23.5 35.7-40.4 67.3-56.9 105.7-27.6 64.7-47.1 135.8-55.4 202.6-4 31.9-4.6 42.1-4.5 77.5 0 42.2.9 51.9 9.1 98.1.5 2.9-.3 4-11.3 15-6.6 6.6-16.8 15.9-22.9 20.8-10.3 8.2-38.6 27.9-39.2 27.2-.2-.2.8-2.8 2.1-5.8 12.3-27.9 20.7-69.8 23.6-117.8 4.1-69.3-6.4-146.7-25.8-189.4-2.3-5.1-3.2-8.1-2.5-8.3 3.3-1.1 40.7-27.2 40-27.9-.1-.2-7.4 2.2-16.1 5.2l-15.9 5.4.7-4.2c.4-2.4 2.4-11.3 4.6-19.8 14.5-57.9 37.4-95.5 80.5-132.8 12.6-10.8 14.8-12.3 38-25.8 14-8 52-28.3 53.4-28.4.2 0-.5 1.2-1.5 2.7zM2443 2659.5c0 .2-1 2.8-2.1 5.7-4.2 10.4-7 19.5-10.4 32.8-7.7 30.8-11.3 60.3-12.4 101.4l-.6 24.8-13.3 5.4c-16.1 6.4-34.1 12.8-34.6 12.3-.2-.2-.9-7.2-1.5-15.4-3.4-45.1-11.1-84.9-22.2-114.4-2.3-6.2-4-11.3-3.8-11.5.2-.1 7.2-2.4 15.4-5 21.7-6.9 45.5-16.5 65.3-26.3 9.5-4.8 17.5-9 17.8-9.5.5-.8 2.4-1.1 2.4-.3zm-108 43.7c0 .2-1.6 4.8-3.5 10.2-12.1 33.8-21.5 93.3-21.5 136.1 0 5.2-.4 9.6-.9 9.9-2.5 1.6-56.6 11.5-57.5 10.5-.2-.2-.9-7.4-1.5-15.9-3.4-46.4-10.4-85.1-21-116.4-2.2-6.6-4-12.1-3.8-12.2.1-.1 6.7-1.2 14.7-2.3 20.1-3 55.2-10.2 75.5-15.5 16.1-4.2 19.5-4.9 19.5-4.4zm-650 5.7c22.3 5.7 52.9 11.9 74 15.2 8 1.2 14.6 2.3 14.7 2.4.2.1-1.5 5.5-3.7 12.1-9.8 28.9-17.1 68.5-20 107.9-1.9 26-1.8 25.6-4.3 25-1.2-.2-9-1.8-17.2-3.4-8.3-1.7-20.1-4.2-26.3-5.6l-11.2-2.7v-7.1c0-9.7-1.7-33.1-3.5-50.2-4.1-36.7-12.5-72.5-23-96.8-.4-.9-.3-1.7.2-1.7s9.6 2.2 20.3 4.9zm530 18.3c0 .2-1.6 4.9-3.5 10.6-9.9 29.7-17.2 76.8-19.1 122.9-.4 9-.8 16.3-.8 16.4-.4.2-43.2 3.5-43.4 3.3-.2-.1-.8-6.7-1.3-14.6-2.9-44.6-9.6-84-19.6-115.2-2.4-7.6-4.1-14.2-3.6-14.6.4-.3 10.7-1.5 22.8-2.4 12.1-1 30.8-2.8 41.5-4.1 18.2-2.1 27-2.8 27-2.3zm-401.8 4.3c11.7 1.3 31.2 3.1 43.3 4.1 12.1.9 22.1 1.8 22.2 1.9.2.1-.8 3.5-2.2 7.6-6.5 18.8-12.8 47.6-16.5 74.8-2.2 17.1-5 49-5 58.2 0 7.1 2.6 6.6-25.3 4.2-13.8-1.1-20.3-2.1-21.3-3-1-1.1-1.4-4.3-1.4-11.9 0-39.6-8.6-97.6-19.5-130.7-1.4-4.3-2.5-8-2.5-8.3 0-.4 1.5-.3 3.4 0 1.9.4 13 1.7 24.8 3.1zm296.7 13.2c-10.3 30.4-18.4 79.4-20.5 124.5l-.7 14.7-2.6.5c-1.4.3-10.2.7-19.6 1.1-9.3.3-20.7.8-25.2 1.1l-8.3.6v-6.3c0-3.5-.5-12.5-1-19.9-3.1-41.6-9.1-78-17.7-106-2-6.3-3.8-12.3-4-13.3-.5-1.6.6-1.7 13.7-1.7 19.1 0 66.3-2.1 87.2-3.9 1.5-.1 1.3 1-1.3 8.6zm-159.5-4.7c24.1.6 44.8.8 45.9.4 1.6-.5 1.9-.3 1.3 1.2-11.7 30.4-19.7 77.5-23.2 135.6l-.6 10.8h-22.2c-12.3 0-25.7-.3-29.8-.6l-7.6-.7-.6-13.1c-1.8-34.1-5-62.8-10.2-88.5-3.1-15.8-8.6-37.3-11.4-44.5l-1.1-2.9 7.8.7c4.3.3 27.5 1.1 51.7 1.6zm469 110.8c2.4 43.5 12.5 90.5 26 120.5 1.4 3.2 2.6 6.2 2.6 6.7 0 2.4-40 22.4-65.8 32.9-24.5 9.9-34.5 13.3-33.8 11.6 7.1-18.7 14.8-55.8 18.1-87.7 1.4-13.9 3.4-48.2 3.5-61.3l.1-6 9.1-5.5c10.5-6.3 36.3-24.4 37.4-26.1 1.3-2.2 2.1 2 2.8 14.9zm-799.1 10.2 10.7 6.5v9c.2 48.7 7.6 106.6 17.8 139.2 1.1 3.5 1.7 6.3 1.3 6.3-2.8 0-35.2-14-53.6-23.3-11.5-5.7-35.9-19-37.4-20.3-.2-.2 1.5-5.3 3.8-11.3 10.9-29.2 19.2-74.3 20.7-112.6.3-8.3.7-15.6.9-16.2.3-.8 5.3 2.2 12.8 7.5 6.8 4.8 17.2 11.6 23 15.2zm690.7 41.8c0 7.4 2.6 34.4 4.6 48.2 3.5 24.5 10.3 53.7 16 68.9 1.3 3.5 2.4 6.9 2.4 7.6 0 1.2-33.1 11-56 16.5-15.2 3.6-45.4 10-45.7 9.6-.2-.1.9-4.2 2.3-9 8.6-29.8 14.3-68.7 16.3-110.3.4-9.5 1-17.5 1.2-17.7.3-.3 7.9-2.7 16.9-5.5 9.1-2.7 21.7-7 28-9.4 6.3-2.5 12.1-4.5 12.8-4.6.8-.1 1.2 1.7 1.2 5.7zm-604.6.6c7.7 3 20.2 7.4 27.7 9.7l13.6 4.3.7 16.4c1.6 39.5 7.4 80.3 15.5 109.2 1.5 5.5 2.6 10 2.4 10-1.7 0-34.7-6.9-46.2-9.6-17.5-4.2-50.1-13.5-51.8-14.9-.2-.1 1.1-4.2 2.8-9.1 8.8-25.8 16.6-70 18.4-103.9.7-12.3 1.3-17.5 2.2-17.5.3 0 6.9 2.4 14.7 5.4zm489.1 57.1c3 29.8 9.2 61.8 16.6 85.8 1.7 5.5 2.9 10.1 2.7 10.3-1.2 1.1-58.8 9.1-78.9 10.9l-7.7.7 2.9-9.6c7.8-26.2 14-68.2 16.5-110.8l.6-11.7 5.7-.7c3.1-.3 13-1.8 22.1-3.3l16.5-2.6.7 7.5c.4 4.1 1.5 14.7 2.3 23.5zm-369.5-25.6c9.6 1.6 20 3.2 23.1 3.6l5.6.7.7 12.6c1.9 35.8 8.7 80.1 16.1 105.1 1.4 4.7 2.4 8.5 2.2 8.7-.5.5-43.3-3.7-62.7-6.2-26-3.2-26.3-3.3-25.7-5.3 11.4-38.6 16.7-67.1 19.9-106.5.7-9.5 1.6-15.6 2.3-15.6.6 0 8.9 1.3 18.5 2.9zm263.4 9.3c.3 1.3.7 7.2 1.1 13.3 1.7 32.3 8.6 73.7 17.1 102.8 1.4 4.9 2.4 9 2.2 9.2-1.4 1.4-76.6 4-88.5 3l-9-.7 2.8-9.4c5.1-17.1 10.3-43 13.4-66.6 1.2-9.3 4.5-45.9 4.5-49.7 0-.5 7.5-1.1 16.8-1.5 9.2-.5 20.8-1.1 25.7-1.5 5-.5 10-.9 11.2-1 1.6-.1 2.4.6 2.7 2.1zm-125.9 2.4 11.1.6 1.2 16.3c2.8 37.8 9.6 77.5 17.3 101.3 1.2 3.5 1.9 6.5 1.8 6.7-.9.8-100.7-3.9-101.6-4.8-.2-.3.9-5.2 2.5-11 8-27.6 13.5-61.7 16.8-102.5l.6-8.3 19.7.6c10.8.3 24.6.8 30.6 1.1zm-734.6 38.9c6.3 57 26.1 127.7 51.5 184.3 10.4 23 25.7 52 37.7 71.1 3.3 5.2 5.6 9.8 5.2 10.2-.4.4-8.7 3.6-18.3 7.2-159.6 59.2-434.1 176.4-471.7 201.4-15.1 10.1-49.3 52.3-78.8 97.3-25.3 38.7-29.7 45-41.6 61-16.2 21.7-47.3 57.2-68.9 79-5.1 5.1-25.3 15.1-31.8 15.8-6.4.6-7.5-.5-13.8-13.5l-4.5-9.2-4.4-53.3c-8.5-100.6-11.5-122.3-20.9-149.2-11.7-33.6-25.8-50.1-103.6-121.3-62.7-57.4-66.9-61.8-69.5-74.3-1.6-7.7-.6-12 4.3-18.5l3.7-4.9 16.7-4.8c32.7-9.3 55.9-13.1 79.8-13.1 18.3.1 26.6 1.3 59 8.8 51.8 12 82.2 13.8 126.5 7.4 17.5-2.5 42.4-8 53.5-11.8 23.9-8.1 131.9-62 200-99.9 91.3-50.7 187.4-111.5 273.5-173 8.9-6.4 14.2-9.6 14.6-8.9.3.7 1.1 6.1 1.8 12.2zm1572.6 5c127.8 78.9 364.2 213.6 439.1 250.2 37.7 18.4 71.9 26.4 112.9 26.5 28 0 46.3-2.4 85.2-11.1 10-2.3 22.6-4.8 28-5.6 36.1-5.5 68.7-1.2 111.3 14.7 16.5 6.1 26.5 11.3 34.8 17.9l6.3 5-2.7 4.9c-9.6 17.6-37.8 44.6-103.5 99.1-53.7 44.6-64.5 55.9-71.3 74.7-4.8 13.5-6.8 29.8-11.6 96.2-5.2 72.1-8.2 91.5-18.8 123-5 14.8-6.7 18.2-11 22.4l-3.5 3.5-4.6-1.8c-6.5-2.4-23.8-12.3-35-19.9-23.5-15.9-41.2-33.4-57.3-56.7-7.1-10.3-13.1-20.6-28.3-48.5-24.1-44.3-37.2-63.5-61.6-90-11.9-13-42.4-40.7-52.7-47.9-11.5-8-33.5-18.3-97.2-45.6-146.9-63-276.7-115.6-365.1-148l-15.7-5.7 7.7-12.2c38.4-60.6 66-129.9 80.6-202.6 3.5-17.7 6.9-38.9 8.1-51.2.5-4.5 1-6.5 1.8-6.1.6.3 11.5 7 24.1 14.8z"/><path d="M2314.5 1441.1c-76.6 5.6-129.7 72.3-135 169.4-1.1 19.7 1.7 46.9 7.1 69.7 2.2 9.2 4.5 14.6 15.9 37.5 37.3 74.8 75.3 133.4 134.6 207.3 48.6 60.6 76.2 86.8 108.8 103 35.2 17.6 71.7 21.2 118.6 11.9 65-12.9 117.5-49.9 169.7-119.7 9.2-12.3 12.2-17.1 14.4-23.1 4.7-13.2 24.6-63.3 40.7-102.1 33.2-80.6 36.1-90.5 36.2-124 0-24.9-2.9-41.7-11-63.1-13.3-34.8-40.4-68.2-73.4-90.3-15.1-10.1-37.2-20.2-57.6-26.5-21.4-6.5-118.2-21-258-38.6-37.4-4.7-69.8-9-72-9.5-2.2-.5-8-1.2-13-1.5-4.9-.3-10.6-.7-12.5-.9-1.9-.1-8 .1-13.5.5zm-654.5.5c-1.4.2-6.3 1.1-11 1.9-4.7.9-41.1 5.6-81 10.6-149.4 18.6-229 30.8-252.1 38.8-32.7 11.3-53 22.8-75 42.4-44 39.1-66.7 96.6-60.8 153.8 2.2 21.9 10 44.4 41.7 120.9 14.1 33.8 23.8 58.3 31.4 78.5 5.1 13.7 7 17.4 13.1 26 51.3 71.3 99.9 106.6 170.8 124 44.7 11 83.1 8 119.4-9.4 22.8-10.8 39.7-23.4 60.5-44.8 23.1-23.7 49.4-55.2 77.5-92.8 70.3-94 115-177.5 128.2-239.1 2.5-11.6 2.7-14.9 2.7-32.9 0-35.1-6.5-64.9-20.5-94.4-20.7-43.5-52.1-70.3-95.3-81.3-6.5-1.6-12-2.1-27.6-2.3-10.7-.2-20.6-.1-22 .1zm302 494.5c-54.4 38.9-82.6 66.4-113.5 110.5-45 64.2-71.9 143.2-78.6 230.4-1.4 19.3-.6 67.1 1.5 82.5 6.9 51.9 19.8 86.1 39.6 105.6 10.7 10.6 23.5 15.5 34.3 13.2 32-6.7 68.2-37.5 116.7-99.2l11.3-14.4.5-216.6c.2-119.1.3-217.4.1-218.4-.3-1.5-2.4-.4-11.9 6.4zm66.7 179.1c.2 101.9.5 200.3.9 218.6l.6 33.4 12 15.1c17.9 22.8 29.9 36.7 44.3 51.2 24.8 24.9 44.5 38.4 65.8 45 8.2 2.6 9.3 2.7 15.5 1.7 34.7-5.8 57.6-53.8 64.3-134.7 1.7-21.2.6-77.5-2-99-2.6-21.4-6.2-41.9-10.2-58.3-10.4-42.6-36.2-98.3-64.4-138.8-23.2-33.2-56.7-67.8-92-94.9-13.8-10.6-33.2-24.5-34.2-24.5-.4 0-.7 83.4-.6 185.2z"/></g><path fill="#0B0D0D" fill-opacity=".38" stroke="#0B0D0D" stroke-opacity=".38" stroke-width=".1" d="M2999 316.2c4.1 4.5 5 5.3 5 4.5 0-.2-2.1-2.3-4.7-4.7l-4.8-4.5 4.5 4.7zm20 20c4.1 4.5 5 5.3 5 4.5 0-.2-2.1-2.3-4.7-4.7l-4.8-4.5 4.5 4.7zM1047.9 446.7l-3.4 3.8 3.8-3.4c3.4-3.3 4.2-4.1 3.4-4.1-.2 0-1.9 1.7-3.8 3.7zm-21 21-3.4 3.8 3.8-3.4c3.4-3.3 4.2-4.1 3.4-4.1-.2 0-1.9 1.7-3.8 3.7zm584.6 1522.5-6 6.3 6.3-6c5.8-5.5 6.7-6.5 5.9-6.5-.1 0-2.9 2.8-6.2 6.2zm490.5-2.9c0 .1 3.5 3.6 7.8 7.7l7.7 7.5-7.5-7.8c-6.9-7.1-8-8.2-8-7.4zm1752 122.2c1.9 1.9 3.6 3.5 3.9 3.5.3 0-1-1.6-2.9-3.5s-3.6-3.5-3.9-3.5c-.3 0 1 1.6 2.9 3.5zM3748.5 2216c2.1 2.2 4.1 4 4.4 4 .3 0-1.3-1.8-3.4-4-2.1-2.2-4.1-4-4.4-4-.3 0 1.3 1.8 3.4 4zm-763.5 64.7-6.5 6.8 6.8-6.5c6.2-6 7.2-7 6.4-7-.1 0-3.2 3-6.7 6.7zM40 2434.5c1.9 1.9 3.6 3.5 3.9 3.5.3 0-1-1.6-2.9-3.5s-3.6-3.5-3.9-3.5c-.3 0 1 1.6 2.9 3.5zm1438.5 60.5c4.4 4.4 8.2 8 8.5 8 .2 0-3.1-3.6-7.5-8s-8.2-8-8.5-8c-.2 0 3.1 3.6 7.5 8zM2512 2929.7l-6.5 6.8 6.8-6.5c6.2-6 7.2-7 6.4-7-.1 0-3.2 3-6.7 6.7zm-987.5 57.3c2.1 2.2 4.1 4 4.4 4 .3 0-1.3-1.8-3.4-4-2.1-2.2-4.1-4-4.4-4-.3 0 1.3 1.8 3.4 4zm949 8.2-6 6.3 6.3-6c3.4-3.3 6.2-6.1 6.2-6.2 0-.8-1 .1-6.5 5.9zm1210 446-7 7.3 7.3-7c6.7-6.4 7.7-7.5 6.9-7.5-.1 0-3.4 3.3-7.2 7.2zm-359 222.8c2.1 2.2 4.1 4 4.4 4 .3 0-1.3-1.8-3.4-4-2.1-2.2-4.1-4-4.4-4-.3 0 1.3 1.8 3.4 4z"/><path fill="#0B0B0B" fill-opacity=".19" stroke="#0B0B0B" stroke-opacity=".19" stroke-width=".1" d="m973.5 340.2-10 10.3 10.3-10c5.6-5.5 10.2-10.1 10.2-10.2 0-.8-1.2.4-10.5 9.9zm1970 103.8c6.6 6.6 12.2 12 12.5 12 .2 0-4.9-5.4-11.5-12s-12.2-12-12.5-12c-.2 0 4.9 5.4 11.5 12zM1037 457.7l-6.5 6.8 6.8-6.5c3.7-3.5 6.7-6.6 6.7-6.7 0-.8-1 .2-7 6.4zm1193.5 1021.5-4 4.3 4.3-4c3.9-3.6 4.7-4.5 3.9-4.5-.2 0-2.1 1.9-4.2 4.2zm462 490-6 6.3 6.3-6c3.4-3.3 6.2-6.1 6.2-6.2 0-.8-1 .1-6.5 5.9zm-800 23-4 4.3 4.3-4c3.9-3.6 4.7-4.5 3.9-4.5-.2 0-2.1 1.9-4.2 4.2zm-1235 86.8c2.1 2.2 4.1 4 4.4 4 .3 0-1.3-1.8-3.4-4-2.1-2.2-4.1-4-4.4-4-.3 0 1.3 1.8 3.4 4zm3103 149c4.4 4.4 8.2 8 8.5 8 .2 0-3.1-3.6-7.5-8s-8.2-8-8.5-8c-.2 0 3.1 3.6 7.5 8zm18.5 18.5c3.5 3.6 6.7 6.5 6.9 6.5.3 0-2.4-2.9-5.9-6.5-3.5-3.6-6.7-6.5-6.9-6.5-.3 0 2.4 2.9 5.9 6.5zM1473.5 2396c3.3 3.3 6.2 6 6.4 6 .3 0-2.1-2.7-5.4-6-3.3-3.3-6.2-6-6.4-6-.3 0 2.1 2.7 5.4 6zm1059 6.2-8 8.3 8.3-8c7.6-7.4 8.7-8.5 7.9-8.5-.1 0-3.8 3.7-8.2 8.2zm-60 869-4 4.3 4.3-4c3.9-3.6 4.7-4.5 3.9-4.5-.2 0-2.1 1.9-4.2 4.2zm-11.6 11.5-3.4 3.8 3.8-3.4c2-1.9 3.7-3.6 3.7-3.8 0-.8-.8 0-4.1 3.4zm145.6 53.5-10 10.3 10.3-10c9.5-9.3 10.7-10.5 9.9-10.5-.1 0-4.7 4.6-10.2 10.2zM316 3432.5c1.9 1.9 3.6 3.5 3.9 3.5.3 0-1-1.6-2.9-3.5s-3.6-3.5-3.9-3.5c-.3 0 1 1.6 2.9 3.5z"/></svg>