<svg xmlns="http://www.w3.org/2000/svg" version="1.0" viewBox="0 0 744 631"><path fill="#282424" fill-opacity=".22" stroke="#282424" stroke-opacity=".22" stroke-width=".1" d="M25.4 271c0 6.9.1 9.7.3 6.2.2-3.4.2-9 0-12.5-.2-3.4-.3-.6-.3 6.3z"/><g stroke="#000" stroke-width=".1"><path d="M62.5 2.9C46.7 5.8 44 6.7 44 9.2c0 1.7-.3 1.9-1.2 1C42.1 9.5 41 9 40.3 9 37.8 9 18 24.2 14.5 28.7 7.8 37.5 4.7 45.3 4.2 54.5c-.4 7-.7 8.2-2 7.8-1.2-.5-1.4-.2-.7 1.8C8.8 86.8 18.2 137.8 21.4 173c5.9 64 5.7 144.8-.7 199-1.9 16.8-2.1 23.5-2.1 71.5 0 63.1 1.7 86.7 7.5 110 3.1 12 5.5 17 9.8 19.8 23 15.2 60.9 19 95.1 9.6 13.4-3.7 32.1-11.5 49.5-20.4 9.4-4.9 17.8-9.5 18.7-10.3 3.4-2.9 18.5-4.3 53.8-4.8 28.4-.5 36.6-.3 46.5 1 6.6.9 13 1.9 14.2 2.2 1.8.5 2.5 0 3.4-2 1.6-3.3 2.7-3.3 3.1.1.2 2.2 1 2.9 3.8 3.5 14.3 3 40.5 9.2 69 16.4 45.1 11.4 68.2 15.6 102.9 18.9 29.6 2.7 73.4 1.9 101.1-2.1l4.6-.6-1 6.9c-.9 6.6-.8 7.1 1.9 11.7 3.8 6.5 12 12.8 24 18.6 13.4 6.4 20 7.9 39.6 8.6l16.4.7 9.2-3.1c17.9-6.1 23.8-9.5 34.5-20.3 5.3-5.4 11.5-12.6 13.7-16 3.8-6.1 3.9-6.6 3.7-13.9-.8-22.3-2.7-60.9-3.6-70.5-.6-6.1-1.2-14.8-1.4-19.5-.4-10-1.7-30.8-4.6-70-3.9-53.2-4.7-89.1-2.6-107.5.3-2.2-.1-1.1-.9 2.5s-1.5 12.3-1.6 19.5l-.2 13-.8-11c-.8-9.8-.6-12.5 1.6-24.5 1.4-7.4 3.1-20 3.8-28 .9-11.3 1.3-13.4 1.7-9.5.3 2.7.5-4.3.5-15.7 0-11.4-.4-21-.8-21.4-.4-.4-.7 2-.7 5.4 0 3.4-.4 6.2-.9 6.2s-1.2 5.7-1.5 12.7c-1 17.5-3.3 41.4-5.1 51.5-1.7 9.4-1.9 28.5-.6 49.8.5 8 1.2 20.1 1.6 27 2.5 52.1 4 76.2 6 95 .7 7.4 1.6 18.7 2 25 1 19.8 1.6 25.4 2.5 26 .6.4 1.5 12.1 2.2 26.1l1.2 25.5-4 5.9c-5.4 8.3-16.8 20-18.4 19-.8-.5-1.1-.4-.7.3 1.3 2-12.3 10.5-22.4 13.8-16.1 5.4-28 6.3-39.9 3.3-2-.5-5.6-1.1-8-1.4-9.2-1.1-21.3-5.2-20.3-6.8.3-.6.1-.7-.5-.3-1.5.9-7.3-2.4-6.5-3.7.3-.6.1-.7-.6-.3-1.3.8-8.1-3-8.1-4.5 0-.6.6-.7 1.3-.3.6.4.3-.2-.7-1.4-2.1-2.5-3.6-3.1-1.6-.7 2.7 3.2-.9 1.3-3.9-2-6.3-7.2-6.6-9.3-3.5-23.4.5-2.4.4-3.2-.4-2.7-2.3 1.4-19.2 3.6-37.4 4.8-14.7.9-23.3.9-40.5 0-41.1-2.3-86.4-8.7-114.3-16.1-19.2-5.1-41.1-10.1-44.6-10.1-3.6-.1-42-9.3-43.1-10.4-.4-.4-1-3.7-1.3-7.4l-.5-6.6-3.7 5.6-3.7 5.6-4-1.4c-8.4-2.9-30.9-3.7-65.2-2.5-17.8.6-34.3 1.5-36.6 2l-4.2.8-2.3-6.3-2.3-6.3-1.2 4.2c-.6 2.3-1.6 6.1-2.2 8.4-1.1 3.9-1.6 4.4-10.4 8.9-5 2.6-10.8 5.7-12.8 7-12.9 8.1-38.5 18.3-56.2 22.4-16.6 3.8-40.4 2.2-57.7-3.8-9.2-3.2-18.8-7.9-21.3-10.4-9.9-9.9-15.2-54.6-15.2-127.8 0-33.8.3-39.5 6.2-107.5 2.5-28.7 2.5-105.8 0-134-1.8-19.7-5.7-53.3-7.6-65-.6-3.3-1.7-11-2.6-17-2.1-14.1-3-18.9-6.2-30.6-1.5-5.8-2.3-10.7-1.9-12.2l.6-2.6 3.4 2c1.8 1.1 6.2 2.5 9.7 3.1 3.5.6 7 1.5 7.7 2.1 1 .8 1.6.7 2.1-.2.4-.6 4.8-2 9.7-3C48.5 75 55.9 73 60 71.5c9.5-3.5 32.8-15.1 43.4-21.7 4.4-2.7 8.2-4.5 8.4-4 .1.5 4.6-2 9.9-5.5 11.2-7.5 18.6-11.4 27.2-14.3 8.7-2.9 45.2-11.1 46.3-10.4.5.4.8 1.4.5 2.4-.3 1.3 0 1.6 1.4 1.3 1.1-.3 1.9 0 1.9.6s.8.3 1.8-.7c1.3-1.2 1.6-2.1.9-3-.7-.8-.5-1.8.7-3.1 4.2-4.6 37.5-5.6 92.6-2.7 41 2.2 45 2.6 45 4.3 0 .8.5 2.3 1 3.4.9 1.6 1.4 1.7 3 .6 1.1-.6 2-1.7 2-2.4 0-3.6 8.9-2.1 31.2 5.3 23.9 7.9 47.3 13.1 74.1 16.5 9.4 1.2 13.7 3.1 10.9 4.8-.8.4-.6 1 .7 1.8 2 1.3 3.4.6 4.4-2.1.7-1.8 1.6-1.9 11.5-1.3 21 1.2 44.7 2.8 46.8 3.2 2 .4 5 5.2 3.9 6.3-.2.3 0 1.1.6 1.8 1.2 1.5 4 .8 3.3-.9-.2-.7.5-2.6 1.5-4.3 2.2-3.6 3.2-3.7 30.6-4.9 7.2-.3 15.1-.8 17.7-1.1l4.7-.6 2.2 4.5c1.7 3.5 2.5 4.2 3.4 3.3.7-.6 1.1-1.4.9-1.8-.2-.3 0-1.8.6-3.2.6-1.8 1.7-2.6 3.3-2.6 2.8 0 23.8-6.6 36.5-11.4 4.8-1.9 12.3-4.1 16.7-5C659 23 678.9 20 681.6 20c.6 0 1.6 1.7 2.1 3.7l1 3.8.8-4.8.7-4.7h5.8c7.6 0 14.8 1.4 22.1 4.4 3.2 1.3 5.9 2.2 5.9 2 0-1-8.7-4.6-14.2-5.9-6.8-1.6-20.8-2-20.8-.7 0 .5-2.1 1-4.7 1.1-7.2.2-24.3 2.9-32 5-3.7 1-11.6 3.6-17.4 5.9-11.6 4.4-26.9 9.2-29 9.2-.8-.1 3.1-1.6 8.6-3.4 11.9-3.9 34.8-12.7 35.5-13.7.3-.3 1.9-1.1 3.5-1.7 1.7-.6 2.2-1.1 1.3-1.1-1.6-.1-22.3 6.9-44.3 14.9-4.4 1.6-9.3 3.2-11 3.5-1.6.4-3.3 1.2-3.7 1.8-.6.9-.8.9-.8-.1 0-1.5-6-1.6-18-.3-4.7.5-15.2 1.3-23.5 1.6-13.8.6-15.1.8-16.7 2.8-1 1.2-1.8 1.7-1.8 1.2-.1-3.1-2.4-3.5-32.1-6-34.8-2.9-41.8-3.7-58.4-7-6.6-1.3-16.9-3.4-23-4.5-6-1.2-20.4-5.2-32-9-19-6.2-33.5-10-38.1-10-1 0-2.8 1-4.1 2.2l-2.3 2.1v-5l-20.2-.7c-11.2-.3-22.8-1-25.8-1.4-3-.4-22.6-.7-43.5-.6-31.2.1-39.3.4-45 1.7-50.4 11.6-59.6 14.2-71.6 20.1-4 2-7.6 3.6-8 3.6-.4 0-1.2-2.1-1.9-4.8-1.5-6-7-19.2-7.8-19-.4.1-3.4-.9-6.7-2.2-5.3-2.1-7.9-2.4-22-2.6-12.2-.3-18.4.1-26 1.5zm47.6 4.8c2.6 1.1 4.9 2.6 5.3 3.1 1.3 2.1-9.3 20.1-13.5 23.2-.4.3-.9 1.8-1.1 3.4-.3 2.4-2.2 4-14 11.4-7.6 4.7-13.5 8.8-13.3 9.1.3.2 4.2-1.4 8.7-3.7 12.4-6.2 27.2-20.5 32.4-31.6 1-2 2.3-3.5 2.8-3.3 1.2.4 4.4 10 4.5 13.3.1 1.6-2.9 4.1-12.6 10.7-19.7 13.2-44.2 24.8-62.1 29.3-12.5 3.2-14.7 3.1-16.1-.4-4.8-11.9-5.2-25.6-1-33.3 4.7-8.4 22.3-19.8 36.9-23.8 4.3-1.2 10.5-2.1 14.6-2.1 8.6 0 12.5 2.2 16.2 9 2 3.7 2.3 4 1.7 1.5-1.1-5-4.5-9.5-8.8-11.6-5.9-3.1-20.2-2.3-30.7 1.5-10.1 3.7-10.4 3.7-10.8 0l-.3-3.1 8.3-1.7c15.3-3.2 18.2-3.5 33.3-3.2 12.8.1 15.7.5 19.6 2.3zm-65.9 8.5c3.8 1.8 3.5 2.8-1.5 6C32.3 28.8 25 38 25 44.7c0 1.2-.4 2.3-1 2.5-.6.2.5 5.7 2.5 13.3 1.9 7.1 3.5 13.4 3.5 13.9 0 1.5-8.5 0-13.1-2.3-2.4-1.2-5.7-3.3-7.4-4.7-2.8-2.2-3-2.9-3-8.6 0-7.8 2.3-14 8.7-23.8 4.2-6.4 6.4-8.5 14.6-14.1 5.3-3.7 10.2-6.5 10.7-6.4.6.2 2.2.9 3.7 1.7z"/><path d="M61.7 24.4c-3.2 1.3-6.4 3-7.3 3.7-1.8 1.5-4.4 6.3-4.4 8.1.1.7 1-.3 2-2.4 2.6-4.8 6-7.4 12.6-9.5 4-1.2 6.2-1.4 8.2-.7 6.9 2.4 1.3 12.4-7 12.4h-3.9l2 2.9c3.4 4.8 2.9 5.5-3.7 4.8-7.4-.8-9-1.4-9.8-3.9-.3-1.1-.8-1.8-1-1.5-.2.2.2 1.9 1 3.8.9 1.9 1.5 2.9 1.6 2.2 0-.8.9-.9 3.2-.2 1.8.5 6.3.9 10 .9 8.8 0 16.5-2.9 22.1-8.3 2.4-2.3 2.9-3 1.3-1.5-3.9 3.4-12 7.4-16.6 8.2-3.2.5-3.8.3-5.3-2.3-2.2-3.7-2.1-4.1.3-4.1 2.9 0 7.8-2.7 9-4.9 1.7-3.2 1.2-6.9-1.2-8.5-3.1-2.2-6.3-2-13.1.8zM652 35.5c-19.2 4-31.8 13.2-33.5 24.5-.5 3.2-.4 3.3.4.7 3.6-10.7 17.7-18.8 38.4-22.2 18.6-3 32.2-1.4 40.2 4.7l4 3.1-3.4-3.6c-5.9-6.3-11.7-8.1-26.6-8.4-8-.1-15.5.3-19.5 1.2z"/><path d="M653.7 46.1C645.6 48 640 52.8 640 57.9c0 3.5 6.3 30.1 7.1 30.1.4 0-.4-4.3-1.8-9.6-1.3-5.3-2.2-9.9-1.9-10.1.3-.3 2.6.5 5.1 1.7 12 5.8 39.8 1.8 50-7.1 1.8-1.6 3.5-2.9 3.9-2.9.3 0 .6 5.2.6 11.5s.3 11.5.8 11.5c.8 0-.1-28.6-1-29.5-.3-.4-.9.7-1.3 2.4-.9 4.1-7.1 9.3-13.8 11.4-8.1 2.6-8 2.7-7.5-5.2l.4-6.9-3.7 3.3c-4.3 3.8-8.4 5-12.4 3.5-1.5-.6-3-.9-3.2-.6-.2.2 1.1.9 3 1.5 3.7 1.3 7.9.7 11.2-1.5 3.1-2.2 3.5-1.7 3.5 3.6 0 4.6-.2 5-2.7 5.7-1.6.5-7.1.8-12.3.8-7.6 0-10.4-.4-14-2.1-6.2-2.9-9-5.9-9-9.4 0-6.6 4.7-11 13.8-12.9 10.3-2.1 18.1-.9 22.6 3.5 1.4 1.5 2.6 2.2 2.6 1.7 0-1.6-4.3-5-7.9-6.2-3.9-1.3-12.9-1.3-18.4 0zM735 61.8c0 2.2-9.3 11.9-15.5 16.2-2.4 1.7-7.3 4.4-10.7 6-3.5 1.7-5.7 3-5 3 3.7 0 17.4-8.6 24.1-15 3.9-3.9 7.3-7 7.5-7 .2 0 .3 2.6.2 5.7-.2 15.1.5 34.3 1.3 34.3.5 0 .7-1.7.5-3.8-.2-2-.4-11.4-.6-20.8-.2-13.2.1-17.5 1.1-18.8 1.2-1.4 1.1-1.6-.8-1.6-1.4 0-2.1.6-2.1 1.8zM619.2 74.7c-1 .4-1 .8.2 1.7 1.7 1.2 7.1 30.6 8.1 44.1.8 10.3 3.1 34.3 5.6 56.5 1.1 9.6 2.4 22 3 27.5.6 5.5 1.3 10.2 1.6 10.5.7.6 0-6.7-3.2-38-1.4-12.9-3.8-37.2-5.5-54-2.6-27.1-6.2-49.2-7.9-48.9-.3 0-1.2.3-1.9.6zM692 89.5c-3 .7-7.1 1.4-9 1.5-1.9.1-2.7.4-1.7.7 2.3.6 16-1.6 17.1-2.7 1.2-1.2 1-1.2-6.4.5zm-23.2 3.2c1.2.2 3.2.2 4.5 0 1.2-.2.2-.4-2.3-.4s-3.5.2-2.2.4zm67.2 35.9c0 10.9-.3 23.7-.6 28.4-.5 6.4-.4 8.2.5 7.4 2.4-2.2 2.9-52.9.5-55.3-.2-.2-.4 8.5-.4 19.5zm-223.6 34.5c.3 1.7.6 4 .6 5 0 1.7.9 1.9 9.9 1.9h9.9l.7-4.1c.5-3 .3-4.4-.6-5-.8-.5-5.8-.9-11.3-.9h-9.8l.6 3.1zm-311.8 3.8c.4 5.3.7 5.7 4.7 6.5 1.8.3 4.8 1.7 6.6 3.1l3.4 2.4 3.8-3.2 3.9-3.2-2.8-2.2c-3.9-3.3-10.6-6.3-15.6-6.9l-4.3-.6.3 4.1zm280.4 1.5c-3 1.2-7.4 3.3-9.8 4.5l-4.3 2.2 2.2 3.9c1.3 2.2 2.6 4 2.9 4 .4 0 4.7-1.8 9.5-4 7-3.3 8.6-4.4 8-5.8-.3-.9-.9-2.9-1.2-4.5-.7-3.2-.4-3.2-7.3-.3zm75.1 5.8c-2.2 3.9-2.3 4.1-.5 5.1 1.1.6 4.5 3.5 7.7 6.6l5.7 5.4 3.3-2.9c1.7-1.6 3.4-3 3.6-3.2 1.2-.7-14.8-15.2-16.8-15.2-.3 0-1.7 1.9-3 4.2zm178.5 8c-.7 2.7-.8 15.3-.1 14.6.6-.6 1.8-16.8 1.2-16.8-.3 0-.7 1-1.1 2.2zm-296.2 15.2-7.9 7.8 4 3.5 4 3.4 3.2-3.8c1.8-2.1 5.1-5.4 7.3-7.3l4.1-3.5-3.4-3.9-3.4-4-7.9 7.8zm-209.4.1c-2.5.7-4.4 1.7-4.3 2.3.2.6.8 5.3 1.5 10.3l1.3 9.1 4.4-.6c2.4-.3 4.6-.8 4.9-1 .4-.4-2.6-20.8-3.1-21.1-.1-.1-2.2.4-4.7 1zm356.7 10.7c-2 1.2-3.6 2.5-3.5 2.8.2.3 1.9 4.5 3.8 9.3 3.8 9.5 3.6 9.3 10.4 6.7 2.5-.9 2.5-1 1.2-4.7-2.4-6.6-6.8-16.3-7.5-16.3-.3 0-2.3 1-4.4 2.2zm52.6 13.3c0 2.2.2 3 .4 1.7.2-1.2.2-3 0-4-.3-.9-.5.1-.4 2.3zm96.4 4.6c-.3 1.2-.2 3.1.3 4.2.7 1.8.9 1.4.9-2.1.1-4.6-.4-5.4-1.2-2.1zm-321.9 4.7c-1.5 2.7-3.6 7-4.7 9.6l-2.1 4.7 4.3 1.8 4.2 1.8 4.8-8.9c2.7-4.9 4.7-9.1 4.5-9.2-3.7-2.7-6.8-4.6-7.5-4.6-.4 0-2 2.2-3.5 4.8zm227.5 8.7c0 2.2.2 3 .4 1.7.2-1.2.2-3 0-4-.3-.9-.5.1-.4 2.3zm-417.4 9.2c-1.2 3.8-2.8 8-3.5 9.4-1.2 2.5-1.1 2.6 3.3 4.8 2.5 1.2 4.7 2.1 4.8 1.9.2-.2 1.9-4.9 3.8-10.4l3.6-10.2-4.4-1.1c-2.4-.6-4.6-1.1-4.9-1.1-.2 0-1.4 3-2.7 6.7zm418.4-.2c0 2.2.2 3 .4 1.7.2-1.2.2-3 0-4-.3-.9-.5.1-.4 2.3zm-38.8 2.6c-2.2 1.2-4.1 2.2-4.2 2.3-.2.2 1.1 2.4 2.8 5 2.8 4.6 3.1 4.7 4.8 3.2 2.9-2.6 3.8-12.6 1.2-12.6-.3 0-2.4 1-4.6 2.1zm39.8 7.9c0 3 .2 4.3.4 2.7.2-1.5.2-3.9 0-5.5-.2-1.5-.4-.2-.4 2.8zm1 12c0 2.5.2 3.5.4 2.2.2-1.2.2-3.2 0-4.5-.2-1.2-.4-.2-.4 2.3zm-247.7 1.8c-.8 2.6-2.1 7.2-2.9 10.3l-1.4 5.6 4.7 1.5 4.8 1.6 2.1-8.2c1.1-4.4 2.3-9.1 2.6-10.2.6-1.8 0-2.4-3.9-3.7l-4.5-1.5-1.5 4.6zm-193.4 15.9c-6.1 11.9-6.1 12-1.1 14.1l4.3 1.8 4.5-9c5-9.9 5.1-9.1-1-13l-2.6-1.7-4.1 7.8zm352.8 1.5c0 8.3 2.5 14.4 3.2 8 .3-2.5.6-2.7 4.8-2.4 2.9.1 5.3-.3 6.5-1.2 1.9-1.5 1.9-1.5.1-1.6-1.4 0-1.6-.3-.7-1.4.9-1.1 0-1.5-4.9-2-3.3-.4-6-1.1-6-1.6 0-.6-.7-1-1.5-1-1 0-1.5 1-1.5 3.2zm-19.6 13.2c.3 1.6.6 4.4.6 6.3 0 1.9.4 3.2.9 2.8.5-.3.7-2.1.4-4-.5-3.3-.4-3.5 2.3-3.6 2.7 0 8-1.7 6-1.8-.5-.1-.4-.7.2-1.4.8-.9-.3-1.2-5-1.2h-5.9l.5 2.9zm41.6.5c0 2.3.5 4.1 1 4.1.6 0 1-.9 1-2 0-1.7.7-2 4-2 4.9 0 5.6-2.5.8-2.6-1.8 0-4.1-.4-5-.8-1.6-.7-1.8-.3-1.8 3.3zm-193.7 9.8c-.4 1-2.1 5.3-3.9 9.6l-3.2 7.7 3.9 2.1c2.2 1.1 4.4 1.7 4.8 1.4.7-.4 8.1-17.7 8.1-18.9 0-.4-7.6-3.6-8.6-3.6-.2 0-.8.8-1.1 1.7zM191 337v11h2.8c6.9 0 7.1-.2 6.9-10.8-.2-9.4-.3-9.7-2.7-10.3-7.1-1.8-7-2-7 10.1zm345 2.7c0 3.2.4 4.3 1.5 4.3 1.9 0 2-4 0-6.6-1.3-1.8-1.4-1.6-1.5 2.3zm21.3-2.6c-.7.7-1.3 3.5-1.3 6.1 0 4.1.3 4.8 2 4.8s2-.6 1.9-3.8c-.1-2-.4-4.7-.7-6-.6-1.8-.9-2.1-1.9-1.1zm-198.7 23.7-5.8 8.5 2.3 1.9c5.4 4.3 5.2 4.3 11.8-4.8 3.3-4.8 5.8-9 5.5-9.5-.3-.5-2.2-1.8-4.2-2.8l-3.7-1.8-5.9 8.5zm212.4-.9-4.5.7 3.2.7c1.9.5 4 .4 5.2-.3 2.1-1.1 2.8-2.1 1.4-1.8-.5 0-2.8.4-5.3.7zm-368.2 11.2c-2.1 1.1-3.8 2.2-3.8 2.5 0 1.4 6.4 12.2 9.1 15.4l2.9 3.4 3.5-3.4 3.5-3.5-3.8-5.1c-2.1-2.8-4.4-6.5-5.1-8.3-1.6-3.6-1.5-3.6-6.3-1zm433.8 12c-.4 2.8-.5 5.3-.3 5.6.3.2.8-1.9 1.2-4.7.4-2.8.5-5.3.2-5.6-.2-.3-.7 1.9-1.1 4.7zm-305.2 6.7c-2.7 2.2-6.4 4.7-8.1 5.6L320 397l2.2 4.5c1.6 3.2 2.7 4.4 3.7 4 .8-.3 5-3.1 9.3-6.2 8.3-6 8.5-6.5 3.6-11.1l-2.5-2.2-4.9 3.8zm-97.3 13.1L232 407l3.7 1.8c3.6 1.8 11.3 4.5 15.9 5.5 1.1.2 2.1-.1 2.1-.7s.3-2.7.7-4.7l.6-3.6-7.7-2.7c-4.3-1.4-8.6-2.9-9.5-3.2-1.2-.4-2.2.5-3.7 3.5zm61.8 3.5c-.2.2-4.1.6-8.6.8l-8.3.3v9.8l9.8-.5c5.4-.3 10.3-.8 10.9-1.1 1.4-.9-.6-9.7-2.2-9.7-.6 0-1.4.2-1.6.4zM737.3 544c0 3 .2 4.3.4 2.7.2-1.5.2-3.9 0-5.5-.2-1.5-.4-.2-.4 2.8zm1 25c0 4.1.2 5.8.4 3.7.2-2 .2-5.4 0-7.5-.2-2-.4-.3-.4 3.8z"/></g><path fill="#282828" fill-opacity=".15" stroke="#282828" stroke-opacity=".15" stroke-width=".1" d="M266.8 3.7c1.2.2 3 .2 4 0 .9-.3-.1-.5-2.3-.4-2.2 0-3 .2-1.7.4z"/><path fill="#333" fill-opacity=".02" stroke="#333" stroke-opacity=".02" stroke-width=".1" d="M17.3 411.5c0 2.7.2 3.8.4 2.2.2-1.5.2-3.7 0-5-.2-1.2-.4 0-.4 2.8zm0 60.5c0 2.5.2 3.5.4 2.2.2-1.2.2-3.2 0-4.5-.2-1.2-.4-.2-.4 2.3z"/><path fill="#242424" fill-opacity=".03" stroke="#242424" stroke-opacity=".03" stroke-width=".1" d="M17.4 428c0 6.3.1 8.9.3 5.7.2-3.1.2-8.3 0-11.5-.2-3.1-.3-.5-.3 5.8zm0 30c0 5.2.1 7.4.3 4.7.2-2.6.2-6.8 0-9.5-.2-2.6-.3-.4-.3 4.8z"/><path fill="#262626" fill-opacity=".21" stroke="#262626" stroke-opacity=".21" stroke-width=".1" d="M243.8 3.7c1.2.2 3 .2 4 0 .9-.3-.1-.5-2.3-.4-2.2 0-3 .2-1.7.4z"/><path fill="#281B1B" fill-opacity=".07" stroke="#281B1B" stroke-opacity=".07" stroke-width=".1" d="M328.7 6.7c1.8.2 5 .2 7 0 2.1-.2.7-.4-3.2-.4-3.8 0-5.5.2-3.8.4z"/><path fill="#300" stroke="#300" stroke-width=".1" d="M378.5 133c-1 1.1-1.5 2.3-1.2 2.7.4.3.7.1.7-.5s1.2-1.8 2.8-2.6c1.6-.9 2.1-1.5 1.1-1.6-.9 0-2.4.9-3.4 2zm-189.7 24.3c-.3 1.5-.1 3 .4 3.3 1.6 1 2-.4 1.1-3.3l-1-2.8-.5 2.8zM380 189.6c0 .9.5 1.4 1.2 1.2 1.8-.6 2.1-2.8.4-2.8-.9 0-1.6.7-1.6 1.6zm-72.8 98c-1.2.8-2.2 2-2.2 2.6 0 .6.8.4 1.8-.5 1-1 2.6-1.7 3.6-1.7.9 0 1.4-.5 1.1-1-.8-1.4-1.7-1.3-4.3.6zm265.3 52.3c.3.5-.2 1.7-1.1 2.5-.8.9-1.2 1.6-.7 1.6 1.3 0 3.3-2.2 3.3-3.7 0-.7-.5-1.3-1.1-1.3-.5 0-.8.4-.4.9zm-263.3 3.7c-.7.8-1.2 2-.9 2.7.2.7.9.2 1.6-1.1 1.5-2.8 1.1-3.6-.7-1.6zM554.5 359c-1.6.7-1.1.9 2.2.9 2.3.1 4.5-.4 4.8-.9.8-1.2-4.2-1.2-7 0zm10.2.2c.6 1 9.3.9 11.8-.2 1.3-.5-.6-.7-5.1-.6-4 0-7 .4-6.7.8zM23.3 489.5c0 2.2.2 3 .4 1.7.2-1.2.2-3 0-4-.3-.9-.5.1-.4 2.3z"/><path fill="#333" stroke="#333" stroke-width=".1" d="M238.8 8.7c1.7.2 4.7.2 6.5 0 1.7-.2.3-.4-3.3-.4-3.6 0-5 .2-3.2.4zm-161 1c1.2.2 3 .2 4 0 .9-.3-.1-.5-2.3-.4-2.2 0-3 .2-1.7.4zm187 0c1.7.2 4.7.2 6.5 0 1.7-.2.3-.4-3.3-.4-3.6 0-5 .2-3.2.4zm-129 21.9c-3.9 2.1-3.5 2.8.5.8 3.7-1.9 4.4-2.4 3.1-2.4-.5.1-2.1.8-3.6 1.6zm531 2.1c1.7.2 4.7.2 6.5 0 1.7-.2.3-.4-3.3-.4-3.6 0-5 .2-3.2.4zm-563.6 4.5c-.7.7-1.8 1.3-2.4 1.3-.6 0-1.2.8-1.4 1.9-.2 1.5.3 1.3 2.7-1 1.6-1.5 2.9-2.9 2.9-3.1 0-.6-.6-.3-1.8.9zm562.6-.5c1.2.2 3 .2 4 0 .9-.3-.1-.5-2.3-.4-2.2 0-3 .2-1.7.4zm-558.6 9.9c-2.3 1.4-4.2 3-4.2 3.5 0 .6-.4.7-1 .4-.6-.4-.7.1-.3 1.1.5 1.4.8 1.3 1.9-.7.8-1.5 1.4-1.8 1.4-.9 0 1.2.3 1.1 1.1-.3.6-.9 1.4-1.5 2-1.2.5.4.9.1.9-.5s.5-.8 1.2-.4c.6.4.8.3.4-.4-.3-.5 0-1.2.6-1.5.7-.2 1.1-.7.8-1-.3-.3-2.5.5-4.8 1.9zM27.3 52c0 3.6.2 5 .4 3.2.2-1.7.2-4.7 0-6.5-.2-1.7-.4-.3-.4 3.3zm-21 6.5c0 2.2.2 3 .4 1.7.2-1.2.2-3 0-4-.3-.9-.5.1-.4 2.3zM641 59.7c-.3 2.3-.2 3.9.3 3.4s.7-2.4.5-4.2c-.3-3.3-.4-3.3-.8.8zm39.3 1.3c0 2.5.2 3.5.4 2.2.2-1.2.2-3.2 0-4.5-.2-1.2-.4-.2-.4 2.3zM82 61.5c-3.6 1.9-6.1 3.4-5.7 3.5 1 0 12.7-5.9 12.7-6.5 0-.7.2-.8-7 3zm616.9 1.2-2.4 2.8 2.7-2.4 2.7-2.3.4 3.3.4 3.4.1-3.8c.2-4.4-.6-4.6-3.9-1zm-614.1-.1c-3.9 2.1-3.5 2.8.5.8 3.7-1.9 4.4-2.4 3.1-2.4-.5.1-2.1.8-3.6 1.6zm579.7.4c-2.5 1.1.1 1.1 3.5 0 2-.6 2.1-.8.5-.8-1.1 0-2.9.3-4 .8zm39.8 11.5c0 4.4.2 6.1.4 3.7.2-2.3.2-5.9 0-8-.2-2-.4-.1-.4 4.3zm31 8c0 3.3.2 4.5.4 2.7.2-1.8.2-4.5 0-6s-.4 0-.4 3.3zm-28.2 1.4c-2.7 1.4-3 1.9-1.7 2.4 2.2.9 5.9-1 5-2.5-.5-.8-.1-.9 1-.5 1 .4 1.5.3 1.1-.3-.8-1.3-1.4-1.2-5.4.9zm-7.1 2.9c-.8.4-1.6 1.4-1.8 2.2-.3 1.1.1 1.1 1.6-.3 1-.9 2.2-1.4 2.5-1 .4.3.7.1.7-.5 0-1.3-.7-1.4-3-.4zm-40 5.1c-2.5.4 2.3.7 10.5.7 9.3 0 13.5-.3 11-.8-4.7-.8-15.1-.8-21.5.1zM627.3 126c0 3.6.2 5 .4 3.2.2-1.7.2-4.7 0-6.5-.2-1.7-.4-.3-.4 3.3zm1 12.5c0 2.2.2 3 .4 1.7.2-1.2.2-3 0-4-.3-.9-.5.1-.4 2.3zm-109 21.2c1.5.2 3.9.2 5.5 0 1.5-.2.2-.4-2.8-.4s-4.3.2-2.7.4zM734.1 171c.1 2.7.5 5 .9 5 .5 0 .7-2.2.6-5 0-2.7-.4-5-.9-5-.4 0-.7 2.2-.6 5zm-99.8 2.5c0 2.2.2 3 .4 1.7.2-1.2.2-3 0-4-.3-.9-.5.1-.4 2.3zm-62.8 6.5c2.7 2.7 5.1 5 5.4 5 .3 0-1.7-2.3-4.4-5-2.7-2.8-5.1-5-5.4-5-.3 0 1.7 2.2 4.4 5zm63.8 2.5c0 2.2.2 3 .4 1.7.2-1.2.2-3 0-4-.3-.9-.5.1-.4 2.3zm1 10c0 2.2.2 3 .4 1.7.2-1.2.2-3 0-4-.3-.9-.5.1-.4 2.3zm1 10c0 2.2.2 3 .4 1.7.2-1.2.2-3 0-4-.3-.9-.5.1-.4 2.3zm96.5-1.9c-.5.4-.8 1.6-.8 2.8 0 1.4.3 1.7 1.1.9.6-.6.9-1.9.7-2.8-.1-.9-.6-1.3-1-.9zM638.2 212c-.1 1.4-.5 3.6-.8 5-.5 1.9-.4 2.2.5 1.4.7-.7 1.1-2.8.8-5-.2-2.2-.4-2.8-.5-1.4zM30.3 225c0 3 .2 4.3.4 2.7.2-1.5.2-3.9 0-5.5-.2-1.5-.4-.2-.4 2.8zm608.2 0c-.3.5-.1 1.8.4 2.7.9 1.6 1 1.4 1.1-1 0-2.8-.5-3.4-1.5-1.7zm94.1 4.8c-.4 1.2-.6 4.7-.5 7.9.1 3.2-.1 6.9-.3 8.3-.3 1.4-.3 1.9-.1 1.2.3-.7.8-1 1.3-.7.4.2.7-1.2.7-3.3 0-2 .2-5.7.6-8.2.7-5-.6-8.9-1.7-5.2zm-92.9 3.5c-1.1 2.9-.9 4.3.4 3 .6-.6.9-1.9.7-2.9-.3-1.8-.4-1.8-1.1-.1zM31.4 268c0 11.3.2 15.9.3 10.2.2-5.6.2-14.8 0-20.5-.1-5.6-.3-1-.3 10.3zm611.3-4.7c-.4 1-.7 2.6-.7 3.5.1 1.5.2 1.5 1.1-.1.6-1 .9-2.5.7-3.5-.3-1.6-.4-1.5-1.1.1zm1 11.1c-.5 2.1-.6 4-.3 4.3.9 1 1.8-2.4 1.4-5.4-.3-2.6-.4-2.5-1.1 1.1zm-85.3 22.1c-.3.8-.4 2-.1 2.7.3.7.6.3.6-.9.1-1.2.9-2.4 1.9-2.6 1.6-.4 1.6-.5-.1-.6-1 0-2 .6-2.3 1.4zm-528.1 12c0 2.2.2 3 .4 1.7.2-1.2.2-3 0-4-.3-.9-.5.1-.4 2.3zm694 22.5c0 4.7.2 6.6.4 4.2.2-2.3.2-6.1 0-8.5-.2-2.3-.4-.4-.4 4.3zm-534 2.5c0 3.3.2 4.5.4 2.7.2-1.8.2-4.5 0-6s-.4 0-.4 3.3zm10 .5c0 3 .2 4.3.4 2.7.2-1.5.2-3.9 0-5.5-.2-1.5-.4-.2-.4 2.8zm335.7.7c0 .5.7 1.7 1.5 2.7 1.5 2 2 1 .9-1.8-.6-1.6-2.4-2.2-2.4-.9zm21.2.5c-1.7 1.7-1.5 3.3.3 1.8 1.2-1 1.5-.9 1.6.6 0 1.1.3 1.4.5.7.3-.7.2-1.9-.3-2.8-.7-1.2-1.2-1.2-2.1-.3zm-528.9 3.3c0 2.2.2 3 .4 1.7.2-1.2.2-3 0-4-.3-.9-.5.1-.4 2.3zm696 5c0 2.2.2 3 .4 1.7.2-1.2.2-3 0-4-.3-.9-.5.1-.4 2.3zm-82.7 9.7c-.9 2.8-1.4 10.2-.7 8.8 1-1.9 2.3-10 1.6-10-.3 0-.7.6-.9 1.2zm83.7 6.3c0 3.3.2 4.5.4 2.7.2-1.8.2-4.5 0-6s-.4 0-.4 3.3zm-699 4c0 2.2.2 3 .4 1.7.2-1.2.2-3 0-4-.3-.9-.5.1-.4 2.3zm612.2 8.1c-1.3 5.9-1.3 6.4-.5 6.9.4.2 1-1.7 1.3-4.3.6-5.3.1-6.9-.8-2.6zm87.8 4.9c0 3.3.2 4.5.4 2.7.2-1.8.2-4.5 0-6s-.4 0-.4 3.3zm-701 .5c0 3 .2 4.3.4 2.7.2-1.5.2-3.9 0-5.5-.2-1.5-.4-.2-.4 2.8zm-1 11.5c0 2.2.2 3 .4 1.7.2-1.2.2-3 0-4-.3-.9-.5.1-.4 2.3zm190.6.2-3.4 3.8 3.8-3.4c3.4-3.3 4.2-4.1 3.4-4.1-.2 0-1.9 1.7-3.8 3.7zm512.4 7.8c0 2.7.2 3.8.4 2.2.2-1.5.2-3.7 0-5-.2-1.2-.4 0-.4 2.8zm-704 10c0 4.4.2 6.1.4 3.7.2-2.3.2-5.9 0-8-.2-2-.4-.1-.4 4.3zm255 4c0 2.2.2 3 .4 1.7.2-1.2.2-3 0-4-.3-.9-.5.1-.4 2.3zm2.5 7.2c1.8.2 4.5.2 6 0s0-.4-3.3-.4-4.5.2-2.7.4zM22.4 447c0 9.1.2 12.8.3 8.2.2-4.5.2-11.9 0-16.5-.1-4.5-.3-.8-.3 8.3zm707.9 1.5c0 2.2.2 3 .4 1.7.2-1.2.2-3 0-4-.3-.9-.5.1-.4 2.3zm-707 30c0 3.8.2 5.3.4 3.2.2-2 .2-5.2 0-7-.2-1.7-.4-.1-.4 3.8zm359.5 1.2c1.7.2 4.7.2 6.5 0 1.7-.2.3-.4-3.3-.4-3.6 0-5 .2-3.2.4zm13 0c1.2.2 3 .2 4 0 .9-.3-.1-.5-2.3-.4-2.2 0-3 .2-1.7.4zM24.3 505c0 3.6.2 5 .4 3.2.2-1.7.2-4.7 0-6.5-.2-1.7-.4-.3-.4 3.3zm1 13.5c0 2.2.2 3 .4 1.7.2-1.2.2-3 0-4-.3-.9-.5.1-.4 2.3zm241 22.2c3.1.2 8.3.2 11.5 0 3.1-.2.5-.3-5.8-.3s-8.9.1-5.7.3zm49.6.9c-.7.9-2.2 2-3.4 2.4-2 .9-2 .9.1.9 1.3.1 2.9-1 3.8-2.4 1.8-2.8 1.5-3.3-.5-.9zm-77.6.1c2 .2 5.4.2 7.5 0 2-.2.3-.4-3.8-.4s-5.8.2-3.7.4zm499 11.8c0 2.2.2 3 .4 1.7.2-1.2.2-3 0-4-.3-.9-.5.1-.4 2.3zm-197.5 32.2c3.4.2 9 .2 12.5 0 3.4-.2.6-.3-6.3-.3-6.9 0-9.7.1-6.2.3zm123 42c1.2.2 3 .2 4 0 .9-.3-.1-.5-2.3-.4-2.2 0-3 .2-1.7.4z"/><path fill="#666" stroke="#666" stroke-width=".1" d="M254.3 9.7c1.5.2 3.7.2 5 0 1.2-.2 0-.4-2.8-.4-2.7 0-3.8.2-2.2.4zm25.5 1c1.2.2 3.2.2 4.5 0 1.2-.2.2-.4-2.3-.4s-3.5.2-2.2.4zm40 2c1.2.2 3 .2 4 0 .9-.3-.1-.5-2.3-.4-2.2 0-3 .2-1.7.4zm366.8 6.1c-.2.4 1.2.6 3.2.4 6.2-.6 6.9-1 2-1.1-2.6 0-4.9.3-5.2.7zM574.8 42.7c1.2.2 3 .2 4 0 .9-.3-.1-.5-2.3-.4-2.2 0-3 .2-1.7.4zM98.5 53.5c-2.2 1.4-4.4 2.7-5 2.9-.6.2-.4.9.4 1.7.8.8 1.1.9.7.2-.8-1.4 2.9-3.7 4.4-2.8.6.4.9.2.8-.4-.2-.5.6-1.7 1.7-2.5 3-2.3 1.5-1.9-3 .9zm605.8 5c0 2.7.2 3.8.4 2.2.2-1.5.2-3.7 0-5-.2-1.2-.4 0-.4 2.8zm-26 6c0 2.2.2 3 .4 1.7.2-1.2.2-3 0-4-.3-.9-.5.1-.4 2.3zm24 6.5c0 2.5.2 3.5.4 2.2.2-1.2.2-3.2 0-4.5-.2-1.2-.4-.2-.4 2.3zm-633.8-.4c-2.7 1.3-3.9 2.1-2.5 1.8 2.9-.8 8-3.2 8-3.9 0-.6.2-.7-5.5 2.1zM58 74.5c-1.9.7-2.8 1.4-2 1.4.8 0 2.9-.6 4.5-1.4 3.9-1.7 2.1-1.8-2.5 0zm-28.3 4.9c-.5 1.3 0 1.6 2.6 1.5 2.1-.1 2.5-.3 1.2-.6-1.1-.3-2.3-1-2.6-1.5-.3-.5-.9-.3-1.2.6zm671.4 8.7c-1.3.5-2.2 1.1-1.9 1.4.5.5 7.8-1.4 7.8-2 0-.8-3.3-.4-5.9.6zM636 89.7c0 .5 1.3.8 2.9.8 1.6 0 2.7-.3 2.4-.8-.2-.4-1.5-.7-2.9-.7-1.3 0-2.4.3-2.4.7zm17.5 2.3c-.4.6 1.1.7 4.2.3 6.3-.8 6.7-1.3 1-1.3-2.5 0-4.9.4-5.2 1zm14.8 1.7c1.5.2 3.9.2 5.5 0 1.5-.2.2-.4-2.8-.4s-4.3.2-2.7.4zm67.1 11.3c0 5.2.1 7.4.3 4.7.2-2.6.2-6.8 0-9.5-.2-2.6-.3-.4-.3 4.8zm-.1 38.5c0 2.7.2 3.8.4 2.2.2-1.5.2-3.7 0-5-.2-1.2-.4 0-.4 2.8zm-298.8 54.7-5 5.3 5.3-5c4.8-4.6 5.7-5.5 4.9-5.5-.1 0-2.5 2.4-5.2 5.2zm296.8-1.2c0 2.5.2 3.5.4 2.2.2-1.2.2-3.2 0-4.5-.2-1.2-.4-.2-.4 2.3zM494 199.6c-2.2 1.2-2.2 1.4-.5 1.4 2.4 0 5.1-1.6 3.9-2.2-.5-.3-2 .1-3.4.8zM31.3 237.5c0 2.7.2 3.8.4 2.2.2-1.5.2-3.7 0-5-.2-1.2-.4 0-.4 2.8zm700 15c0 2.2.2 3 .4 1.7.2-1.2.2-3 0-4-.3-.9-.5.1-.4 2.3zm-87.9 26.9c-.3.7-.1 4 .4 7.2l1 5.9.1-7.3c.1-6.9-.4-8.8-1.5-5.8zM31.3 297.5c0 2.7.2 3.8.4 2.2.2-1.5.2-3.7 0-5-.2-1.2-.4 0-.4 2.8zm613.3-1.9c-.3.9-.4 1.9-.1 2.2.3.3.5-.1.6-.9 0-.8.4-.6.9.6.6 1.3.9 1.5.9.5 0-.8-.3-2.1-.8-2.8-.6-1.1-1-1-1.5.4zm-544.6 18c0 .7 2.7 3.4 3.5 3.4.3 0 .1-.9-.5-2-1-1.8-3-2.8-3-1.4zm623.3 14.9c0 3.8.2 5.3.4 3.2.2-2 .2-5.2 0-7-.2-1.7-.4-.1-.4 3.8zm-77.8.5c-.3 1.1-.2 2.8.4 3.7.8 1.4 1 1.1.9-2-.1-4.2-.4-4.6-1.3-1.7zm-2.3 15.2c-1.2 3.4-.7 5.2.8 2.8.9-1.4 1.4-6 .7-6-.1 0-.8 1.4-1.5 3.2zm-4.2 21.7c0 1.1-.2 2.5-.3 3.3-.2.7-.2.9.1.4.2-.4.9-.2 1.4.5.6 1 .7.7.3-.9-.4-1.3-.2-2.2.4-2.2 1.6 0 1.3-1.7-.4-2.4-1-.3-1.5.1-1.5 1.3zM23.3 421.5c0 2.2.2 3 .4 1.7.2-1.2.2-3 0-4-.3-.9-.5.1-.4 2.3zm599.4 31.8c-.6 4.2-.2 4.5 1.1.8.6-1.7.7-3.3.3-3.6-.5-.2-1.1 1-1.4 2.8zM398.4 478c-1.3.5-.5.8 2.8 1.1 2.5.2 4.4.1 4.2-.2-.6-1.1-4.9-1.6-7-.9zm-23.9 2.6-3 1.5 3.5-.6c1.9-.3 3.9-1 4.4-1.5 1.5-1.5-1.4-1.1-4.9.6zm243.1 1.6c-.3 1.3-.5 3.4-.5 4.8.1 1.5.5.7 1-1.9.9-4.7.6-6.8-.5-2.9zM24.3 489c0 3 .2 4.3.4 2.7.2-1.5.2-3.9 0-5.5-.2-1.5-.4-.2-.4 2.8zm711 25.5c0 2.2.2 3 .4 1.7.2-1.2.2-3 0-4-.3-.9-.5.1-.4 2.3zm1 23.5c0 2.5.2 3.5.4 2.2.2-1.2.2-3.2 0-4.5-.2-1.2-.4-.2-.4 2.3zM607 548.7c0 1.6-.3 3.9-.7 5.3-.3 1.4-.2 2.2.2 1.8 1.2-1.1 2.3-9.8 1.3-9.8-.4 0-.8 1.2-.8 2.7zM737.3 561c0 2.5.2 3.5.4 2.2.2-1.2.2-3.2 0-4.5-.2-1.2-.4-.2-.4 2.3zm-129.7 4.1c-.3 1.7-.5 4.6-.5 6.3.1 1.8.5.7 1-2.8.9-6.3.6-8.8-.5-3.5z"/><path fill="#966" stroke="#966" stroke-width=".1" d="M87.8 5.7c1.2.2 3.2.2 4.5 0 1.2-.2.2-.4-2.3-.4s-3.5.2-2.2.4zM643.3 290c0 3 .2 4.3.4 2.7.2-1.5.2-3.9 0-5.5-.2-1.5-.4-.2-.4 2.8zM373 481.9c-3.5.7-12 4.7-12 5.6 0 .2 2.1-.5 4.8-1.6 5.1-2.3 28.2-4.6 33.7-3.4 1.7.4 4.4.9 6 1.1 2.8.4 2.8.3 1-.8-2.3-1.5-27.7-2.1-33.5-.9zM91.8 584.7c1.7.2 4.7.2 6.5 0 1.7-.2.3-.4-3.3-.4-3.6 0-5 .2-3.2.4z"/><path fill="#996" stroke="#996" stroke-width=".1" d="M237.8 9.7c1.2.2 3 .2 4 0 .9-.3-.1-.5-2.3-.4-2.2 0-3 .2-1.7.4zm390.5 95.8c0 2.2.2 3 .4 1.7.2-1.2.2-3 0-4-.3-.9-.5.1-.4 2.3zm107 13.5c0 3 .2 4.3.4 2.7.2-1.5.2-3.9 0-5.5-.2-1.5-.4-.2-.4 2.8zm-215.5 51.7c1.2.2 3.2.2 4.5 0 1.2-.2.2-.4-2.3-.4s-3.5.2-2.2.4zm-37 42c1.2.2 3.2.2 4.5 0 1.2-.2.2-.4-2.3-.4s-3.5.2-2.2.4zM32.4 268c0 6.3.1 8.9.3 5.7.2-3.1.2-8.3 0-11.5-.2-3.1-.3-.5-.3 5.8zm612.9 19.5c0 3.3.2 4.5.4 2.7.2-1.8.2-4.5 0-6s-.4 0-.4 3.3zm1.7 16.7c-.3 3.1-.1 5.3.3 4.9.5-.5.7-3 .5-5.7l-.3-4.9-.5 5.7zm-1.7 10.5c-1.8.7-1.6 3.2.1 3.9 1.1.4 1.3 1.2.6 3-.6 1.5-.6 2.4 0 2.4.5 0 1.1 2.4 1.3 5.2.2 2.9.4.7.5-5 .1-5.6-.1-10.2-.5-10.1-.5 0-1.4.3-2 .6zm-444 18.3c0 2.5.2 3.5.4 2.2.2-1.2.2-3.2 0-4.5-.2-1.2-.4-.2-.4 2.3zm-175 43.5c0 2.2.2 3 .4 1.7.2-1.2.2-3 0-4-.3-.9-.5.1-.4 2.3zM23.4 444c0 6.9.1 9.7.3 6.2.2-3.4.2-9 0-12.5-.2-3.4-.3-.6-.3 6.3zm599 13.2c-.4.6-.3.8.3.5.6-.4 1.4 0 1.7.9.4.9.9 1.5 1.1 1.2.8-.7-.5-3.8-1.5-3.8-.5 0-1.2.5-1.6 1.2zm-.6 15.6c-.3.9-.1 2.6.3 3.7.6 1.5.8 1.1.8-1.8.1-4-.4-4.8-1.1-1.9zm-241.7 5.1c-.8.5.5.7 3.5.4 6.8-.6 7.7-1.1 2.4-1.2-2.5 0-5.1.3-5.9.8zm239.9 6.5c-.6 3.1-1.5 5.4-2 5.1-.4-.3-.6.4-.3 1.6.3 1.1.9 1.7 1.3 1.2.9-1 3.2-12.5 2.6-13-.2-.3-.9 2.1-1.6 5.1zm-14.9 81.3c-1.3 2.7-1.3 2.8.8.9 1.1-1 1.8-2.3 1.5-2.7-.8-1.3-1-1.2-2.3 1.8zm1.2 10.5c-.1 1.2-.8 2.5-1.5 3-1 .8-1 .9.1.6 2.2-.6 3.8-3.5 2.5-4.8-.6-.6-1-.3-1.1 1.2z"/><path fill="#999" stroke="#999" stroke-width=".1" d="M77.8 65.1c-2.1 1.1-3.8 2.2-3.8 2.4 0 .3 1.8-.4 4-1.5s4-2.3 4-2.5c0-.7 0-.7-4.2 1.6zM734.3 73c0 2.5.2 3.5.4 2.2.2-1.2.2-3.2 0-4.5-.2-1.2-.4-.2-.4 2.3zm1 56.5c0 3.3.2 4.5.4 2.7.2-1.8.2-4.5 0-6s-.4 0-.4 3.3zm-3.2 83.1c0 2.7.4 5.8.9 6.9.5 1.2.7-.5.3-4.5-.7-7.9-1.3-9.1-1.2-2.4zm-559.4 66c.7.3 1.7 2.1 2.3 4 .7 2 1.4 3.3 1.7 3.1.8-.9-2.6-7.7-3.9-7.6-.9 0-1 .2-.1.5zm.1 33.3c-.2 2.2 0 3.8.3 3.5 1-.6 1.7-6.4.8-6.9-.4-.3-.9 1.3-1.1 3.4zm-72.7-1.4c0 1.3 4.7 7.1 5.3 6.5.2-.3-.9-2.1-2.5-4-1.5-1.9-2.8-3.1-2.8-2.5zm289.2 112.2c2.6.2 6.7.2 9 0s.2-.3-4.8-.3c-4.9 0-6.8.1-4.2.3zm-7 27.8c0 2.2.2 3 .4 1.7.2-1.2.2-3 0-4-.3-.9-.5.1-.4 2.3zm17 23c0 2.2.2 3 .4 1.7.2-1.2.2-3 0-4-.3-.9-.5.1-.4 2.3z"/><g fill="#C99" stroke="#C99" stroke-width=".1"><path d="M76.3 7.1c-1.8.5-3.3 1.1-3.3 1.3 0 .1 2.7.2 6 .2 5.2-.1 5.6-.2 3.7-1.3-2.5-1.4-2.2-1.4-6.4-.2zm-7.5.6c-1 .2-1.8.9-1.8 1.4 0 1.3 1.3 1.1 3.6-.6 1.9-1.4 1.4-1.7-1.8-.8zm657.7 66.9c-2.7 2.5-7.2 5.9-10 7.5-2.7 1.7-6.4 3.9-8 4.9-8 5-48.5 10.6-49.7 6.9-.3-.8-1.6-1-4.1-.5l-3.7.7-.2 116.7c-.2 64.2-.2 183.4 0 264.9l.2 148.2 3.5.7c1.9.3 3.2 1 2.9 1.5-.3.5.2.9 1 .9.9 0 1.6-.5 1.6-1 0-.6 2.1-1 4.6-1 2.7 0 4.3.4 3.9 1-1.1 1.7 13.4.3 22.6-2.2 8.2-2.3 15-5.8 23-12 2-1.5 4-2.8 4.4-2.8 1.2 0 6.6-4.2 6.1-4.7-.3-.3 1.6-3.1 4.1-6.2l4.7-5.6-6.7 6.5-6.7 6.4V82.6l6.2-6.3c7.3-7.4 7.4-8.1.3-1.7zm7.9 25.9c0 13.2.2 18.5.3 11.7.2-6.8.2-17.6 0-24-.1-6.4-.3-.9-.3 12.3zM24.5 79c1.1.5 2.9.9 4 .9h2l-2-.9c-1.1-.5-2.9-.9-4-.9h-2l2 .9z"/><path d="M659.7 90.3c5.8.5 11.5.5 15.5-.1 5.5-.8 4.4-.9-9.2-.9h-15.5l9.2 1zm74.7 54.2c0 5.5.1 7.6.3 4.7.2-2.9.2-7.4 0-10-.2-2.6-.3-.2-.3 5.3zm-1.9 38.5c-.4 13.3-.5 24.3-.2 24.6.2.3.8-10.4 1.2-23.6.4-13.3.5-24.3.2-24.6-.2-.3-.8 10.3-1.2 23.6zm-1.9 50.7c-.7 22-3.2 60.1-4.2 63.8-.4 1.7-.3 1.8.5.4 1.9-3.1 6.6-85.9 4.9-85.9-.3 0-.8 9.8-1.2 21.7zm-5.5 70.7c-1.1 4.7-1.5 8.3-.6 7.4.7-.6 2.6-11 2.1-11.5-.2-.2-.9 1.6-1.5 4.1zm-3 14.7c-1 4.7-1 10.4-.1 25.3.7 10.5 1.6 19.5 2.2 20.1.6.7.7-1.6.2-6.3-.9-10-1.1-37.9-.2-42 .4-1.7.4-3.2-.1-3.2s-1.4 2.7-2 6.1zm2.5 61.4c.3 7.1 1 14.8 1.4 17 1 5.1.1-17-1.1-24.5-.5-3.7-.6-1.2-.3 7.5zm1.8 32.5c.3 4.1 1.1 16 1.7 26.5 1 18 1.9 25.2 1.9 15.4-.1-9.2-2.9-48.1-3.6-48.8-.4-.3-.4 2.8 0 6.9zm3.7 53.1c0 3.5.4 8.6.9 11.4.5 3.3.6 1.2.3-6-.6-12.1-1.3-15.5-1.2-5.4zm2.2 21.4c0 2.7.2 3.8.4 2.2.2-1.5.2-3.7 0-5-.2-1.2-.4 0-.4 2.8zm1 11c0 3.3.2 4.5.4 2.7.2-1.8.2-4.5 0-6s-.4 0-.4 3.3zm1 15.5c0 4.1.2 5.8.4 3.7.2-2 .2-5.4 0-7.5-.2-2-.4-.3-.4 3.8zm1 20c0 4.7.2 6.6.4 4.2.2-2.3.2-6.1 0-8.5-.2-2.3-.4-.4-.4 4.3zm1.1 25c0 5.2.1 7.4.3 4.7.2-2.6.2-6.8 0-9.5-.2-2.6-.3-.4-.3 4.8zm.9 20.5c0 3.8.2 5.3.4 3.2.2-2 .2-5.2 0-7-.2-1.7-.4-.1-.4 3.8z"/></g><path fill="#CC9" stroke="#CC9" stroke-width=".1" d="M83 7.4c1.4.8 3.4 1.5 4.5 1.6 3.3 0 9.3 4.8 11.5 9 1.1 2.2 2.3 6.1 2.7 8.6l.6 4.6 2.8-3.4c4-4.6 9.2-14.6 8.5-16.3-.9-2.3-10.5-4.6-22.1-5.1-10.2-.5-10.8-.4-8.5 1zm-29 3.5c-2.4.7-3.6 3.1-1.5 3.1 2.2 0 7.5-2.2 7.5-3.1 0-1-2.3-1-6 0zM32 21.1c-9.5 6.4-12.4 9.1-16.7 15.7-7.2 11.1-9.6 24.9-5.1 29.3C13.3 69 21.9 73 25.3 73c1.5 0 2.7-.1 2.7-.3 0-.1-1.6-6.2-3.5-13.6-3.9-15.1-4.2-16.9-2.1-15.2 1.1.9 1.5.4 2-2.7.8-5.4 5.3-11.1 13.5-17.2 6.4-4.8 6.9-5.4 5.4-6.6-2.6-1.9-3-1.8-11.3 3.7zm80 8.1c-9.4 14.6-25.1 26.3-43 31.9-6.4 2-17 7.3-17 8.4 0 .5 5.1-1.3 15.5-5.5 12.7-5.1 28.6-13.6 41.4-22.1l11.9-8-1.5-5.9c-.9-3.3-1.8-6-2.2-5.9-.3 0-2.6 3.2-5.1 7.1zM726.3 76l-6.3 6.6v522.8l5.6-5.4c3.1-3 6.9-7.5 8.6-9.9l3-4.3-1.1-29.2c-1.4-35.8-2.7-57.1-4.6-74.1-.7-7.2-1.8-20.2-2.4-29-.6-8.8-1.6-22.7-2.2-30.8-.5-8.1-.7-15.7-.4-16.7.3-1 .1-4.7-.5-8.1-.6-3.5-1.3-12.1-1.5-19.3-.2-7.2-.6-13.8-.9-14.6-.3-.8-1-9.9-1.6-20.1-.9-14.3-.9-20.1.1-24.8.6-3.3 1.5-6.1 2-6.1s.6-.7.3-1.5 0-3.8.7-6.7c1.6-6.7 1.4-4.6 3.2-29.8.9-11.8 2.1-34.6 2.7-50.5.6-16 1.5-40 2.2-53.5 1.1-26.3 1.2-100.1 0-101-.4-.3-3.5 2.4-6.9 6zm-608 216.5c0 2.7.2 3.8.4 2.2.2-1.5.2-3.7 0-5-.2-1.2-.4 0-.4 2.8zM397.5 424c-.4.6.6 1 2.2 1 2.2 0 2.5-.2 1.3-1-1.9-1.2-2.7-1.2-3.5 0zm-17.2 11.6c-1.6 1.3-1.6 1.3.7.6 1.4-.5 4.1-.7 6-.5 2 .3 5.1 0 7-.5 3.1-.9 2.5-1-4.2-1-5.1 0-8.3.5-9.5 1.4z"/><path fill="#633" stroke="#633" stroke-width=".1" d="M735.3 92c0 2.5.2 3.5.4 2.2.2-1.2.2-3.2 0-4.5-.2-1.2-.4-.2-.4 2.3zM302 348.2c0 .5 1.8.8 4 .8s4-.2 4-.4-1.8-.6-4-.8c-2.2-.2-4 0-4 .4z"/><path fill="#282323" fill-opacity=".37" stroke="#282323" stroke-opacity=".37" stroke-width=".1" d="M737.3 92c0 2.5.2 3.5.4 2.2.2-1.2.2-3.2 0-4.5-.2-1.2-.4-.2-.4 2.3z"/><g fill="#C96" stroke="#C96" stroke-width=".1"><path d="M224 11.2c2.9.4 1.4.6-4.5.4-5.8-.2-7.9 0-6 .5 2.2.6 1.3.7-3.5.6l-6.4-.2-.2 3c-.2 5.9-.3 6.2-1.4 4.5-.8-1.3-1-1.2-1 .2 0 2-1.5 2.4-2.5.7-.4-.6-1.3-.8-2.1-.5-.8.3-2.2-.3-3.1-1.4-1.7-1.9-6-2.9-4.9-1.1.3.4-.6.6-1.9.3-1.5-.2-2.5 0-2.5.7s-.4.9-1 .6c-1.2-.7-17 2.5-17 3.5 0 .4-1.1.5-2.5.2-1.4-.2-2.5 0-2.5.6s-.9.8-2 .5c-1.2-.3-2 0-2 .7s-.7 1-1.6.6c-.9-.4-1.3-.2-.8.5.4.8-.1.9-1.5.4-1.3-.4-2.1-.2-2.1.5 0 .6-.4.8-1 .5-.5-.3-1-.1-1 .5 0 .7-.7 1-1.5.6-.8-.3-1.5-.1-1.5.5s-.4.7-1 .4c-.5-.3-1-.1-1 .5 0 .7-.7.9-1.6.6-1-.4-1.3-.2-.8.6s.2.9-1 .5c-1.1-.5-1.5-.3-1 .5s.2.9-1 .5c-1.1-.5-1.5-.3-1 .5s.2.9-1 .5c-1.1-.5-1.5-.3-1 .5s.2.9-1 .5c-1.1-.5-1.5-.3-1 .5s.1.9-1.2.4c-1-.4-1.5-.4-1.1 0 1 1.1-3.1 3.6-4.6 2.8-.6-.4-.9-.4-.5.1 1 1-2.9 3.8-4.1 3-.5-.3-1.3 0-1.7.6-.5.8-.3.9.6.4.9-.6 1.1-.4.6.4-.5.7-1.4 1-2.1.7-.8-.3-1.9.3-2.7 1.2-1.2 1.5-1.1 1.6.5.3.9-.7 1.7-1.1 1.7-.8 0 .3-1.5 1.6-3.2 2.8-1.9 1.3-2.9 1.7-2.3.8.6-.8.3-.7-.6.3-.9.9-1.9 1.4-2.3 1.1-.3-.3-.8.2-1.2 1.1-.3.9-1 1.3-1.5 1.1-.4-.3-1.7.2-2.7 1.2-1 1-2.5 1.9-3.3 2.1-.8.2-2 1-2.6 1.9-.7.9-1.3 1.3-1.3.8s-.6-.1-1.3 1c-.9 1.1-1.9 1.5-2.7 1-.9-.5-1.1-.4-.6.3.4.7.2 1.2-.3 1.2h-1.6c-.3 0-1.4.9-2.6 2.1-1.1 1.1-2.7 1.8-3.5 1.5-1-.4-1.2-.2-.8.6.5.8.2.9-1 .5-1.1-.5-1.5-.3-1 .5s.2.9-1 .5c-1.1-.5-1.5-.3-1 .5s.2.9-1 .5c-1.1-.5-1.5-.3-1 .5s.2.9-1 .5c-1.1-.5-1.5-.3-1 .5s.2.9-1 .5c-.9-.4-1.4-.3-1.1.2.7 1.2-3.1 2.4-4.6 1.5-.7-.4-.9-.3-.6.3.9 1.4-1.8 2.4-4 1.6-1-.4-1.4-.2-1 .4.9 1.4-1.8 2.4-4 1.6-1.1-.5-1.4-.3-.8.6.6 1 .2 1.1-1.5.6-1.6-.5-2-.4-1.5.5s.1 1-1.5.5-2-.4-1.5.4-.2 1-2.2.6c-2.2-.5-2.5-.4-1.3.5s.7 1-2 .5c-2.6-.5-3.1-.4-2 .5 1.1.8.4.9-3 .5s-4-.3-2.5.5c1.6.8 1.2.9-2 .5-2.2-.2-7.9-.6-12.7-.7-4.7-.2-8.4-.6-8.1-1.1.2-.4 0-.7-.6-.7-.5 0-1.7-.3-2.6-.6-1.3-.5-1.5-.2-.9 2.2.4 1.6 1 3.3 1.4 3.9.3.5.5 3.4.4 6.3-.1 2.9.1 5 .6 4.7.4-.3.6.4.3 1.5-.3 1.2 0 2 .7 2 .8 0 .9 1 .5 3.1-.5 2.4-.4 3 .5 2.4 1-.6 1.2-.1.8 1.9-.3 1.4-.1 2.6.4 2.6.6 0 .7 1.4.3 3.1-.6 2.4-.4 3 .5 2.4 1-.6 1.2.1.7 2.9-.4 2.4-.2 3.4.5 3 .7-.4.8.7.3 3.6-.6 3.3-.4 4.1.5 3.5 1-.6 1.2.2.7 3.6-.4 3.1-.3 3.8.3 2.4.8-1.5.9-.9.7 2.7-.1 2.5.2 4.4.7 4.1.5-.3.6 1.6.3 4.3-.5 3.6-.4 4.4.3 2.9.8-1.5.9-.7.6 3.3-.2 3.5 0 4.9.6 4 .6-.8.8.8.4 4.7-.3 4.5-.2 5.2.4 3 .7-2.3.8-1.3.6 4-.2 4.7-.1 6.3.5 5 .6-1.3.8.4.5 5-.3 5-.2 6.2.5 4 .6-2.1.7-.5.5 5.5-.3 5.7-.1 7.7.5 6 .6-1.7.7.6.5 6.5-.3 6.5-.2 7.9.4 5 .6-2.7.8.4.5 9-.2 8.6 0 11.3.5 8 .4-3 .7 3.3.5 15.5-.2 15.9-.1 17.8.4 8.5.5-7.8.7.2.7 23 0 22.5-.2 30.9-.7 23.5-.5-9.4-.6-8.1-.4 7 .1 10.9-.1 16.6-.5 14-.5-2.8-.7.1-.5 8 .3 8.4.1 11.2-.5 8.5-.6-2.8-.7-1.1-.4 6 .2 6.5 0 8.9-.5 7-.6-2-.7.5-.5 7 .2 7.1.1 9-.6 6.5-.6-2.5-.7-1.2-.4 5 .2 5.4 0 7.6-.5 6-.5-1.5-.7 1.5-.5 8 .2 6.9.1 9.7-.5 8-.6-1.8-.8-.6-.5 4 .2 3.6.1 5.7-.3 4.7-.5-.9-.8 4.9-.7 13 .1 9.5-.1 12.5-.5 8.3-.3-3.6-.6 9.9-.6 30s.3 34 .7 31c.3-3 .5 3.3.4 14-.1 10.7.2 17.7.6 15.5.4-2.4.6.2.4 6.5-.2 6.9 0 9.3.5 7 .6-2.5.7-1.5.5 3.9-.2 4.8 0 6.8.6 6 .6-.9.8.5.4 4.1-.3 4-.2 4.8.5 3 .6-1.9.8-1.1.4 3-.3 4-.2 5.1.6 4 .8-1.1.9-.5.5 2.5s-.3 3.6.5 2.5.9-.4.4 2.5c-.3 2.5-.2 3.5.3 2.7 1.2-1.8 3.5 6.9 2.5 9.4-.4 1.1-.3 1.5.5 1 1.3-.8 2.6 2.9 1.6 4.5-.4.7-.3.9.3.6 1.3-.8 3.6 1.7 2.5 2.8-.4.5-.2.5.5.1s2.1.2 3.2 1.3 2.2 1.7 2.5 1.4c.3-.4.6-.1.6.6s.5.9 1 .6c.6-.3 1-.1 1 .5s.4.8 1 .5c.5-.3 1-.1 1 .5s.5.8 1 .5c.6-.3 1-.2 1 .4 0 .6.7.7 1.7.4 1.1-.4 1.4-.3.9.5-.7 1.1.7 1.6 4.2 1.5.6-.1 1.2.3 1.2.7 0 1.2 8.6 3.1 10.6 2.3 1.3-.5 1.5-.3.9.7s0 1.2 3.1.7c2.7-.5 3.4-.3 2.4.3-1 .7.4.9 4.5.5 4.3-.3 5.2-.2 3 .4-2 .6 1.7.9 11 .9 9.5-.1 12.9-.3 10.5-.9-2.7-.6-2-.7 2.5-.3 4.3.3 5.6.1 4.5-.6-1.1-.8-.9-.9 1.2-.4 2.8.6 17.8-3.4 17.8-4.8 0-.4.7-.5 1.5-.2.8.4 1.5.1 1.5-.5s.7-.8 1.5-.5c.8.4 1.5.1 1.5-.5s.7-.8 1.7-.4c1.2.5 1.4.3.8-.7-.6-1-.3-1.2 1.3-.8 1.4.4 2 .2 1.5-.5-.4-.6 0-.8 1-.4s1.7.2 1.7-.4c0-.6.7-.8 1.6-.5.8.3 1.3.2 1-.3-.7-1.1 2.2-2.3 3.5-1.5.5.3.9 0 .9-.7s.3-1 .6-.6c.4.3 1.3-.1 2.1-.9.9-.8 2.2-1.3 3-1 .9.4 1.1.2.7-.6-.5-.8-.1-.9 1.2-.4 1 .4 1.5.4 1.1 0-1-1 3.1-3.6 4.5-2.8.7.5.8.3.3-.6-.6-1-.4-1.2.9-.7 1.1.5 1.5.3 1-.5s-.2-.9 1-.5c1.1.5 1.5.3 1-.5s-.2-.9.9-.5c.9.3 1.9.1 2.3-.5.4-.7.3-.8-.4-.4s-1.2.5-1.2.2 1.4-1.3 3.1-2.2c1.7-.8 2.8-1.1 2.4-.4-.4.6 2.5-.5 6.4-2.5 3.9-1.9 7.1-4 7.1-4.6 0-.5.5-.7 1-.4.6.4 1 .3.9-.2-.1-.4-.1-1.7 0-2.8.1-1.7.3-1.8 1.1-.5.8 1.1.9.8.4-1.3-.8-3.6 2.3-13.7 4.2-13.7.8 0 1.4.5 1.4 1.1 0 .5.5.7 1.2.3.8-.5.9-.2.5.9-.8 2 .2 4.9 1.3 4.2.5-.3.6.5.2 1.7-.3 1.3-.1 1.9.5 1.5.7-.4.9 0 .7 1-.4 1.4.2 1.9 3.1 2 1.9.2 3.5-.1 3.5-.6 0-.6 2.5-.8 5.8-.5 4 .3 5.3.1 4.2-.6-1-.7 3.3-.9 13.5-.6 10.2.3 13.4.2 10-.4-3.5-.6-.4-.8 10.5-.6 8.5.2 13.9 0 12-.4-2.5-.5-.9-.7 5.5-.7 6.7 0 8.1.2 5.5.8-2.1.4.2.5 5.9.2 7.3-.4 9.2-.3 8.6.7-.6 1 .3 1.1 3.9.6 3.1-.5 4.6-.4 4.6.4 0 .7.8.9 1.9.5 1.1-.3 2.2-.1 2.6.5.4.7 1.8.9 3.1.6 1.4-.4 2.4-.2 2.4.4 0 2 1.7.9 5.5-3.8 2.2-2.6 3.1-4 2-3.2-1.8 1.5-1.8 1.4-.1-1.3 1.8-2.6 3.5-3.9 2-1.5-.5.9-.2.9.9-.1 1.9-1.5 1.9-1.7 1.9 5.9v5.5l.7-5 .7-5 .4 6.8c.3 4.1.1 6.7-.5 6.8-.5 0 .4.5 2 1 1.7.5 4.4.7 6 .3 2-.3 2.5-.2 1.7.4-1.8 1.2 3.9 2.4 7.6 1.6 2.2-.4 2.4-.3 1.2.6-1.2.9-.7 1 2 .5s3.2-.4 2 .5c-1.2.9-.7 1 2 .5s3.1-.4 2 .5c-1.1.8-.5.9 2.5.5 3-.5 3.6-.4 2.5.4s-.7 1 2 .5c2.7-.4 3.1-.3 2 .5s-.7 1 1.7.5c4.5-.9 13.1.5 11.2 1.7-.9.7-.1.8 2.6.4 3.1-.5 3.7-.4 2.5.5-1.2.8-.6.9 2.5.5 3.1-.5 3.7-.4 2.5.5-1.2.9-1.1 1 .7.5 3.1-.9 9.9.5 8.1 1.6-.8.6.1.7 2.2.3 2.7-.4 3.1-.3 2 .5s-.7 1 2 .5c2.7-.4 3.1-.3 2 .5s-.7 1 2 .5c2.7-.4 3.1-.3 2 .5s-.7 1 2 .5c2.7-.4 3.2-.3 2 .5-1.2.9-.9 1 1.4.5 1.8-.4 2.7-.3 2.3.3-.4.6.4.8 2 .5 1.7-.3 2.4-.1 1.9.6-.4.6.2.8 1.6.4 1.5-.3 1.9-.2 1.4.7-.6.9 0 1 2 .5s2.5-.4 1.9.6c-.5.9-.2 1 1.4.5 1.2-.4 2.1-.2 2.1.4 0 .6 1.2.8 3.2.4 2.3-.4 2.9-.3 2.4.6-.6.8-.1 1 1.8.5 1.7-.4 2.6-.2 2.6.6 0 .9 1.1 1 3.6.5 2.5-.4 3.4-.3 2.9.5-.5.7.2.9 1.9.4 1.8-.4 2.6-.2 2.6.6 0 .9 1.1 1.1 3.5.7 1.9-.3 3.5-.2 3.5.2 0 1 21.7 4 31.5 4.4 2.8.1 5.3.6 5.7 1.1.4.6 7.6 1 16.5 1 8.7 0 13.6.3 10.8.6-2.7.3 9.2.5 26.5.5s29.5-.3 27-.7c-2.6-.4-.6-.5 5-.3 6.3.3 8.7.1 7-.5-1.7-.6-.4-.7 3.9-.3 4 .4 6.2.2 5.8-.4-.3-.5.6-.8 2.2-.5 1.6.2 3.4-.2 4.3-1.2.9-.8 1.8-1.3 2.1-1 .3.3.8-1.6 1.2-4.3.3-2.6 1-6.2 1.5-7.9.6-1.7 1-5.4 1-8.3 0-2.9.4-8.2 1-11.9.5-3.7 1.2-8.9 1.5-11.5.5-4 .9-4.6 2.1-3.6 1.6 1.3 1.9 3.6.4 4.1-1.5.5-3.2 16.1-2.1 19.1 1.4 3.6-2 33.3-3.9 34.7-1 .7-1.9 8.8-1.1 9.2.3.2 1.9 2 3.4 4.1 4 5.2 15.9 13.9 23.7 17 3.6 1.5 10.1 3.6 14.5 4.6 4.4 1 8.7 2.2 9.6 2.6 1 .3 2 .2 2.3-.3.3-.5-1-1.3-2.9-1.6l-3.5-.7-.2-148.2c-.2-81.5-.2-200.7 0-264.9.2-109.5.4-116.7 2-117 .9-.2-1.4-1-5.3-1.7-3.8-.6-7.7-1.4-8.6-1.7-1.1-.3-2.2 1.1-3.8 5.2-1.3 3-2.7 5.2-3.1 4.7-.4-.4-1.5-3.8-2.5-7.6-1-3.7-2.4-7.2-3.2-7.9-1.2-.9-1.3-.7-.9 1.3.3 1.3 1 4.4 1.6 6.9.5 2.5 1.5 10.2 2 17.2.6 7 2.8 29.3 5 49.5 2.3 20.2 4.7 44 5.5 52.8.8 8.8 1.9 20 2.5 25 1.9 16.8 3.1 30 4.1 45 .5 8.2 1.2 17.4 1.5 20.3.4 3.5.2 5.8-.6 6.7-2 2.4-2.7 1.8-3.5-3.2-.5-3.3-.9-4.2-1.6-3.2-.7 1.1-.9.9-.9-.7 0-1.2.7-2.4 1.5-2.8.8-.3 1.5-1.6 1.4-2.8 0-2.2-.1-2.2-.9-.3-.5 1.2-.7-1.8-.4-7.5.2-6 0-8.6-.5-7-.5 1.6-.7-.9-.5-7 .2-7.5.1-8.6-.6-5-.7 3.5-.7 2.5-.4-4 .6-9.5-7.4-85.2-8.8-84.4-.5.3-.6-1.3-.2-3.5.4-2.6.2-4.6-.5-5.5-.8-.9-1-2.8-.5-5.2.5-2.7.4-3.5-.5-3-.9.6-1-.5-.5-4.5.6-4.1.4-5-.6-4.4-1 .6-1.1-.3-.6-4.1.5-3.7.4-4.5-.4-3.4-.9 1.1-1 .1-.6-4.5.3-4.2.2-5.5-.5-4.5-.7 1.1-.9-.3-.5-4.5.4-4.3.2-5.3-.4-3.5-.7 1.8-.9-.2-.7-6.7.2-5.6 0-8.8-.6-8-.5.7-.6-1-.3-4.3.5-4.1.4-5.1-.5-4-.8 1.1-.9.5-.6-2.8.3-2.6.1-4-.5-3.6-.6.4-.7-.9-.3-3.3.5-3 .4-3.5-.5-2.3-.9 1.2-1 .5-.6-3 .5-3.4.4-4.1-.5-3-.8 1.1-.9.4-.5-2.8.4-2.7.3-4.1-.3-3.8-1.8 1.1-3.5-7.3-3.4-16.9 0-5.5-.1-6.3-.7-3.5-.7 3.1-.7 2.9-.4-1.2.5-8.2 5.2-14.8 14.8-21 3.2-2.1 6.4-3.8 7-3.8.6 0 .4.5-.4 1.1-1.2.9-1.2 1 .3.5 1-.3 2.1-.6 2.3-.6.3 0 .2-.5-.2-1.1-.4-.8.1-.9 1.6-.4 1.6.5 2 .4 1.5-.4s.2-1 2.2-.6c2.2.5 2.5.4 1.3-.5s-.7-1 2-.5c2.6.5 3.1.4 2-.4s-.2-1 3.5-.6c2.9.3 4 .2 2.7-.3-1.3-.4 4.2-.7 12.1-.7 8 0 14.3.3 14 .7-.2.5.3.8 1.2.8.9 0 1.4-.4 1-.9-.3-.6 1.4-.3 3.9.5 5.1 1.8 12 7.4 14.2 11.6 1.6 3.1 1.4 4-1.2 4.4-.9.1-1.3 0-1-.3.3-.3-1-1.8-2.9-3.3-1.9-1.5-3.1-3-2.7-3.4.3-.4-.2-.4-1.2 0-1.3.5-1.7.4-1.3-.3.5-.7-.1-.9-1.5-.6-1.9.4-2 .3-.8-.6 1.1-.8.7-1-2-.5-2 .3-3 .2-2.4-.3.7-.4-5.1-.8-12.8-.8-7.7 0-12.9.3-11.6.7 1.3.4-.1.6-3.2.3-4-.3-5.1-.2-4 .6 1.1.8.5.9-2.5.5s-3.6-.3-2.5.5.6.9-2 .5c-2-.3-2.9-.2-2.2.2 1.6 1.1-6.3 3.6-8 2.6-.7-.5-.8-.3-.3.6.6 1 .4 1.2-.9.7-1.1-.5-1.5-.3-1 .5s.2.9-1 .5c-1.1-.5-1.5-.3-1 .5.5.7.2.9-.8.6-1.7-.7-7.3 3.3-8.9 6.4-.8 1.5-.8 1.9 0 1.4.7-.5.9-.1.5.8-.3.9-.9 1.4-1.3 1.2-.4-.3-.7 2.7-.6 6.5 0 7.8-1.2 9.4-1.7 2.1l-.3-4.7-.5 5.5c-.5 5.5-.4 5.6 2 5.4 2.3-.2 2.5.2 2.6 3.8.1 3 .8 4.6 2.7 6.2 1.6 1.3 3.3 4.5 4.5 8.6 1.5 5.2 2.1 6.1 2.7 4.5.4-1.1 1.3-3.4 2-5.1l1.3-3.1 7.3 1.3c4.1.7 9.7 1.3 12.4 1.2l5-.1-5.5-.7c-3.8-.4-.6-.7 10-.8 8.5-.1 16.9-.6 18.7-1.1 1.8-.5 4.1-.7 5.3-.4 1.1.3 2 0 2-.6 0-.7 1-1 2.5-.7 1.5.3 2.3.1 1.9-.5-.3-.6.5-.7 2.2-.3 1.9.5 2.5.4 2-.5-.4-.6 0-1.1 1.1-1.2 1 0 1.4-.2.8-.5-.6-.2-.9-4.6-.7-11.1.3-10 .2-10.6-1.2-8.6-2.2 3-8.4 6.6-10.2 5.9-.8-.3-1.2-.1-.9.4.7 1.2-4 2.4-5.6 1.4-.8-.5-.9-.3-.4.6.6 1 .1 1.1-2.1.6-2.3-.5-2.6-.4-1.4.5 1.2.8.6.9-2.5.5-2.3-.3-3.4-.2-2.7.3 1.8 1.1-4.6 2.1-11.8 1.9l-5.5-.2 6.5-.7c6-.6 5.8-.6-2.4-.4-5.6.2-8.3-.1-7.5-.6.9-.6.4-.7-1.5-.3-2 .5-2.7.4-2.2-.4s.1-1-1-.5c-1.3.5-1.5.3-.9-.8.5-.9.5-1.1-.2-.4-.6.5-1.3 2.3-1.7 4-.5 2.3-.4 2.7.5 1.5.8-1.2.9-.7.5 2-.4 2.1-.3 3 .3 2.2.6-1 1-.4 1.5 1.9.4 2.3.2 3.8-.8 4.7-1.8 1.8-3.6.7-3.6-2.1 0-1.6-.3-1.8-.9-.9-1.2 1.9-2.3-2.9-1.5-6.6.4-2.1.3-2.4-.6-1.2-.9 1.2-1 .7-.5-2s.4-3.1-.5-2c-.8 1.1-.9.5-.5-2.5.5-3 .4-3.6-.4-2.5s-1 .7-.5-2c.3-2 .2-3-.3-2.3-.5.6-.8-1.1-.8-4.2 0-2.9.3-5.1.6-4.9.4.2 1-.3 1.3-1.2.4-.9.2-1.3-.5-.8-.6.3-.3-.5.6-2 1.6-2.4 2.7-3.1 4.8-2.7.5.1.5-.4.1-1-.5-.9-.2-1 1-.6 1.1.4 1.5.3 1-.4-.4-.8.1-.9 1.6-.4 1.6.5 2 .4 1.5-.5-.6-.9.1-1.1 2.6-.6 2.4.4 2.8.3 1.4-.3-1.3-.5 1.9-.8 8.7-.6 12 .2 15.8 1.8 19.2 7.6 1 1.7 1.5 2.9.9 2.6-1.3-.8-.3 11.6 1.1 12.5 1.7 1.1 2.8.9 2-.3-.4-.8.1-.9 1.6-.4 1.7.5 2.1.4 1.5-.6-.6-.9-.3-1.1.8-.6 1.1.4 2.6-.3 4.4-2.1 1.4-1.5 2-1.8 1.2-.7-1.3 2-1.3 2 .8.1 1.3-1 2-2.2 1.8-2.6-.3-.4.2-1.1 1.1-1.4 1.1-.4 1.4-1.3 1-3-.6-2.5 1.5-4.3 3.6-2.9.7.4.8.1.3-.7-.6-.9-.4-1.1.5-.5.9.6 1.1 3.4.7 11.4-.3 6.2-.2 9.1.2 7.1.7-2.8.9-1.8 1 4.7 0 5 .6 8.5 1.3 8.9.7.5.8.3.3-.6-.6-1-.4-1.2.9-.7 1.1.5 1.5.3 1-.5s-.2-.9 1-.5c1.1.5 1.5.3 1-.5s-.2-.9 1-.5c1.1.5 1.5.3 1-.5s-.2-.9.9-.5c.9.3 1.9.1 2.3-.5.5-.7.2-.8-.6-.3-.9.6-1.1.4-.6-.4.5-.7 1.4-1 2.2-.7.7.3 1.6 0 2-.6.5-.7.2-.8-.6-.3-.9.6-1.1.4-.6-.4.5-.7 1.4-1 2.1-.7 1.3.5 9.1-7.3 8.7-8.7-.1-.5.2-.6.7-.3 1 .6 3.3-1.7 3-3-.4-2.2.2-3.4 1.6-3.4.9 0 1.5-.9 1.4-2.3 0-2.1-.1-2.1-1-.2-.6 1.4-.7.5-.3-2.9.3-3 .2-4.6-.4-4.2-.6.4-.8-.2-.5-1.4.3-1.1 0-2-.6-2-.5 0-.8-.6-.5-1.4.3-.7-.2-2-1-2.9-.8-.8-1.2-1.7-.9-2.1.4-.3.1-.6-.6-.6s-1-.4-.7-.9c.3-.5-.1-1.2-.9-1.5-.8-.3-1.4-1-1.3-1.5.2-.5 0-.8-.4-.8-1.1.3-5.8-4.5-5.3-5.4.3-.4 0-1.1-.6-1.5-.8-.5-1-.2-.5.7.4.8-.2.3-1.4-1.1-1.2-1.4-1.9-1.8-1.5-1 .4 1 .2.9-.8-.2-.8-1-1.7-1.5-2-1.1-.4.3-1.5-.1-2.4-.9-2.9-2.5-8.3-3.9-17.4-4.5-8.4-.6-8.6-.5-9.2 1.8-.4 1.3-.7 3.8-.7 5.6 0 1.7-.4 3.5-1 3.8-.5.3-1-.1-1-1 0-1-.5-1.3-1.1-.9-.9.5-1-.1-.5-2.2.4-1.8.3-2.4-.2-1.6-.7 1.1-1 .9-1.5-.7-.2-1.1 0-2.3.7-2.6.6-.3-.5-.2-2.4.1-1.9.3-5 .6-6.8.5-1.9-.1-3.1.2-2.9.7.3.4-1 .6-2.9.4-2.2-.3-3.4 0-3.4.8s-1 .9-2.9.5c-1.7-.4-3.2-.2-3.6.5-.4.6-1.6.8-2.7.4-1.4-.4-1.8-.3-1.3.5s-.1 1-2.1.5c-2.1-.5-2.5-.4-1.9.6.6 1 .3 1.2-1.3.8-1.4-.4-2-.2-1.5.5.4.6-.2.8-1.5.5-1.2-.4-2.2-.2-2.2.4 0 .6-.7.7-1.6.4-1-.4-1.3-.2-.8.6.5.7 0 .9-1.4.6-1.4-.4-2-.2-1.5.5.4.7 0 .8-1.1.4-1.1-.5-1.5-.3-1 .5.5.7 0 .9-1.4.6-1.4-.4-2-.2-1.5.5.4.6-.2.8-1.5.5-1.4-.4-2-.2-1.5.5.4.6-.2.8-1.5.5-1.2-.4-2-.2-1.7.2.8 1.3-15.1 6.2-17.7 5.5-1.6-.4-1.9-.3-1 .3 1.9 1.3-2.5 2.4-7 1.7-2.5-.4-2.8-.3-1.3.4 1.9.8 1.8.9-.5 1.2-1.4.2-2.6 1.1-2.6 1.9-.4 3.7-1.7 6.1-3.1 5.6-.8-.3-1.7-.6-1.9-.6-.3 0-.2-.5.1-1 .3-.6-.1-1-1.1-1-1.1 0-1.5-.6-1.1-2 .3-1.3.1-1.8-.6-1.3-.6.4-.8.1-.5-.8.4-1.1-1.4-1.4-10.1-1.5-8.9-.1-9.7 0-5.1.6 3.8.6.9.7-9.5.5-10-.1-13 0-9 .5 4.9.6 4 .7-5.2.6-6.1 0-10.6.2-10 .6.8.5.6.8-.5.8-.9 0-2 .5-2.4 1.2-.5.7-.2.9.7.4.8-.4.6-.1-.3.7-1.9 1.5-2.5 3.2-.8 2.2 1.5-.9 1.2.4-.5 2.1-.8.9-1.5 1.3-1.5.9 0-.3-1-.1-2.1.6-1.7.9-2 .8-1.7-.2.3-.8-.2-2-.9-2.8-.8-.7-1.2-2-.9-2.8.3-.8.1-1.1-.4-.8-.6.3-1 .1-1-.4 0-.6-1.9-1.2-4.2-1.3l-4.3-.1 4.5-.7c2.7-.5-.5-.6-8-.4-8.6.2-11.1 0-8-.6 3.2-.5 1.1-.7-7-.5-8 .3-10.1.1-7-.4 3.1-.6.8-.8-7.5-.5-8.2.2-10.7 0-8-.6 3.7-.7 3.5-.8-2.1-.6-4 .1-6.1.5-6.2 1.3-.1.7-.3 2-.4 2.8-.2 1.8-1.8 2-1.8.2 0-.8-.4-.7-1 .3-.9 1.3-1.1 1.3-2 0-.5-.8-1-1.1-1-.6 0 .6-.6.1-1.4-.9-.8-1.1-1.2-2.3-1-2.7.3-.5-.3-.8-1.3-.9-1.3-.1-1.1-.3.7-.9 1.6-.6 0-.7-4.5-.4-5 .2-6.3.1-4.5-.6 1.8-.6 1-.7-3-.4-4 .4-5.1.3-4-.5 1.1-.8 0-.9-4-.6-4 .4-5 .3-3.5-.4 1.5-.8.8-.9-2.5-.5-3.2.4-4.1.3-3.1-.5 1.1-.7.2-.8-3-.5-3.4.4-4.1.3-2.9-.6 1.2-.8.6-.9-2.5-.5-2.9.5-3.6.4-2.5-.4s.5-.9-2.5-.5c-3.1.4-3.7.3-2.5-.6 1.2-.9.8-1-1.9-.5-2.5.5-3.2.4-2.6-.5.5-.9.2-1-1.3-.6-2.6.8-7.4-.3-6.6-1.5.3-.6-.6-.7-2.2-.3-2 .5-2.5.4-1.9-.6.5-.9.2-1-1.4-.5-1.1.3-2.1.2-2.1-.3 0-.6-1-.8-2.2-.4-1.4.3-1.9.1-1.4-.6.5-.8.2-1-.8-.6-.9.3-1.6.1-1.6-.5s-.7-.8-1.7-.4c-1.2.5-1.4.3-.8-.7.6-1 .4-1.2-.8-.7-1 .4-1.7.2-1.7-.4 0-.6-.6-.9-1.4-.6-.8.3-1.6.1-1.8-.4-.2-.6-1.6-1.2-3.1-1.2-1.5-.1-2.7-.6-2.7-1.1 0-.4-.9-.6-2-.3s-1.8.2-1.5-.3c.6-1-4.3-2.3-5.7-1.4-.7.5-.8.2-.3-.6.6-1 .1-1.2-1.8-.8-1.5.3-2.4.1-2.1-.4.4-.5-1-.7-3.3-.4-3 .5-3.4.4-1.8-.4 1.6-.8 1.1-.9-2-.5-2.9.4-3.6.3-2.5-.4 1.2-.9 1.1-1.1-.7-1.1-1.2 0-2.5.5-2.9 1.2-.4.7-.3.8.4.4s1.2-.1 1.2.8c0 1-.9 1.6-2.4 1.6-1.4 0-2.8.5-3.2 1.2-.5.7-.3.8.6.3.9-.5 1.1-.4.6.3-1.1 1.7-3.6 1.5-3.6-.4 0-.8-.4-1.3-.9-1-.5.3-1.1-.4-1.4-1.5-.4-1.4-1-1.8-1.9-1.3-1.1.6-1.1.5 0-.8 1.1-1.4.2-1.5-8.5-1.2-8.2.2-8.9.1-4.3-.6 3.9-.6 1.4-.7-8.5-.5-9.2.2-12.3.1-9-.5 3.2-.5-.7-.6-11-.5-10.8.2-13.9 0-9.5-.5 4.2-.4.2-.6-11.5-.5-10.3.2-15 0-11-.4 3.9-.3-4.3-.6-18.5-.6-14 0-23.5.3-21 .7zm450.8 20.5c-1.6.2-4 .2-5.5 0-1.6-.2-.3-.4 2.7-.4s4.3.2 2.8.4zm-8.5 11c-1.3.2-3.3.2-4.5 0-1.3-.2-.3-.4 2.2-.4s3.5.2 2.3.4zM218 75.7c6.3 2.3 15.8 5.8 21 7.9 12.9 5 16 5.3 24 1.9 10.4-4.4 15.5-5.5 33-6.6 20-1.3 33.3-.6 50.5 2.7 16.9 3.3 25.5 3.1 31.1-.9C392 70.4 390.8 71 397.7 71c5.8 0 7.4.5 14.7 4.5 10.1 5.5 15.2 5.9 24 2 7.1-3.2 12.5-3.2 23-.1 4.4 1.3 12.1 3.3 16.9 4.5 16.7 3.8 24.2 8.8 30.4 20 2 3.6 4.6 7.7 5.7 8.9 5.9 6.6 13.8 6.9 32.6 1 13-4 14-4.1 27.5-4.2 13.3-.1 14.3 0 19 2.6 13.4 7 19.4 19.2 23 46.5 1 7 3.8 22.2 6.3 33.8 4.2 19.3 4.5 22.2 4.6 35.5.1 14.2 0 14.7-3.6 25.7-2.1 6.1-3.8 12.2-3.8 13.5 0 4.7-2.3 10.3-5.6 13.6-1.9 1.9-3.9 4.3-4.5 5.4-1.4 2.7.3 7.9 4.5 13.7 4.3 5.8 6.6 11 6.6 14.7 0 1.5-1.4 7-3.1 12.3-4.4 13.6-3.9 17.7 3.4 32.5 5 10 5.7 12.3 5.7 17.3 0 7.2-3.2 14.3-9.1 20.8-8.2 8.8-17.1 12.5-38.3 15.5-23.3 3.4-25.2 4.2-32.5 13.5-3.1 3.9-8.9 9.3-14.4 13.4-11.7 8.7-12.5 9.6-24 27.1-11.4 17.3-19.5 27.2-25.9 31.5-2.5 1.8-9.8 5.3-16.2 7.9-6.5 2.5-17.1 7.8-23.8 11.6-17.5 10.1-22 11.3-37.7 10.8-14-.6-20.4-2.3-37.6-10.2-8.2-3.7-9.7-4.1-17-4.1-7.4 0-8.7.3-17 4.4-7.8 3.8-10.1 4.4-17 4.8-12.5.8-16.7-1.3-31.6-15.3-8.8-8.3-14.1-12.4-19.2-14.9-3.8-1.9-7.6-3.5-8.4-3.5-3.2 0-12.9-4.2-15.6-6.7-3.8-3.7-5.1-6.3-7.7-16.1-2.8-10.3-7.4-16.6-16.8-22.7-8.3-5.3-12.6-7.1-22.7-9.6-10.3-2.5-21.2-2.4-33.8.2-15.5 3.1-20.9 1.7-34-8.8-3.8-3-9.4-6.9-12.5-8.7-4.1-2.3-6.3-4.4-8.6-8.3-2-3.2-5.4-6.8-9.2-9.6-4.4-3.3-6.7-5.8-8.3-9.3-1.3-2.7-3.6-6.3-5.3-8-2.5-2.7-3.1-4.4-3.9-11-.6-4.4-.7-12-.4-16.9.5-6.3.2-11.8-1-18.5-1.7-9.6-2.9-24.6-4.1-50.5-.8-16.5 0-19.4 6.8-23.5 5.3-3.2 9.2-9.1 8.4-12.4-.3-1.4-2.7-4.2-5.4-6.2-8.5-6.8-13.3-11.8-15.7-16.4-2.6-5.1-7.5-20.1-7.5-23 0-4.7-3.3-10.1-7.7-12.6-3-1.9-5.1-4.1-6.8-7.4-5.7-11.3-8.2-28.1-5.1-35.4 2.9-6.9 22.9-15.1 46.4-19.2 8-1.3 16.7-3.4 19.3-4.5 6.2-2.7 11.3-8.4 15-16.5 1.6-3.5 4.2-9.2 5.8-12.7 5.2-11.6 12-17.2 25.2-20.7 6.5-1.7 10.2-1.9 31.9-1.7l24.5.2 11.5 4.2zm429.7 249c-.6 13.5-1.6 20.4-6.7 45.3-.7 3-1.6 8.2-2 11.5-1.8 12.4-4 23.2-5.8 28.3-1.8 5-2 5.2-2.6 2.7-.4-1.6-.2-3.3.5-4.1.7-.8.9-2.9.6-4.9-.3-2.1-.2-3.3.4-3 .5.4.9-.4.9-1.7.2-6 .5-9.3 1.1-9.8 1.2-.9 4.7-23.4 4.2-26.5-.4-2.4-.2-2.7.6-1.5.9 1.1 1 .2.6-4-.3-4.2-.2-4.9.5-3 .7 1.9.8 1.2.5-3-.4-3.9-.3-5.1.5-4 1 1.6 1.3-.8 1.1-9 0-2.8.1-3.1.8-1.5.6 1.3.8-.6.6-5.5-.2-5.8-.1-6.4.4-2.5l.6 5 .7-6.9c.4-4.6.2-7.6-.6-8.8-.9-1.5-.8-2.1.4-2.8.8-.5 1.9-1 2.3-1 .5 0 .7 4.8.4 10.7zm-19.2 106.9c-.4 3.2-.3 4.4.4 3.9 1.4-.8 1.4.1 0 6.6-.8 3.6-1.4 4.7-2 3.8-.7-1.1-.9-1.1-.9.3 0 .9-.3 2.5-.6 3.5-.6 1.6-.5 1.6.9-.2 1.5-2 1.3-.4-4.9 33-.9 4.9-2.1 9.4-2.7 10-.9 1-.8-.2.9-6.4.5-1.7.4-2.2-.4-1.7-.7.4-1.2 1.8-1.2 3.2 0 1.5-.6 2.4-1.5 2.4s-1.5-1-1.5-2.6.4-2.3 1.1-1.8c.8.4.9-.1.4-1.6-1-3.1.4-11.8 1.6-9.9.7 1.1.9 1 1-.6.1-1.7.2-1.7.6-.2.8 3.2 2.4.6 1.8-3.1-.5-2.9-.4-3.4.5-2.2.9 1.2 1.1.8.6-1.8-.3-1.7-.2-3.2.3-3.2.4 0 .8-1.4.9-3.1 0-2.2-.2-2.8-1.1-2.1-.9.8-1.3-.1-1.5-3.1-.2-3.3 0-3.9.9-2.7.8 1.2.9.9.4-1.3-.3-1.7-.2-2.6.4-2.3.5.4.7-.3.3-1.6-.4-1.6-.2-1.9.8-1.3 1 .6 1.2.4.7-.8-.3-.9-.2-1.9.3-2.2.6-.4.7-2.5.4-4.8-.4-3.3-.3-3.9.6-2.7.9 1.2 1 .8.5-1.9-.5-2.3-.4-3.1.4-2.7.7.4 1.1-.1 1.1-1.3s.3-2.1.6-2.1c.4 0 .3 2.1-.1 4.6zm-12.8 70.9c-.1 3-.5 5.5-.9 5.5-.5 0-.8.7-.8 1.7 0 3.1-.7.8-1.4-4.2-.4-3.7-.3-4.5.4-3 .8 1.6.9 1.4.5-1.3-.3-2-.1-3.1.5-2.7.6.3 1 .1 1-.4 0-.6.2-1.1.4-1.1s.3 2.5.3 5.5zm-5 49.7c-.2 1.8-.4.4-.4-3.2s.2-5 .4-3.3c.2 1.8.2 4.8 0 6.5z"/><path d="M400.8 123.7c1.2.2 3.2.2 4.5 0 1.2-.2.2-.4-2.3-.4s-3.5.2-2.2.4zm119 35c1.2.2 3.2.2 4.5 0 1.2-.2.2-.4-2.3-.4s-3.5.2-2.2.4zm-140.5 50c4.8.2 12.5.2 17 0 4.5-.1.6-.3-8.8-.3-9.3 0-13 .2-8.2.3zm155 98.8c0 2.2.2 3 .4 1.7.2-1.2.2-3 0-4-.3-.9-.5.1-.4 2.3zm37.3 4.1c-2 1.9-2 2 0 2.8.9.3 1.2.2.9-.5-.4-.5-.1-1.6.5-2.4 1.7-2 .5-1.9-1.4.1zm-26.3 1.9c-1.8.8-3.3 1.7-3.3 2 0 .3 1.6-.2 3.6-1s4.1-1.2 4.7-.8c.6.3.7.1.3-.5-.9-1.5-1.3-1.5-5.3.3zm-356 20c0 2.2.2 3 .4 1.7.2-1.2.2-3 0-4-.3-.9-.5.1-.4 2.3zM281 364c1.4.4 3.4.8 4.5.8 1.6 0 1.5-.2-.5-.8-1.4-.4-3.4-.8-4.5-.8-1.6 0-1.5.2.5.8zm15.8.7c3.4.2 8.8.2 12 0 3.1-.2.3-.3-6.3-.3s-9.2.1-5.7.3zm-19.4 42.7c-.3.8-.4 2.5-.2 3.8.3 1.7.5 1.3.9-1.5.5-3.8.2-4.7-.7-2.3zm2.9 11.3c1.5.2 3.7.2 5 0 1.2-.2 0-.4-2.8-.4-2.7 0-3.8.2-2.2.4zm86.6 63.8c-2.5 1.3-5.2 3.2-6 4.2-1.3 1.6-1.2 1.7.2.5.9-.7 4.1-2.6 7-4.2 6.4-3.5 5.4-4-1.2-.5zm25.9.2c1.2.2 3 .2 4 0 .9-.3-.1-.5-2.3-.4-2.2 0-3 .2-1.7.4zm226.9-4.4c-1.1 2.9-.9 5.3.4 4 .6-.6.9-2.1.7-3.4-.3-2.1-.4-2.2-1.1-.6zM76 15.1c1.8.6 1.2.7-2.5.4-3.7-.4-4.6-.2-3.5.6 1.2.8 1 .9-1 .5-3-.6-7.2.3-6.5 1.4.3.5-.5.6-1.7.2-1.6-.4-1.9-.2-1.3.8.5.9.4 1.1-.3.6-1.4-.9-9.1 3-11.5 5.8-1 1.1-1.5 1.4-1.1.6.4-.8-.7 0-2.4 1.8-1.7 1.9-3.6 3.1-4.1 2.8-.5-.3-1.5.2-2.2 1.2-1.2 1.5-1.2 1.6.1.7.9-.6.7-.2-.3.7-1.1 1-2.3 1.5-2.8 1.2-.5-.3-.9-.2-.8.3.3 1.9-.2 3.4-1 2.8-.5-.3-1.3 0-1.7.6-.5.8-.3.9.6.4 1-.6 1.2-.4.7.9-.4 1-.7 2-.7 2.2 0 .3-.4.3-.9 0-.5-.4-.7.4-.4 1.6.3 1.4.1 1.8-.4 1.1-.4-.6-.8 3-.8 8.2 0 5.2.4 8.8.8 8.2.5-.7.6.3.3 2.3-.5 2.7-.3 3.1.5 2s.9-.7.5 2c-.4 2.6-.3 3.1.4 2 .8-1.2 1-.8.8 1.5-.2 2.4.1 3 1.7 3.1 1.5.1 1.6 0 .3-.3-1-.3-1.8-.8-1.8-1.2 0-.5 2.1-.4 4.7 0 2.5.5 4.9.7 5.1.4.3-.3-.3-.5-1.4-.6-1-.1-.3-.5 1.6-1 1.9-.4 4.1-.6 4.8-.4.6.2 1.2 0 1.2-.5 0-.6.5-1 1.2-1C52.1 69 67 59.9 67 58.7c0-.6.3-.7.7-.4.3.4 1.2-.1 2-1.1 1-1.1 1.2-1.2.8-.2-.4.8.2.5 1.2-.7s2.4-2.3 3.2-2.5c.8-.2 2.3-1.1 3.3-2.1s2.4-1.5 3.1-1.1c.7.4.9.4.5-.1-1-1 2.9-3.8 4.1-3 .5.3 1.3 0 1.7-.6.5-.8.3-.9-.6-.4-.9.6-1.1.4-.6-.4.5-.7 1.5-1 2.4-.6.9.3 1.3.3.9-.1-.9-.9 3-3.7 4.2-2.9.5.3 1.3 0 1.7-.6.5-.8.3-.9-.6-.4-.9.6-1.1.4-.6-.4.5-.7 1.4-1 2-.8.9.4 1.3-1.1 1.5-5.2.1-4.6-.1-5.8-1.3-5.8-.8 0-1.3.4-1 .9.8 1.3-9.8 11.9-11.3 11.3-.8-.2-1.2-.1-.9.4.3.5-.1 1.2-1 1.5-.8.3-1.2.2-.9-.4.3-.6-.1-.7-.9-.4-.9.3-1.4 1-1.1 1.4.9 1.5-5 2.7-11.7 2.2-8.3-.5-11.4.2-12.1 2.8-.3 1.2-.1 1.8.5 1.4.6-.4.8.2.3 1.6-.5 1.7-.4 2.1.6 1.5.9-.6 1.1-.2.7 1.3-.4 1.2-.2 2 .3 1.6 1.1-.7 1.1.7 0 2.4-.6.9-1.7-.7-3.7-5.2-1.6-3.6-3.2-6.6-3.7-6.6-.4 0-.5-.5-.2-1 .3-.6.1-1-.5-1s-.8-.5-.5-1c.3-.6.3-1-.2-1-.4 0-.8-2-.8-4.5s.4-4.5.8-4.5c.5 0 .5-.5.2-1-.3-.6-.1-1 .5-1s1-.3.8-.8c-.2-.4.9-1.9 2.4-3.4s2.8-2.4 2.8-2c0 .3.7-.3 1.6-1.4.8-1 1.3-1.2.9-.4-.5 1.2-.4 1.2.7-.1.7-.9 1.9-1.4 2.7-1.1.8.3 1.1 0 .7-.6-.8-1.4 1.4-2.1 5-1.6 2.4.4 2.6.3.9-.5-1.8-.9-1.7-1 .8-1 5.8-.2 9.1 4.2 8.4 11.2-.4 4.1-3.4 8-5.4 7.2-.8-.2-1.1 0-.8.6.4.6-.3.8-2.2.4-1.9-.5-2.4-.4-1.4.3.7.5 1.1 1.4.7 2-.3.6-.1 1.4.5 1.8.8.5.9.3.4-.6-.6-.9 0-1.1 2.6-.5 2.2.4 2.9.3 2.1-.3-1.1-.7-.7-1.1 1.3-1.6 1.4-.4 3.1-.4 3.7 0 .6.4.8.3.5-.3-.4-.6.5-1.5 1.9-2.2 2-.9 2.4-.9 1.9.1-.4.7.5-.2 2-2 1.4-1.7 3.3-3.2 4.1-3.2.8 0 1.4-.6 1.4-1.3 0-1.4 3.8-5.4 4.6-5 1 .7 2.4.2 2.4-.8 0-.5-.4-.8-.9-.5-1.1.7-2.3-2.2-1.4-3.6.3-.6.2-.9-.3-.6-.5.2-2-.7-3.4-2-1.4-1.4-1.9-2.1-1.1-1.7 1 .5 1.2.4.7-.3-.4-.7-1.8-1-3.4-.6-2.1.4-2.4.3-1.2-.5 1.1-.8-.4-1-6-1-5.6.1-6.9.3-5 1zm-7.7 32.6c-1.8.2-4.8.2-6.5 0-1.8-.2-.4-.4 3.2-.4s5 .2 3.3.4z"/><path d="M66.6 25.2c.5.7.1.9-.9.5-1-.3-1.7-.2-1.7.4 0 .6-.4.8-.9.5-.5-.3-1.2.1-1.5 1-.4 1-1.2 1.4-2.3 1-1-.4-1.5-.4-1.1-.1.7.8-3.3 5.1-4.4 4.8-.4-.2-.4.5-.1 1.4.4 1 .2 1.4-.4 1-.6-.4-1 .5-.9 2.2.1 2.2.5 2.7 2.1 2.4 1.7-.4 1.8-.3.5.7-1.2.8-.6.9 2.5.4 2.2-.4 4.5-.7 5.2-.7.7 0 1-.4.7-.9-.3-.5-.9-.6-1.4-.3-.4.3-1.1-.2-1.4-1.1-.3-.8-.2-1.2.4-.9.6.3.7-.1.4-.9-.5-1.3.2-1.6 3.7-1.6 3.4 0 4.1-.3 2.9-1.1-1.2-.9-1.1-1 .8-.6 1.4.3 2 .1 1.5-.6-.4-.6 0-.8.9-.4 1.3.4 1.6-.2 1.4-3.4-.1-4.5.1-4.8 1.4-1.7.6 1.7.9 1.8.9.6.1-2.2-1.6-3.2-5.7-3.5-2.2-.1-3 .2-2.6.9zm22.9 11-4 4.3 4.3-4c2.3-2.1 4.2-4 4.2-4.2 0-.8-.9 0-4.5 3.9zm9.8-.2c0 2.5.2 3.5.4 2.2.2-1.2.2-3.2 0-4.5-.2-1.2-.4-.2-.4 2.3zm571.4 2.7c1.8.2 5 .2 7 0 2.1-.2.7-.4-3.2-.4-3.8 0-5.5.2-3.8.4zm-9.4 9c1.5.2 3.9.2 5.5 0 1.5-.2.2-.4-2.8-.4s-4.3.2-2.7.4zM28.3 52c0 2.5.2 3.5.4 2.2.2-1.2.2-3.2 0-4.5-.2-1.2-.4-.2-.4 2.3zm626.3-2.8c1.3.6.9.7-1.4.3-2.3-.3-3.1-.1-2.6.6.4.7.1 1-.7.7-.7-.2-2 .3-2.9 1.2-1.2 1.3-1.3 1.3-.5 0 .6-1 .2-.8-1.3.4-2.2 1.9-3 3.2-1.2 2.1.9-.5.8 1.4-.5 7.7-.1 1 .4 2.3 1.4 3 1.4 1.2 1.5 1.1.2-.7-.8-1.1-.1-.5 1.7 1.2 1.7 1.8 3.7 3.3 4.4 3.3 1 0 .9-.3-.2-1.1-1.2-.9-1.1-.9.5-.4 2.4.9 24.7 2.4 25.8 1.8 1.1-.7.8-6.1-.5-6.9-.6-.4-.8-.3-.5.3.8 1.3-2 2.6-3.5 1.6-.6-.3-.8-.1-.5.4.4.6-.3 1.3-1.6 1.7-3.3.9-4.5.6-2.2-.5 1.6-.7 1.3-.8-1.3-.4-4.1.6-8.3-1.2-7.5-3.3.5-1.1.2-1.3-.8-.7-1.1.6-1.2.5-.2-.5 1-1.1 2-1.1 5.1-.2 5.8 1.8 6.7 1.5 10.8-2.6 2.1-2 2.7-2.5 1.4-1-3.2 3.8-2 3.5 1.6-.4 1.6-1.7 2.3-2.8 1.7-2.4-.8.4-1.3.2-1.3-.7 0-.8-.9-2.2-1.9-3.1-1.6-1.5-4.1-1.8-12.7-2-6.3-.1-9.9.1-8.8.6zm26.7 15.3c0 2.2.2 3 .4 1.7.2-1.2.2-3 0-4-.3-.9-.5.1-.4 2.3zm-20.5 6.2c1.7.2 4.7.2 6.5 0 1.7-.2.3-.4-3.3-.4-3.6 0-5 .2-3.2.4zM659 94.2c0 .5 3.7.7 8.3.7 8.5-.2 7.5-.6-2.6-1.1-3.1-.2-5.7 0-5.7.4zM364.8 557.7c1.2.2 3 .2 4 0 .9-.3-.1-.5-2.3-.4-2.2 0-3 .2-1.7.4zm242.3 3c.1 3.4.2 3.5.9 1.3 1.1-3.6 1.1-5 0-5-.5 0-1 1.7-.9 3.7zm-1.4 8.5c-.3 1.8-.1 3.7.4 4.2.5.6.9-.7.9-3.2 0-5-.6-5.4-1.3-1zm-65.9 15.5c3.4.2 9 .2 12.5 0 3.4-.2.6-.3-6.3-.3-6.9 0-9.7.1-6.2.3zM660 625.8c0 1.1 7.8 1.3 8.5.1.4-.5-1.3-.9-3.9-.9-2.5 0-4.6.4-4.6.8z"/></g><path fill="#282325" fill-opacity=".43" stroke="#282325" stroke-opacity=".43" stroke-width=".1" d="M541.3 589.7c2.6.2 6.7.2 9 0s.2-.3-4.8-.3c-4.9 0-6.8.1-4.2.3z"/><path fill="#2A2424" fill-opacity=".17" stroke="#2A2424" stroke-opacity=".17" stroke-width=".1" d="M730.3 348.5c0 2.2.2 3 .4 1.7.2-1.2.2-3 0-4-.3-.9-.5.1-.4 2.3z"/><path fill="#F96" stroke="#F96" stroke-width=".1" d="M234.8 10.7c3.4.2 8.8.2 12 0 3.1-.2.3-.3-6.3-.3s-9.2.1-5.7.3zM212.5 12l-4 .7 3.5.1c1.9 0 4.4-.3 5.5-.8 2.4-1 .7-1-5 0zm45.8-.3c1.5.2 3.9.2 5.5 0 1.5-.2.2-.4-2.8-.4s-4.3.2-2.7.4zm13.5 0c1.2.2 3.2.2 4.5 0 1.2-.2.2-.4-2.3-.4s-3.5.2-2.2.4zm12 1c2.8.2 7.6.2 10.5 0 2.8-.2.5-.3-5.3-.3s-8.1.1-5.2.3zm20 1c1.2.2 3 .2 4 0 .9-.3-.1-.5-2.3-.4-2.2 0-3 .2-1.7.4zm19 1c2.3.2 5.9.2 8 0 2-.2.1-.4-4.3-.4-4.4 0-6.1.2-3.7.4zM92.3 18.3c1.5 1.4 2.7 3.2 2.7 3.8 0 .7.3 1 .6.7.9-1-1.5-4.7-3.9-5.9-1.8-1-1.7-.7.6 1.4zM70 19.9c2 .4 4.2 1.1 5 1.5.8.4.6 0-.4-.8-1.1-.9-3.4-1.5-5-1.5-3.1.1-3.1.1.4.8zm655 12.5c2.4 2.5 4.6 4.6 4.8 4.6.9 0-5.4-7.3-7.2-8.2-1.2-.6-.1 1 2.4 3.6zm-55.7-.7c1.5.2 3.9.2 5.5 0 1.5-.2.2-.4-2.8-.4s-4.3.2-2.7.4zm15.2 1.2c.2.5 1.7 1.2 3.2 1.6 1.6.3 4.6 1.7 6.8 3.1l4 2.5-3-2.5c-2.9-2.5-12.1-6.3-11-4.7zM97.9 36.2c-.3 2.2-.1 3.4.4 2.9s.7-2.1.5-3.7c-.3-2.7-.4-2.6-.9.8zm-37 2.5c.9 1.8.8 2.2-.7 2.6-1.3.4-1.1.5.6.6 2.6.1 2.8-.8.6-3.5-1.5-1.8-1.5-1.8-.5.3zM447 40c.8.5 2.6 1 3.9 1 3.2 0 2.4-.6-1.9-1.4-2.5-.4-3.1-.3-2 .4zm224.3-.3c1.5.2 3.9.2 5.5 0 1.5-.2.2-.4-2.8-.4s-4.3.2-2.7.4zm-554.8 6.1c-3.4 3-2.5 2.7 1.9-.6 1.6-1.2 2.5-2.2 2-2.2s-2.3 1.3-3.9 2.8zm365.3-2.1c1.2.2 3 .2 4 0 .9-.3-.1-.5-2.3-.4-2.2 0-3 .2-1.7.4zm155.8 1.8c-3.3 1.3-6.6 3.1-7.4 3.9-.8.8 1.2.1 4.3-1.5 3.2-1.6 6.4-2.9 7.1-2.9.7 0 1.6-.5 1.9-1 .8-1.3.9-1.3-5.9 1.5zM75 45.5c-1.9.7-2.8 1.4-2 1.4.8 0 2.9-.6 4.5-1.4 3.9-1.7 2.1-1.8-2.5 0zm495.3-.8c1.5.2 3.7.2 5 0 1.2-.2 0-.4-2.8-.4-2.7 0-3.8.2-2.2.4zm-64.5 1c2.3.2 5.9.2 8 0 2-.2.1-.4-4.3-.4-4.4 0-6.1.2-3.7.4zm32.9 0c-.3.5 2.7.7 6.6.5 12.9-.5 14.4-.9 4-1-5.6-.1-10.4.1-10.6.5zm-18.9 1c1.2.2 3 .2 4 0 .9-.3-.1-.5-2.3-.4-2.2 0-3 .2-1.7.4zm-458 1c1.7.2 4.7.2 6.5 0 1.7-.2.3-.4-3.3-.4-3.6 0-5 .2-3.2.4zm617.6.9c.9 1.1 2.3 2.8 3.2 3.9.9 1.1.7.4-.5-1.5-1.1-1.9-2.5-3.6-3.1-3.8-.7-.3-.5.4.4 1.4zm-18.6.1c1.7.2 4.7.2 6.5 0 1.7-.2.3-.4-3.3-.4-3.6 0-5 .2-3.2.4zm-39.4 10.8c-1.5 3.6-1.9 11.1-.6 11.8.4.3.5-1.4.4-3.7-.2-2.3.3-5.9 1.2-7.9.8-2 1.3-3.7 1-3.7-.3 0-1.2 1.6-2 3.5zm-5.8 0c-.3.9-.5 3.1-.5 4.8.1 2.7.3 2.4.9-1.3.8-4.8.6-6.1-.4-3.5zm35.9 8.6c1.2.8 5.9 1.4 12 1.5l10 .2-10-.8c-5.5-.4-10.9-1-12-1.4l-2-.8 2 1.3zm13 6.9-7 .6 6.7.2c3.7.1 7-.3 7.3-.8.3-.6.5-.9.3-.8-.2.1-3.4.4-7.3.8zm-22.3 5.5c0 1.1.3 2.9.8 4 1.1 2.5 1.1-.1 0-3.5-.6-2-.8-2.1-.8-.5zm-16.9 45c0 4.4.2 6.1.4 3.7.2-2.3.2-5.9 0-8-.2-2-.4-.1-.4 4.3zm2 19.5c0 2.5.2 3.5.4 2.2.2-1.2.2-3.2 0-4.5-.2-1.2-.4-.2-.4 2.3zM30.7 201.5c.3 2.7.7 5.2.9 5.4.8.9.2-6.5-.6-8.4-.6-1.3-.7-.2-.3 3zm2.1 39.5c.4 16.4 1 18.5 1 4 0-6.3-.3-12.6-.7-14-.4-1.4-.5 3.1-.3 10zm607.5 28c0 3 .2 4.3.4 2.7.2-1.5.2-3.9 0-5.5-.2-1.5-.4-.2-.4 2.8zm-607 14c0 2.5.2 3.5.4 2.2.2-1.2.2-3.2 0-4.5-.2-1.2-.4-.2-.4 2.3zm-.1 10.6c-.1 3.4-.4 7.7-.7 9.5l-.5 3.4 1-3.3c.6-1.8.9-6.1.7-9.5l-.3-6.2-.2 6.1zm610.1 34.9c0 3.3.2 4.5.4 2.7.2-1.8.2-4.5 0-6s-.4 0-.4 3.3zm-612 0c0 2.2.2 3 .4 1.7.2-1.2.2-3 0-4-.3-.9-.5.1-.4 2.3zm-6 68.5c0 2.5.2 3.5.4 2.2.2-1.2.2-3.2 0-4.5-.2-1.2-.4-.2-.4 2.3zm0 16.5c0 2.7.2 3.8.4 2.2.2-1.5.2-3.7 0-5-.2-1.2-.4 0-.4 2.8zm-.6 55.5c.3 3 .7 5.7.9 5.9.7.8.2-6.4-.6-8.9-.6-1.6-.7-.6-.3 3zm.4 20.6c0 4.3.4 9.7.8 11.9.5 2.4.6-.5.3-7.5-.6-13.4-1.2-15.9-1.1-4.4zm169.3 48.9c-.4 1.4-.4 2.9 0 3.2.3.4.6-.3.6-1.3 0-1.1.5-2.5 1.2-3.2.9-.9.9-1.2 0-1.2-.6 0-1.4 1.1-1.8 2.5zm73.9.2c2.6.2 6.7.2 9 0s.2-.3-4.8-.3c-4.9 0-6.8.1-4.2.3zm-24 1c2.6.2 6.7.2 9 0s.2-.3-4.8-.3c-4.9 0-6.8.1-4.2.3zm43.5 0c1.2.2 3 .2 4 0 .9-.3-.1-.5-2.3-.4-2.2 0-3 .2-1.7.4zm71.7 16.1c.3.4 3 .9 6 1.2 3 .3 5.2.3 4.8-.1-.9-.8-11.6-1.9-10.8-1.1zm-323.2 8.3c.7 1.8 1.9 3.5 2.7 3.7 1.1.4 1.1 0-.2-1.5-1-1.1-1.8-2.5-1.8-3.1 0-.6-.5-1.4-1-1.7-.6-.4-.5.8.3 2.6zm45.5 18.6c1.2.2 3 .2 4 0 .9-.3-.1-.5-2.3-.4-2.2 0-3 .2-1.7.4zm23 0c1.2.2 3 .2 4 0 .9-.3-.1-.5-2.3-.4-2.2 0-3 .2-1.7.4zm407.9 0c1.8.2 5 .2 7 0 2.1-.2.7-.4-3.2-.4-3.8 0-5.5.2-3.8.4zm57.6 0c1.5.2 3.9.2 5.5 0 1.5-.2.2-.4-2.8-.4s-4.3.2-2.7.4zm-32.5 1c4.5.2 11.9.2 16.5 0 4.5-.1.8-.3-8.3-.3-9.1 0-12.8.2-8.2.3z"/><path fill="#663" stroke="#663" stroke-width=".1" d="M362 207c-2.4.8-2.3.8.8.9 1.7.1 3.2-.4 3.2-.9 0-1.1-.5-1.1-4 0zm173.3 131.5c0 2.2.2 3 .4 1.7.2-1.2.2-3 0-4-.3-.9-.5.1-.4 2.3zM398.5 480l-4 .7 3.5.1c1.9 0 4.4-.3 5.5-.8 2.4-1 .7-1-5 0zm8 0c.3.6-.4 1-1.6 1-3.4 0-1.9.7 3.1 1.3 3.7.5 4.1.4 2.3-.5-1.3-.6-2.3-1.5-2.3-2 0-.4-.5-.8-1.1-.8-.5 0-.7.4-.4 1zm-24.2.7c2 .2 5.4.2 7.5 0 2-.2.3-.4-3.8-.4s-5.8.2-3.7.4z"/><g fill="#FC6" stroke="#FC6" stroke-width=".1"><path d="m89.9 36.7-3.4 3.8 3.8-3.4c2-1.9 3.7-3.6 3.7-3.8 0-.8-.8 0-4.1 3.4zm615.4 20.8c0 2.7.2 3.8.4 2.2.2-1.5.2-3.7 0-5-.2-1.2-.4 0-.4 2.8zM156 71.7c-5.2.8-15.3 4.5-19 6.8-5.9 3.7-9.4 8.7-15 21.6-8.6 19.7-13.3 23.3-35.2 27-24.2 4.1-44.5 12.2-48 19-3.6 6.9-1.3 24 4.7 35.9 1.7 3.4 3.7 5.6 6.6 7.2 5 2.8 6.1 4.9 8.7 15.8 4.4 18.3 7.9 24.5 19.2 33.5 3.9 3.1 7.6 6.8 8.3 8.2 1.6 3.5-1.4 8.6-7.9 13.4-6.9 5.1-7.9 8-7.1 22.3 1.9 32.4 2.7 43.2 4.2 51.7 1.1 6.2 1.5 12 1.1 16.9-.3 4.1-.1 11.8.4 17 .8 8.3 1.2 9.8 3.4 11.6 1.3 1.2 3.8 4.9 5.5 8.2 2.4 4.7 4.4 7 8.8 10.1 3.8 2.7 6.8 5.9 8.8 9.3 2.4 4.1 4.4 6 9 8.6 3.2 1.8 8.9 5.8 12.6 8.7 12.3 10.2 19.7 11.8 36.3 8 20.4-4.6 44.9 1.3 59.9 14.5 5.9 5.2 9 10.6 11.1 19.4 3.3 13.3 6.2 16.3 20.8 21 13.4 4.4 16.3 6.3 29.6 19 13.9 13.1 17.7 15.1 29.7 15.1 8.6 0 9.4-.2 18.5-4.5 8.8-4.2 10.1-4.5 17.5-4.5s8.8.4 18.5 4.7c16.3 7.3 26.3 9.8 38.5 9.8 13.4 0 19.1-1.8 35.8-11.4 7.3-4.1 17.9-9.3 23.7-11.6 18.6-7.2 23.4-11.7 43-41 10.5-15.6 12.3-17.5 24.6-26.8 4.5-3.3 10.4-9 13.2-12.5 6.4-8.1 10.2-9.7 30.5-12.6 22.9-3.3 31.3-6.6 39.6-15.6 5.9-6.4 9.1-13.6 9.1-20.6 0-4.8-.8-7.2-5.6-17-7.4-15-8-20.3-3.5-33.3 4.6-13.2 4.3-15.4-3.7-26.9-6.3-9.2-6.4-13-.5-18.4 4-3.7 6.3-8.9 6.3-14.2 0-1.3 1.6-7.4 3.6-13.5 6.1-18.6 5.9-30.2-1.2-61.3-1.9-8.3-4.3-21.6-5.3-29.5-3.5-26.3-7.3-37-16-45.1-6.6-6.2-13.8-8.7-25.1-8.7-10.3 0-15.2.9-31 5.7-21.4 6.4-28 4.6-36-10.2-1.8-3.3-4.6-7.5-6.4-9.3-4.2-4.5-13.3-8.8-23.6-11.2-4.7-1.1-12.6-3.1-17.6-4.5-11.3-3.1-14.9-3.1-22.6 0-9.4 3.8-14.4 3.4-24.4-2-7.3-4-8.9-4.5-14.7-4.5-6.9 0-5.7-.6-20.1 9.7-5.4 3.8-16.2 4.3-29.2 1.4-15.9-3.6-30-4.5-50.5-3.3-18.6 1.2-24.2 2.2-35.1 6.8-3.2 1.3-7.4 2.4-9.4 2.4-2.1 0-10.4-2.7-20.1-6.5-25.5-10.1-27.8-10.5-53.2-10.4-11.9.1-22.7.4-24.1.6zm218.7 42.9c1.9 1.5 4.3 4 5.3 5.6l1.8 3 1.8-3.1c3.2-5.4 8.4-8.1 15.6-8.1 5.2.1 7 .5 10.2 2.8 3.7 2.6 8.5 9.7 7.3 10.9-.3.3-2 0-3.8-.6-1.8-.6-6.8-1.1-11.3-1.1l-8.1.1 3.9 1.4c11.2 4 16.4 14.8 12.2 25-1.9 4.4-2.9 4.4-4.4.2-.6-1.8-2.5-5.1-4.2-7.4-3.7-5-13.6-12.1-15-10.7-1.5 1.5-3.9 13.8-4.7 23.9-.6 8.3-.5 8.9 1 7.6 1-.7 3.2-1.7 5-2.1l3.2-.7-4.3-1.3c-2.3-.7-4.1-1.8-3.9-2.4.6-2 6.9-3.4 10-2.3 3 1 7 6.4 6 8-.3.5.4.4 1.5-.2 3.3-1.8 6.8-1.3 10 1.4 3 2.5 4.8 6.7 3.6 8.6-.4.7-1.2.5-2.2-.4-1-.8-2.8-2-4.1-2.7-2.3-1.2-2.3-1.2-.7 1.1.9 1.3 1.6 3.5 1.6 5 0 2.6-3.3 7.9-4.9 7.9-.5 0-1.1-2-1.3-4.5-.3-2.5-1.3-5.6-2.2-7l-1.7-2.6-3.1 3.8c-2.9 3.7-8.9 14.7-10.2 18.9-.6 1.8 0 2.2 4.8 3.3 5.6 1.2 18.5 8.7 18.6 10.7 0 2.1-3 2.4-28.5 2.4s-28.5-.3-28.5-2.4c.1-1.8 11-8.3 17.2-10.2l5.8-1.8-.8-4c-.4-2.3-.7-13.1-.6-24.1.1-16.5.4-21.3 2.1-27.2l1.9-7.1-2.9 1.5c-5.1 2.6-11.6 9.4-14.3 14.9-3.1 6.3-4.5 6-6.3-1.2-2.3-9 3.5-19 12.8-21.8l4.6-1.5h-8c-4.4-.1-9.6.3-11.4.9-1.9.5-3.7.8-3.9.5-1.1-1.1 2.4-6.9 6.1-10 3.8-3.3 4.5-3.5 11-3.5 6 0 7.5.4 10.4 2.6zm-215.9 5.1c-4.3 8.4-5.2 11.3-5.2 17.8-.1 3.8.3 8.7.7 10.8l.8 3.8 6.2-3.3c3.4-1.8 9.5-6.6 13.7-10.5 4.1-4 7.8-7.3 8.1-7.3.3 0 1.1 1.9 1.8 4.2.7 2.4 2.8 9.4 4.8 15.6 1.9 6.2 3.4 11.5 3.2 11.7-.2.2-2.9-.3-5.9-1.1-6-1.6-18.2-2-24.3-.9-4.4.8-4.4 1 .6 9.4 1.8 3 6.3 8.5 10.1 12.3 3.8 3.8 6.7 7.1 6.4 7.3-.2.3-5.7 2.1-12.2 4.1-6.5 2-13.4 4.2-15.3 5-1.9.9-3.7 1.3-4 1.1-.2-.3.3-3.3 1.3-6.8 1.2-4.8 1.5-9 1.1-16.7-.3-5.7-.7-10.6-1.1-10.9-1-1-10 5-14.7 9.8-2.6 2.7-5.7 6.8-6.9 9.4-1.2 2.5-2.5 4.5-2.9 4.5-.9 0-12.6-35.8-11.9-36.5.3-.3 2.1.3 4 1.5 5.2 3 13.3 4.2 21.2 3.1 3.8-.5 7-1.2 7.3-1.5 1-.9-6.9-11.6-11.8-16-2.8-2.5-6.6-5.1-8.5-5.8-3.6-1.3-4.7-3.8-1.6-3.9.9 0 8.9-2.4 17.7-5.4 16.9-5.7 17.9-5.9 17.3-4.8zm376.4 40.1c.9.9 0 9.3-1.1 10.8-.3.5-5.4.8-11.3.6-11.8-.4-11.8-.4-11.8-8.4 0-3.2.3-3.7 2.8-4.1 3.9-.7 20.5.2 21.4 1.1zM212.1 164c5.3 2 11.9 6.7 11.8 8.4 0 .6-1.8 2.6-4 4.5l-4 3.4-4.7-2.6c-2.7-1.4-6.7-2.9-9-3.3-4.6-.7-4.9-1.5-3.5-9.7l.6-3.8 4.1.7c2.3.3 6.2 1.4 8.7 2.4zm278.1 5.9c1.8 5.3 1.7 7.1-.4 7.1-.7 0-4.9 1.8-9.4 4-4.6 2.2-8.5 4-8.7 4-.8 0-5.7-8.7-5.7-10 0-1.2 19.9-11.2 21.4-10.7.5.2 1.8 2.7 2.8 5.6zm73.7 1.5c2.5 1.9 6.8 5.7 9.5 8.5l4.9 5-3.3 2.8c-6.7 5.6-6 5.7-12.5-.5-3.3-3.2-7-6.4-8.2-7.2l-2.2-1.5 3.2-5.3c1.7-2.8 3.4-5.2 3.6-5.2.2 0 2.4 1.5 5 3.4zM518 190c3.6 6 6.7 10.9 7 10.9.3 0 1.7-2 3.2-4.4 1.5-2.5 3.1-4.5 3.5-4.5.9.1 16.3 24.5 16.3 25.9 0 .9-32.7 2.7-33.6 1.8-.3-.3.6-2.4 2-4.6l2.6-4.1h-7c-4 0-7 .4-7 1s-5.3 1-14 1c-8.8 0-14-.4-14-1 0-1.7 13.8-23 14.9-23 .3 0 2 2.5 3.7 5.5l3 5.5 5.9-10.5c3.2-5.8 6.1-10.5 6.4-10.5.3 0 3.5 5 7.1 11zm-71.4 15.2c-4.4 4.3-8.3 7.8-8.6 7.8-.3 0-2.5-1.7-4.9-3.8l-4.4-3.8 8.8-8.9 8.9-8.8 4.2 4.8 4.2 4.9-8.2 7.8zm-211.2-8.5c.8 3 2.5 13.5 2.8 18.3l.3 4.5-6.2.3-6.2.3-.5-3.3c-2-13.6-2.7-19-2.4-19.2.5-.5 8.2-2.4 10-2.5.9-.1 1.9.7 2.2 1.6zM596 214.9c2.2 5 4 9.9 4 10.9 0 1.3-1.5 2.3-5.2 3.5-2.9.9-5.5 1.3-5.9.9-.3-.4-1.6-3.4-2.9-6.7-1.3-3.3-3.2-7.5-4.2-9.2-1.1-1.8-1.7-3.7-1.3-4.3 1.1-1.7 9.9-5.9 10.8-5.1.4.5 2.6 4.9 4.7 10zm-174.8 12.2c5 3.2 5.4 3.8 3.9 5.4-.5.6-2.9 4.9-5.3 9.7l-4.3 8.6-5.2-2.2c-2.9-1.2-5.5-2.5-5.8-2.8-.4-.3.3-2.6 1.6-5 4-8 9.1-16.8 9.6-16.8.4 0 2.8 1.4 5.5 3.1zm-190.7 14.2c3 .8 5.1 2 5.3 2.9.5 2.4-7 21.8-8.5 21.8-.7 0-3.3-1-5.8-2.2-3.2-1.6-4.5-2.7-4.1-3.8 3.8-11.5 7-20 7.5-20 .3 0 2.8.6 5.6 1.3zm379.7 9.7c1.1 0 1 4.8-.2 5.5-.5.3-1 1.4-1 2.4 0 1.6-3.8 5.1-5.5 5.1-.9 0-6.5-9.3-6.5-10.8 0-.7 2.4-2.4 5.3-3.7 5-2.2 5.2-2.2 6.1-.4.5 1 1.3 1.9 1.8 1.9zm-310.7 17.9c4.1 1.8 9.5 7.2 9.5 9.4 0 .7.8-.2 1.9-1.8 2.4-4 4.9-6.1 9.4-8 8-3.3 16.9-.4 21.8 7.3 3.1 5 3 6.6-.5 5.3-3.8-1.5-12.9-2.2-16.6-1.2-3 .8-3.1.9-.9 1 3.4.1 10.4 5.3 12.3 9 2.4 4.5 2.9 10.2 1.4 14.5-.7 2.2-1.8 4.1-2.4 4.3-.7.2-2.2-1.6-3.3-4.1-3.4-6.9-13.7-16.6-17.7-16.6-1.5 0-4.1 10.4-5.4 21.6-1.5 13.2-1.5 13.2 1.3 10.6 1.3-1.2 3.1-2.2 4-2.2 2.9 0 1.9-2-1.3-2.7-1.6-.3-3-1.1-3-1.8 0-1.3 4.2-3.5 6.8-3.5 2.9 0 8.1 3.8 8.7 6.3.6 2.2 1.1 2.4 4.9 2 3.5-.4 4.7-.1 7.4 2.2 2.3 1.9 3.2 3.5 3.2 5.6 0 3.5 0 3.5-4.4.8l-3.5-2.1 1.5 3.1c1.7 3.4 1.1 7-1.7 10-2.2 2.3-3.8 2-3.7-.7.3-3.3-1.3-9-2.6-10.2-1.2-.9-2.1-.2-5 3.6-3.7 4.8-8 13.1-9.1 17.5-.6 2.4-.3 2.6 4.8 3.8 5.2 1.1 18.6 8.6 18.7 10.4.1 2-7 2.7-27.9 2.7-24.1 0-29.1-.4-29.1-2.5 0-2.2 12-9.4 17.7-10.6 5.7-1.3 5.4-.6 3.7-8.5-.3-1.5-.5-10.1-.4-19.3 0-12.4.5-19 2-26.1 1-5.2 1.8-9.5 1.6-9.7-.1-.2-2.3 1.1-4.9 2.8-4.6 3-10.4 9.9-12.8 15.2-1.6 3.6-3.1 3-4.7-1.9-2.5-7.5.6-16.2 7.6-20.9 2-1.4 4.8-2.5 6.2-2.6 2.1-.1 1.9-.3-1-1-3.6-.9-12.8-.3-16.6 1.1-3.2 1.3-3.6.2-1.4-4 4.4-8.7 14.6-12.2 23.5-8.1zm103.1-.3c3 .8 5.4 1.7 5.4 2 0 .8-6.3 21.9-6.7 22.3-.2.3-2.8-.3-5.8-1.3-3.6-1.1-5.5-2.2-5.5-3.3 0-2.2 6-21.3 6.6-21.3.3 0 3 .7 6 1.6zm-290.2 5.7c1 2.2 3.2 4.7 4.9 5.8 3 1.8 3.2 1.8 5.2 0 3.9-3.6 6.9-4.5 14.6-4.5 6.3 0 8.7.5 13.3 2.8 3.5 1.7 6.2 3.8 6.9 5.3.9 2.1 1.6 2.4 4.1 1.9 1.8-.4 4.7-2.3 6.8-4.6 4.2-4.5 3.8-4.3 7.3-3 2.3.9 2.6 1.5 2.4 4.8-.1 2 .3 4.7 1 6 3.2 5.9-.9 8.9-7.9 5.7-2-.9-5.4-1.5-7.5-1.3-3.6.3-3.8.5-5.2 5.3-2.1 7.6-2.1 7.6 2.1 9.1 2.9 1.1 4.8 1.1 8.1.3 7.2-1.8 11.3 2.3 6.5 6.6-1.1 1-2 3.1-2 4.6 0 3.6-2.6 6.1-5.9 5.7-1.9-.2-3.1-1.4-4.6-4.3-1.4-2.7-3.4-4.7-6.5-6.2-5.2-2.7-6.7-1.9-7.6 3.9-1.2 7-6.8 9.2-16.9 6.7-5.7-1.4-7.2-3.3-7.7-9.7-.3-2.9-.8-5.5-1.1-5.8-.3-.3-2.5-.3-4.9.1-3.2.6-5.2 1.7-7.9 4.6-2 2.2-4.5 3.9-5.7 3.9-3.1 0-5.4-3.9-4.6-7.8.5-2.4.2-3.3-1-3.8-.9-.4-1.6-1.8-1.6-3.4 0-3.9 3.7-4.7 9.5-2.1 3.1 1.4 5.6 1.8 8.5 1.4 4-.6 4.2-.7 3.6-3.6-.3-1.6-.6-4.5-.6-6.3 0-2.7-.6-3.6-3.1-5-2.7-1.3-3.8-1.4-7.6-.4-3.3 1-5 1-6.8.2-3.2-1.5-3.2-3.6 0-6.8 1.5-1.4 2.5-3.6 2.5-5.2 0-6.5 6.4-7 9.4-.9zm98.9 8.3c2.3 1.5 4.4 2.8 4.6 3 .2.2-1.6 4.3-4.1 9.1-2.5 4.9-4.7 9.5-5 10.3-.4 1.2-1.2 1.1-5.4-.4-2.7-1-5.3-2.2-5.8-2.7-1.1-1 8.9-21.9 10.5-21.9.5 0 2.8 1.2 5.2 2.6zm347.9 4.5c.2.6 3.1 1.2 6.6 1.3 4.9.1 6.2.4 6.1 1.6-.4 4.3.1 5 2.6 4.4 3.7-.9 3.5 3.1-.2 4.4-1.6.6-2.2 1.1-1.4 1.1.9.1 1 .5.3 1.3-.8 1.1-4.2 11.1-4.2 12.7 0 .2.9-.5 2-1.7 1.2-1.2 2.8-2.2 3.7-2.2 1.3 0 1.4-.8.9-4.9-.4-2.7-.3-5.2.1-5.4.5-.3 3.8-.3 7.5 0 4.6.4 6.5.9 6.1 1.7-1.5 2.4-1.2 3.7.9 3 1.8-.5 1.9-.2 1.4 4-.2 2.5-.7 4.9-.9 5.3-.5.8.6 8.6 1.8 13.5l.7 2.8H581v3.5c0 2.8.4 3.5 2 3.5 1.1 0 2 .7 2 1.5s.7 1.5 1.5 1.5 1.5.9 1.5 2-.7 2.3-1.5 2.6c-1.1.5-1.5 2.3-1.5 7.5 0 6.7-.1 6.9-2.5 6.9-1.3 0-3.9.9-5.7 2-3.9 2.4-2.9 2.6 1.7.4 2.7-1.2 3.8-1.3 5.5-.4 1.7.9 2.9.9 5.1 0 2.3-1 3.9-1 7.5 0 4.2 1.2 4.7 1.1 7.4-.8 3.1-2.3 4.7-1.5 3.1 1.6-1.8 3.3-4.3 4.6-10.5 5.5-5.3.7-23.4 1.2-27.6.8-.8-.1-3.4.4-5.7 1.1-3.2.9-5.6.9-9.4.2-3.1-.7-8.6-.8-14.4-.3-10.7.9-14.6.1-18.6-3.7-3.3-3.2-2.9-4.7.7-3.3 1.7.6 3.9.6 6.5-.1 2.7-.8 5.1-.8 7.7 0 2 .5 5.1.9 6.7.9l3-.1-3.2-.8c-4.4-1-6-2.5-8.8-8-2.1-4.2-2.7-4.6-5.3-4.2-2.4.3-3 0-3.5-1.9-.9-3.3-.1-3.9 4.9-3.9s5.7-.8 5.2-6.6l-.3-3.9-2.9 4.2c-1.6 2.4-3.4 4.3-4 4.3-1.8 0-6-10.1-6.1-14.7 0-4-.1-4.1-2.7-3.6-2.3.5-2.8.2-2.8-1.4 0-1.6 1.8-2.7 9.2-5.5l9.1-3.4-.2-7-.2-7h7c4.3 0 7 .4 7 1.1-.4 3.2.1 3.5 3.3 2.2l3.1-1.3-.2-7.7c-.2-7.6-.2-7.7 2.3-7.7 1.3 0 2.6.5 2.8 1.1zm-168.4 25.6c2.3.8 4.2 1.6 4.2 1.7 0 1.3-8.4 21-9.5 22.4-.7.8-11.5-5.4-11.1-6.3.3-.5 2.4-5.4 4.7-10.8 3.3-7.6 4.6-9.6 5.8-9.1.9.3 3.5 1.3 5.9 2.1zm-189.5 13c.3.5.6 5.7.8 11.8l.4 11-5.4.8c-3 .4-5.8.4-6.3-.1-1.1-1.1-2.3-20.4-1.5-22.6.5-1.2 2-1.6 6.1-1.6 3 0 5.7.3 5.9.7zm168.4 27.8c2.3 1.4 4.3 3.2 4.3 3.9 0 1.1-8 13.1-12.2 18.3-1 1.3-1.8.9-8.7-4.5l-2.4-1.9 4.5-5.9c2.4-3.3 5.3-7.4 6.3-9.2 1.1-1.7 2.4-3.2 2.9-3.2s2.9 1.1 5.3 2.5zm-159.6 17.6c.7 1.7 3.2 5.7 5.5 8.9l4.2 5.8-4.4 4.3c-2.6 2.6-4.7 3.9-5.2 3.4-5.6-6.5-13.2-18-13.2-20.1 0-1.2 7.8-5.2 10.1-5.3.9-.1 2.2 1.3 3 3zM344 393.5c-.1 1.1-10.4 9.1-16.2 12.5l-3.7 2.1-1.7-3.3c-.9-1.8-2.3-4.2-3.1-5.4-1.3-2-1-2.3 4.9-6.2 3.5-2.3 7.7-5.2 9.3-6.6l3-2.6 3.7 4.3c2.1 2.3 3.8 4.6 3.8 5.2zm-96.2 7.7c5.8 2 9.1 3.6 8.8 4.4-.2.6-.8 3.3-1.1 5.8l-.7 4.7-4.2-.6c-6.4-1.1-19.6-6.5-19.6-8 0-.8 1-3.5 2.2-6 1.6-3.2 2.7-4.5 3.8-4.1.8.3 5.7 2 10.8 3.8zm53.3 9.3c.7 3 1 5.7.7 6-.7.8-14 2.5-19.6 2.5h-5.3l.3-6.3.3-6.2 9.4-.7c5.2-.4 9.9-.9 10.5-1.1 1.9-.7 2.4.2 3.7 5.8zm97.3-.8c3.6 3.1 6.6 6 6.6 6.4 0 .4-.7.9-1.5 1.3-1.8.6-2.1 7.6-.4 7.6.8 0 .9 1.9.4 6.1-.6 4.6.1 11.3 2.6 27.9 3 20.1 3.4 21.9 5.4 22.4 2.9.7 17.5 10.4 17.5 11.6 0 2.6-5.3 3-38 3-39.4 0-42.8-.6-34.4-6.4l3.7-2.5-.1-9.3c0-5.1-.4-10.1-.7-11-.5-1.2.8-3.4 4.2-7.3 2.6-3 5.3-5.5 5.8-5.5.6 0 2.1 1.4 3.5 3.1l2.6 3.1 1.7-12.9c1.3-9.3 1.5-14.1.9-17.1-.7-3-.6-4.4.2-5.1 1.4-1.1.9-8.1-.5-8.1-.5 0-.9-.4-.9-.9 0-1 12.8-12.1 14-12.1.5 0 3.8 2.6 7.4 5.7z"/><path d="m385.3 170-4.3 1.9v6.1c0 3.3.4 6 .8 6 .5 0 1.5-1.5 2.4-3.3.8-1.7 3.2-5.3 5.2-8 4.1-5.4 3.1-6-4.1-2.7zm-71.8 155.4c-4.8 2.1-5.5 3.5-4.8 10l.6 5.7 2.7-4.9c1.4-2.7 3.9-6.5 5.4-8.5 2.5-3.3 2.6-3.7 1-3.7-1.1.1-3.3.7-4.9 1.4zm-182.6-36.7c-.9.2-2.2 1.5-2.9 2.8-1.1 2-1 2.8.4 5 2.1 3.2 6 3.3 8.1.1 2.7-4.1-.7-8.9-5.6-7.9zm12.8 3.1c-3.2 3.5-1.1 9.2 3.3 9.2s6.6-6.2 3.4-9.4c-2.1-2.1-4.7-2-6.7.2zM559 298c0 1.2 2.7 1.2 5.5 0 1.6-.7 1.3-.9-1.7-.9-2.1-.1-3.8.3-3.8.9zm23.3 7.7c-1.3.2-2.3.9-2.3 1.4 0 1 3.2.4 6-1.2 1.3-.7 1.3-.8 0-.7-.8 0-2.5.3-3.7.5zm-43.5 3.3c.5 3.4 1.7 3.2 2.4-.5.4-1.9.1-2.5-1.2-2.5s-1.6.7-1.2 3zm12.6 2.6c-1.4.6-.6 9 1.2 12.6.8 1.5 1.4 2.9 1.4 3.2 0 .2-1.9.7-4.2 1.1-7.5 1.1-11 2.6-10.4 4.2.3.8.6 3.5.6 5.9 0 4 .2 4.4 2.4 4.4 1.4 0 3.3 1 4.3 2.3 2.1 2.7 7.1 6.2 7.9 5.5.3-.3.4-4.1.2-8.4l-.3-7.9-3.7 3.9c-3.6 3.8-3.8 3.9-5.7 2.2-1-1-2.5-3.1-3.2-4.8-1.1-2.7-1-3.2.5-4.3 1-.7 4.4-1.6 7.7-2 3.2-.4 5.9-.9 5.9-1.1 0-.3-.9-2.3-2.1-4.6-1.4-2.8-2-5.4-1.7-8.4.2-2.4.3-4.4.3-4.3 0 0-.5.3-1.1.5zm25.1 1.9c-2.5 1.2-2.6 1.4-.5.9 2.8-.7 6-2.3 4.5-2.3-.5 0-2.3.6-4 1.4zM570 317c0 1.1.9 4.3 2 7.2 1.1 2.9 2 5.3 2 5.4 0 .1-3 .4-6.6.7-3.7.4-6.7.8-6.8.9-.1.2 0 4.7.2 10.2l.3 9.8 3.2-.6c1.8-.3 4-1.6 5-2.8 1.6-1.9 1.6-2.3.3-3-.9-.5-1.6-1.4-1.6-2 0-1.7 4.4-5.8 6.3-5.8.9 0 1.7-.7 1.7-1.5 0-1.9-2.7-.9-6.2 2.2l-2.6 2.5-1.7-2.5c-2.9-4.5-1.7-6.2 4.6-6.5l5.6-.3-2.3-5.7c-2.7-6.5-2.9-8.8-1.1-9.5.7-.3.5-.6-.5-.6-1.2-.1-1.8.6-1.8 1.9zm-180.3 98.6c-1.6 1.6-.7 4.4 1.4 4.4 1.5 0 2-.5 1.7-2.2-.3-2.2-1.9-3.3-3.1-2.2zm-6 31.1c-.4.3-.7 1.9-.7 3.5 0 2.4.4 2.8 2.8 2.8 2.6 0 2.8-.2 2.4-3.5-.4-3.3-2.6-4.7-4.5-2.8zm9.3 22.2c-.5 1.1-1 3.3-1 4.9 0 2.7.4 3 3.5 3.4 3.5.4 3.5.4 3.5-3.7 0-6-3.7-8.8-6-4.6zM706.3 76c0 3 .2 4.3.4 2.7.2-1.5.2-3.9 0-5.5-.2-1.5-.4-.2-.4 2.8zm-674 149.5c0 2.2.2 3 .4 1.7.2-1.2.2-3 0-4-.3-.9-.5.1-.4 2.3zm1.1 42c0 6.6.1 9.2.3 5.7.2-3.4.2-8.8 0-12-.2-3.1-.3-.3-.3 6.3zm-2.1 54c0 2.2.2 3 .4 1.7.2-1.2.2-3 0-4-.3-.9-.5.1-.4 2.3zm-4 53c0 2.7.2 3.8.4 2.2.2-1.5.2-3.7 0-5-.2-1.2-.4 0-.4 2.8zm-2 30.5c0 2.5.2 3.5.4 2.2.2-1.2.2-3.2 0-4.5-.2-1.2-.4-.2-.4 2.3zm-.9 39c0 11.3.2 15.9.3 10.2.2-5.6.2-14.8 0-20.5-.1-5.6-.3-1-.3 10.3zm.9 34.5c0 2.2.2 3 .4 1.7.2-1.2.2-3 0-4-.3-.9-.5.1-.4 2.3zm2 42c0 2.2.2 3 .4 1.7.2-1.2.2-3 0-4-.3-.9-.5.1-.4 2.3z"/></g><path fill="#282424" fill-opacity=".25" stroke="#282424" stroke-opacity=".25" stroke-width=".1" d="M737.3 81.5c0 2.7.2 3.8.4 2.2.2-1.5.2-3.7 0-5-.2-1.2-.4 0-.4 2.8z"/><path fill="#FC9" stroke="#FC9" stroke-width=".1" d="M548 329c3.4 1.1 6 1.1 3.5 0-1.1-.5-2.9-.8-4-.8-1.6 0-1.5.2.5.8z"/><path fill="#CC6" stroke="#CC6" stroke-width=".1" d="M358.8 123.7c1.2.2 3 .2 4 0 .9-.3-.1-.5-2.3-.4-2.2 0-3 .2-1.7.4zm78.1 73-3.4 3.8 3.8-3.4c2-1.9 3.7-3.6 3.7-3.8 0-.8-.8 0-4.1 3.4zm72.9 14c1.7.2 4.7.2 6.5 0 1.7-.2.3-.4-3.3-.4-3.6 0-5 .2-3.2.4zM360.3 477c0 4.7.2 6.6.4 4.2.2-2.3.2-6.1 0-8.5-.2-2.3-.4-.4-.4 4.3z"/><path fill="#393" stroke="#393" stroke-width=".1" d="M509.5 191.5c5.2 1.9 8 1.9 3.6 0-1.8-.8-4.3-1.5-5.5-1.5-1.3.1-.7.6 1.9 1.5zm20.1 9c.6 1.5 4.3 4 4.9 3.3.1-.2-1.1-1.3-2.6-2.6-2.1-1.7-2.7-1.9-2.3-.7z"/><path fill="#093" stroke="#093" stroke-width=".1" d="M357 114.4c-4 2-9 7.4-9 9.7 0 .5 1.2.4 2.8-.2 3.8-1.6 17.1-1.5 20.7.1l3 1.3-5.4.8c-4.6.6-6.1 1.4-9.9 5.3-4.2 4.1-4.6 5-5 10.4-.2 3.5.1 6.8.8 8.2 1.2 2.2 1.2 2.2 3.4-1.6 4.8-8.3 8.6-13 12-14.8 2-1 3.8-2.7 4.1-3.7.9-2.7 4.5-2.4 11.9 1 7.5 3.4 13.7 8.7 17.3 14.9 2.3 3.9 2.8 4.2 3.4 2.6 1.4-3.6.9-6.7-1.8-10.3-3.5-4.6-4.9-5.8-9.8-8.1l-4-2h3.2c3.6 0 9.3 4.4 12.5 9.5 1.5 2.5 1.8 2.6 1.8 1 0-5.7-8.6-12.5-15.8-12.5-4.9 0-4.9-1.4 0-2.5 1.8-.4 2.7-.9 2.1-1.2-.7-.2-1.3-.9-1.3-1.4 0-1.3 8.8-1.1 11.3.3 1.2.7 4.1 1.8 6.5 2.4l4.2 1.1-1.8-3.1c-3.2-5.5-7.5-7.6-15.8-7.6-6.8 0-7.6.2-10.9 3.1-1.9 1.7-3.8 4.2-4.1 5.5-.8 3.2-1.9 3-3.4-.6-1.4-3.5-5-6.5-9.9-8.6-4.7-1.9-7.9-1.7-13.1 1zm15.8 2.6c4.4 2.7 4.1 4.2-.5 1.9-2.4-1.2-5.8-1.9-9.8-1.9-4.2 0-5.6-.3-4.5-1 2.7-1.7 11.2-1.1 14.8 1zm33.2-1c1.1.7-.4 1-5 1-4.7 0-7.4.6-9.8 2-3.9 2.4-4.3 2.4-3.6.6 1.4-3.6 14.4-6.2 18.4-3.6zm-38.4 14c-5 2.5-7.4 4.7-9.4 8.5-.8 1.7-1.7 2.4-1.9 1.8-1.3-3.7 7.7-12.3 12.7-12.2 2.2 0 2 .2-1.4 1.9zm16.6 26.6c-.8.4.7 1.6 3.7 3 5.9 2.7 6.6 4.2 1.7 3.6-2.7-.3-4 .2-6 2.2-1.4 1.4-2.6 3.2-2.6 4.1 0 1.3.6 1.3 4-.5 4.5-2.3 6.7-2.5 12.2-.8 3.2.9 4.1.9 4.8-.2.6-1 1.8-.7 5.4 1.3 4.9 2.7 5.5 2.3 3.1-2.3-1.7-3.2-6.3-4.7-9.4-3.1-3.1 1.7-4.1 1.3-4.1-1.4 0-1.5-.9-3.1-2.4-4-2.6-1.7-8.4-2.8-10.4-1.9zm-97.7 112.9c-3.9 1.4-10.5 7.4-10.5 9.5 0 .7 1.3.8 3.8.3 5.6-1.2 16.3-.8 19.7.8l3 1.3-3.5.3c-6.3.6-8 1.3-12 4.9-4.5 4.1-6.4 9.5-5.4 15.2 1.2 6.7 1.9 6.8 5.2.9 2.8-5 5.2-7.7 14.3-16.2 3.4-3.2 5.5-3.1 13.3.4 7.2 3.3 14.3 9.3 17.2 14.6 1 1.9 2.2 3.5 2.6 3.5 1.2 0 2.1-6.8.9-8.2-5.2-6.5-8.8-9.9-11.7-11-3.2-1.1-4.6-2.8-2.4-2.8 4 0 14 7.9 14 11 0 .6.5 1 1.1 1 1.3 0 .2-3.7-2-6.7-2.5-3.3-8.7-6.4-13.1-6.5-4.6 0-4.5-1.3.2-2.3 3-.7 3.1-.8 1.2-2.2-1.7-1.3-1.3-1.4 4.1-1 3.3.2 8.2 1.2 10.8 2.2 2.6 1 5 1.5 5.3 1.2 1-1-1.6-4.6-5.3-7.4-3.2-2.5-4.5-2.8-10.7-2.8-8.2 0-12.2 2.1-15 8-.9 1.9-1.9 3.5-2.1 3.5-.2 0-1.2-1.6-2.1-3.6-3.4-7.1-13.1-10.8-20.9-7.9zm10 1.6c2.4.6 5.1 2 6.1 3 2.1 2.3 1.7 2.3-2.9.4-2-.8-6.4-1.5-9.9-1.5-5.9 0-7-1.1-2.3-2.3 3.3-.8 4.4-.7 9 .4zm37.9.9c.7.7-1.1 1-5.2 1-3.5 0-7.9.7-9.9 1.5-4.6 2-5 1.9-2.8-.5 1-1.1 3.2-2.5 4.9-3 3.6-1.1 11.5-.5 13 1zM299 283.8c0 .4-1.6 1.4-3.5 2.1-1.9.6-5.5 3.5-8 6.4-2.5 2.8-4.5 4.8-4.5 4.4 0-1.7 3-6.3 5.7-8.9 3.8-3.6 10.3-6.2 10.3-4zm12.6 29.1c-.4.5.6 1.2 2.1 1.6 1.6.3 3.9 1.4 5.3 2.4l2.4 1.9-3.6-.1c-4.3-.1-8.8 2.6-8.8 5.3 0 2.3.6 2.4 4 .5 3-1.7 9-1.9 12.4-.4 1.9.9 2.9.9 3.9 0 1.7-1.3 6 0 8.9 2.6 1.2 1.1 1.8 1.2 1.8.4 0-2.1-2.9-6.8-4.5-7.5-2.5-.9-7.3-.7-8 .4-1.1 1.8-2.2 1-2.8-2-.4-1.9-1.7-3.4-3.6-4.5-3.3-1.7-8.7-2-9.5-.6z"/><path fill="#693" stroke="#693" stroke-width=".1" d="M532.8 218.7c1.8.2 4.5.2 6 0s0-.4-3.3-.4-4.5.2-2.7.4zm-246 60c1.2.2 3 .2 4 0 .9-.3-.1-.5-2.3-.4-2.2 0-3 .2-1.7.4z"/><path fill="#363" stroke="#363" stroke-width=".1" d="M400.8 122.7c1.2.2 3.2.2 4.5 0 1.2-.2.2-.4-2.3-.4s-3.5.2-2.2.4zm113.2 71c1.8.7 3.5 2.7 5.6 6.6 1.4 2.6 1.4 3.1-.5 6.2-1.6 2.8-1.7 3.3-.4 2.8 1.3-.5 1.5-.2 1.1 1.5-.4 1.3-.2 2 .4 1.6.5-.3.8-1.4.5-2.4-.2-1 .4-2.3 1.5-3.1 2.5-1.9 5.3-6 3.5-5.3-1.3.4-6.2-5.1-6.2-7.1 0-.6-1.6-1.1-3.5-1.2-1.9-.1-2.8.1-2 .4zm-12.9 4.1c-1.2 2.8-1.6 2.9-6.4 2.8-2.9-.1-5.9-.6-6.9-1-1.2-.6-2.4.4-4.8 4.1l-3.2 4.8 3.4-3.8c3.2-3.6 3.4-3.7 6.8-2.6 1.9.7 4.7 1.8 6.2 2.5 3.5 1.8 3.8 1.8 3.8-.6 0-1.2.7-3.5 1.6-5.1.8-1.7 1.3-3.3 1.1-3.5-.2-.3-1 .8-1.6 2.4zm35.7 9.8c5.2 4.5 6.8 8.5 4 9.8-.7.3-.2.4 1.2.3 3.5-.3 3.6-2.7.3-8-2.1-3.6-3.5-4.8-6.7-5.6l-3.9-1 5.1 4.5zm-31.9-.9c-.1.5-.1 1.1 0 1.5 0 .5-.3.8-.9.8-.5 0-1 .4-1 .9 0 .6 1.2.6 3-.1 1.7-.5 3.7-.7 4.5-.4.8.3 1.5.1 1.5-.4 0-.6-.9-1-1.9-1-1.1 0-2.3-.5-2.6-1-.7-1.2-2.4-1.3-2.6-.3zm24.1 2.1c0 2.1 1.8 4.2 3.7 4.2 1.9 0 1.6-2.4-.5-4.3-2.4-2.2-3.2-2.1-3.2.1zm-12.1 9.5c.5.5 2.8.7 5.2.5l4.4-.3-5.2-.5c-2.9-.3-4.8-.1-4.4.3z"/><path fill="#063" stroke="#063" stroke-width=".1" d="M395.5 113c-1.4.6-.5.9 3.5.9s4.9-.3 3.5-.9c-1.1-.5-2.7-.9-3.5-.9-.8 0-2.4.4-3.5.9zm-1.5 7.9c0 1.5 2.4 1.9 7.4 1.4 3.1-.4 4.3-.9 3.4-1.4-1.7-1.2-10.8-1.1-10.8 0zm-19.4 8.7c-1 2.6-.7 2.8 1.3 1 1.3-1.2 2.7-1.5 4.7-1.1 2.2.5 2.5.4 1.4-.4-2.3-1.6-6.7-1.3-7.4.5zm33.4 13.1c0 1.6-.3 3.9-.6 5.3-.4 1.8-.3 2.1.4 1 1.5-2.4 2.4-9 1.2-9-.5 0-1 1.2-1 2.7zm-7 27.2c1.7.5 2.6 1.6 3.1 3.9.9 4.7 2.1 5.3 1.5.9-.6-4.9-1.2-5.7-4.4-5.6l-2.7.1 2.5.7zm101.5 26.7c-1.4 3.1-2.5 6.5-2.5 7.5 0 2.3-.4 2.3-3.8.5-1.5-.7-4.3-1.8-6.2-2.5-3.4-1.1-3.6-1-7.2 3.1-2.1 2.4-3.8 4.7-3.8 5.3 0 .6 5 1.1 12.5 1.3 11 .3 12.4.2 11.9-1.2-.3-.9-.1-1.6.6-1.6.6 0 .9-.4.5-.9-.9-1.5 1.4-2.4 2.9-1.2.7.6 3.4 1.4 5.9 1.7 4.3.6 4.6.5 6.1-2.5 1.5-2.8 1.5-3.4.1-5.9-.8-1.5-2-3.4-2.7-4.2-1.5-1.8-8.2-5-10.3-5-.9 0-2.6 2.4-4 5.6zm24.5 4.3c0 .5-1.5 2.5-3.3 4.3-1.8 1.9-3.1 4-2.9 4.6.2.6-.5 2.4-1.6 3.9-3 4.4-3.6 5.7-2.5 5 .6-.4 5.9-.7 11.8-.8 12.6-.1 13.5-.3 13.5-3.4 0-1.6-2.2-4.2-6.9-8.4-6.9-6.1-8.1-6.9-8.1-5.2zm5.2 7.8c2.1 1.9 2.4 4.3.5 4.3s-3.7-2.1-3.7-4.2c0-2.2.8-2.3 3.2-.1zm-209.7 68.7c1.1.8 2.4 1.2 2.8.9.5-.3 2.7-.5 5-.5 2.9.1 3.7-.2 2.7-.8-.8-.6-3.9-1-6.9-1-5 0-5.3.1-3.6 1.4zm-21 9.3-1.8 2.8 2.6-2.4c2.1-1.9 3.3-2.2 5.9-1.7 2.3.4 2.9.3 1.8-.4-2.9-1.9-6.7-1.1-8.5 1.7zm34.4 12.3c-.4 2.5-1 5.4-1.4 6.5-.3 1.1.1.7 1-.8.9-1.6 1.5-4.4 1.3-6.5l-.3-3.7-.6 4.5zm-7.9 26c-1 .6-.7.9 1.1 1.2 1.8.2 2.5 1 2.7 3.3.2 1.6.8 3.4 1.4 4 .8.7.9.4.4-.8-.3-1-.6-2.9-.6-4.2 0-2.7-2.9-4.8-5-3.5z"/><path fill="#993" stroke="#993" stroke-width=".1" d="M383.3 203.5c0 1.8 1.9 1.5 2.5-.3.2-.7-.3-1.2-1-1.2-.8 0-1.5.7-1.5 1.5zm108 9.2c1.5.2 3.7.2 5 0 1.2-.2 0-.4-2.8-.4-2.7 0-3.8.2-2.2.4z"/><path fill="#696" stroke="#696" stroke-width=".1" d="M508 190.1c4.5 1 10.1 2 7.5 1.3-1.1-.3-2.4-1-2.9-1.5-.6-.5-2.6-.8-4.5-.8l-3.6.1 3.5.9zm23.2 10.4c2.1 1.9 4.3 3.5 5 3.5.6 0-.6-1.6-2.8-3.5-5.1-4.5-7-4.5-2.2 0z"/><path fill="#C93" stroke="#C93" stroke-width=".1" d="M151.3 181c0 2.5.2 3.5.4 2.2.2-1.2.2-3.2 0-4.5-.2-1.2-.4-.2-.4 2.3zM376 195.3c-.3.3-2.5.8-5 1.2-9.3 1.4-24.3 11.5-17 11.5 1.2 0 3.3-.6 4.8-1.4 3.7-1.9 17-4.6 22.7-4.6 5.6 0 5.7 2 .3 3.5-7.1 2-4.9 2.5 10 2.5 8.3 0 15.3-.4 15.6-.9.7-1.1-8.4-6.9-14.6-9.3-4.9-1.8-15.8-3.5-16.8-2.5zm-73 156c-.3.3-2.2.7-4.3 1-4.5.6-13.1 4.7-17.2 8.2l-3 2.6 4-.4c2.2-.3 6.5-1.2 9.5-2.1 3-.9 9.3-1.9 14-2.3 7.8-.6 8.4-.5 7.1 1-.7.9-2.8 1.9-4.7 2.3-1.9.3-3.4 1-3.4 1.6 0 1.3 29.2.6 29.6-.7.4-1.2-6.5-5.7-13.1-8.6-4.3-1.9-17.4-3.7-18.5-2.6z"/><path fill="#963" stroke="#963" stroke-width=".1" d="M370.8 203.9c-4.9 1-9.1 2.1-9.5 2.6-.5.4.4.5 2 .1s2.7-.2 2.7.4c0 2.6 16-.7 17.1-3.5.6-1.6-3-1.5-12.3.4zm-12.3 4.1c.3.6 2 1 3.7 1 3.8 0 3.4-.5-1-1.3-2.1-.4-3.1-.3-2.7.3zm216.3 102.2c-1 1-1.5 1.8-1 1.8.4 0 0 .5-.8 1s-1 1-.4 1c1.1 0 4.9-4.9 4.2-5.4-.2-.2-1.1.6-2 1.6zM300.3 315c0 2.5.2 3.5.4 2.2.2-1.2.2-3.2 0-4.5-.2-1.2-.4-.2-.4 2.3zm260 33.5c0 2.2.2 3 .4 1.7.2-1.2.2-3 0-4-.3-.9-.5.1-.4 2.3zm-263.5 11.4c-7.6 1.7-12.5 3.8-5.8 2.5 2.4-.5 3.1-.4 2.6.4-.9 1.4 8.5 1.7 10 .3.5-.5 2.6-1.4 4.7-2.1 2-.6 3.7-1.6 3.7-2.1 0-1.4-6.6-.9-15.2 1zm109.9 122.8c.6.4-7.3.8-17.5.8h-18.7l-8 4c-15.2 7.6-11.2 8.6 30.9 8.2 29.1-.3 34.6-.7 34.6-2.7 0-.9-7.4-6.1-11.8-8.4-2.9-1.5-11.4-3.2-9.5-1.9z"/><path fill="#930" stroke="#930" stroke-width=".1" d="M148.1 124.5c-4 1.9-10.6 4.5-14.7 5.7-5.7 1.6-7.1 2.4-5.9 3 1.8 1.1 18.5-3.9 18.5-5.4 0-.5.4-.7.9-.4.5.3 1.4-.1 2.1-.9.7-.8 1.7-1.5 2.2-1.5.5 0 2.1-.9 3.5-2 3.7-2.9 1.7-2.5-6.6 1.5zm232.1 10.8c-.6.6-1.3 2.6-1.7 4.2-.4 1.7-1.8 6.2-3.2 10.2-2.4 6.8-2.5 8.1-2.1 23.3.4 15.6 1.1 19.2 3.7 17.6.7-.5 1.1-5.5 1.1-13.9.1-7.3.5-15.2 1-17.7.6-2.5 1.7-8.1 2.5-12.5s1.8-9 2.1-10.3c.7-2.5-1.6-3.1-3.4-.9zm-202.6 2.6c-.4.7.1 2.3 1.1 3.8 5.2 7.3 5.4 7.8 5 12.5-.4 4.7.5 6.3 1.7 3.2 1.7-4.5-.5-12.1-5.3-18.3-1.2-1.6-2-2-2.5-1.2zm214.7 35.4c-2.3 2.4-7.3 12-7.3 13.8 0 .7 1.2-1 2.6-3.7 1.4-2.7 3.7-6.4 5.1-8.2 2.9-3.9 2.6-5.2-.4-1.9zM126 178c0 .5-.7.7-1.5.4-.9-.4-1.5 0-1.5.8 0 1.8 5.4 1.2 7.1-.8.9-1.1.6-1.4-1.5-1.4-1.4 0-2.6.4-2.6 1zm41.5 10.5c-4.6 2.6-7.2 3.4-11.2 3.4-3.2.1-5.3.5-5.3 1.2 0 .8 2 1 5.9.7 6.2-.4 19.6-6.2 18.5-7.9-.7-1.3-1.2-1.1-7.9 2.6zm139.6 103.7c-.5 1.3-2.1 6.5-3.6 11.6-2.5 8.6-2.7 10.2-2.3 25 .3 15.8 1 19.4 3.1 17.3.7-.7 1.2-6.1 1.3-14.4 0-8.3.7-16.1 1.8-21.2 4.7-21.8 4.5-20.5 2.4-20.5-1 0-2.2 1-2.7 2.2zM562 300c-6.9 2.8-12.8 5-13.3 5-2.1 0-7.8 3.1-7.2 4 .4.6 1.9.4 4.3-.6 2-.8 9.9-3.8 17.4-6.6 7.6-2.8 13.5-5.5 13.2-6-.8-1.2-.8-1.2-14.4 4.2zm24 7.1c-2.5 1-5.5 1.8-6.6 1.8-1.8.1-4.5 3.1-2.8 3.1.7 0 13.7-5.1 14.3-5.6 1.3-1.2-1-.8-4.9.7zm-49.5 6.9c-17.6 6.3-19.5 7-19.5 8.1 0 .5.2.9.3.9 1.4 0 12.3-4.3 16.3-6.4 2.7-1.4 5.5-2.6 6.3-2.6 2.5 0 12.1-3.3 12.1-4.2 0-1.2-.4-1.1-15.5 4.2zm-217.3 15.7c-2.5 3.6-5.8 10.1-6.6 13.3-.4 1.4.7-.2 2.4-3.5 1.8-3.3 4.3-7.5 5.6-9.3 1.4-1.7 2.1-3.2 1.5-3.2-.5 0-1.8 1.2-2.9 2.7zm256.9 9.7c-.6 2.5-1.9 5.1-2.9 5.8-.9.7-2.2 2.2-2.8 3.2-2.5 4.5-19.3 4-26.7-.8-1.9-1.3-3.9-1.5-10-1-4.2.4-7.7 1.1-7.7 1.6s1.2.7 2.7.6c2.1-.2 3 .3 3.8 1.9.5 1.3 1.3 2.3 1.7 2.3.5 0 .8.7.8 1.5 0 2.6 4.7 6.5 7.6 6.5 3.3 0 9.4-2.1 9.4-3.2 0-.4 5.5-.8 12.3-.9 7.2 0 13.6-.6 15.7-1.3 3.4-1.2 3.5-1.5 3.4-6.2-.1-7.9-.7-11.4-2.1-11.4-.7 0-1.3-.7-1.3-1.5 0-3.4-2.8-1.2-3.9 2.9z"/><path fill="#C63" stroke="#C63" stroke-width=".1" d="M130.8 158.7c1.2.2 3 .2 4 0 .9-.3-.1-.5-2.3-.4-2.2 0-3 .2-1.7.4zM372.3 170c0 3.6.2 5 .4 3.2.2-1.7.2-4.7 0-6.5-.2-1.7-.4-.3-.4 3.3z"/><path fill="#C30" stroke="#C30" stroke-width=".1" d="M153.5 124c-1 1.1-2.4 2-3.2 2-.7 0-1.6.6-1.9 1.3-.3.8-1 1.4-1.7 1.4s-4.9 1.3-9.5 2.8c-6.1 2.2-7.8 3.1-6.6 3.8 3.5 2 21-5.6 23.7-10.2 2.1-3.6 1.8-4-.8-1.1zm22.2 15.6c-1.5 1.5-.6 4 2.2 5.9 2.7 1.8 2.9 2.3 2.8 7.5-.1 4 .2 5.7 1.1 5.7 1.3 0 1.3-.1 1.8-6 .2-2.7-.2-4.3-1.6-5.7-1.1-1.1-1.9-2.1-1.7-2.3.6-.6-3.9-5.7-4.6-5.1zm-49.5 34.9c-5.1 2.8-5 3.7.3 3 5.9-.9 6.5-1.2 6.5-3.1 0-1.7-3.6-1.7-6.8.1zm44.8 9.2c-.8.3-1.7.9-2 1.2-1.4 1.7-8 4.3-12.2 4.8-5 .6-6.7 2.3-2.2 2.3 4.3 0 11.4-2.2 10.7-3.3-.3-.6-.1-.7.6-.3 1.4.9 8.3-3.2 7.5-4.5-.3-.5-.6-.9-.7-.8-.1 0-.9.3-1.7.6z"/><path fill="#630" stroke="#630" stroke-width=".1" d="M135 128c-12.7 4.2-12.3 5.5.4 1.5 7.4-2.3 14.6-5.5 12.1-5.4-.5 0-6.2 1.8-12.5 3.9zm45.1 6.8c-1.1 2-.8 3 2.1 7.5 2.8 4.5 3.3 6 3.3 11.4 0 7 1.8 8.7 2.9 2.7.7-3.4-1.4-12.3-3.5-15-.5-.6-1.5-2.9-2.2-5-1.4-3.8-1.4-3.8-2.6-1.6zm198.5.4c-.9 1.2-1.6 3.2-1.6 4.3 0 1.1-.7 3.3-1.5 4.9-.8 1.5-1.5 4-1.4 5.5v2.6l1.1-2.5c.6-1.4 1.8-5.2 2.7-8.5 1.2-4.4 2.3-6.3 4.1-7.2 2.4-1.2 2.4-1.3.3-1.3-1.2 0-2.9 1-3.7 2.2zm.3 22c-.1.7-.4 8.5-.8 17.3-.5 14.1-.8 16-2.3 15.9-1-.1-1.4.4-1.1 1.2.4 1 1 1.1 2.4.3 1-.5 1.9-1.3 2-1.7.3-4.6.7-34.2.3-34.2-.2 0-.5.6-.5 1.2zm11.6 15.4c-1.4 1.5-2.5 3.3-2.5 4 0 .8-.5 1.4-1.2 1.4-.6 0-.9.3-.6.6.4.3-.2 2.4-1.3 4.7-1 2.3-1.8 5.3-1.8 6.7.1 2 .4 1.6 1.4-1.5 2.1-6.6 6.3-14.2 9.1-16.4 2-1.6 2.3-2.1 1-2.1-.9 0-2.8 1.2-4.1 2.6zm-266.8 8c-1 1.1.3 2.4 2.3 2.4 1 0 2-.7 2.4-1.5.4-1.1-.1-1.5-1.8-1.5-1.2 0-2.6.3-2.9.6zm45.4 9.5c-2.9 1.6-4.9 2.9-4.5 2.9 2.4-.1 12.5-3.8 12.5-4.6 0-1.8-2.7-1.2-8 1.7zm-18.6 5c-1.3 2 .5 2.2 5.3.7l4.7-1.6-4.7-.1c-2.6-.1-5 .4-5.3 1zm156.6 94.8c-1 1-2.2 3.6-2.6 5.7-.4 2.1-1 4.1-1.4 4.4-.5.3-1.1 3-1.4 6-.6 5.3-.6 5.2 1.9-3 3.8-12.3 4.1-13 6.4-13 1.2 0 1.8-.5 1.5-1-.9-1.5-2.3-1.2-4.4.9zm-.6 24.8c-.4 2.1-.8 9.6-.9 16.8-.1 12.9-.8 16.1-2.8 14.9-.7-.4-.8-.2-.4.4 1.2 2 3.5 1.3 4.1-1.1.6-2.6 1.6-34.7 1.1-34.7-.2 0-.7 1.7-1.1 3.7zm11.5 13.5c-1.9 3-6.5 13.9-7.4 17.5-1.1 4.2.9 1.5 2.2-3.2 1.7-5.9 7-14.5 9.5-15.5 2.2-.9 2.1-.9-.3-.9-1.6-.1-3.1.8-4 2.1zm255.8 13.6c-1 2-1.6 3.8-1.4 4 .8.7 3.8-4.7 3.4-6.1-.2-.8-1.1.2-2 2.1zm9-3.3c-.7.8.3 6.5 1.2 6 .4-.2.6-1.6.4-3.1-.3-2.8-.8-3.7-1.6-2.9zm-51.8 6.7c-7.3 1.3-5.9 2.1 2.5 1.4 7-.5 8.4-.3 11 1.4 1.7 1.1 3.7 2 4.5 2 .8 0-.5-1.2-2.8-2.6-4.7-2.8-8.4-3.3-15.2-2.2zm25 4.8c0 .5.9 1 2 1s2-.5 2-1c0-.6-.9-1-2-1s-2 .4-2 1zm24 5.5c-2.2.8-8.1 1.4-15.7 1.4-10.9.1-12.3.3-12.3 1.8 0 1.3.3 1.4 1.2.5.8-.8 5-1.2 12.1-1.2 10.5 0 18.7-1.4 18.7-3.2 0-.4-.1-.8-.2-.7-.2 0-1.9.7-3.8 1.4z"/><path fill="#C33" stroke="#C33" stroke-width=".1" d="M136 140.5c1.9 1.9 3.6 3.5 3.9 3.5.3 0-1-1.6-2.9-3.5s-3.6-3.5-3.9-3.5c-.3 0 1 1.6 2.9 3.5z"/><path fill="#C00" stroke="#C00" stroke-width=".1" d="M147.8 130.3c-.9.7-4.4 2.2-7.7 3.3-3.4 1-6.1 2.2-6.1 2.6 0 .8 11.2-3.1 15.5-5.5 1.7-.9 2.3-1.6 1.5-1.6-.8 0-2.3.5-3.2 1.2zm18.6 54.8c-2.9 1.6-7.1 3.4-9.5 3.9l-4.4.9 4.6-.4c4.3-.4 11-3.1 11.7-4.8.2-.4 1-.7 1.8-.7s1.4-.5 1.4-1c0-1.3.4-1.4-5.6 2.1z"/><path fill="red" stroke="red" stroke-width=".1" d="M152 128.8c0 1.6-17.3 8.5-18.6 7.4-.5-.4 1.5 1.9 4.4 5.2 4.9 5.5 9.2 12.2 9.2 14.5 0 3.3-18.2 4.1-26.5 1.2-3-1.1-5.5-1.8-5.5-1.6 0 .3 4.9 15.1 6.1 18.2.8 2.1 1 2.1 3.8.7 1.6-.8 4.7-1.6 6.8-1.8 2.6-.3 6-1.9 9.8-4.5 8.3-5.8 9.1-5.6 10.5 3.1.7 3.9 1 9.7.7 12.9l-.6 5.6 4.4-.8c3.9-.7 9.4-3.1 13.3-5.7 1-.7.2-2.5-3.7-7.6-2.8-3.7-6-8.5-7.1-10.7l-2.1-3.9 2.6-1c1.5-.6 6.4-1.3 11-1.6 8-.7 8.4-.8 9.5-3.5 1.5-3.6.7-5.9-3.4-9.7l-3.4-3.1-4.4 3.3c-4.4 3.4-12 7.6-13.7 7.6-1.7 0-3.4-10.1-2.8-17.6.3-4.1.4-7.4.1-7.4-.2 0-.4.4-.4.8z"/><path fill="#033" stroke="#033" stroke-width=".1" d="M401.1 171.2c.9.7 1.9 2 2.3 2.8.3.8.4.4.3-1-.1-1.6-.9-2.6-2.2-2.8-1.8-.3-1.8-.3-.4 1zm-71.9 155.4c.9.3 1.9 1.6 2.1 3 .4 2.1.4 2.1.3-.3-.1-2-.7-2.8-2.1-3-1.4-.1-1.5 0-.3.3zM591 362c-2.4.8-2.3.8.8.9 2 .1 3.1-.3 2.7-.9-.3-.6-.7-1-.8-.9-.1.1-1.3.5-2.7.9zm-13.6 1.7c-2.4 1.7-.4 1.6 3.7-.2 3.2-1.3 3.2-1.4.7-1.3-1.5.1-3.5.8-4.4 1.5z"/><path fill="#330" stroke="#330" stroke-width=".1" d="M379.3 174c0 3 .2 4.3.4 2.7.2-1.5.2-3.9 0-5.5-.2-1.5-.4-.2-.4 2.8zm-.6 16.4c-.5 1.2 0 1.6 1.8 1.6 1.4 0 2.5-.5 2.5-1.1 0-.5-.5-.7-1.1-.3-.6.3-1.5.1-1.9-.6-.5-.8-.9-.7-1.3.4zM304 293.6c-1.1 2.7-1.3 5.1-.5 4.2.8-.8 2.5-6.8 1.9-6.8-.2 0-.9 1.2-1.4 2.6zm3.2 44.6c-.1 3.6-.5 7.3-.8 8.2-.4 1.1 0 1.6 1.4 1.6 2.6 0 3.8-3.1 1.8-4.5-.9-.7-1.6-3.3-1.9-6.6-.3-5.4-.3-5.3-.5 1.3zm259.6 20.5c1.2.2 3.2.2 4.5 0 1.2-.2.2-.4-2.3-.4s-3.5.2-2.2.4z"/><g fill="#FFF" stroke="#FFF" stroke-width=".1"><path d="M508.7 183.5c-1.6 3.4-1.6 3.5.4 3.5 1.1 0 2.9.5 4.1 1.1 1.1.6 2.2.8 2.5.6.4-.5-4.3-8.7-5-8.7-.2 0-1.1 1.6-2 3.5zm-19.2 9.5c-1.5 2.9-1.5 3.1 1 4.2 3.8 1.7 5.1-.1 3.1-4.1-.9-1.7-1.9-3.1-2.1-3.1-.2 0-1.1 1.4-2 3zm41.5 1.6c0 1.1.8 2.8 1.8 3.7 3.8 3.4 3.6 1.2-.2-3.8-1.5-2-1.5-2-1.6.1zm-425.2 78.5c-1 .5-1.8 2-1.8 3.3 0 1.3-.6 2.9-1.4 3.5-1.5 1.3-1.1 4.4.8 6 .8.7 2.4.7 4.7 0 5.2-1.6 10.9.9 10.9 4.9 0 1.6.3 5 .6 7.4l.6 4.6-5 .7c-4.2.5-5.7.3-8.9-1.6-7.5-4.3-9.6-.1-3.8 7.5 1.9 2.6 3.5 5.2 3.5 5.9 0 .6 1.4-.2 3-2 2.8-3 8.1-5.3 12.3-5.3 2.1 0 3.7 3.8 3.7 8.9 0 4.9 1.4 6 9.2 7.3 8.6 1.4 11.4.3 12.8-5.4.6-2.4 1.8-5.1 2.5-6.2 1.4-1.8 1.6-1.8 6.9.8 4 2 6 3.7 7.3 6.3 1 2 2.3 3.8 2.9 4 1.5.5 4.4-7.4 4.4-11.9 0-3.5 0-3.6-3.3-2.8-3.3.7-12.7-1.3-12.7-2.8 0-.4 1.1-3.6 2.4-7.2 2.3-6.4 2.4-6.5 6.4-6.8 2.3-.2 5.4.4 7.1 1.2 4.1 2.2 5.1 2 5.1-.7 0-3.4-2.9-12.5-4.2-13.3-.6-.4-1.5.1-2 1-1.6 2.9-5 5.5-7.9 6.1-2.4.5-3.4 0-6.6-3.3-4-4.2-11.5-7.2-17.8-7.2-4.7 0-12.4 2.6-14.9 5l-2.3 2-3.4-2.3c-1.9-1.2-4-3.7-4.8-5.5-1.5-3.3-3.3-3.9-6.3-2.1zm30 15.6c3.1 2.8 3.5 5.6 1.1 8.6-2.5 3.2-6.1 3.5-8.9.7-2.7-2.7-2.5-5.6.5-8.5 2.9-3 4.6-3.1 7.3-.8zm15 2.3c3.8 3.5 2.4 8.9-2.8 10.5-6.2 2-9.7-8.4-3.8-11.3 3.3-1.5 4.2-1.4 6.6.8zm416.7 11.8c-7.8 2.7-10.5 4.2-10.5 5.6 0 .8-.7 2.2-1.6 3-2.7 2.7-2.9 8-.5 12.6 1.2 2.3 1.9 4.5 1.6 4.9-.2.5-2.9 1.1-5.9 1.5-6.2.7-8.6 1.4-8.6 2.6 0 .5 1 2.5 2.1 4.5l2.2 3.6 3.6-3.4c7-6.6 8.9-7.6 16.2-8.3 5.9-.6 6.9-.9 6.3-2.3-3.8-8.9-4.4-15.8-1.9-21.8.8-2 1.4-3.7 1.3-3.8-.2-.1-2.1.5-4.3 1.3z"/><path d="M583.9 312.9c-1.9 1.1-5.4 2.5-7.7 3.2-2.3.7-4.2 1.5-4.2 1.9 0 1.4 3.3 10.6 4.3 11.7.5.7 1.4 1 2.1.6.6-.4 3.7-1 6.9-1.4 3.2-.4 6-.9 6.3-1.2.2-.2 0-1.7-.6-3.2-.6-1.6-1.1-5.2-1.2-8.2-.2-5.9-.7-6.2-5.9-3.4zm-48.2 6.1c-10.2 3.9-13.7 6.2-13.7 8.9 0 .9.9 3.6 2 6l2 4.4 2.8-2.5c3.7-3.5 7.4-5.1 16.4-7.3 7.2-1.8 7.6-2 6.6-3.9-.7-1.2-1.4-3.7-1.7-5.6-.8-4.7-2.4-4.7-14.4 0zm29.5 14.7c.5 2.6 5 2.8 7.3.3 1.8-2 1.8-2-2.9-2-4 0-4.7.3-4.4 1.7zm-184.4 92c-1.2.3-1.8 1.4-1.8 3.3 0 5.5.1 5.5 12 5.2l11-.3.6-2.7c.3-1.5.7-3.2.9-3.9.2-.6-.6-1.4-1.8-1.7-2.5-.7-18.3-.6-20.9.1z"/></g><path fill="#960" stroke="#960" stroke-width=".1" d="M300.3 325.5c0 3.8.2 5.3.4 3.2.2-2 .2-5.2 0-7-.2-1.7-.4-.1-.4 3.8z"/><path fill="#CCC" stroke="#CCC" stroke-width=".1" d="M509 187.7c1.4.3 2.9.9 3.5 1.4.5.5 1.4.9 2 .9.5 0 .1-.7-.9-1.5-1.1-.8-3.1-1.4-4.5-1.4l-2.6.2 2.5.4zm21.1 7.4c-.1.8 1.1 2.6 2.7 4l2.7 2.4-2.1-2.5c-1.2-1.4-2.4-3.2-2.7-4-.5-1.3-.6-1.3-.6.1zm-40.7 2.4c2.6 2 4 1.9 5.7-.3 1.3-1.5 1.2-1.6-.4-.3-1.4 1.1-2.3 1.2-4.5.2-2.5-1-2.6-1-.8.4zm-315.3 86.4c1 2.8 2 6.6 2 8.4.1 2.1.3 2.5.6 1.2.7-2.7-1.5-12.1-3.2-13.5-1-.8-.8.4.6 3.9zm-74.1-1.3c0 .3.5 1.4 1 2.5 1.6 2.8 3 2.3 1.7-.6-1.1-2.2-2.7-3.4-2.7-1.9zm1 26.5c.1 1.6 5 7.9 5 6.3 0-.5-1.1-2.5-2.5-4.4-1.4-1.9-2.5-2.7-2.5-1.9zm70 3c0 2.4.4 3.8 1 3.4.6-.3 1-2.2 1-4.1 0-1.9-.4-3.4-1-3.4-.5 0-1 1.8-1 4.1zm-1.8 8.9c-1.2 3.2-1.1 3.4.4 1.9.9-.9 1.4-2.5 1.2-3.5-.3-1.4-.7-1-1.6 1.6zm365.3 10.9c-2.2 1-4.8 2.8-5.9 3.9-1 1.2-2.3 1.9-2.9 1.5-.6-.4-.7-.1-.2.6.5.9 1.4.6 3.4-1.3 1.4-1.3 4.6-3.4 7.1-4.5s4.1-2 3.5-2c-.5 0-2.8.8-5 1.8z"/><path fill="#FFC" stroke="#FFC" stroke-width=".1" d="M566.8 329.7c1.2.2 3 .2 4 0 .9-.3-.1-.5-2.3-.4-2.2 0-3 .2-1.7.4z"/><path fill="#036" stroke="#036" stroke-width=".1" d="m592 363-3.5.7 3.2.2c1.7 0 3.5-.4 3.8-.9.3-.6.5-.9.3-.9-.2.1-1.9.5-3.8.9zm-12 1c-.8.5-3.1.8-5 .5l-3.5-.5 3.1 1c2.4.7 4 .6 6.5-.5 1.9-.8 2.7-1.4 1.9-1.4-.8-.1-2.2.4-3 .9z"/><path fill="#366" stroke="#366" stroke-width=".1" d="M537.8 364.7c1.2.2 3 .2 4 0 .9-.3-.1-.5-2.3-.4-2.2 0-3 .2-1.7.4z"/><path fill="#369" stroke="#369" stroke-width=".1" d="M389.1 451.2c0 1.4-.7 2.9-1.3 3.1-1 .4-1 .6 0 .6 1.6.1 2.5-2.2 1.9-4.6-.3-1.2-.5-.9-.6.9zM361 481.7c0 1.9 1.4 2.2 4 .7 1.4-.7 2.1-1.3 1.5-1.3-.5-.1-1.7.3-2.5.9-.9.6-1.7.5-2.2-.3-.6-.9-.8-.9-.8 0z"/><path fill="#069" stroke="#069" stroke-width=".1" d="M528 363.8c0 1.5 10.8 2.4 19.6 1.7 4.3-.4 8.7-.7 9.7-.7.9.1 4.2.2 7.2.3 3 .1 5.2.6 4.9 1-.3.5.1.7.8.4.7-.3 3.4-.1 6 .3 3.7.7 4.8.6 5.2-.4.4-.9 2.3-1.4 5.6-1.4 3.2 0 4.9.4 4.5 1-.5.8 6.9-1.5 8.3-2.6 1-.7-16.8.8-19.5 1.7-2.3.7-4.4.7-7.5-.2-3.9-1-8.2-1.1-31.8-.6-3.6.1-8-.2-9.7-.6-2.1-.5-3.3-.5-3.3.1zM401.8 476.7c1.2.2 3 .2 4 0 .9-.3-.1-.5-2.3-.4-2.2 0-3 .2-1.7.4zm-32.6 2.2c-2.9 1-5.9 2.4-6.5 3.1-.9 1-.9 1.1.2.5.8-.5 4.6-1.9 8.5-3.1 3.9-1.2 6.2-2.3 5.1-2.3-1.1 0-4.4.8-7.3 1.8z"/><path fill="#06C" stroke="#06C" stroke-width=".1" d="M521.1 364.6c2.1 2.6 7.7 3.2 25.9 2.8 10.2-.2 19.6-.4 21-.4 1.4-.1 4.8.1 7.5.4 4.9.5 4.9.5 1-.4-3.5-.9-15.2-2.2-19.5-2.2-.8 0-5.5.3-10.5.7-6.1.4-11.9.2-17.8-.8-7.1-1.2-8.5-1.2-7.6-.1zm76.4-.1-3 1.3 3.1.1c1.6.1 3.9-.6 5-1.4 1.9-1.4 1.9-1.4-.1-1.4-1.1 0-3.3.6-5 1.4zm-16 1.5c-1 1.7 8.2 1.6 10-.1.5-.5-1.1-.9-4.2-.9-2.9 0-5.5.4-5.8 1zm-199.8 46.8c-3.2 3.4-2.1 6.2 2.4 6.2 2.3 0 3.2-.6 3.9-2.6 1.2-3.1 4.1-2.9 5.5.4 1.3 2.9 6.9 3.1 8.4.3.8-1.4.5-2.3-1.7-4.4-2.3-2.2-3.6-2.5-9.4-2.5-5.9 0-6.9.3-9.1 2.6zm6.9 25.3c-7.9.8-9.6 1.7-9.6 5.1 0 1.4 1.2 1.7 7.6 1.7 4.1 0 9.2.4 11.2.7 3.5.7 3.5.8 1.2 1.5-1.4.4-3.9.7-5.7.8-2.8.1-3.2.5-3.5 3.3-.3 2.9-.6 3.2-4 3.5-3.6.2-3.8 0-3.8-2.7 0-2.3-.4-2.7-1.9-2.3-1.5.4-2.1 1.7-2.7 5.9-.3 3-1.1 5.4-1.6 5.4s-2.1-1.4-3.6-3.1l-2.6-3.2-4.8 5.4c-3.3 3.8-4.4 5.7-3.7 6.5.6.7.7 2.8.3 4.8-.3 2-.3 5.2 0 7.1l.7 3.5 2.9-1.5c4.3-2.2 14.7-4.5 20.8-4.5h5.2v-3.4c0-3.7 2.1-6.6 4.9-6.6 2.7 0 4.1 2.1 4.1 6.2 0 3.7.1 3.8 3.5 3.8 4.3 0 4.2 1.2 1-20-1.4-9.1-2.5-17-2.5-17.5 0-1.4-3.5-1.4-13.4-.4z"/><path fill="#39C" stroke="#39C" stroke-width=".1" d="M388.8 408.7c1.2.2 3.2.2 4.5 0 1.2-.2.2-.4-2.3-.4s-3.5.2-2.2.4zm12.2 10.1c0 .7-1.7 1.3-3.7 1.4l-3.8.1 3.4.4c3.3.4 6.1-1 4.8-2.4-.4-.3-.7-.1-.7.5zm-21 1.4c0 .5 1.5.8 3.4.8s3.7-.3 3.9-.8c.3-.4-1.2-.7-3.4-.7-2.1 0-3.9.3-3.9.7zm6.8 17.5c1.2.2 3.2.2 4.5 0 1.2-.2.2-.4-2.3-.4s-3.5.2-2.2.4z"/><path fill="#09C" stroke="#09C" stroke-width=".1" d="M385 409.7c0 .5 2.7.8 5.9.8 3.3 0 5.7-.3 5.4-.8-.2-.4-2.9-.7-5.9-.7-3 0-5.4.3-5.4.7zm-4.3 9.5c.2.5 1.7.8 3.3.8 1.6 0 3.1-.3 3.3-.8.3-.4-1.2-.7-3.3-.7-2.1 0-3.6.3-3.3.7zm15.1.5c1.2.2 3 .2 4 0 .9-.3-.1-.5-2.3-.4-2.2 0-3 .2-1.7.4zm-17.1 27.8c-.6 3.3 2.2 3.1 3.4-.3.7-1.8.5-2.2-1-2.2-1.2 0-2 .9-2.4 2.5zm10.3-1c1.3 1.6 5.7 1.8 10 .6 2.4-.7 2.4-.7-.9-1.4-1.8-.4-4.9-.7-6.8-.7-3 0-3.4.2-2.3 1.5z"/><path fill="#69C" stroke="#69C" stroke-width=".1" d="m384 421-3.5.7 3.8.2c2 0 3.7-.4 3.7-.9 0-.6-.1-.9-.2-.9-.2.1-1.9.5-3.8.9zm13.5 0-4 .7 3.7.2c2 0 4-.4 4.3-.9.3-.6.5-.9.3-.9-.2.1-2.1.5-4.3.9zm-15 16c-1.6.4 1.5.5 7 .2s10.2-.6 10.4-.8c.8-.7-14.3-.2-17.4.6z"/></svg>