<svg xmlns="http://www.w3.org/2000/svg" version="1.0" viewBox="0 0 158 150"><path fill-opacity=".06" stroke="#000" stroke-opacity=".06" stroke-width=".1" d="M34 36.2c2.4 2.7 4.5 4.8 4.7 4.8.8 0 0-.9-4.4-5l-4.8-4.5 4.5 4.7z"/><g stroke="#000" stroke-width=".1"><path d="M38 2.6C31.7 4.8 29.8 5 26.2 4.2l-4.3-1-4.1 5.5-4.1 5.4 3.9 4.2C30.4 32.2 51.7 53 53.1 53c.9 0 2.1-1.2 2.8-2.8l1.3-2.7-2.6 2.5-2.7 2.4-4.6-5.4c-2.5-3-10.6-11.5-18-18.9-7.4-7.3-13.2-13.5-13-13.7.2-.2 3.9.7 8.3 2 15.5 4.7 18.8 5.6 17.9 4.7-.6-.5-5.9-2.3-12-4.1-6-1.7-11.6-3.3-12.3-3.5-1-.4-1-1 .2-3.3 2.7-5.3 3.4-5.4 13.4-2.2 9.7 3.2 16.5 4.1 10.7 1.6-3.3-1.5-3.4-1.4 5.4-4.2 4.7-1.5 6.2-1.6 11.4-.5 3.2.7 6.1 1 6.4.8.2-.3-1.3-.8-3.4-1.2-2.1-.4-5.7-1.5-8-2.6C48.9-.6 47-.5 38 2.6zm10.5.1c2.6.9-10.3 5.4-13.5 4.6-2.1-.6-1.7-.9 3.5-2.9 6.6-2.5 7.6-2.7 10-1.7zm38 8.7c2.2.7 5.6 1.6 7.5 1.9 3.3.6 3.3.6-.5-.7-2.2-.7-5.6-1.6-7.5-1.9-3.3-.6-3.3-.6.5.7z"/><path d="M98 14.4c0 .2 6.1 1.9 13.5 3.7 17.3 4.3 17.9 5.5 2.2 4.9-6.6-.2-12.7 1.3-12.7 3.2 0 .5-.6.6-1.2.2-1-.5-1-.4-.1.6 1 1.1 1.6 1 3.3-.5 1.8-1.6 3.9-1.9 12.3-2.1 5.6-.1 12.9-.4 16.2-.7 3.3-.4 5.1-.4 4-.1-1.1.4-5.3 1.7-9.4 2.9-7 2.2-7.6 2.3-11.8.9-4.2-1.4-4.6-1.4-6.5.3-1.2 1-3.3 3.6-4.7 5.9l-2.6 4-12.4-3.7c-6.7-2-11.9-3.3-11.3-2.7.5.5 6.2 2.6 12.5 4.6l11.6 3.7L123 61.4c12.1 12 21.9 22 21.7 22.2-.2.2-2.3-.2-4.6-1.1-4.5-1.5-4.7-.1-.3 1.7 2.4 1 2.5 1.2.7 1.6-1.1.2-14.9 4.1-30.7 8.7l-28.7 8.2-3.9-1.7C62.7 94.5 4 70 2.9 70c-4.7-.2 13.3-6.4 31.9-11 2.3-.6 4.2-1.5 4.2-2 0-1.5-33.9 8.7-37.3 11.3-1.7 1.2-1.5 2 2.7 14.2 2.5 7.2 6.1 16.8 8 21.5l3.4 8.5 23.9 13.3c13.1 7.4 28.8 15.8 34.8 18.8l11 5.4 13.5-5.3c7.4-3 19.6-7.5 27-10.2 7.4-2.7 13.8-5.1 14.2-5.4.4-.3 2.5-10.5 4.8-22.5 3.5-18.3 4.6-22.5 6.6-24.9 2.3-2.7 2.4-3.5 1.8-10.1-.6-6.3-.3-8.4 2.2-15.9 2.6-8.1 2.7-9.1 1.7-15.3-1.3-7.4-4.1-11.1-12.4-16.5-3.9-2.5-5.6-2.9-11.3-2.9-4.3 0-11.6-1.2-20.6-3.5-14.5-3.6-15-3.8-15-3.1zm49.8 14.3c8 5.9 9.5 12.9 5.7 27.7-2.5 10-2.8 14.8-1.1 18.8.5 1.1-.2 2.7-2.1 4.8l-2.9 3.2-7.4-7.8c-10.6-11.2-21.4-21.9-29.8-29.7l-7.3-6.8 2.9-4.7c3.1-5 3.2-5 11.2-3.7 2.4.4 5.7-.2 10.5-1.9 8.4-3.1 16.1-3 20.3.1zM16.2 77.1c7.3 3.3 14.8 6.5 16.6 7 1.7.6 3.2 1.4 3.2 1.9 0 .6.5 1 1.2 1 .6 0 10 3.8 20.9 8.5 10.8 4.7 20.1 8.5 20.7 8.5.6 0 1.5 3 2.1 6.7 1.1 7.2 3.4 35.4 2.9 35.9-.2.1-11.3-5.8-24.8-13.3-13.5-7.4-28.3-15.5-33-18.1-4.7-2.5-8.6-4.6-8.8-4.7C16 109.6 1.6 71 2.5 71c.2 0 6.4 2.7 13.7 6.1zm129.4 13.1c-1.5 10.1-5.9 33.5-6.7 35.4-.6 1.7-3.8 3.2-14.6 6.8-7.6 2.5-18.9 6.8-25.2 9.6-6.3 2.7-11.7 4.7-12.1 4.5-.4-.2-1.2-9.5-2-20.7-.7-11.2-1.3-20.8-1.3-21.3-.1-.6 4.2-2.3 9.4-3.8 11.7-3.5 51.1-14.5 52.3-14.6.5-.1.6 1.8.2 4.1z"/><path d="M128.6 34.1c-8.1 3.4-8.4 3.4-13 1.2-3.4-1.6-3.7-1.6-5.6.2-1.1 1-2 2.2-2 2.7 0 1.1 27.2 29 33.3 34 6.4 5.4 7.3 4.5 7.9-8.7.3-6.7.2-9-.4-7-.5 1.6-.9 6.1-1 9.8-.1 5-.5 7-1.5 7.4-1 .4-7.7-5.6-19.4-17.3-17.3-17.3-17.8-17.9-16.1-19.7 1.8-1.8 2-1.8 5.6.3l3.6 2.2 5.8-2.3c3.1-1.2 6.3-2.7 7-3.2.7-.5 3.9-1 7.1-1.1 9.4-.2 12.8 4.2 11 14-1.3 7.1-.5 8.2 1.1 1.4 1.5-6.3.6-11.5-2.5-14.6-3.5-3.5-11.7-3.2-20.9.7zM8.5 79.5c.4 1.1 2.2 6.3 4 11.5 6.3 18.4 3 15.5 36.4 32.3 16.1 8.2 29.5 14.6 29.7 14.4.4-.3-1.4-15-3.2-26.5-.5-3.2-1.2-3.7-14.8-10.3-7.9-3.8-14.7-6.9-15.2-6.9s5.4 3.2 13.1 7c7.7 3.9 14.5 7.7 15.1 8.4 1 1.4 3.8 24.5 3.1 25.2-.2.2-12.9-5.7-28.1-13.2l-27.8-13.6-2.7-6.1c-1.5-3.4-4-9.8-5.6-14.2-1.5-4.4-3.3-8.5-3.8-9-.7-.7-.7-.3-.2 1z"/><path d="M42 91.9c0 .5-.8 1.2-1.7 1.4-1.1.3-.8.5.9.6 2 .1 2.6-.3 2.2-1.4-.7-1.7-1.4-2-1.4-.6zm75.5 6.1c-11 3.3-22 6.5-24.5 7.2l-4.5 1.4-.1 5.9-.1 6 .4-5.5.4-5.5 24.2-6.9c13.3-3.8 24.8-7.1 25.5-7.3 1.6-.7 1.6 3.2-.4 13.7-.8 4.7-1.7 9.8-2 11.5-.3 1.6-.7 3.5-.9 4.1-.4 1.3-17 7.4-32.7 11.9l-11.3 3.2-.6-3.1c-.6-3.1-.6-3.1-.8.6-.1 2.4.4 3.8 1.2 3.8 2.2.1 43.2-13.3 44.3-14.4.6-.6 2.1-7.2 3.4-14.6 1.2-7.4 2.4-14.5 2.7-15.8.8-3.2-1.2-2.9-24.2 3.8z"/><path d="M121.2 107.2c-.7.7-1.2 2.1-1.1 3.2.1 1.8.2 1.7.8-.4.5-1.9 1.6-2.7 4.1-3.1l3.5-.6-3-.2c-1.7 0-3.6.4-4.3 1.1zm8.8 4.8c0 .7-.3 1-.7.7-.3-.4-1.1.3-1.7 1.6-1.7 3.4-7.3 5.7-14.1 5.7-3.3 0-6.7-.4-7.5-1-.9-.6-1.7-.5-2.1.2-.6.9-1.2.8-2.3-.1-.9-.8-1.6-.9-1.6-.3 0 1.6 2 1.9 12.7 1.8l10.3-.1 4.2-4.2c2.3-2.3 3.9-4.5 3.5-4.9-.4-.4-.7-.1-.7.6zm-40.7 14.5c0 2.7.2 3.8.4 2.2.2-1.5.2-3.7 0-5-.2-1.2-.4 0-.4 2.8zM74.4 19.9c.7 1.1 9.7 3.4 10.4 2.6.3-.3.1-.5-.4-.5s-3.1-.7-5.7-1.5-4.5-1-4.3-.6zM53 22.3c-.9.7-1.7 2.4-1.8 3.9-.1 2.2.3 2.8 2.8 3.3 1.7.4 3 1.4 3.2 2.5.3 1.6.5 1.5 2.2-.8 1.1-1.4 1.4-2.2.8-1.8-1.2.7-8.2-1-8.2-2 0-.3.7-1.8 1.5-3.4 1.7-3.3 1.7-3.5-.5-1.7zm8.6 4.5c-.4.3 1.5 1.2 4.1 1.9 5.4 1.4 6.9 1.6 6.1.7-1.1-1-9.6-3.3-10.2-2.6zm-5.5 12.3c0 2.4.4 5.3.9 6.4.6 1.3.7-.2.3-4-.7-7.3-1.3-8.5-1.2-2.4z"/></g><g fill="#333" stroke="#333" stroke-width=".1"><path d="M38.5 4.4c-5.2 2-5.6 2.3-3.5 2.9 3.2.8 16.1-3.7 13.5-4.6-2.4-1-3.4-.8-10 1.7zM20.8 6.7c-2.9 3.3-4 6.3-2.6 6.8.7.2 6.5 1.9 12.8 3.7l11.5 3.4v-9.3L34 8.7c-4.7-1.4-9.2-2.8-10.1-3.2-.8-.3-2.2.2-3.1 1.2zM72 23.2c-1.1 1.5-2.7 2.8-3.5 2.8-.8 0-1.5.4-1.5.8 0 .9.7 1.2 20.5 7l13 3.8 2.6-4c1.4-2.3 3.5-4.9 4.7-5.9 1.9-1.7 2.3-1.7 6.5-.3s4.8 1.3 11.8-.9c4.1-1.2 8.3-2.5 9.4-2.9 1.1-.3-.7-.3-4 .1-3.3.3-10.6.6-16.2.7-8.3.1-10.6.5-12.2 2-1.1 1-2.4 1.5-2.9 1.2-.5-.3-1.9.8-3.1 2.4C93 35.6 85 33.2 85 26.3c0-2.8-.4-3.1-5.4-4.5l-5.5-1.5-2.1 2.9z"/><path d="M127.5 28.6c-4.8 1.7-8.1 2.3-10.5 1.9-8-1.3-8.1-1.3-11.2 3.7l-2.9 4.7 7.3 6.8c8.4 7.8 19.2 18.5 29.8 29.7l7.4 7.8 2.9-3.2c1.9-2.1 2.6-3.7 2.1-4.8-1.7-4-1.4-8.8 1.1-18.8 3-11.9 2.9-17.1-.8-22.5-5.5-8-13.2-9.7-25.2-5.3zm22 4.8c3.6 3.6 4 8.4 1.6 17.9-1.2 4.6-2.1 11.4-2.1 15.4 0 9.8-1.4 10.8-7.8 5.5-6-5.1-33.2-32.9-33.2-34 0-.5.9-1.7 2-2.7 1.9-1.8 2.2-1.8 5.6-.2 4.6 2.2 4.9 2.2 13-1.2 9.2-3.9 17.4-4.2 20.9-.7zM5.5 80.7c3.2 9.3 11.1 29.4 11.7 29.8.2.1 4.1 2.2 8.8 4.7 4.7 2.6 19.5 10.7 33 18.1 13.5 7.5 24.6 13.4 24.8 13.3.5-.5-1.8-28.7-2.9-35.9-.6-3.7-1.5-6.7-2.1-6.7-.5 0-8.9-3.4-18.5-7.5-9.7-4.2-17.8-7.3-18-7.1-.8.7 1.7 4.6 2.9 4.6.6 0 7.5 3.1 15.4 6.9 13.6 6.6 14.3 7.1 14.8 10.3 1.8 11.5 3.6 26.2 3.2 26.5-.2.2-13.6-6.2-29.7-14.4C24 110.8 19.3 108 18 105.5c-1.5-3.2-10-26.9-9.7-27.1.1-.1 5.3 2 11.5 4.6 10.6 4.5 11.3 4.7 11 2.7-.2-1.7-3.1-3.5-13.8-8.4-7.4-3.4-13.8-6.2-14.2-6.2-.4-.1.8 4.3 2.7 9.6zm118 11.3c-32 8.9-39.9 11.4-39.8 12.5 0 .5.6 10.1 1.3 21.3.8 11.2 1.6 20.5 2 20.7.4.2 5.8-1.8 12.1-4.5 6.3-2.8 17.6-7.1 25.2-9.6 10.8-3.6 14-5.1 14.6-6.8.8-1.9 5.2-25.3 6.7-35.4.4-2.3.3-4.2-.2-4.1-.5 0-10.3 2.7-21.9 5.9zm18.2 2.2c-.3 1.3-1.5 8.4-2.7 15.8-1.3 7.4-2.8 14-3.4 14.6-1.1 1.1-42.1 14.5-44.3 14.4-1.2 0-2.5-11.8-2.7-24.9l-.1-7.5 4.5-1.3c23.7-7.2 44.9-13.2 46.9-13.2 1.9-.1 2.2.3 1.8 2.1z"/></g><path fill="#9BF5F5" fill-opacity=".2" stroke="#9BF5F5" stroke-opacity=".2" stroke-width=".1" d="M73 2.9c0 .5-.2 1.6-.5 2.3-.4 1 .7 1.7 4 2.5 4 .9 4.5.8 4.5-.7 0-.9-.8-2.4-1.8-3.3-2-1.8-6.2-2.3-6.2-.8z"/><path fill="#050505" fill-opacity=".19" stroke="#050505" stroke-opacity=".19" stroke-width=".1" d="M43.5 46c2.1 2.2 4.1 4 4.4 4 .3 0-1.3-1.8-3.4-4-2.1-2.2-4.1-4-4.4-4-.3 0 1.3 1.8 3.4 4z"/><path fill="#CFF" stroke="#CFF" stroke-width=".1" d="M70.2 4.2c-1.6 1.6-1.5 2.9.2 2.2 1.6-.6 3-3.4 1.8-3.4-.5 0-1.3.5-2 1.2z"/><path fill="#330" stroke="#330" stroke-width=".1" d="M60.5 6c-.3.4.7 1.1 2.1 1.4 3.5.9 3.9.4.8-1.1-1.3-.6-2.6-.8-2.9-.3zM132 36.5c.7.9 3.6 3.4 6.4 5.7l5.1 4.2-5.5-5.7c-3-3.1-5.8-5.7-6.3-5.7s-.4.7.3 1.5zm9 23.2c2.9 3.5 5.5 6.3 5.7 6.3.9 0-3.7-5.7-7.3-9-2.8-2.6-2.4-1.9 1.6 2.7zm-74.5 53.8c3.9 1.9 7.5 3.4 8 3.4.6 0-2.3-1.6-6.4-3.5-4-1.9-7.6-3.4-8-3.3-.3 0 2.6 1.6 6.4 3.4zm1.5 9.7c1.1 1.2 8 3.7 8 2.9 0-.5-1.1-1.2-2.4-1.5-1.3-.3-3.2-.9-4.3-1.3-1-.3-1.6-.4-1.3-.1z"/><g fill="#630" stroke="#630" stroke-width=".1"><path d="M30.6 29.2c7.7 7.9 15.7 16.3 17.8 18.8l3.7 4.5 2.5-2.9c2-2.2 2.4-3.5 1.8-5.5-1-3.4-1-5.9 0-9.9.7-3 .5-3.3-2.3-4.3-1.9-.7-3.1-1.9-3.3-3.2-.3-1.9-2.5-2.8-16.3-6.9-8.8-2.6-16.4-4.8-17-4.8-.5 0 5.4 6.4 13.1 14.2zm78.7-8.5c.4.6.1 1.4-.5 1.6-.7.3 0 .6 1.6.6 1.6.1 2.7 0 2.5-.2-.2-.1-1.3-.9-2.3-1.7-1.1-.8-1.7-1-1.3-.3z"/><path d="M59.9 30.7c-2.1 2.4-2.4 3.8-2.4 10.4 0 5-.5 8.2-1.4 9.2-1.2 1.5-1 1.7 2.2 1.7 2 0 3.9.4 4.2 1 .4.6 1.5.4 2.9-.5 3.3-2.2 14.7-.9 19.1 2.1 1.1.8 3.7 1.4 5.8 1.4 3.3 0 3.9.4 4.9 3 .9 2.8 1.3 3 4.4 2.4 2.6-.5 3.5-.2 4 1 .3.9 1.2 1.6 1.9 1.6s2.4.9 3.8 2 3.6 2 5 2 3.2.7 4.1 1.5c.8.8 2.3 1.5 3.2 1.5 2.1 0 7.4 4.8 7.4 6.6 0 .7 1.4 1.5 3 1.9 1.7.4 3 1.1 3 1.6 0 .6.4.8.9.5.5-.3 2.8.1 5.2.9 4.1 1.4 2.7-.2-18.1-20.8l-22.5-22.3L89.2 36l-11.3-3.3-1.5 2.2c-1 1.4-2.4 2.1-3.7 1.9-1.7-.2-2.2-1-2.2-3.5 0-2.6-.5-3.3-2.5-3.8-1.4-.3-3.2-.8-4.1-1.1-.8-.2-2.6.8-4 2.3zM70.5 42c1.1 1.8-1.5 5.1-3.7 4.8-3.4-.5-4.5-3.3-2.4-5.7 1.8-2 4.5-1.6 6.1.9zM5.1 68.4c-2.3 1.3-2.3 1.3-.3 1.8 1.4.4 2.2 0 2.5-1.3.3-1.1.4-1.9.4-1.9-.1.1-1.3.7-2.6 1.4zM51 105.5c0 .7 8.1 4.7 8.6 4.3.2-.3-1.7-1.4-4.1-2.6-2.5-1.2-4.5-2-4.5-1.7z"/></g><g fill="#963" stroke="#963" stroke-width=".1"><path d="M47.5 5.9c-1.6.7-.5 1.3 5.1 3 7.8 2.3 10.2 2.5 12.4 1.1 1.3-.8 1.3-1 0-1.4-10.4-3.8-13.5-4.3-17.5-2.7zm-5.9 2c-1.8.7-1.8.8.5 1.4 1.3.4 4 .6 5.9.6l3.5-.1L48 8.5c-4.1-1.6-4-1.6-6.4-.6zm12.3 4c2.5 2.2 4.6 2.7 5.6 1.2.5-.9-.9-1.5-6-2.7-1.8-.5-1.8-.3.4 1.5zm26.4 2-2.2 2.8 3.2 1.2c3 1 2.2.9-4.5-.5-5.5-1.2-2.7 1.4 3.3 3 5.8 1.7 8.9 1.5 5.9-.4-.9-.5.3-.7 3.1-.3 5.9.6 7.1 1.1 6.4 2.3-.4.6-.3 1 .2.9.4-.1 2 .1 3.5.5 1.8.5 4.6.2 8-.9 4.1-1.2 6-1.4 8.1-.6 1.6.6 3.9 1.1 5.3 1.1 6 0 1-1.9-16.8-6.4-10.6-2.7-19.7-5.1-20.3-5.2-.5-.2-2 1-3.2 2.5zm53.3 19.8c-1.5.4-.7 1.7 5 7.6 6.6 6.7 6.7 6.9 1.6 2.6-10.7-8.8-9.7-8.4-14.8-6.4-4.5 1.7-4.5 1.7-2.7 3.9l1.8 2.1-2.5-2.1c-6.3-5.3-12-6.8-12-3.1 0 1.9 34.8 36 36 35.2.5-.3.9-2.7.9-5.3-.1-2.6.8-9 2-14.2 2.7-12.6 2.7-15.5-.4-18.5-2-2.1-3.3-2.5-7.7-2.4-2.9.1-6.1.3-7.2.6zm9.5 26.8c1.8 2 3 3.8 2.7 4-.3.3-3.4-2.7-6.9-6.7-4.2-4.8-5.1-6.2-2.6-4.1 2 1.8 5.1 4.9 6.8 6.8zm-132 22.2c.8 2.4 2.7 3.8 10.6 7.6 5.4 2.6 9.1 4.7 8.4 4.7-.7 0-4.6-1.6-8.8-3.5-4.2-1.9-7.7-3.4-7.9-3.3-.1.2.7 2.6 1.7 5.3l1.9 5.1 12 5.4c6.6 3 11.8 5.5 11.6 5.7-.2.2-5.4-1.8-11.5-4.6-6.1-2.7-11.1-4.8-11.1-4.6 0 .1.6 1.8 1.4 3.7 1.3 3.1 3.5 4.4 29.6 17.1L77.2 135l-.7-3.8c-.8-4.2-1.3-5.2-2.6-5.2-1.4 0-15-6.2-14.5-6.7.2-.2 2.8.7 5.7 2 3 1.3 6.5 2.6 7.9 3 2.5.6 2.6.5 2.2-2.9-.4-3.4-.8-3.7-13.3-10-7.1-3.5-12.9-6.6-12.9-6.8 0-.3 5.1 1.9 11.3 4.8 15.2 7.2 14.3 7 13.9 3-.4-3.2-1-3.6-14.6-10.4-7.9-3.9-15.6-7.3-17.2-7.5-4.1-.5-8.6-2.3-10.9-4.4-1.1-1-5.8-3.5-10.5-5.5-4.7-2.1-9.1-4-9.7-4.3-1-.4-1 .2-.2 2.4zM113.2 101c-12.8 3.7-23.6 7-23.9 7.4-.3.3-.2 1.9.3 3.4l.9 2.9 7.7-2.5c8.2-2.6 10.7-2.4 11.5.8.6 2.2 3.6 2.6 7.7 1.1 1.8-.8 2.5-1.9 2.8-4.3.3-3.1.6-3.3 4.5-3.6 3.3-.2 4.4.1 5.7 2 2.1 2.9 2.1 3.1-1 6.8l-2.7 3.1 2.9-.7c6.3-1.5 7.1-2.2 7.7-6.1 1.3-7.8 1.1-8.3-2.9-7.1-5.3 1.4-5.3.3.1-1.3 2.8-.8 4.5-1.9 4.5-2.9 0-.8.3-2.5.6-3.8.5-1.7.2-2.2-1.2-2.1-1.1.1-12.4 3.2-25.2 6.9z"/><path d="M94.5 114.4c-4 1.1-4 1.2-4.3 6.5l-.3 5.4 5.3-.6 5.3-.6-4.7 1.5c-4.8 1.5-4.8 1.5-4.8 6 0 2.9.4 4.4 1.3 4.4 1.3 0 24.7-7.2 35.9-11.1 5.8-2 6.8-2.7 7.4-5.2.3-1.5.4-3 .2-3.2-.2-.3-4.8.7-10.2 2.1-8.2 2-11.2 2.3-17.2 1.8-8-.7-9.9-2-9.2-5.9.6-2.8.7-2.8-4.7-1.1z"/></g><path fill="#666" stroke="#666" stroke-width=".1" d="M43.7 12.7c-.3.5-.4 2.3-.3 4.2.1 2.9.6 3.7 3.4 4.8 3.2 1.3 3.5 1.2 6.3-1.8 1.6-1.7 2.9-3.4 2.9-3.8 0-1.5-8.2-3.3-9.3-2.2-1.6 1.6-3 1.3-2.3-.4.6-1.5.1-2.1-.7-.8zm21.7 9.4c-1.2 2.4-1.3 3.4-.4 4.3.9.8 1.4.8 1.7-.2.3-.6 1.1-1.2 1.8-1.2 2.2 0 4.8-4.2 3.2-5.2-2.4-1.6-4.7-.7-6.3 2.3zM86 27c0 5.4 6.7 7.3 10.3 2.9 1.9-2.4 1.9-2.4-.7-3.4-1.5-.6-2.5-1.3-2.2-1.6.2-.2-1.3-.5-3.5-.6-3.6-.1-3.9.1-3.9 2.7z"/><path fill="#663" stroke="#663" stroke-width=".1" d="M67 8.4c0 .6 12.3 4.7 12.7 4.2.4-.4-10.4-4.6-11.8-4.6-.5 0-.9.2-.9.4zm4.2 24.2c-1.8 2-.8 4.3 1.5 3.9 1-.2 2.1-.4 2.6-.4 1.4-.2.7-3.9-.9-4.5-1.9-.7-1.6-.8-3.2 1zm-6.9 8.6c-1.2 2-1.2 3.2.1 4.3 2 1.7 3.8 1.6 5.2-.2 1.6-2.1 1.8-3.7.4-2.8-.6.3-1.3-.1-1.6-.9-.7-1.9-3-2.1-4.1-.4z"/><path fill="#966" stroke="#966" stroke-width=".1" d="M67.5 9.6c7.7 7 7.1 6.7 10.1 5.1l2.7-1.4-5.4-1.8c-3-1-6.1-2-6.9-2.3-.9-.3-1.1-.2-.5.4zm8.4.9c3.7 1.7 6 2 4.6.6-.6-.5-2.6-1.2-4.5-1.5l-3.5-.7 3.4 1.6zm-15.4 3.4c-.3.6-.3 1.1.2 1.1.4 0 3 .7 5.8 1.5 4.8 1.5 4.9 1.5 2.9-.4-2.5-2.3-8-3.6-8.9-2.2zM89 21.2c-2.4 1-2.4 1-.5 1.8 2.7 1.2 5.7 1.2 5.1.1-.4-.5 0-1.2.6-1.5.7-.3.2-.3-1.1 0-1.6.4-2.1.3-1.7-.5.8-1.3.9-1.3-2.4.1z"/><path fill="#033" stroke="#033" stroke-width=".1" d="M74.5 8.6c2.8.7 5.5 1.3 6 1.3 1.7-.2-6.9-2.7-9-2.7-1.1 0 .3.6 3 1.4zM48 12.4c1.9.8 4.2 1.5 5 1.5 2.6.1-1-1.6-5-2.3l-3.5-.6 3.5 1.4zm14 4.2c1.9.9 3.8 2 4.1 2.6.4.5.9.3 1.2-.5.5-1.5 0-1.7-6.8-3.2-1.1-.3-.4.2 1.5 1.1z"/><g fill="#960" stroke="#960" stroke-width=".1"><path d="M69.8 51.7c4.1.8 1.6 4.3-3 4.3-3.2 0-3.7-1.4-1-2.9.9-.6 1.2-1.1.5-1.1-.6 0-1.5.5-1.8 1-.5.8-1.1.7-2.1 0-.7-.7-1.9-1-2.6-.7-.8.4-.7.6.4.6 1 .1 2.4 1.3 3.2 2.8.9 1.8 2.2 2.8 3.7 2.8 2 0 2.4.5 2.1 2.7-.2 2 .2 2.8 1.3 2.8.8 0 1.5.7 1.5 1.5 0 1.7-4.1 3-7 2.2-1.5-.4-2.2.1-2.6 2.1-.9 3.7-2.3 5.2-4.8 5.2-2 .1-2 .1-.2 1.2 1.6.9 2.2.6 3.7-1.3 1-1.3 1.9-3.3 2.1-4.4.3-1.7.6-1.5 1.9 1.2 1.6 3 1.6 3.1-.4 4-1.9.9-1.9 1-.3 1.6 1 .4 1.5.3 1.1-.3-1.5-2.4 3.5-.7 5.4 1.7l2 2.8.1-3.2c0-2.5.6-3.3 2.8-4.1 1.5-.6 2.1-1.1 1.5-1.1-1.8-.1-1.6-2.1.1-2.1.7 0 1.6 1.3 1.9 3 .5 2.1 1.2 2.9 2.4 2.8 4.6-.4 7.2.3 7.6 1.9.4 1.6.5 1.6.6.1.1-.9.8-1.5 1.9-1.3.9.1 1.1 0 .4-.2-.7-.3-1-.9-.6-1.4.3-.5 1-.7 1.5-.4.5.4 1.2 0 1.5-.9.3-.8 1.2-1.2 2-.9 1.2.4 1.2.8 0 2.5-1.5 2.1-1.1 5.2.5 4.2.5-.3.9 0 .9.6s.5.8 1.1.4c.8-.4.8-.9 0-1.7-1.5-1.5-1.4-5 .2-4.3.6.2 2.9 1 5 1.7 2 .7 3.7 1.7 3.7 2.3 0 .6 1 1.7 2.2 2.5 1.9 1.2 2 1.4.5 2.3-2 1.1-5.7-.6-5.7-2.7 0-.7-.4-1.7-1-2-.5-.3-.7 0-.4.8.5 1.5-1.6 4.2-3.7 4.9-.9.3-.9.9-.1 2.4.9 1.4 1.2 1.5 1.3.4.1-.8.1-1.8 0-2.2-.2-1.3 4.3.8 5.3 2.5.8 1.2.7 2.3-.2 3.9-1.2 2.1-1.1 2.1.8-.1l2.1-2.4.6 2.4.7 2.4.6-2.5c.3-1.5 1.8-3 3.8-3.9 3.5-1.6 4.2-3.1 1.4-3.1-2.1 0-4.2-1.8-4.2-3.7 0-1.7-3.6-5.3-5.3-5.3-1.7 0-5.7-2.9-5.7-4.1 0-1.5 3.6-1 6.1.9 1.3 1 3.2 2.1 4.2 2.5.9.3 1.7 1.1 1.7 1.7 0 .5.4 1 1 1 .5 0 .7-.6.4-1.4-.6-1.7 1.2-3.1 2.1-1.6.3.5 1.5 1 2.5 1s2.2.5 2.6 1.1c.5.8-.1 1-1.9.7-1.6-.3-2.4-.1-2.1.6.2.6 1.9 1.1 3.7 1 2.6-.1 3.1-.5 2.9-2.2-.2-1.1.2-2.3.8-2.7 1.3-.8-.6-3.5-2.4-3.5-.6 0-.3.5.7 1.1 2.4 1.4 1.2 2.9-2.3 2.9-3.2 0-4.9-1.7-2.6-2.6.8-.3 1.2-1.2.9-1.9-.3-1-1.2-.6-3.2 1.6l-2.8 3-2.6-2.1c-1.5-1.2-2.5-2.6-2.2-3.1.4-.5-.1-.9-1-.9-2.1 0-3.1-3-1.4-4.1 1.1-.7 1.1-.9-.2-.9-.9 0-1.9-.7-2.3-1.5-.3-.8-1.6-1.4-2.8-1.4l-2.3.2 2.3.4c2.3.5 2.9 1.8 1.2 2.8-1.5.9-1.2 2.5.4 2.5.8 0 1.6.7 2 1.5 1.1 2.9-4.2 1.6-8.3-2.2-4.4-3.9-5.5-6.9-2.2-6 1.6.4 1.8.1 1.2-1.6-.4-1.2-1.4-2.3-2.2-2.5-1.1-.3-1.1-.1.1.7 1.3 1 1.3 1.3-.2 2.2-1 .5-1.8 1.9-1.8 3 0 1.6-.5 1.8-2.5 1.3-1.9-.5-2.5-.2-2.6 1-.1.9-.2 2.2-.3 2.8-.1.8-1.6 1.3-4.1 1.3-2.9 0-4.6.6-6.1 2.3-1.6 1.8-2.9 2.3-5.4 2-4.5-.4-5.1-2.6-1-3.5 1.9-.3 3.5-1.3 3.7-2.3.3-1 1.5-2.2 2.9-2.8 1.9-.9 2.5-.8 3.4.6.9 1.4 1 1.3.4-.7-.5-1.8.1-3 2.9-5.6 3.4-3.2 3.4-3.3 1.3-4.3-3-1.5-6.7-2.2-6.1-1.2.5.8-2.5 3-3.9 3-1.5 0-.4-3.9 1.2-4.2.9-.3-.3-.4-2.8-.5-2.5 0-3.5.2-2.2.4zM83 55c0 .6-1.1 1.5-2.5 2.2-1.3.6-2.2 1.4-2 1.8 1.1 1.8-5.4 5.3-7.4 4.1-1.5-1-.3-4.3 1.3-3.5.6.3.2-.2-.9-1.2-1.2-1-1.4-1.5-.5-1.2 4.9 1.7 6 1.9 5.9 1.1-.1-.4.1-1.6.5-2.6.9-1.8 5.6-2.4 5.6-.7zm12.6 13.9c.6 1.1 1.3 1.9 1.6 1.6.3-.3 1.1.1 1.8 1 1.6 2 .7 2.9-1.7 1.7-2.1-1-6.4-.2-6.4 1.3 0 1-4.7.9-8.1-.1-2.1-.6-2.4-3.4-.5-3.4 1.8 0 6.7-2.4 6.7-3.3 0-.4-.4-.7-1-.7-.5 0-1-.6-1-1.4 0-2.1 7.2.6 8.6 3.3zM112.5 87c1.1 1.8-2.6 2.3-4.3.6-1.5-1.5-1.4-1.6 1-1.6 1.5 0 3 .5 3.3 1z"/><path d="M86 70.9c0 1.3 2.8 3.3 3.3 2.4.3-.5.3-1.3-.1-1.8-.9-1.3-3.2-1.7-3.2-.6zM54.5 53c-.3.5-.4 1.4 0 1.9.8 1.4-3.3 3.4-5.6 2.8-1-.3-1.9-.1-1.9.4s.7.9 1.6.9c.9 0 1.2.5.8 1.1-.4.7-.3 1 .2.7 3.3-1.5 7-3.2 7.3-3.5.2-.1-.2-1-.9-1.9-1.2-1.3-1.1-1.7.1-2.5.9-.5 1-.9.2-.9-.6 0-1.5.4-1.8 1zm-12.3 2c-1.2.5-2.5 1.6-2.8 2.5-.4.8-1.4 1.5-2.3 1.5-1.7.1-6.2 3-4.5 3 .6 0 1.5-.5 2.1-1.1 1.6-1.6 5.8-.7 5.7 1.3-.1 1.4.2 1.5 1.8.5 1.8-1.2 1.8-1.2-.3-3-1.9-1.6-2-3-.1-3.3.4 0 1.4-.3 2.2-.7.8-.3 2.4-.8 3.5-1 1.6-.4 1.5-.5-.5-.5-1.4 0-3.5.3-4.8.8zm12 4.7c-1 .4-1 .9.3 2.3 3 3.4-1.9 8.2-5.1 5-.6-.6-1.5-.3-2.6.9-1.6 1.8-1.4 1.9 3 1.8 3.9-.2 4.9-.6 5.9-2.7.7-1.4 1.2-1.8 1.3-1 0 1 .3 1.1.8.3.4-.6 2-1.5 3.6-1.9 2.2-.5 2.7-.4 2.1.6-.5.8-.4 1.1.3.6 2.3-1.4.1-3.1-4-3.1-2.6 0-4.3-.5-4.6-1.4-.3-.9 0-1.1.8-.6.9.5 1.1.4.6-.3-.4-.7-.8-1.2-.9-1.1-.1 0-.8.3-1.5.6zm-30.8 4.4c.2.8.6 2.2 1.1 3.2.8 2-1.9 5.7-4.2 5.7-1.7 0-1.7-1 .4-4 1.3-2 1.4-2.2.2-1.3-.9.7-2 .9-2.4.5-.5-.4-.5-.2-.2.5.9 1.4-1.8 4.3-4.1 4.4-1.4 0-1.3.2.3.8 1.2.5 2.6.4 3.4-.3 1.2-.9 1.3-.8.8.6-.4 1.3-.2 1.5 1 1.1.9-.4 2.1.1 2.9 1.1 1.1 1.6 1.5 1.6 4.1.3 1.5-.8 3.4-1.2 4.1-1 .6.3 1.2 0 1.2-.7 0-.6-.5-.8-1.2-.4-.8.5-.9 0-.6-1.4.7-2.7.3-2.7-2.4-.2-2.2 2.1-5.8 2.7-5.8 1.1 0-.5 1-1.8 2.3-2.8 3.6-2.8 3.8-3.9 1.2-6.3-1.3-1.2-2.2-1.6-2.1-.9zm-10.3 4.1c-.1.9-1.1 2-2.2 2.3-1.6.6-1.8.9-.8 1.5 1.5 1 4.3-2.4 3.6-4.3-.3-.7-.6-.5-.6.5z"/><path d="M36.6 68.8c.4 1.8.1 2.5-1.5 2.9-1.2.3-2.1.9-2.1 1.5 0 .5.8.4 1.9-.2 2.7-1.4 4.1-1.3 4.1.4 0 1.9-2.4 3.7-5.5 4-1.4.2-3.1.8-3.7 1.4-1.6 1.6 6 .4 8.9-1.4 2.5-1.5 3.7-1.8 3-.7-.3.5 1.2.8 3.4.8 2.1.1 3.3-.2 2.7-.6-.9-.6-.9-.9.2-1.3 3.6-1.1 6-1.3 5.5-.6-.3.5 0 1.2.6 1.5 1.3.9-3 5.7-4.6 5.1-.6-.2-1.7.5-2.4 1.6-.8 1.3-1.9 1.8-3.2 1.5-1.7-.5-1.8-.3-.8.9 1 1.3 1.4 1.3 2.9-.1 2.1-1.9 3-1.9 3-.1 0 .7.7 2 1.7 2.7 1.5 1.3 1.5 1.2.2-.9-1-1.6-1.1-2.6-.3-4 1.2-1.9 6.4-3 6.4-1.3 0 .6.8 1.1 1.8 1.1s2.8.8 4.1 1.7c1.5 1 2.1 1.1 1.6.3-.5-.9-.4-1.1.4-.6.9.6.9 1.1 0 2.2-1.5 1.8-2.7 1.8-6.3-.1-3.5-1.9-4.2-1.9-2.7-.2.6.8.8 1.7.4 2-.3.4-.1.7.5.7s.9.8.6 1.7c-.5 1.7-.5 1.7.6 0 .6-.9 2.3-1.7 3.8-1.7 1.6 0 3.4-.6 4.2-1.3 1.2-1 1.2-.9 0 .8-.8 1.1-2.3 2.8-3.5 3.8-1.1 1-1.4 1.6-.7 1.2.6-.3 1.2-.1 1.2.6 0 1 .3 1 1.2.1.9-.9 1.7-.5 3.5 1.4 1.7 1.9 3.1 2.5 4.9 2.1 1.3-.2 2.7 0 3 .4.6 1 5.5 1.2 7.8.3.9-.3 1.6-1.3 1.6-2.1s.5-1.1 1.3-.7c1 .6 1 .4 0-.7-1.8-1.8-1.6-3.9.5-6.2 1.3-1.6 1.4-1.9.2-1.5-.8.3-2.2.2-3.1-.3-1-.5-1.9-.1-2.7 1.2-1.2 1.9-1.1 1.9.8.9 2.4-1.3 3.6-.8 2.5.9-.3.6-1.6.9-2.8.7-2.7-.4-5.8.6-5.9 1.9 0 2-2.1 3.5-4.9 3.5-3.3 0-3.8-1.4-1.1-2.9 1.5-.9 1.5-1-.5-1.1-3.4 0-2.9-3 .5-3.1 2.7-.1 2.7-.1.2-.8-1.3-.4-2.7-1.6-3-2.7-.3-1.3-1.2-2-2.3-1.8-1.7.2-1.7.1-.3-1.5 2.2-2.4 2-3.4-.4-2.1-2.4 1.3-7 .3-7-1.5 0-.7-.6-1.5-1.4-1.8-.8-.3-1.2-1.5-.9-3.1.5-2.4.4-2.5-2.6-1.3-2.5.9-3.6.9-5.2-.1-1.8-1.2-1.9-1.1-1 .7 1.3 2.4 0 3.5-2.8 2.6-2.8-.8-3.6-3.7-1.5-5.2 1-.7 1.3-1.3.7-1.3-.7 0-1.5.4-1.8 1-1 1.6-2.1 1.2-3.4-1.3L36 66.5l.6 2.3zM83.5 95c0 1.8-5.2 2.7-6.7 1.2-1.7-1.7.2-3.3 3.5-3 2 .2 3.2.8 3.2 1.8z"/><path d="M35.4 81.1c-.3.6 0 1.5.7 2 1.8 1.1 2.1 1.1 3.9-.2 1.2-.9 1-1-.8-.6s-2.2.2-1.8-.9c.6-1.7-1-1.9-2-.3zm42.9.4L76 82.7l2.5 1.3c1.4.7 2.8 1 3.2.7.3-.4-.1-.7-1-.7-1.8 0-2.3-1.5-.8-2.4.5-.4 1.2 0 1.4.6.4.9.6 1 .6.1.1-1.8-1.2-2.1-3.6-.8zm50.7 2c.6.8.9 1.9.5 2.5-.9 1.4-4.8 1.3-6.4-.3-1-1-1.1-.9-.6.4.4 1 .2 2-.4 2.4-2.1 1.2-1.1 2.5 1.2 1.5 1.2-.5 3.6-1.2 5.2-1.6 1.7-.4 3.3-.8 3.8-.9.4-.2 1.4-.3 2.3-.4 1.1-.1.4-1-2-2.6-4.2-2.8-5.4-3.2-3.6-1zM73.9 87c-.1.3-.1.9 0 1.4.1.4-.4 1.4-1 2.2-.9 1.1-.8 1.4.5 1.4.9 0 1.9-.7 2.2-1.5.3-.8 1.4-1.7 2.5-2 1-.4 1.9-.9 1.9-1.3 0-.8-5.9-1-6.1-.2zm17.9 5.4c-.4 2.1-.3 2.3 1.3 1.3 1-.6 1.5-1.4 1.1-1.7-.4-.3-1-.9-1.3-1.3-.4-.4-.9.3-1.1 1.7zm5.5 2.1c-3.1 3.4-7.3 4.7-7.3 2.3 0-.6-.2-.9-.5-.6-.3.3-.3 1.2 0 2 1 2.4 8 .3 9.4-2.8.6-1.4 1.6-2.2 2.1-1.9.6.3.7-.1.4-.9-.7-1.9-.3-2.2-4.1 1.9zM123 117c-1.9 1.1-3.1 1.9-2.7 2 1.1 0 6.7-2.9 6.7-3.5 0-.7-.1-.7-4 1.5z"/></g><path fill="#FC3" stroke="#FC3" stroke-width=".1" d="M59.5 18.9c-.4 1.3 0 2.8 1.2 4.1 1.9 1.9 1.9 1.9 3.7-1.1 1-1.7 1.5-3.3 1.2-3.6-.3-.4-.6-.1-.6.5 0 .7-.4 1.2-1 1.2-.5 0-.9-.5-.7-1.2.4-2.1-3.1-2-3.8.1z"/><path fill="#FF3" stroke="#FF3" stroke-width=".1" d="M122.7 107.7c-1.4 1.3-.7 2.5.8 1.3.8-.7 2.2-1 3-.6.9.3 1.3.2 1-.4-.7-1.1-3.8-1.3-4.8-.3zm-20.5 5.5c-1.5 1.5-1.5 3.5 0 4.4.7.4.8.3.4-.4-.4-.6-.2-2.1.4-3.2 1.2-2.3 1-2.6-.8-.8zm17.8.9c-1.9 1.1-5.3 2-7.5 2-3.3.2-3.5.3-1.1.6 3.6.6 11.1-1.4 12.7-3.3 1.5-1.8.2-1.6-4.1.7z"/><path fill="#FC0" stroke="#FC0" stroke-width=".1" d="M55.2 23.2c-1.2 2.3-2.1 4.3-1.9 4.5.2.1 1.7.6 3.4.9 2.5.5 3.3.2 4.3-1.6 1.1-2.1 1-2.2-1.9-1.5-3.2.7-4-.2-2-2.2.6-.6.9-1.8.7-2.7-.2-1-1.1-.1-2.6 2.6zm.1 31c.2.7 1.3 1.1 2.3 1 1.5-.3 1.7-.1.7.9-1.7 1.8-1.6 4.9.1 4.9 1.6 0 4.6-2.6 4.6-4 0-.9-5.6-4-7.2-4-.5 0-.8.6-.5 1.2zm10.2-.1c-1.1 1.6.1 2.2 3 1.5 1.4-.4 2.3-1.1 2-1.6-.8-1.3-4.2-1.3-5 .1zm-21.8 1.6c-1.6 1.5-.6 4.3 1.4 4.3 1.5 0 1.9-.4 1.5-1.6-.3-.9-.6-2-.6-2.5 0-1.1-1.4-1.2-2.3-.2zm3.8.3c-.4.6.7 1 2.5 1s2.9-.4 2.5-1c-.3-.6-1.5-1-2.5-1s-2.2.4-2.5 1zm30 0c-.3.5.3 1 1.4 1 1.2 0 2.1-.5 2.1-1 0-.6-.6-1-1.4-1-.8 0-1.8.4-2.1 1zm5.7 1.2c-2 2-1.4 4 1.1 3.6 1.4-.2 2.3-1.1 2.5-2.6.4-2.4-1.6-3-3.6-1zm5.8.5c0 .5.8 1.6 1.8 2.4.9.9 2.2 2.5 2.9 3.5 1.1 1.8 1.2 1.8 1.2-.1.1-1.9-1.6-3.9-4.7-5.9-.7-.4-1.2-.3-1.2.1zm-24.3 3.5c-.4 1.2-.5 2.4-.2 2.6.8.8 4.5-1.9 4.5-3.3 0-2.4-3.7-1.8-4.3.7zm-30-.5c-1.2 1.1-.7 4.3.6 4.3 1.7 0 3.7-2 3.7-3.7 0-1.3-3.2-1.8-4.3-.6zm37.1.1c-1 .2-1.8.8-1.8 1.3 0 1.2 4.7 1.2 5.4 0 .7-1.1-1.3-1.9-3.6-1.3zm7.6.5c-.7 2 .2 3.7 2.1 3.7 2.2 0 2.4-1.4.4-3.4-1.6-1.7-1.9-1.7-2.5-.3zm-51.1.4c-1.4.5-1.8 3.5-.7 4.6C28.8 67.4 32 65 32 63c0-1.9-1.2-2.4-3.7-1.3zm20.3.9c-1 2.6-.7 3.4 1.4 3.4 1.6 0 4-2.6 4-4.4 0-1.4-4.8-.5-5.4 1zm-7 1c-1.8 1.7-1.7 3.5.1 4.1 1.4.5 4.5-2.6 4-4-.6-1.8-2.4-1.9-4.1-.1zm18.6 1.1c-1.2.2-2 .8-1.7 1.3.6 1 4.5.1 4.5-1.1 0-.5-.1-.8-.2-.8-.2.1-1.3.4-2.6.6zm14.6 0c-2.1.5-2.4 3.3-.5 3.3 1.4 0 3.7-2 3.7-3.2 0-.8-.4-.9-3.2-.1zM98 65.9c0 1.1.5 2.3 1 2.6.6.3 1-.3 1-1.4 0-1.1-.4-2.3-1-2.6-.5-.3-1 .3-1 1.4zm-33.8.3c.5 1.5 4.8 1.8 4.8.3 0-.6-1.1-1.1-2.6-1.3-1.8-.3-2.5 0-2.2 1zm23.6 0c.7.7 1.2 2 1.2 3.1 0 1.3.6 1.8 2.3 1.5 1.4-.2 2.2-1 2.2-2.3 0-1.5-.6-1.9-2.2-1.8-1.3.2-2.3-.2-2.3-.7 0-.6-.5-1-1.2-1-.9 0-.9.3 0 1.2zM105 66c0 .5.9 1.5 2 2.2 1.1.7 2 1.8 2 2.5s.9 1.7 2 2.3c3 1.6 2.5-.3-1.2-4.4-3.2-3.6-4.8-4.5-4.8-2.6zm-90.6 1.2c-.3.5.2.8 1.2.7 1.1-.2 2.4 0 3 .4.7.4 1.7.1 2.2-.6.9-1 .4-1.3-2.3-1.4-1.9-.1-3.8.3-4.1.9zm64.3-.6c-1.2 1.2.4 2.4 3.1 2.4 2.6-.1 2.6-.1.8-1.5-2.2-1.7-3-1.8-3.9-.9zm-50 1.1c-.3.5.3 1.5 1.4 2.2 1.8 1.1 2 1 1.7-.5-.3-1.9-2.3-3-3.1-1.7zm-20 1c-1 .9-.9 2.3.1 2.3.5 0 1.7-.7 2.8-1.5 1.9-1.4 1.9-1.4-.2-1.5-1.1 0-2.4.3-2.7.7zm46.9 1.5c.9 3.1 1.1 3.3 2.9 1.8 2.3-2 1.8-4-1.1-4-2.2 0-2.4.3-1.8 2.2zm-35.3.3c-.3.9-.3 1.9.1 2.2.7.7 3.6-1.6 3.6-2.8 0-1.5-3-1-3.7.6zM13 71c-.8.5-1.2 1.2-.8 1.5.9.9 4.8-.4 4.8-1.6 0-1.2-2.1-1.1-4 .1zm28 1.1c0 1.4.5 1.9 1.7 1.7 2.6-.5 2.9-3.8.4-3.8-1.5 0-2.1.6-2.1 2.1zm5.5-1.2c-.3.5 0 1.3.5 1.6 1.6 1 6.2-.4 5.5-1.5-.8-1.3-5.2-1.3-6-.1zm20.1 0c-.7 1 1.7 2.1 4.6 2.1 1.7 0 1.8-.3.8-1.5-1.4-1.7-4.6-2-5.4-.6zm-41.8.8c-1 .3-1.8 1-1.8 1.8s.7 1.1 2 .8c3.8-1 3.5-3.4-.2-2.6zm58.3 1.2c-1.2.8-.9 1.1 1.2 1.7 3 .7 4.3.1 3.2-1.5-.8-1.3-2.5-1.4-4.4-.2zm34.5 0c-.6 1 1.6 2.1 4.1 2.1 1.3 0 1.3-.3.3-1.5-1.4-1.7-3.6-2-4.4-.6zM103 74c0 .5 1.2 1.3 2.8 1.6 1.5.4 3.3 1.1 4 1.7.8.7 1.2.5 1.2-.7 0-1-.5-1.4-1-1.1-.6.3-1.3-.1-1.6-.9-.7-1.7-5.4-2.2-5.4-.6zm-70.5 1.1c-.4.6-.5 1.3-.1 1.6.8.8 5.6-.6 5.6-1.7 0-1.3-4.7-1.3-5.5.1zm41.7.1c-1.9 1.9-1.5 4.8.8 4.8 2.1 0 4.5-3.4 3.5-5-.8-1.4-2.8-1.3-4.3.2zm20.9-.3c-.8.5-1 1.4-.6 2.1.6.9 1 .8 1.7-.4 1.2-2.1.7-2.8-1.1-1.7zm19.9.5c0 .7.9 1.6 2 1.9 1.1.3 2 .2 2-.2 0-.3-.9-1.2-2-1.9-1.6-1-2-1-2 .2zm-17 .8c0 2.2 1.7 4.1 2.9 3.4.8-.5.8-1.3.1-2.7-1.2-2.1-3-2.6-3-.7zm-31.6 1.4c.4.9.1 2.3-.5 3-1.4 1.7.2 1.9 1.9.2s1.5-4.8-.4-4.8c-1.1 0-1.4.5-1 1.6zM26 78c-1.3.8-1.2 1 .3 1 .9 0 2 0 2.4.1.4 0 .9-.4 1.1-1 .5-1.4-1.8-1.4-3.8-.1zm15.7-.3c-1.3 1.2-.7 5.3.7 5.3 1.7 0 4.8-3.9 4-5.2-.6-1-3.8-1.1-4.7-.1zm16-.1c-1.1 1.2.3 2.4 2.9 2.4 2.7 0 3.2-1.5.8-2.4-2-.8-2.9-.8-3.7 0zm23.9 1c-.9 2.3-.8 2.4 1.2 2.4 1.9 0 4.2-1.8 4.2-3.2 0-1.5-4.8-.8-5.4.8zm-32.1.5c-.4.6-.4 1.3-.1 1.6.8.8 3.6-.5 3.6-1.7 0-1.3-2.7-1.3-3.5.1zm41.2-.4c-1 .9-.9 5.3.1 5.3 1.5 0 4.4-3.8 3.7-4.9-.7-1.2-2.8-1.4-3.8-.4zm21.9.9c-1 2.5-.7 3.4 1 3.4 1.6 0 4.3-2.7 4.4-4.3 0-1.4-4.8-.7-5.4.9zm5.6.6c-1.8 1.8-1.4 3.8.7 3.8 2.2 0 4.5-2.5 3.6-4-.8-1.3-2.8-1.3-4.3.2zm-67 2.5c-1 2-.5 4.3.8 4.3 1.4 0 4-3 4-4.6 0-2-3.8-1.7-4.8.3zm16.5-1c-1.4 1.4-.7 4.3 1.1 4.3 2.1 0 4.2-1.8 4.2-3.7 0-1.3-4.1-1.8-5.3-.6zm37.9.8c.4.8 1.5 1.5 2.6 1.5 1.7 0 1.8-.3.8-1.5-.7-.8-1.9-1.5-2.6-1.5-.8 0-1.1.6-.8 1.5zm-7.3.2c-.7.2-1.3.9-1.3 1.5 0 1.4 4.3.6 4.8-1 .4-1.2-1.2-1.5-3.5-.5zM57 84.4c0 1.6 3.7 3.2 4.8 2.1.7-.7-2.5-3.5-4-3.5-.4 0-.8.6-.8 1.4zm74.6-.5c.5.5 1.9 1.2 3.2 1.6 1.6.5 2.2.2 2.2-.9s-1-1.6-3.2-1.6c-1.9 0-2.8.4-2.2.9zM32 86.5c0 1.3.5 2.7 1 3 .6.3 1 .2 1-.4 0-.5.3-1.6.6-2.4.3-.8-.2-1.7-1-2-1.2-.5-1.6 0-1.6 1.8zm92.5-1.4c-1.1 1.6.1 2.2 3 1.5 1.4-.4 2.3-1.1 2-1.6-.8-1.3-4.2-1.3-5 .1zm-30.3 2.1c-1.8 1.8-1.5 4.8.6 4.8 1.9 0 4.6-3.6 3.7-5-.8-1.4-2.9-1.2-4.3.2zm7.5-.6c-.4.4-.7 1.8-.7 3.1 0 2.1.2 2.2 2.1 1.3 1.1-.6 1.9-1.9 1.7-2.7-.3-1.8-2.1-2.7-3.1-1.7zm-23.4 1.8c-2.2 1-3.1 2.6-1.5 2.6 1.2 0 4.8-2.8 4.2-3.2-.3-.2-1.5.1-2.7.6zm38.2-.1c-1 .8-1.4 1.6-.9 1.9 1.3.8 5.4-.9 5.4-2.2 0-1.4-2.3-1.3-4.5.3zm-78.3 1.9c.4 3.1 2.6 3.4 2.6.3 0-1.5-.6-2.5-1.5-2.5s-1.3.8-1.1 2.2zm44.9-.8c-1.2 1.4-1.2 1.6.3 1 1.2-.4 1.6 0 1.6 1.5 0 2.7 2.1 2.7 4.5.1s.8-4.8-2.3-3.1c-1.5.8-2.1.8-2.4 0-.2-.7-.9-.5-1.7.5zm-15.4.2c-1.4 1.4-.7 2.5 1.3 2.2 1.2-.2 2.1-.8 2.1-1.3 0-1.2-2.4-1.8-3.4-.9zm44 .1c-1.4 1.3-.6 3.3 1.3 3.3 2.2 0 2.3-.1 1.4-2.4-.7-1.7-1.6-2-2.7-.9zm-53 1c-1.3 1.2-.7 2.3 1.2 2.3 1 0 2.4-.7 3.1-1.5 1-1.3.9-1.5-1.2-1.5-1.4 0-2.8.3-3.1.7zm10 3c-1.4 1.3-.6 2.3 1.7 2.3 3 0 4.2-1.5 2-2.4-2-.8-2.9-.8-3.7.1zM76 95c0 1.1 4.8 2.5 5.6 1.7.4-.3.3-1-.1-1.6-.8-1.4-5.5-1.4-5.5-.1zm9 1.5c0 .8-.8 1.9-1.7 2.4-1.6.9-1.6 1 .4 1.1 2.8 0 5-3.5 2.8-4.4-.9-.3-1.5 0-1.5.9zm5.7-.8c-2.4 2.3.9 3.1 3.9.8 1.8-1.4 1.8-1.4-.7-1.5-1.4 0-2.9.3-3.2.7zm30.4 13.4c-.1.9.9 2 2.1 2.6 2.2 1 2.2 1-.6 2.8-3.5 2.3-14 3.3-15.1 1.5-.4-.7-.1-1.6.6-2.1 1.2-.8 1.2-1.1-.1-1.9-.8-.5-2.4-.9-3.5-.9h-2l2 .9c1.7.7 1.7.9.3.9-1.3.1-1.8.9-1.7 2.8 0 1.6.3 2.2.6 1.6.3-1 .8-.9 2 .2 1.9 1.9 11.2 2 15.6.1 2.9-1.2 8.7-6.7 8.7-8.2 0-.3-1.8-.4-4-.2s-4.2-.1-4.4-.7c-.2-.5-.5-.3-.5.6z"/><path fill="#C90" stroke="#C90" stroke-width=".1" d="M62.4 72.5c-1 3.1-.9 3.4 1.2 3.8 1.3.2 2.1.1 1.9-.4-.3-.4.1-1 .7-1.2 1-.4 1-.6.1-.6-.7-.1-1.3-1-1.3-2 0-3.4-1.5-3.1-2.6.4zm13.6-.9c0 .3.7 1.2 1.5 2 1.3 1.4 1.5 1.3 1.5-.5 0-1.2-.6-2.1-1.5-2.1-.8 0-1.5.3-1.5.6zm20 .3c0 1 3 2.4 3.7 1.7.3-.3.2-.9-.2-1.5-.8-1.3-3.5-1.5-3.5-.2zM53.5 75c.9 1.5 4.5 3.2 4.5 2.2 0-.5-1.2-1.4-2.6-2-1.4-.7-2.3-.8-1.9-.2zM47 76.5c-1.1 1.3-.8 1.3 1.9.4 3.5-1.2 4-1.9 1.2-1.9-1 0-2.4.7-3.1 1.5zm-.3 8.7c-1.7 1.3-1.5 1.5 2 3.2 3.7 1.8 3.7 1.8 2.2 0-.9-1.1-1.8-2.5-2-3.2-.3-1-.8-1-2.2 0zm8.5 4.7c-1.1.7-1.1.9.2 1.4.9.4 1.6.2 1.6-.4 0-.6.5-.7 1.2-.3.7.4.8.3.4-.4-.8-1.4-1.6-1.5-3.4-.3zm51.8 2.6c-.7.8-2.8 1.5-4.6 1.5-2.4 0-3.4.5-3.4 1.5 0 1.8-.5 1.8 5.8 0 3.2-1 5.2-2.1 5.2-3 0-1.9-1.4-1.9-3 0zm-33.8 5.2c-.8.3.4 1.3 2.8 2.4 5.1 2.3 6.7 2.4 5 .4-.7-.8-2-1.5-2.9-1.5-.9 0-2.1-.4-2.6-.9-.6-.5-1.6-.6-2.3-.4z"/><path fill="#FFF" stroke="#FFF" stroke-width=".1" d="M62.7 58.3c-.3.9-1.7 2.1-2.9 2.6-2.1.8-2.1 1-.5 1.6 2.3 1 5-1.6 4.5-4.1-.3-1.8-.4-1.8-1.1-.1zm-16.8 2.3c-1.2 1.4-1.1 1.6.5 1.3 1.1-.2 2.1-1 2.4-1.7.5-1.7-1.3-1.5-2.9.4zm39.6.4c-1.6 1.8-1.6 2-.2 2 .9 0 2.1-.9 2.7-2 .6-1.1.7-2 .2-2-.5 0-1.7.9-2.7 2zm-47.7 3.2c-2 2-2.2 2.8-.8 2.8.9 0 3.5-3.9 2.8-4.4-.2-.2-1.1.6-2 1.6zm14.5.5c-1.2 1.3-1.8 2.5-1.4 2.7 1.3.8 4.4-1.9 4-3.5-.3-1.1-.9-.9-2.6.8zm-8 2c-2.2 2.2-2.2 2.3-.2 2.3 1.1 0 2.2-.7 2.5-1.5 1.1-2.7-.1-3-2.3-.8zm48.8 3.7c-1.9 2-2.1 2.6-.9 2.6 1.9 0 4.1-2.5 3.6-4-.2-.6-1.4 0-2.7 1.4zM31 71.9c-.7 1.5-.7 2.1 0 2.1 1.2 0 2.5-2.8 1.7-3.6-.3-.3-1 .4-1.7 1.5zm27.1.8c-2.4 2.3-2.4 2.3-.3 2.3 1.2 0 2.6-.9 3.2-1.9 1.5-2.9-.1-3.1-2.9-.4zm20.6 4.6c-.3.9-1.7 2.1-2.9 2.6-2.1.8-2.1 1-.5 1.6 2.3 1 5-1.6 4.5-4.1-.3-1.8-.4-1.8-1.1-.1zm7 3.3c-2.4 2.1-2.5 2.4-.9 2.4 2.1 0 4.6-2.4 4-3.9-.1-.5-1.6.1-3.1 1.5zm-39.2-.3c-.4 1-1.7 2.3-2.9 2.7-1.9.8-1.9.9.7.9 2.8.1 4.3-1.7 3.4-4.1-.3-.9-.7-.7-1.2.5zm48.2 1c-.4 1-1.7 2.2-2.9 2.7-2.2.8-2.2.9.5.9 2.8.1 4.3-1.7 3.5-4.1-.3-.8-.7-.6-1.1.5zm-21.6 1.4c0 .7-1.1 2.1-2.3 3.3-1.5 1.4-1.7 2-.7 2 2.6 0 4.1-1.7 3.6-4.1-.2-1.3-.5-1.9-.6-1.2zm12.4 2.4c-2.6 1.7-2.7 1.9-.9 1.9 1.2 0 2.7-.7 3.4-1.5 1.9-2.3.9-2.5-2.5-.4zm12.8 4.8c-.8 1.3-.9 2.2-.3 2.6 1.1.7 2.4-1.8 1.8-3.5-.2-.6-.9-.1-1.5.9zm6.7.1c0 .6-1 1.5-2.2 2-2.2.8-2.2.9-.2.9 2 .1 4.4-1.6 4.4-3.1 0-.4-.4-.8-1-.8-.5 0-1 .5-1 1zm-14.3 1.3c-.4 1-1.7 2.2-2.9 2.7-2.2.9-2.2.9-.2.9 2.4.1 4.8-2.2 4.2-4.1-.3-.8-.7-.6-1.1.5zM86.8 99c-1.8 2.1-1.3 2.6 1.1 1.1.7-.5 1.2-1.4 1-2-.3-.7-1.1-.3-2.1.9z"/></svg>