<svg xmlns="http://www.w3.org/2000/svg" version="1.0" viewBox="0 0 512 512"><g fill="#FFF" stroke="#FFF" stroke-width=".1"><path d="M0 256v256h512V0H0v256zm208-70.5c58.7 6.6 143.6 17.4 175 22.1 9.1 1.3 22.1 3.1 29 4 15.5 1.8 19 2.4 21.4 3.6 1 .6 7.3 5.1 14 10 6.6 5 15.3 10.5 19.3 12.4l7.2 3.2.3 14.9c.2 11.5 0 15.2-1.1 16.5-1.2 1.5-1.3 9.7-.7 52 .3 27.7.9 55.4 1.3 61.5.6 11.3.6 11.3 3.9 13.8 7.6 5.8 9.9 15 5.7 23.5-4.9 9.9-27.3 35.1-37.7 42.4-17.7 12.4-44 22.5-75.1 28.8-19.5 3.9-33.5 3.1-94.5-5.2-39-5.4-67.1-9.7-124-19-26.7-4.4-57-9.4-67.5-11.1-56.3-9.1-64.1-12.4-64-27.7.1-7.3 2.5-13.3 7.3-18.4l2.5-2.7-2.7-26.8c-1.5-14.7-3.1-32.2-3.6-38.8-.4-6.6-1.8-21.4-2.9-32.9-1.9-18.7-2.3-21.2-4.3-23.3-2.5-2.7-3.6-10.6-3.7-27.4l-.1-9.6 7.3-6.6c4.1-3.6 9.8-9.5 12.7-13.1 5-6.2 5.9-6.8 16.1-11.1 9.9-4.1 11.3-4.4 15.1-3.6 3.7.9 5.1.6 12.7-2.5 10.8-4.4 23.5-9.1 57.1-20.8 14.6-5.2 27.9-9.8 29.5-10.4 5-1.7 12.6-1.3 44.5 2.3z"/><path d="M31 237.2c-2.7 2.8-4.9 5.3-4.6 5.5.2.2 2.3-.4 4.6-1.3 2.4-1 6.8-2.3 9.9-3 4.6-1 5-1.2 2.3-1.3-2.9-.1-3.3-.4-2.7-2.3.6-1.7.4-2-.9-1.5-1 .4-1.5.3-1.1-.3.3-.6-.1-1-.9-1s-3.8 2.3-6.6 5.2zm319.2 42.5c.4 2.1 3.3 2.5 3.3.3 0-.8-.8-1.6-1.8-1.8-1.4-.3-1.8.1-1.5 1.5z"/></g><path fill="#CCC" stroke="#CCC" stroke-width=".1" d="M286.5 323.9c-.8 1.5.3 3.1 2.1 3.1.8 0 1.3.4.9.9-.3.5 0 1.3.6 1.6 2.1 1.3 1.8-.2-.5-3.4-1.4-1.9-2.7-2.8-3.1-2.2zM34.4 349.2c-.4.7-.3.8.4.4s1.7-.4 2.3 0c.8.4.7.9-.2 1.5-.8.5-.9.9-.4.9.6 0 1.7-.5 2.5-1 1.3-.9 1.3-1.1 0-2-2-1.3-3.7-1.3-4.6.2zm296.2 31.6c-1.5 1.4-.4 3.2 1.9 3.2 3 0 3.4-2.5.6-3.3-1.1-.3-2.2-.2-2.5.1zm142.7 6.2c0 2.5.2 3.5.4 2.2.2-1.2.2-3.2 0-4.5-.2-1.2-.4-.2-.4 2.3zm.7 17.2c0 4-.5 8.9-1 10.9-1.5 5.3-9.8 12.6-22.5 19.6-9.9 5.4-57.2 34.5-76.5 47-4.1 2.6-10.4 5.9-14 7.2-3.6 1.3-10.1 3.7-14.5 5.3l-8 2.9 11.5-.5c29.2-1.3 73.7-15.3 94.9-29.9 9-6.1 25.8-23.8 35.5-37.5 8.5-11.8 7.6-23.1-2.4-30.2l-3-2.1v7.3zm-443.9 4.4c0 1.1-1 2.9-2.2 4-3.2 2.9-6.9 11-7.6 16.3-1.6 13.8 6.5 19.5 35.7 25 9.9 1.9 17.4 3.2 60 10.1 9.6 1.5 34.1 5.6 54.4 8.9 22 3.6 38.6 5.9 41 5.6 3.4-.4 3.7-.3 1.6.5-1.9.7-1.1.8 3.5.5 4.4-.3 5.3-.2 3.5.5-1.9.7-1.1.8 3 .5 3.5-.3 4.8-.2 3.5.3-1.5.7-.8 1 3.3 1.6 2.9.4 5.8.4 6.3 0 .6-.4 1.4-.1 1.8.5.4.6 3.4 1.2 6.7 1.4 3.2.1 6.2.6 6.6 1.1.3.5 4.6.9 9.5 1 5.6 0 7.9.3 6.3.8-1.4.4.2.5 4 .3 4.8-.4 6-.2 4.5.5-1.5.8-.8.9 3 .5 3.2-.3 4.3-.2 3 .4-1.5.6-.9.9 3 1.4 2.8.3 12.9 1.5 22.5 2.6 9.6 1.2 18.6 2.1 20 2l2.5-.1-2.5-.8-2.5-.8 2.5-.2c1.4-.1.1-.6-2.9-1.1-2.9-.5-6.7-1.5-8.5-2.3-3.3-1.5-32.4-5.1-33.4-4.2-.3.4 1 .6 2.8.6 1.8 0 3.1.3 2.7.6-.3.4-2.8.3-5.4-.1-3.8-.6-4.4-.9-2.8-1.6 1.1-.4 1.4-.8.7-.8-.8-.1-13.3-1.7-27.9-3.6-14.6-2-26.8-3.3-27.1-3-.3.3.7.5 2.3.5 1.6 0 2.6.3 2.2.6-.3.4-2.8.3-5.4-.1-3.8-.6-4.3-.9-2.4-1.4 1.4-.4-6.7-2.1-20.6-4.4-12.6-2.1-23.8-3.5-24.9-3.1-1.3.4-1.5.3-.6-.3 1.6-1.2-29.7-6.7-33-5.8-1.5.4-1.9.3-1-.3 1-.7.3-1.1-2.5-1.5-2.1-.3-18.6-3.3-36.6-6.6-20.9-3.9-34-5.9-36.1-5.6-4.5.9-17.9-3.6-25.5-8.5-7-4.6-7.5-5.7-9.5-23-.8-6.3-1.4-10.6-1.5-9.4zM333 495c-3.4.7-3.4.7-.5.8 1.7 0 4.4-.4 6-.8 2.7-.7 2.7-.8.5-.8-1.4.1-4.1.4-6 .8z"/><path fill="#666" stroke="#666" stroke-width=".1" d="M471.4 290.5c0 5.5.1 7.6.3 4.7.2-2.9.2-7.4 0-10-.2-2.6-.3-.2-.3 5.3zm.9 67c0 2.2.2 3 .4 1.7.2-1.2.2-3 0-4-.3-.9-.5.1-.4 2.3z"/><g fill="#333" stroke="#333" stroke-width=".1"><path d="M165 184.1c0 .6-.7.9-1.5.5-.9-.3-1.5 0-1.5.9 0 1.8-1.6 2-2.3.2-.3-.7-.6-.5-.6.5-.1 1-.4 1.7-.8 1.7-.5-.1-1.7-.1-2.7 0-1.8.1-1.8.2-.1 2.1 1 1.1 2.9 2 4.2 2 2.6 0 10.3-3.6 10.3-4.8-.1-1.2-5-4.4-5-3.1zm8.8.6c1.2.2 3.2.2 4.5 0 1.2-.2.2-.4-2.3-.4s-3.5.2-2.2.4zm-26.1 8.8c-.9 2.2.8 2.7 5.8 1.4 3.2-.8 4.2-1.4 3.3-2-2.2-1.5-8.5-1-9.1.6zm262.6 21c.2.5 1.8 1.9 3.5 3 11.8 7.5 11.3 7.3 16.8 5 3.1-1.3 3.4-1.7 2.4-3.5-.6-1.1-.9-2.4-.6-2.9.3-.4-.6-.6-2.1-.3-1.7.3-2.4.1-1.9-.6.4-.7-.5-.9-2.9-.5-1.9.3-3.5.2-3.5-.3s-2.7-.9-6-.9c-3.5 0-5.9.4-5.7 1zm-348.8 4.6c-3.8.4-7.4.4-7.9.1-.5-.3-.6 0-.3.5.9 1.4-9 5.6-11.1 4.8-.9-.3-1.3-.3-.9.1.8.8-3.3 4-4.6 3.6-2-.6.7 2 2.9 2.8 1.5.6 2.4 1.8 2.4 3 0 1.5.8 2.2 3.1 2.7 3.7.7 2.4 1.7-3.6 2.7-5.3.9-16.5 4.9-16.5 5.8v1.5c-.1.7 17.4 4.1 21.8 4.2 2 .1 2.2-.3 2.2-5.3v-5.4l9.4-8.5c5.1-4.7 10.3-8.8 11.5-9.2 1.1-.3 2.1-.9 2.1-1.3 0-1.9-4-2.7-10.5-2.1zm53.2 2.9c-2.6 1.6-4.7 3.2-4.7 3.4 0 .7 8.9-4.4 9.5-5.5.9-1.4.2-1.1-4.8 2.1zm317.3 8.2c-2.7 1.8-3.6 3.2-3.8 5.8-.5 4.4 1.7 13.7 3.5 15.1 1.4 1.2 2.9.7 19.6-7.1l8.9-4.1-5.3-4.7c-3.4-3.1-6.5-4.9-8.8-5.3-2-.3-5.2-.9-7.1-1.3-2.8-.6-4.2-.3-7 1.6zm3 11.9c0 1.2-2.7 1.1-3.5-.1-1.1-1.7.5-3.2 2.1-1.9.8.6 1.4 1.5 1.4 2z"/><path d="m30.5 235.6-4 3.6 4.3-3.2c3.6-2.7 4.9-4 4-4-.2 0-2.1 1.6-4.3 3.6zm438 4.2c-.6.5-7.2 3.7-14.9 7.1-14.5 6.5-19.3 9.1-16.5 9.1 1.5 0 7.5-2.5 28.3-11.8 3.3-1.4 5.4-2.8 4.7-3-.6-.2-.9-.8-.5-1.3.7-1.1.1-1.2-1.1-.1zM18.6 251.2c-1.9 2.7-1.7 2.8 7.6 5.2 6.6 1.8 9.4 3.6 12.4 8.1.9 1.3 3.2 2.9 5.1 3.6 4.6 1.5 5.4.3 5.1-7.1l-.3-5.5-12-2.6c-6.6-1.4-13-2.8-14.2-3.3-1.6-.5-2.5-.1-3.7 1.6zM295 262.5c-3.4 4.1-5.6 7.5-5.1 7.5.6 0 1.1-.3 1.1-.8 0-.4 1.7-2.5 3.7-4.7s4.8-5.2 6.2-6.8c1.3-1.5 2-2.7 1.4-2.7-.7 0-3.9 3.4-7.3 7.5zm35.5-1.1c-6 2.9-11.9 6.3-12.9 7.5-1.3 1.5-2.1 4.1-2.4 8l-.4 5.9 6.3.6c3.5.3 9.1.7 12.4.9l5.9.2.7-4.2c1.4-7.8 4.4-10.4 10.4-8.9 2.9.7 4.4 3.4 2.6 4.6-.9.5-.8.9.4 1.3 1.1.5 1.4.3 1-.6-.4-.6.1-.3.9.7 1.9 2.3 2 3.8.5 5.3-1.6 1.6 2.5 1 7-1l3.5-1.5-6-6.3c-3.3-3.5-8.1-9-10.8-12.2-2.6-3.1-5.5-5.7-6.4-5.7-.9 0-6.6 2.4-12.7 5.4zM73.4 284.2c-2.3 1.1-4.4 4.8-4.4 7.6.1 2.7 2.5 5.3 4.4 4.6 2-.8 5.6 3 5.6 5.8 0 1.1.5 1.6 1 1.3.6-.3 1-.1 1 .4 0 .6 1.3 1.1 2.8 1.1 8.8 0 8.1-15.4-.9-20.2-3.7-2-6.3-2.2-9.5-.6z"/><path d="M358.8 286.7c-8.6 4.3-14.6 5.5-19.7 3.7-2.2-.7-7-1.8-10.8-2.4-3.7-.5-8.3-1.3-10.2-1.6l-3.4-.5.5 9.8c.3 5.4 1.3 12.5 2.3 15.7 1 3.3 2.3 9.4 2.9 13.5l1.2 7.6h20.8l.8-3c.5-1.7.6-10.4.3-19.5l-.6-16.5 3.1-.1c4.4-.2 21.3-6.6 19.7-7.6-.9-.6-.8-.8.3-.9.8-.1 1.9-.1 2.3 0 .5.1.6-.3.2-.9-.9-1.4-2.2-1.1-9.7 2.7zM330 315.9c0 1.1-.4 2.2-.9 2.5-1.1.7-2-1.4-1.3-3.2.7-1.9 2.2-1.4 2.2.7zm79.8-30.9c-7.3 3.9-11.1 12.5-8.8 19.5 2.9 8.9 12.8 9.9 18.1 1.9 3-4.6 1.9-13.9-2.3-18.4-1.4-1.5-1.5-2-.4-2 .7 0 2.3 1.9 3.4 4.2l2.1 4.3.1-4.2c0-2.3-.3-4.8-.6-5.7-.9-2.2-7-2-11.6.4zm61.5 24c0 3.6.2 5 .4 3.2.2-1.7.2-4.7 0-6.5-.2-1.7-.4-.3-.4 3.3zm-302.1-3c-7.9 4.8-6.5 17.9 2.3 21.6 6 2.5 10 1.9 13-2 5.1-6.7 3.9-15.6-2.7-19.6-4.2-2.5-8.4-2.5-12.6 0zm114.6 5.7c-2.8 3.2-3.8 6.1-3.8 10.5l.1 4.3 1.5-2.9c.9-1.6 1.9-2.5 2.3-2 .3.5 1.5 1 2.6 1.2 3 .5 5.8 3.7 5.8 6.7 0 2.6.1 2.7 4 2.2 4.9-.7 6.7-2.8 6.7-7.9 0-4.7-2-8.9-5.6-11.7-3.5-2.7-11.4-2.9-13.6-.4zM27 347.7v7.8l11 3.3c13.6 4.2 14.5 4.1 14.3-1.8-.2-6.6-.2-6.6-1.4-5-.8 1.2-1 1.2-.8-.5.1-1.1 0-3.4-.1-5l-.2-3-.9 3c-.7 2.7-.8 2.5-.5-1.1l.4-4.1-6.1-.7c-3.3-.3-8.2-.6-10.8-.6H27v7.7zm12.2.5c1.2 1 1.4 1.9.7 3.5-.9 2.5-3.8 3-5.7 1.1-1.6-1.6-1.5-2.3.4-4.2 1.9-1.9 2.5-2 4.6-.4zM472.3 368c0 3.6.2 5 .4 3.2.2-1.7.2-4.7 0-6.5-.2-1.7-.4-.3-.4 3.3zm-154.1 10.1.3 8.4 9.5 2.7c5.2 1.5 10.7 3 12.3 3.3l2.7.7v-10.6c0-5.7-.3-10.7-.7-10.9-.5-.3-6.1-.8-12.6-1.2l-11.8-.7.3 8.3zm17.6 4.1c-.2 1.8-1 2.3-3.3 2.3s-3.1-.5-3.3-2.3c-.3-1.9.1-2.2 3.3-2.2 3.2 0 3.6.3 3.3 2.2zM41.3 412.1c.4 5 .7 12.5.7 16.4v7.3l7.6 3.1c8 3.2 18.9 5.9 19.9 4.9.8-.7-3.8-16.5-5.9-20.6-.9-1.8-2.7-3.9-4.1-4.8-1.3-.9-2.7-2.5-3.1-3.6-.9-2.8-4.9-6.3-10.8-9.4l-4.9-2.6.6 9.3zm423.7 10c-1.9 1.7-5.6 4.1-8.2 5.5-4.9 2.5-6.4 3.9-5 4.8 1.7 1 14.3-7.9 16.3-11.7 1.3-2.3 1-2.2-3.1 1.4zm-137 20.1c-.1 2.1-5.4 15.4-6.5 16.2-1.9 1.4-6.5 14.6-7.2 20.6l-.5 4.7 7.8 1.2c14.4 2.2 24.8 2.5 26.2.9.9-1.2.8-5.7-.4-21.4-.8-10.9-1.7-20.5-1.9-21.2-.3-.8-3-1.2-9-1.2-4.7 0-8.5.1-8.5.2z"/></g><path fill="#999" stroke="#999" stroke-width=".1" d="M23 242.5c-.6.8-.2 1.1 1.4 1.1 1.2 0 2.3-.5 2.3-1.1 0-.7-.6-1.2-1.4-1.2-.7 0-1.8.5-2.3 1.2zm450.3 5.5c0 3.6.2 5 .4 3.2.2-1.7.2-4.7 0-6.5-.2-1.7-.4-.3-.4 3.3zm-1 102c0 2.5.2 3.5.4 2.2.2-1.2.2-3.2 0-4.5-.2-1.2-.4-.2-.4 2.3zm1 58c0 2.5.2 3.5.4 2.2.2-1.2.2-3.2 0-4.5-.2-1.2-.4-.2-.4 2.3z"/><g stroke="#000" stroke-width=".1"><path d="M175.5 184c4.6.6 4.7.7 1.5 1-1.9.2-4.8.3-6.5.2-2.9-.1-2.9-.1-.5.7 2.3.7 2.1.9-3.5 3.8-3.3 1.7-6.7 2.8-7.5 2.6-1.1-.3-1.1-.1.1.6 2.2 1.4 9.1.1 21.8-4 11-3.5 8.9-3.6 47.1 1.1 12.9 1.6 37 4.5 53.5 6.5 42.2 5.1 96.7 12.4 97.3 13 .6.5-8.4 9.5-13.8 13.8l-3.5 2.8 3.5-1.8c1.9-1 6.4-4.7 9.9-8.2l6.5-6.3 7.1.7c4.8.4 7.5 1.2 8.5 2.4.8 1 5.7 3.3 10.8 5.2 8.4 3 9.1 3.5 7.5 4.8-3.9 3-40.5 20.1-52.7 24.7-7.1 2.6-12.5 4.9-11.9 5.1 3 1 36.9-13.1 56.9-23.7l11.2-6 2.4 2c2.6 2 5.4 9.9 4.5 12.4-.3.8.1 1.7.9 2 1 .4 1.4-.3 1.4-2.9 0-4.1 1.5-5.7 9-9.5 5.3-2.7 5.9-2.8 7.2-1.3.7 1 .8 1.4.1 1-1.3-.8-4.3.1-4.3 1.4 0 .5 1.7.9 3.8.9 4 0 6.7 1.5 12.5 7.3l3.9 3.7-7.4 3.4c-4 1.8-13.8 6.5-21.8 10.3-8 3.9-21.1 9.9-29.2 13.3-8.1 3.5-14.6 6.5-14.5 6.6.5.5 31.5-11.1 41.2-15.4 5-2.2 15.1-6.8 22.5-10.2 7.4-3.4 14.6-6.6 16-7.1 2.3-1 2.2-1.1-3.4-3.9-3.1-1.6-11.1-7-17.8-12-6.6-4.9-12.4-9-12.9-9s-.4 1.1.1 2.6c.9 2.3.7 2.6-2.5 4-4 1.6-7.1 1.8-8 .4-.4-.6-3-2.2-5.8-3.6-2.9-1.5-5.9-3.2-6.7-3.9-.8-.7-2.8-1.6-4.5-1.8-1.6-.3 1.1-.3 6-.1 11 .5 10.1-.2-2-1.5-4.9-.6-18.2-2.4-29.5-4.1-32.6-4.9-149.8-19.5-188.2-23.5-14.9-1.5-26.4-1.9-16.3-.5zm-29.4 6c-10.1 3.5-13.6 5-11.9 5 .3 0 2.5-.7 4.9-1.6 2.4-.8 6.2-1.6 8.4-1.7 2.5-.1 3.9-.6 3.8-1.4-.2-.7 1.5-1.7 3.7-2.3 2.2-.6 4-1.3 4-1.5 0-.9-1.5-.5-12.9 3.5zm6.9 5c-2 .6-2.1.8-.5.8 1.1 0 3.1-.4 4.5-.8 2-.6 2.1-.8.5-.8-1.1 0-3.1.4-4.5.8z"/><path d="M161 209c7 1.7 88.2 13.6 99.9 14.5 12.3 1 4.7-.5-24.4-4.5-15.9-2.2-37.5-5.4-48-7-21.1-3.2-33.4-4.6-27.5-3zm-75 8.5c-3.3 1.9-2.1 1.9 2.1 0 1.9-.8 2.7-1.4 1.9-1.4-.8 0-2.6.6-4 1.4zm-37.4 4c-5.5 2.5-10.2 4.8-10.5 5.2-.3.4-2.2 2.6-4.1 4.8-2.1 2.3-2.4 3.1-.9 1.7 1.4-1.2 3.1-2.2 3.8-2.2.7 0 1-.4.7-.9-1-1.5 2.6-3.8 11.9-7.6 5.8-2.4 10.6-3.8 13.5-3.8 3.6 0 4-.1 2-.7-4.4-1.4-6.3-.9-16.4 3.5zm78.4-2.3c3.6.5 21.8 3.1 40.5 5.8 18.7 2.7 49.5 7.2 68.5 10 33.9 4.9 38.8 5.5 37.8 4.5-.3-.3-8.3-1.7-17.9-3.1-9.6-1.3-35.2-5.1-56.9-8.4-50-7.4-69.5-10-74.5-9.9-3.2.1-2.8.3 2.5 1.1zm-57.6 3.6c-2.3 1.5-7.8 6-12.3 10.1l-8.1 7.4v11.3l-11.7-1.9c-15.8-2.5-16.8-2.7-15.7-3.5.5-.4 2.5-2.5 4.4-4.7 1.9-2.1-.2-.6-4.7 3.4l-8.1 7.3.4 7.7c1.3 24.8 1.5 25.8 4 28.2 1.3 1.2 2.4 3.4 2.5 4.8.1 2.5.1 2.5.7.4.7-2.2.8-2.2 8.2 2.2 4.1 2.5 8 4.5 8.6 4.5 1.5 0 2.8-3.2 6.5-15.7 1.7-5.9 3.5-12 3.9-13.4.7-2.2.5-2.6-1-2.2-2.6.7-7.6-2.3-9.6-5.7-2-3.2-8.3-6.4-15.1-7.5-5.2-.8-6.1-2-3.7-4.6 1.2-1.3 2.4-1.7 3.8-1.2 1.2.4 7.5 1.8 14.1 3.2l12 2.6.6 4.5.6 4.5.1-4.8c.2-4.6.3-4.7 3.4-4.7 5.6 0 129 13.8 171.3 19.1 17.6 2.2 44.6 5.6 59.9 7.4 15.4 1.9 28.3 3.8 28.7 4.2.4.4 1 4.2 1.2 8.3l.3 7.5.2-7.8.2-7.8 4.8.6c7.6 1.1 19.5 3.6 21.2 4.5 2.4 1.3 10.2-.6 18.5-4.5 4.1-2 8.1-3.3 8.8-2.9.6.4.9.4.5-.1-.4-.4-.3-1.4.3-2.2.9-1 .8-1.3-.3-1.3-.9 0-4.8-3.9-8.9-8.6-15.2-17.8-15-17.6-18.4-17.1-4.7.8-21.8 9.2-25.2 12.5-3 2.7-3.1 3-2.6 9.5.6 6.5.5 6.7-1.8 6.7-2.9 0-28.7-3-54.4-6.4C214 270.9 156.6 264.3 78 256c-27.4-2.9-27.1-2.9-26.8-4.8.1-.9-.1-2.2-.5-2.9-1.2-1.9 5.6-11.8 7.4-10.8.4.3 1.1 0 1.5-.6.4-.8.3-.9-.4-.5s-1.2.2-1.2-.4c0-.6 1-1.4 2.3-1.9 1.2-.5 3.2-2 4.5-3.4 1.3-1.4 4.6-4 7.3-5.8 2.7-1.9 4.9-3.7 4.9-4.2 0-1.5-3.6-.5-7.6 2.1zm280.3 38.9c2.6 3.2 6.4 7.3 8.3 9.2 1.9 1.9 4.5 4.8 5.7 6.4l2.2 3-2.6 1.4c-1.5.8-4.4 1.8-6.5 2.2-3.3.8-4.2.6-5.8-1.2-1.1-1.1-2-2.9-2-3.8 0-1.8 3.3-3.5 4.9-2.5.5.3.4-.5-.2-1.9-1.3-2.9-4.5-4-8.3-3.1-2.9.8-5.4 5.7-5.4 10.7v3.1l-7.7-.7c-4.3-.3-9.9-.8-12.5-1.1l-4.8-.6v-4.2c0-8.8 1-10 14.2-16.6 6.6-3.3 12.8-6 13.8-6 1.1 0 4 2.5 6.7 5.7z"/><path d="M104.3 227c-5.4 3.1-18.7 14.9-17.9 15.8.3.2 3.3-2.1 6.7-5.3 3.4-3.1 8.6-7.3 11.6-9.2 4.6-3.1 6-4.3 5.1-4.3-.2 0-2.6 1.4-5.5 3zm248.3 3.2c-4.4 2.2-14.1 6.5-21.5 9.5-13.1 5.3-27.5 12.2-26.8 12.9.1.2 3.4-1.2 7.3-3.1 3.9-1.8 12.9-5.7 20-8.5 14.3-5.9 27.9-12.4 28.9-14 .8-1.4 1.1-1.4-7.9 3.2zm117.8 10.7c.3.5 0 1.1-.7 1.4-4.5 1.9-33.3 14.9-33.6 15.2-.2.3 1.5 4.1 3.9 8.6 2.3 4.4 3.8 8.4 3.4 8.8-.5.4-5.5 2.7-11.1 5.2-5.6 2.4-9.7 4.5-9.2 4.7.5.2 5.3-1.7 10.6-4.1l9.8-4.5.6 3.6c.4 2 .4 5.3.2 7.4-.5 3.7-.6 3.7-11 7.8-5.7 2.3-10.6 4-10.7 3.8-.1-.1-.8-2.2-1.4-4.5-.7-2.2-2.1-5.2-3.2-6.5-1.5-1.7-1.3-1.1.6 2.7 2.1 4.1 2.5 6.1 2.2 10.9-.4 5-.3 5.6.9 4 .7-1 1.3-2.4 1.3-3.1 0-1.9 3.6-3.9 12.4-6.7 7.3-2.4 9.6-2.6 9.6-.7 0 .4-3 2-6.7 3.5-7.8 3.2-15.7 7.5-15 8.3.3.3 2.5-.7 4.9-2 2.4-1.4 7.3-3.8 11.1-5.2l6.7-2.7v-8.9l6.4-2.9c3.6-1.6 9-4.5 12-6.4l5.6-3.5.3 21.2.2 21.2.3-21.9c.1-16.8.5-22.3 1.6-23.5 1.9-2.3 1-30.7-1.1-31.5-.8-.3-1.2-.2-.9.3zm-10.1 31.2c-1.7 1.7-3.7.1-2.2-1.7.8-1 1.5-1.2 2.3-.4.7.7.7 1.3-.1 2.1zM297 258.5c-2.4 2.5-4.2 4.5-3.9 4.5.3 0 2.5-2 4.9-4.5 2.4-2.5 4.2-4.5 3.9-4.5-.3 0-2.5 2-4.9 4.5zm-6.2 7.2c-1.9 2.3-3.1 4.3-2.4 4.3.2 0 1.4-1.4 2.6-3 2.3-3.3 2.2-4-.2-1.3zM72.7 282.1c-5.3 3.2-7.5 17.3-3.5 22.4 4.4 5.7 14.1 7.3 18.3 3.1 8.5-8.5 3-25.1-8.7-26.2-2.3-.3-5.1.1-6.1.7zm9.9 2.5c6.1 2.9 9.4 11 7 16.9-1.3 3.1-1.9 3.5-5 3.5-2 0-3.6-.4-3.6-.9s-.8-.7-1.7-.5c-2.3.5-4.2-1.1-7.6-6.1-3.4-5-3.5-8.8-.2-12 2.8-2.9 6.3-3.2 11.1-.9zm324.3.7c-6.4 4.3-7.6 5.7-7.1 8.3.4 2.4.5 2.4 2.1-.8.9-1.8 3.5-4.7 5.9-6.5 5-3.8 4.2-4.5-.9-1zm-42.4 2.2c-8.3 3.6-18.5 6.7-20.1 6.1-1.4-.5-1.5 1.4-.9 16.7.5 11.8.4 18.1-.4 20l-1.1 2.9-11-.4c-10.8-.3-14.2.4-7.7 1.6 1.7.3 7.8.6 13.4.7 8.7.1 10.6-.2 13-1.9 1.5-1.1 5.7-3.5 9.2-5.3 3.5-1.9 7.2-3.8 8.2-4.4 1-.5 2-1.7 2.2-2.6.6-2.2 8.1-6 18-9 4.2-1.3 7.7-2.7 7.7-3.1 0-.5-.1-.8-.3-.8-1.2 0-17.9 6.1-20.6 7.4l-3.3 1.8.4-14.4c.2-7.9.8-15 1.3-15.7.6-1 .4-1.2-.5-.6-.7.4-1.5.3-1.9-.3-.4-.6-2.5-.1-5.6 1.3zm-5.7 29.2c-.4 2.2-2.2 2-2.6-.1-.2-1 .3-1.6 1.3-1.6s1.5.7 1.3 1.7zm-191.3-27.8c-1.6 1-3.9 2.9-5 4.2-1.8 2.2-1.7 2.1 1-.2 1.7-1.5 4.4-3.4 6-4.2 1.7-.9 2.6-1.6 2-1.7-.5 0-2.3.8-4 1.9z"/><path d="M458 294.7c-4.6 2.4-9.2 4.2-10.2 4-1.5-.4-1.6.3-1.2 6.7.3 3.9.7 7.9.9 8.8.2 1.3-1.3 2.5-5.9 4.6-14.9 7.1-15.2 7.2-12.3 6.7 1.6-.3 6.4-2.3 10.7-4.5 6.8-3.3 8-3.6 8.4-2.2.5 1.9-.3-13.2-.9-16.3-.3-1.7.7-2.4 6.1-4.5 6.9-2.6 16.9-8.1 14.4-7.8-.8 0-5.3 2.1-10 4.5zm-174.7 13.9c-4.1 1.8-5.3 4.1-5.3 10.2 0 6.4 2.6 13.7 5.7 16.2 2.7 2.1 10 3.5 13.6 2.6 1.5-.3 3.4-2.4 5.1-5.7 2.4-4.2 2.8-6 2.4-10.1-1.1-11.1-11.6-17.6-21.5-13.2zm15.8 5.3c3.5 3.5 3.9 4.4 3.9 9 0 3.8-.5 5.6-2 7.1-4.3 4.3-12.6 1.5-15.9-5.4l-2-3.9-1.5 3.4-1.6 3.4.3-6.2c.4-8.5 2.9-11.3 10-11.3 4.4 0 5.4.4 8.8 3.9zM76 334v18l-2.7.1-2.8.1 3 .7c3 .6 3 .6 3.7 9.6 2.5 31.3 6.2 55.2 8.7 55.9 3.3 1 17.3 2.7 17.7 2.3.3-.3.1-3.1-.5-6.3l-1-5.9.4 5.2c.5 6.1.6 6.1-10.5 4l-6.5-1.2-1.2-5.5c-2.5-11.5-6.5-52.9-7-73.2-.5-19.6-.5-20.6 1.3-21.1 1.6-.4 1.5-.5-.3-.6L76 316v18zm8.3-16.3c1.5.2 3.7.2 5 0 1.2-.2 0-.4-2.8-.4-2.7 0-3.8.2-2.2.4zm10.8 17c.8 20.4 3.7 54.8 5.5 65.8.7 4.4 1.1 5.7.9 3-3.5-41.9-3.7-45.7-2.4-46.6 1.1-.7 1-.9-.3-.9-1.6 0-1.8-1.1-1.8-9.3 0-11.8-1.1-28.7-1.9-28.7-.3 0-.3 7.5 0 16.7zm367.3-12.8c-10 4.8-11.2 6.2-11.6 13.1l-.3 5.5-10.5 5.2c-5.8 2.8-10.9 5.3-11.5 5.6-.5.2-.8.7-.5.9.4.5 22.6-9.6 24-10.9.3-.3.8-3.2 1.1-6.6.6-5.8.6-5.6.7 3 .1 5.1.5 9.3.8 9.3.3 0 4.3-1.9 9-4.2l8.5-4.3-.2-9.8c-.2-5.4-.6-10-.9-10.2-.4-.3-4.3 1.3-8.6 3.4zm.8 9.3c-1.5 1.5-2.6.4-1.8-1.8.5-1.3.9-1.5 1.8-.6s.9 1.5 0 2.4zM23.3 324c0 2.5.2 3.5.4 2.2.2-1.2.2-3.2 0-4.5-.2-1.2-.4-.2-.4 2.3z"/><path d="M380.5 325c-6.6 2.7-12.1 5-12.2 5 0 0 0-1.3.1-2.9.1-1.7-.2-2.8-.6-2.5-.4.3-.8 2.9-.8 5.9v5.3l-13 5.2c-7.2 2.9-12.9 5.5-12.6 5.7.5.5 21.6-7.6 23.1-8.8.5-.5 1.3-.9 1.7-.9.9 0 1.1 17.8.2 23.2-.6 3.2-1 3.7-4.2 4.3-2 .4-7.2 1.8-11.4 3.1l-7.8 2.5v23.1l-3.7-.6c-3.7-.5-3.7-.5-.8.6 1.7.6 3.5 1.5 4.1 2 .8.6 5.5-1.3 13.5-5.2 6.7-3.3 12.3-5.9 12.5-5.7.1.1.5 13.2.9 29.2l.7 29-12.1-.3c-11.2-.3-12.1-.2-12.1 1.5 0 1 .7 10.5 1.5 21.2 1.2 14.6 1.3 19.7.4 20.7-1.5 1.8-8.3 1.8-21.9-.1-5.8-.8-10.8-1.5-11.2-1.5-2.1-.1.4-12.7 4.2-21.5 1.1-2.5 1.5-4.5 1.1-4.5-1.2 0-5.7 12.4-6.6 18-1.2 8.1-.6 7.7-9.8 6.8-37.8-3.6-114.6-16-201.7-32.4-16.2-3-32-5.9-35-6.4-6.6-1.1-9.3-1.9-18.2-5.5l-6.8-2.7v-6.3c0-3.4-.3-11-.7-16.8-.6-10.7-.6-10.7-3.2-10.7-5.4 0-7.1-1.1-7.2-4.4 0-1.7-.3-2.6-.6-1.9-.6 1.6 3.5 35 4.8 38.3 2.2 5.8 23.5 15.8 31.1 14.6 2.3-.4 10.9.7 23 3 83 15.4 135 24.3 165.8 28.4 12.4 1.6 29.2 3.8 37.4 5 8.2 1.1 16.4 2 18.3 2 1.8 0 4.4.6 5.6 1.4 1.2.8 8 2.4 15.1 3.5l12.8 2.2 10.2-3.9c5.5-2.2 10.6-4.1 11.1-4.3.6-.2 3.8-2.1 7-4.2 18.6-12 70.7-44.2 74.7-46.3 2.7-1.3 4.7-3 4.5-3.6-.1-.7 2.2-2.5 5-4.1 2.9-1.5 7.6-5 10.5-7.6l5.2-4.8.3-12.4c.2-6.8 0-23.4-.5-36.9l-.9-24.5-.1 23-.2 23-6.1 2.4c-3.4 1.3-7.6 3.7-9.5 5.3l-3.4 3-.1-27.3c-.1-17.5-.5-25.2-.9-21.4-.5 3.3-.6 21.7-.3 41l.5 35-2.4 3.3c-1.6 2.3-11.5 9.1-31.3 21.4-31.6 19.7-41.6 25.8-42.6 25.8-.3 0-.9-6-1.2-13.3-.3-7.3-1.1-14.5-1.6-16.1-.6-1.5-1.1-10.3-1.1-19.9v-17.2l10.8-5.3c11.7-5.8 38.2-20.2 38.2-20.7 0-1.1-4.8.8-9.8 3.8-6.6 4-38.6 20.7-39.5 20.7-.4 0-.7-5.3-.7-11.8v-11.7l10.8-4.7c5.9-2.6 12.4-5.4 14.4-6.3 2.3-.9 3.5-2 3.2-2.8-.3-.9-4.6.8-14.9 6-16 8.1-15.4 8.2-13.9-.9.6-3.5 1.1-3.9 7.8-6.7 3.9-1.6 9.9-3.8 13.3-4.8 3.5-1 6.3-2.2 6.3-2.7 0-1.5-5.9.2-16.8 4.9-5.8 2.5-10.7 4.3-11 4.1-1.1-1.2-1.4-10.6-.7-24.1l.7-14.6 4.1-2c2.2-1.2 8.1-3.7 13.1-5.6 10-3.8 10.9-4.3 8-4.3-1 .1-7.3 2.3-13.9 5zm-21.2 50.7c.9.9-1.3 3.4-2.4 2.7-1.4-.8-1.1-3.4.4-3.4.8 0 1.7.3 2 .7zM24.8 343.5c.3 7.1 1 13.7 1.6 14.5.6.8 2.8 1.6 4.9 1.8 2.1.2 7.6 1.4 12.2 2.6 6.1 1.6 8.5 1.9 8.5 1.1 0-.7-1.7-1.5-3.7-1.8-2.1-.4-7.7-1.9-12.5-3.4l-8.8-2.8V340l6.3-.2 6.2-.2-7-.5-7-.6-.6-4c-.4-2.2-.4 1.8-.1 9zm19.6-2.8c4.3.5 6.8 2.8 6.2 5.6-.2.9 0 1.5.5 1.1 1.2-.7 1.1-4.4-.1-4.4-.5 0-1-.5-1-1.1 0-.5.5-.7 1-.4.6.3 1 .1 1-.4 0-.7-2.3-1-5.7-.9-4.7.1-5 .2-1.9.5z"/><path d="M284.1 345.6c0 1.1.3 1.4.5.8.3-.8 3.1-.7 9.7.2 5 .7 9.3 1.1 9.5.9.6-.5-3-1.3-9.3-2-3.3-.4-7-.9-8.2-1.2-1.8-.4-2.3-.1-2.2 1.3zM53 352.5c0 1.9.2 3.5.4 3.5s.6-1.6.8-3.5c.2-1.9 0-3.5-.4-3.5s-.8 1.6-.8 3.5zM303.1 383c.1 19 .6 41.4 1.1 49.8.5 8.5.7 15.6.5 15.9-1 .9-14.9-1-16.2-2.3-.8-.8-1.6-5.1-2-11.1-1.2-16.4-2.2-25.1-2.5-21.3-.3 4-.3 4.8 1.4 21.1l1.2 12-3.1-.5c-10.3-1.8-68.1-9.6-69.4-9.4-.9.2 12.8 2.5 30.4 5.2 32.7 5 53.7 8.2 58.9 9.1l2.9.5-.7-14.6-.6-14.5 5.7.5 5.8.5-5.6-1-5.6-1.1-.6-17.6c-.4-9.8-.7-26-.7-36.2-.1-10.1-.3-18.7-.6-18.9-.3-.3-.4 15-.3 33.9z"/><path d="M283 366.6v12.7l-6.2-.6c-20.2-2-23.4-1.6-4.8.6l10.5 1.2.5 15c.5 12.4.6 10.1.8-13.3.1-15.5 0-28.2-.3-28.2s-.5 5.7-.5 12.6zm-115.1-7.1c-1.5 3.3-1.9 6.2-1.7 10.7.3 6 .5 6.4 4.1 8.7 3.7 2.4 3.7 2.4 3.7 9.5.1 10.3 2.5 27.5 4 28.9 1 .9 1.1.9.6-.1-.4-.6-1.2-8.1-1.7-16.5-1.2-19.1-1.9-22.2-4.4-22.2-1.5 0-2.3-1.1-3.2-5-1-4-1.2-4.2-.8-1.2.2 2.5 0 3.5-.7 3.1-1.4-.9-.2-12.5 1.7-17 2.1-5.1.7-4.1-1.6 1.1zm27.5-2.2c2.1 3.2 3.5 9.3 3.8 16.4.1 3.4.7 5.9 1.1 5.6 1.3-.8-.3-17.3-1.9-20.4-.7-1.5-2-2.9-2.9-3.2-1.3-.6-1.3-.4-.1 1.6zm-86.3 1.1c.7.7 48.8 6.8 50.7 6.4 1.4-.3-47.5-6.9-50.2-6.8-.5 0-.7.2-.5.4zm-81.8 7.1c0 2.7.2 3.8.4 2.2.2-1.5.2-3.7 0-5-.2-1.2-.4 0-.4 2.8zm403.1 2.2c-1.8.3-2.3 1.4-2.8 5.6-.5 3.2-1.6 6.1-2.8 7.4-1.2 1.3-1.7 2.3-1.1 2.3 2 0 4.5-4 5-8.2.3-2.7 1.3-4.9 2.7-6 1.1-1 1.9-1.7 1.6-1.6-.3 0-1.5.3-2.6.5z"/><path d="M172.1 369.4c-1.1 1.3-1.1 2.4-.3 4.9.8 2.6 1 2.8 1.1.9.1-2.2.3-2.3 9.9-2l9.7.3.3 2.7.3 2.8h-14.4l.7 5.7c.3 3.2.9 11.5 1.3 18.5.3 7.1.9 12.8 1.2 12.8.3 0 .4-4.3.1-9.5-.4-7.2-.2-9.5.8-9.5.6 0 1.2.5 1.2 1.1 0 .8.5.7 1.6-.2 1.3-1 1.7-1 2.4.1 2.9 4.6 1.6 16.4-1.8 17.3-.9.3 0 .5 2.1.6 2.5.1 3.6-.3 3.1-1-.3-.6-.6-5.3-.6-10.5l.1-9.4H181v-7c0-6.8.1-7 2.5-7 2.3 0 2.5.4 2.6 4.2l.2 4.3 1-3.8c1.4-4.9 2.7-4.7 2.7.3v4l-4.2.1c-3.7.1-3.9.2-1.8.9 1.4.4 3.5.8 4.8.9 2.1.1 2.2-.3 2.2-6.1 0-3.4.3-5.8.8-5.4 1.2 1.3 1.1 36-.2 36.8-.6.4-3 .8-5.3.8H182v4.5c0 5.7 2.4 6.2 3.7.7.8-3.2 1.3-3.7 4.1-4 3.1-.3 3.2-.2 2.2 2.3-.9 2.3-.8 2.5.9 1.6 2.1-1.1 3.1-5.6 2.5-11.3-.3-3.6-.2-3.7 2.4-3.3 1.5.2 7.4.6 13.2.9 5.8.3 20.2 1.9 32 3.5 22.9 3.1 34.1 4.4 32.5 3.6-1.4-.7-59.3-8.3-69.3-9.1-7.9-.7-8.3-.8-7.7-2.8 1.4-5 1.5-12.7.1-20.1l-1.4-8 .1 14.2c.2 12.4-.3 16.7-1.7 15.2-.2-.2-.7-7.2-1-15.4-.3-8.3-1-16.6-1.4-18.5l-.8-3.4-9.5-.4c-7.8-.3-9.7-.1-10.8 1.2zm147.7.3c1.2.2 3.2.2 4.5 0 1.2-.2.2-.4-2.3-.4s-3.5.2-2.2.4zm11 1c1.2.2 3.2.2 4.5 0 1.2-.2.2-.4-2.3-.4s-3.5.2-2.2.4zm-121.5 1c1.5.2 3.7.2 5 0 1.2-.2 0-.4-2.8-.4-2.7 0-3.8.2-2.2.4zm23.7 2.8c4.7.7 12.1 1.5 16.5 1.8 5.9.4 4.4.1-5.5-1.3-7.4-1-14.8-1.8-16.5-1.8-1.6 0 .8.6 5.5 1.3zm166.4 6.5c.1 2 .6 2.5 2.5 2.5 1.3 0 2.6-.7 2.9-1.5.4-1.2.2-1.3-.9-.3-2 2-3.7 1.5-4.2-1-.3-1.9-.4-1.9-.3.3zm-370.1 6c0 2.5.2 3.5.4 2.2.2-1.2.2-3.2 0-4.5-.2-1.2-.4-.2-.4 2.3zm287.7-1c0 1.2 4.1 2.9 8.5 3.6 2.5.4 2.3.2-1-1.1-2.2-.8-4.8-1.9-5.7-2.5-1.3-.7-1.8-.7-1.8 0zm-210.5 9c6.9 1.1 12.6 1 6.5-.1-2.5-.4-6.1-.7-8-.7-2.9.1-2.6.2 1.5.8zm12 1.5c.6.3 9.6 1.6 20 3 10.5 1.4 20.4 2.8 22 3.1 1.7.4 2.7.3 2.4 0-.8-.8-7.2-1.9-27.4-4.6-14.3-1.9-19.2-2.3-17-1.5z"/></g><g fill="#300" stroke="#300" stroke-width=".1"><path d="M180.5 189c-12.3 4.1-19.1 5.3-21.8 3.8-2-1-2.1-.9-.9.5 1.2 1.4.8 1.6-3.5 2.3-2.6.3-5.2 1-5.8 1.4-.5.3-4.7 1.5-9.2 2.5-4.6 1-8.3 2.2-8.3 2.7s-.4.7-.9.3c-.6-.3-7.4 1.7-15.3 4.4-21.5 7.4-24.9 8.7-24 9.6.4.4-.3.5-1.6.2s-2-.1-1.6.5c.4.6-.1.8-1.2.4-1.1-.3-2.6-.1-3.4.4-1 .6-.1.8 2.9.5 3.8-.3 4.2-.2 3 1-.8.7-4.1 2.8-7.4 4.5-6.1 3.3-19.5 13.6-19.5 15 0 .5 3 1.3 6.8 1.9 7.7 1.3 67.9 9.8 70.2 10 .8 0 13.6 1.9 28.5 4 14.8 2.2 27.2 3.8 27.6 3.5.4-.2 2 .1 3.5.6 1.6.5 21.1 3.2 43.4 6 22.3 2.7 42 5.2 43.8 5.6 2.3.3 3.2.2 2.7-.5-.3-.6.7-2.5 2.4-4.1 1.6-1.7 2.7-3 2.3-3-.3 0 1.4-2 3.8-4.5 6.7-6.8 8.1-5.4 1.7 1.7-3.1 3.5-6.1 6.2-6.7 6-.6-.1-.9.2-.5.8.4.6.1 1.8-.6 2.6s-.8 1.4-.3 1.3c.5-.1 2 0 3.4.4 1.4.3 6.2.8 10.6 1.2 8.1.5 8.2.5 8.8-1.9.3-1.4 2.6-3.9 5.1-5.6 5.4-3.7 21.4-11 24.2-11 2 0 6.2 4.1 12.7 12.2l3.7 4.8 2.2-2c1.2-1.2 4.6-3.2 7.7-4.7 3-1.4 10.6-5 16.7-7.9 6.2-3 11.4-5.3 11.5-5.3.2.1 2.3-.9 4.8-2.2 2.5-1.2 4.8-2.2 5.3-2.1.4.1.7-.3.7-.9 0-.5.4-.8.9-.5.5.4 1.1.1 1.3-.4.2-.6 1.3-1.2 2.6-1.3 1.2 0 2.2-.5 2.2-.9s.3-.7.8-.6c2.1.5 9.2-2.7 9.8-4.5.9-3-1.6-10.6-4.4-12.7l-2.4-2-11.2 6c-20 10.6-53.9 24.7-56.9 23.7-.6-.2 4.8-2.5 11.9-5.1 12.2-4.6 48.8-21.7 52.7-24.7 1.6-1.3.9-1.8-7.5-4.8-5.1-1.9-10-4.2-10.8-5.2-1-1.2-3.7-2-8.5-2.4l-7.1-.7-6.5 6.3c-3.5 3.5-8 7.2-9.9 8.2l-3.5 1.8 3.5-2.8c5.4-4.3 14.4-13.3 13.8-13.8-.6-.6-55.1-7.9-97.3-13-16.5-2-40.6-4.9-53.5-6.5-36.8-4.6-37-4.6-47.5-1zm8 23c10.5 1.6 32.1 4.8 48 7 29.1 4 36.7 5.5 24.4 4.5-11.7-.9-92.9-12.8-99.9-14.5-5.9-1.6 6.4-.2 27.5 3zm-44.5 8.1c8.5 1.1 33.3 4.7 55 7.9 21.7 3.3 47.3 7.1 56.9 8.4 15.8 2.3 21.7 3.6 16.5 3.6-1.8 0-33-4.5-96.9-13.9-14.8-2.2-32.9-4.7-40-5.6l-13-1.7-6.2 3.6c-3.4 2-6.7 3.6-7.3 3.6-1.8 0-9.4 5.5-16 11.7-3.3 3.1-6.3 5.3-6.6 5.1-1.4-1.5 18.6-17.5 22.8-18.2.7-.1 2.4-.9 3.8-1.8 8.7-5.6 9.4-5.6 31-2.7zm216.5 6.9c-1 1.6-14.6 8.1-28.9 14-7.1 2.8-16.1 6.7-20 8.5-3.9 1.9-7.2 3.3-7.3 3.1-.7-.7 13.7-7.6 26.8-12.9 7.4-3 17.1-7.3 21.5-9.5 9-4.6 8.7-4.6 7.9-3.2zm42.5-13.6c0 .2 1.5.6 3.4.8 1.9.2 3.2 0 3-.4-.5-.8-6.4-1.2-6.4-.4zm36.1 12.5c-2.9 1.5-3.1 1.9-1.5 2.3 1.1.3 2.6-.1 3.3-.9.7-.8 2-1.2 2.8-.8 1.3.4 1.4.3.3-1-.7-.8-1.3-1.5-1.4-1.5 0 .1-1.6.9-3.5 1.9zM65 230.5c-1.9 1.9-3.9 3.5-4.4 3.5-2.2 0-11.1 12.4-10.1 14.1 1.1 1.6 2.5 1 2.5-1.1 0-1.1.5-2 1.1-2 .5 0 .8-.4.5-.9-.3-.5.1-1.2 1-1.5.8-.3 1.3-1 .9-1.5-.3-.6.3-1.4 1.2-2 1-.6 1.4-1.1 1-1.1-.4 0 1.8-2.5 5-5.5s5.6-5.4 5.2-5.5c-.3 0-2 1.6-3.9 3.5zm365 29.6c-2.4 1.1-4.7 2.5-5.1 3.1-.4.6-1.2.7-1.8.4-.6-.4-1.1-.2-1.1.4 0 .6-.4.8-1 .5-.5-.3-1-.1-1 .5s-.4.9-.9.6c-.5-.4-1.1-.1-1.3.4-.2.6-1.3 1.2-2.6 1.3-1.2 0-2.2.5-2.2 1 0 .4-.4.5-1 .2-.5-.3-1-.1-1 .6s-.3 1-.6.6c-.4-.3-1.3.1-2.1.9-.9.8-2.2 1.3-3 1-.9-.4-1.1-.2-.7.6.5.8.2.9-.9.5-1-.3-1.7-.2-1.7.4 0 .6-.4.7-1 .4-.5-.3-1-.1-1 .5s-.4.9-.9.6c-.5-.3-1.4.1-2.1 1-.7.8-1.9 1.3-2.7 1-.7-.3-1.3-.1-1.3.5s-.4.7-1 .4c-.5-.3-1-.1-1 .6s-.3.9-.6.6c-.6-.6-1.7-.2-9 3.6-1.7.9-3.4 1.4-3.8 1-.3-.3-.6-.1-.6.6s-.4.9-1 .6c-.5-.3-1.7.3-2.7 1.4-1.4 1.7-1.8 4.7-2.1 16.6l-.4 14.6 3.9-1.9c2.1-1.1 7.5-3.1 12.1-4.6l8.2-2.8v-6c0-5.9.2-6.2 4.4-10.3 5.7-5.6 9.2-7.9 10.7-6.9.7.4.9.3.6-.3-.4-.6.8-1 2.9-1.1 1.9-.1 3.9-.4 4.4-.7.5-.3 1.8 0 2.9.6 1.6 1.1 3.4.6 11.7-3.1 5.5-2.4 10.3-4.7 10.8-5.1.8-.7-7.1-17-8.3-16.8-.3 0-2.6.9-5.1 2zm36 17.6c-1.9 1.3-7.2 4.2-11.7 6.4l-8.3 4v8.7l-5.7 2.2c-3.2 1.3-8.3 3.6-11.4 5.3l-5.6 3 .5 8.6c.2 4.7.9 9.2 1.6 10 .8 1.2.8 1.3-.1.7-.7-.4-1.3-.2-1.3.3 0 .6.6 1.1 1.3 1.1.8 0 .7.4-.3 1-1.2.8-1.2 1-.1 1 1 0 1.2.9.8 3.4-.3 1.9-.3 3.6-.1 3.9.3.3.7 3.3.9 6.7.2 3.4.6 6.4.9 6.7.6.6 17-6.6 21.4-9.3 1.8-1.2 2.2-2.3 2.2-6.7 0-6.5 1.4-8.1 11.8-13.1l7.4-3.5-.2-21.2c0-11.7-.2-21.4-.3-21.5-.1-.1-1.8.9-3.7 2.3zm-1.2 15.1c-2.6 1.5-7.6 3.9-11.2 5.2-5.4 2.1-6.4 2.8-6.1 4.5.6 3.1 1.4 18.2.9 16.3-.4-1.4-1.6-1.1-8.4 2.2-4.3 2.2-9.1 4.2-10.7 4.5-2.9.5-2.6.4 12.3-6.7 4.6-2.1 6.1-3.3 5.9-4.6-.2-.9-.6-4.9-.9-8.8-.4-6.4-.3-7.1 1.2-6.7 1 .2 5.6-1.6 10.2-4 9.5-4.9 14.1-6.2 6.8-1.9z"/><path d="M434 280.6c-5.2 2.4-10.1 4.4-10.8 4.4-.9 0-1.2 1.9-1 7 .1 3.8.4 7 .6 7 .3 0 5.1-1.8 10.7-4.1 10.2-4 10.3-4 10.8-7.7.2-2.1.2-5.4-.2-7.4l-.6-3.6-9.5 4.4zm-232.6 8.1c.4.6.1 1.3-.5 1.5-.8.3-.8 5.7 0 19.3.9 17.2 1.6 40 1.2 43.3-.1 1-.7 1-2.8-.1-1.6-.8-3.4-1.2-4-1-.7.3-1.3-.1-1.3-.7 0-.7-.6-1-1.4-.7-.7.3-1.9 0-2.6-.6-1-1-1-.7-.1 1 .6 1.3 1.9 2.3 2.7 2.3.8 0 1.2.4.9 1-.3.5-.1 1 .5 1s.9.4.5.9c-.3.5 0 1.3.6 1.7.8.4.9.3.5-.4s-.3-1.2.3-1.2c2 0 3.9 5.6 4.6 13.6.6 6.8.4 8.6-1 10.7-.9 1.5-1.2 2.8-.6 3.1 1 .7.8 17.8-.4 21.2-.6 2-.2 2.1 8.1 2.8 4.8.4 9 .4 9.4-.1.7-.8-.3-18.8-1.5-29.1-.6-4.8-.5-5.2 1.4-5.2 1.1 0 2.2-.4 2.5-.9.4-.5-1.9-.8-5.1-.6-3.2.1-4.4.1-2.6-.2l3.2-.4-.6-7.2c-.3-4-1.1-12.3-1.7-18.6l-1.2-11.4 6.5.6c4.1.3 5.8.2 4.6-.3-1.1-.5-4.1-.9-6.7-.9-4.5-.1-4.7-.2-5.2-3.4-1.2-7.6-2.6-23-2.6-28.6 0-5.9-1.5-11.9-2.7-10.8-.3.4-1.2-.1-2-1.1-.8-.9-1.2-1.2-.9-.5zm235.6 6.2c-10.7 3.5-12.8 4.7-14.5 8.7-.8 2-1.8 3.4-2.1 3.1-.4-.4-1.5.5-2.6 1.8-1 1.4-3.7 2.9-5.9 3.5-4 1.1-4.7 3.2-.7 2.5 2.4-.5 9.5-5.2 10.6-7 .9-1.6 10.1-6.6 17.5-9.6 3.1-1.2 5.6-2.7 5.4-3.3-.5-1.6-1.9-1.5-7.7.3zm-407.9 6.3c3.1 3.2 6.3 5.8 7 5.8.8 0 .2-.7-1.1-1.6-1.4-1-4.5-3.5-7-5.8-3-2.7-2.6-2.1 1.1 1.6zM159 298c-1.8 4.2-.9 4.5 1.1.4.9-1.9 1.3-3.4.9-3.4s-1.3 1.4-2 3zm225 14.9c-9.8 3.5-14.1 5.9-14.7 8-.2.9-1.2 2.1-2.2 2.6-1 .6-4.7 2.5-8.2 4.4-3.5 1.8-7.6 4.2-9.1 5.3-1.5 1.1-3.6 2-4.6 2.1-1.4.1-1.8 1.1-2 4.9-.1 2.6 0 4.8.3 4.8s5.7-2.1 12-4.6l11.5-4.6v-5.3c0-3 .4-5.6.8-5.9.4-.3.7.9.6 2.5-.1 2 .2 2.9.9 2.5 9.5-4 24-9.6 25.2-9.6 1 0 1.4-.7 1.1-2.3-.3-1.2-.5-3.4-.5-5-.1-3.4-1.1-3.3-11.1.2zM193.3 316c0 2.5.2 3.5.4 2.2.2-1.2.2-3.2 0-4.5-.2-1.2-.4-.2-.4 2.3zm-117.9.3c-.2.7-.3 6.2-.2 12.3l.3 10.9.5-12.3c.3-6.7.4-12.2.2-12.2-.1 0-.5.6-.8 1.3zm3.2.4c-1.8.5-1.8 1.5-1.3 21.1.5 20.2 4.5 61.6 7 73.2l1.2 5.5 8.3 1.4c4.5.8 8.4 1.2 8.6 1 .3-.2.7-1.8 1-3.4.5-2.5.5-2.7-.4-1-.8 1.5-.9.5-.6-4 .4-4.3.2-5.4-.5-4-.7 1.4-.8.3-.5-4 .3-3.4.1-4.9-.3-3.5-.6 2-.9 1.3-1.4-3.5-3-26.5-5.9-77.5-4.5-77.5.4 0 .9 3 1.1 6.7l.3 6.8.2-6.7c.2-5.4.5-6.8 2-7.2.9-.3-2.6-.3-7.8-.1-6.3.3-8.8.2-7.5-.4 1.8-.9 1.8-1-.5-.9-1.4 0-3.3.2-4.4.5zm30.9 2.3c1.1.5 2.9.9 4 .9h2l-2-.9c-1.1-.5-2.9-.9-4-.9h-2l2 .9zm9.1.9c.5.5 4.1 1.1 7.9 1.4 7.7.6 5.2-.6-3.4-1.6-3-.4-5-.3-4.5.2zm293.4.4c-4 3.1-5.2 11.7-2.5 18 .8 2 1.5 5 1.5 6.7 0 2.8.2 3 3.8 2.9 3.6-.1 3.6-.2.7-.8-2.4-.5-3.1-1.3-3.6-4.1-.3-1.9-1-4.4-1.4-5.4-.6-1.4-.5-1.7.3-1.2s1 .2.6-.8c-.3-.9-1.1-1.6-1.6-1.6s-.7-1.6-.4-3.8c.3-2 .5-4.3.6-5 0-.6.9-2.1 2.1-3.3 2.3-2.3 2.2-3.4-.1-1.6zm4.7.5c1.2 1 3.1 3.4 4.2 5.3 1.2 1.9 2.1 2.9 2.1 2.4 0-2-3.9-7.4-6.2-8.5l-2.3-1.1 2.2 1.9z"/><path d="M385.9 324.4c-4.7 1.9-10.4 4.3-12.7 5.5l-4 2-.7 14.6c-.7 13.5-.4 22.9.7 24.1.3.2 5.4-1.7 11.4-4.3 6-2.5 12.4-4.7 14.2-4.7 2.8-.1 3.2-.4 2.8-2.1-.3-1.1-.8-10.2-1.2-20.3-.4-10-1-18.2-1.3-18.2-.3.1-4.5 1.6-9.2 3.4zM143 323.1c2.5.4 6.1.7 8 .7 3.2 0 3.2-.1-1-.9-2.5-.4-6.1-.7-8-.7-3.2 0-3.2.1 1 .9zM453.2 334c-.1 3-.6 6-1 6.6-.4.6-5.9 3.6-12.3 6.7l-11.6 5.5-.2 7.7-.2 7.8 2.7-.6c2.7-.5 2.7-.5.7 1.2-1.3 1-2.3 3.2-2.6 5.9-.3 2.4-1.3 5.2-2.3 6.3-2 2.2-4.2 2.6-2.4.4 1.1-1.3 1-1.4-.6-.9-1 .4-2.6 1.5-3.4 2.4-1.6 1.9-25.2 14.9-39.8 22l-9.2 4.4v17.2c0 9.5.4 18.4 1 19.8l.9 2.5 14.3-7.1c15.3-7.5 44-22.7 44.8-23.7.3-.3 1.2-.7 2-.9.8-.2 1.8-1 2.3-1.7.4-.7 2.4-1.9 4.5-2.6 2-.6 3.9-1.5 4.2-1.9.6-.9 5-2.3 5-1.6 0 1.4-33.4 19.7-63.1 34.6l-13.7 6.9.5 12.3c.3 6.8.7 12.5.9 12.7.5.5 9.6-4.9 42.9-25.6 19.7-12.4 29.7-19.2 31.3-21.5l2.4-3.3-.5-35c-.3-19.3-.2-37.7.3-41 .4-3.8.8 3.9.9 21.4l.1 27.3 3.4-3c1.9-1.6 6.1-4 9.5-5.3l6-2.4.3-23.5c.2-12.9.2-23.8 0-24.2-.1-.4-3.8 1.1-8.1 3.2-4.4 2.2-8.2 4-8.5 4-.3 0-.7-4.2-.9-9.3-.2-5.4-.4-7-.5-3.7zm-197.7 4c1.9.8 10.3 1.4 9.4.6-.2-.2-2.9-.6-5.9-.9-3.4-.3-4.7-.2-3.5.3zm109-.1c-.6.5-4.7 2.2-9.1 3.9-14.6 5.6-13.1 3.6-13 17.1l.1 11.7 6-2.2c3.3-1.2 8.5-2.7 11.6-3.4 5.4-1.2 5.7-1.4 6.3-4.9.9-5.3.7-23.1-.2-23.1-.4 0-1.2.4-1.7.9zm38.2 4.6c.3 3.3.7 6.2.9 6.4.8.9.2-8.5-.6-10.4-.5-1.2-.6.4-.3 4zm19-4.2c-.3.7.1 2.4.9 3.8 1.3 2.3 1.3 2.3.7-1.1-.7-4.2-.9-4.5-1.6-2.7zm-146.2 2.2c11 1.4 17.4 1.7 11 .5-2.2-.5-7.8-1.1-12.5-1.3l-8.5-.6 10 1.4zm20.8 2.2c2.6.2 6.8.2 9.5 0 2.6-.2.4-.3-4.8-.3s-7.4.1-4.7.3zm-12.8 36.6c0 29.4-.3 36.7-1.4 38-.7 1-.9 1.7-.3 1.7 1.2 0 2.2-2.3 2.3-5.8.2-3.2 1.4 8.2 2.4 22.1.4 6 1.2 10.3 2 11.1 1.3 1.3 15.2 3.2 16.2 2.3.2-.3 0-7.4-.5-15.9-.5-8.4-.9-30.8-.8-49.8 0-19 .2-26.9.3-17.5.3 14.5.6 17.2 2 18.2 2 1.5 4.7 1.7 3.8.3-.3-.6-1.5-1-2.6-1-1.8 0-1.9-.9-1.9-18.5 0-17-.1-18.5-1.7-18.5-1.6 0-1.6.2-.3 1.1 1.1.7.6.8-2 .4-11.3-1.8-16-2.1-16.5-1.1-.3.6-.3.1-.1-1.2.2-1.2.1-2.2-.2-2.2-.4 0-.7 16.4-.7 36.3zM50.1 345c0 1.8 2.7 7.9 2.8 6.4.1-.7-.6-2.7-1.4-4.5-.8-1.9-1.4-2.7-1.4-1.9zm107.9.9c0 .6.4 1.1.9 1.1s1.2 1 1.6 2.2c1.9 5.6 2.3 6.3 2.4 4.7.1-.9.8-2 1.7-2.3.8-.3 1.3-1 .9-1.5-.3-.6.3-1.5 1.2-2.1 1.7-1.1 1.7-1.1-.1-.6-1 .4-2.5.1-3.3-.5-.7-.7-1.6-.9-2-.6-.3.4-1.2.2-2-.4-.9-.9-1.3-.8-1.3 0zm-60.7 6.6c0 2.2.2 3 .4 1.7.2-1.2.2-3 0-4-.3-.9-.5.1-.4 2.3zm306.8 2c.1 4 .1 4 1 1 .5-1.8.5-3.3-.1-3.9-.7-.7-1 .4-.9 2.9z"/><path d="M409.5 353.6c-1.4.5-.6 8.7.9 9.6.7.5.5.8-.6.8-1.4 0-1.8-.8-1.8-3.8 0-2-.5-4.4-1-5.2-.7-1.1-1-.3-1 3 0 2.9-.3 4-.9 3.2-1.3-2.2-2.3 3.3-2.2 11.8.1 4.5.7 7.7 1.4 8.2 1.7 1-.6 3.1-2.9 2.6-1.9-.3-2-.9-2.3-9.3-.1-1.7-.5-2.6-.9-2-.4.5-1.2 1-1.9 1-.6 0-6.8 2.5-13.7 5.5l-12.6 5.5v11.7c0 6.5.3 11.8.6 11.8 1 0 34.9-17.8 41.3-21.6 3-1.8 5.9-3 6.4-2.7.5.3.4-.4-.2-1.6-.7-1.1-1.6-2.1-2.2-2.1-.7 0-1-1.9-.7-4.9.2-4 0-5.1-1.3-5.4-.9-.3-2.3-.1-3 .4-1 .6-.8.9.9.9 1.8 0 2.2.6 2.2 2.9 0 2.7-.2 2.9-2.7 2.2-2.6-.7-2.8-1.2-3-6l-.2-5.2 3.7.7c3 .5 3.5.4 2.5-.7-.7-.7-1.3-2.1-1.3-3.1s-.7-1.8-1.6-1.8c-1.3 0-1.5-.8-1.2-3.5.2-1.9.4-3.5.3-3.4 0 0-.5.3-1 .5zm-3.2 12.1c.3 1.6.6 5.3.6 8.3.2 5.5.2 5.5-1.4 2.6-.8-1.5-1.5-5.3-1.5-8.2 0-5.7 1.5-7.4 2.3-2.7zm18.1-.2c0 7.1.1 9.9.3 6.2.2-3.7.2-9.6 0-13-.2-3.4-.3-.4-.3 6.8zm-3-.5c0 5.2.1 7.4.3 4.7.2-2.6.2-6.8 0-9.5-.2-2.6-.3-.4-.3 4.8z"/><path d="M388 365c-3 1.1-8.3 3.2-11.7 4.6l-6.2 2.6-.7 5.8-.6 5.9-12.9 6.2c-9.5 4.7-12.8 6.7-12.5 7.9.8 2.6 2.9 38.6 2.4 41.6l-.4 2.9h24.8l-.7-29.2-.7-29.1 14.3-7.4c13.7-6.9 14.4-7.4 14.4-10.3 0-3.8-2-4.1-9.5-1.5zm-71 12.2c-.3 4.8-.1 8.3.3 7.9.4-.4.7-4.3.5-8.7l-.3-7.9-.5 8.7zm-152.8 1.4c-1.1 1.2-.7 1.4 2.2 1.4 3.8 0 6.6-.8 6.6-1.9 0-.4-.7-.8-1.5-.8s-1.2.4-.9.8c.6 1-3.9.8-4.6-.2-.3-.4-1.1-.1-1.8.7zm23.8 4.8c0 .8-.3 2.3-.6 3.3-.5 1.6-.4 1.6 1-.1 1.8-2.2 2.1-4.6.6-4.6-.5 0-1 .6-1 1.4zm116.3 9.6c0 4.7.2 6.6.4 4.2.2-2.3.2-6.1 0-8.5-.2-2.3-.4-.4-.4 4.3zm-204.1-3c-.2 3.1 1.2 5.7 2.2 4.1.4-.6.3-1.1-.3-1.1-.5 0-1.2-1.2-1.4-2.8-.4-2.6-.4-2.6-.5-.2zm84.9 8.4c-.8 1-.8 3.3 0 9 1.2 7.9 2.5 9.7 3.5 4.6.4-1.6.9-2.8 1.3-2.6.3.2.6-1.3.6-3.4 0-2.1-.3-3.6-.6-3.4-.4.2-.9-1-1.3-2.6-.6-3.3-1.7-3.8-3.5-1.6zm-26.1 3.7c-1.2.8-1 .9.7.4 1.2-.3 3.1-.1 4.3.5 1.1.6 2 .7 2 .2 0-.6-1-1.2-2.2-1.6-3-.8-3-.7-4.8.5zm32.8 8.5c-.2 2.5 0 5.1.4 5.7.4.7.8-1.4.8-4.6 0-6.8-.7-7.5-1.2-1.1zm3.6 4.5-.2 6.6 10 .7c5.5.3 10.4.4 10.9.1.5-.4.9-3.3.9-6.5 0-7 .4-6.8-13-7.2l-8.5-.3-.1 6.6zm-135.7 3.5c1.7 1.6 3.8 4.2 4.7 5.9.8 1.6 1.5 2.5 1.6 1.9 0-1.8-4.3-7.6-7-9.2-1.9-1.2-1.8-.9.7 1.4zm127.2 1.1c-.1.5 0 1.9.1 3.2.1 1.4-.2 2.1-.9 1.7-.6-.4-1.1 0-1.1.8 0 .9.7 1.6 1.5 1.6s1.5-.5 1.5-1.1c0-.5.4-.8.8-.5 1.5.9 3.5-1.2 3.7-3.8 0-2.2-.4-2.6-2.7-2.6-1.5 0-2.8.3-2.9.7zm-82.4 1c1.1 1 32.3 5.8 33.1 5.1.2-.3-6.5-1.5-14.8-2.7-8.4-1.2-16.2-2.5-17.3-2.8-1.3-.3-1.6-.2-1 .4zm200.8 7.3c0 3 .2 4.3.4 2.7.2-1.5.2-3.9 0-5.5-.2-1.5-.4-.2-.4 2.8zm-162.8-.9c2.2.4 5.4.8 7 .7 2.6 0 2.5-.1-1-.9-2.2-.4-5.3-.8-7-.7-2.6 0-2.5.1 1 .9zm10.5 1.3c0 .2 1.5.6 3.4.8 1.9.2 3.2 0 3-.4-.5-.8-6.4-1.2-6.4-.4zm166.4 10.1c0 4.9.1 7.1.3 4.8.2-2.3.2-6.4 0-9-.2-2.6-.3-.8-.3 4.2zm-228.3-5.6c-.1.8-.9 2-1.8 2.7-1 .7-1.3 1.4-.7 1.4 1.7 0 3.7-2.7 3.1-4.2-.4-1-.6-1-.6.1zm204.6 29.8c-.4.3-.7 1.9-.7 3.4 0 3.5 3 5.5 6 3.9 2.7-1.4 2.5-4.4-.2-5.6-1.3-.6-1.7-.9-1-.7.6.1 1.2-.2 1.2-.7 0-1.1-4.3-1.4-5.3-.3z"/></g><path fill="#9CC" stroke="#9CC" stroke-width=".1" d="M224 478.2c0 .4 1.4.8 3 .8 1.7 0 3-.2 3-.4s-1.3-.6-3-.8c-1.6-.3-3-.1-3 .4zm56.6 6.6c-.8 1.3 3.3 2.6 6.1 1.9 1-.3.5-.5-1.4-.6-1.7 0-3.3-.6-3.5-1.3-.3-.9-.6-.9-1.2 0zm47.9 9.2c.3.5 1.6 1 2.8 1 1.8 0 1.9-.2.7-1-2-1.3-4.3-1.3-3.5 0z"/><g fill="#330" stroke="#330" stroke-width=".1"><path d="M313.3 290c0 2.5.2 3.5.4 2.2.2-1.2.2-3.2 0-4.5-.2-1.2-.4-.2-.4 2.3zm98.9 31.7c-1.2 1.4-2.2 3-2.2 3.6-.1.7-.3 2.9-.6 4.9-.3 2.2-.1 3.8.4 3.8s1.3.7 1.6 1.6c.4 1 .2 1.3-.6.8s-.9-.2-.3 1.2c.4 1 1.1 3.5 1.4 5.4.5 2.8 1.2 3.5 3.7 4.1 4.1.8 6.6-1.1 6.4-4.8-.3-4.4-.1-5.5 1.1-4.8.6.5.9-.9.8-3.9-.2-2.5-.5-4.6-.9-4.6-.3 0-1.4-1.6-2.4-3.5-1.1-1.9-2.3-3.5-2.7-3.5-.4 0-1.4-.6-2.1-1.4-1.2-1.1-1.7-1-3.6 1.1zm-99.1 20.7c1.2 1 5.9 1.5 5.9.6 0-.5-1.4-1-3.2-1-1.7 0-2.9.2-2.7.4zm-30.8 33.1c0 2.2.2 3 .4 1.7.2-1.2.2-3 0-4-.3-.9-.5.1-.4 2.3zm-98.6 6.2c.6.4 1.3 2.6 1.6 4.8.4 4 .4 4 .3-.4-.1-3-.6-4.6-1.6-4.8-1-.3-1.1-.2-.3.4z"/><path d="M181.1 386.7c.2 3.5.2 3.5.6.8.3-1.6 1-3.3 1.6-3.7.8-.5.6-.8-.5-.8-1.4 0-1.8.8-1.7 3.7zm7.1.3c-1.6 2.6-1.5 3 .3 3 .9 0 1.5-.9 1.5-2.5 0-3-.2-3.1-1.8-.5zM327 410.9c-1.3 2.5-1.3 2.7.6 4.5 2.6 2.7 5.4 2 5.4-1.2 0-4.8-4-7-6-3.3zm-7.7 15.6c0 2.2.2 3 .4 1.7.2-1.2.2-3 0-4-.3-.9-.5.1-.4 2.3zM85 432.8c0 1.9.4 3.1 1 2.7.6-.3 1-.1 1 .6 0 1 .3 1 1.2.1 1.5-1.5 3.1-1.6 2.2 0-.4.6-.3.8.3.5.6-.4.8-2 .4-3.8-.5-2.6-1.1-3.2-3.4-3.3-2.4-.2-2.7.2-2.7 3.2z"/></g><g fill="#633" stroke="#633" stroke-width=".1"><path d="M66.4 317.6c-.5 2-.2 3.1 1.3 4.3 2.5 2 3.7 5.1 2 5.1-.8 0-.8.3.2.9.9.6 1 1.1.2 1.5-.6.4-1.1 1.6-1.1 2.6s-.7 2.6-1.6 3.4c-.8.9-1.2 1.6-.8 1.6.3 0 .1.7-.6 1.5-1 1.2-1 1.5.1 1.5.9 0 1 .3.3.8-.6.4-1.3 1.7-1.6 2.9-.5 1.8-.2 2.3 1.3 2.3 1 0 1.9.4 1.9.8s-2.5.5-5.5.2-5.5-.2-5.5.2 1 .8 2.3.8c1.8 0 1.9.2.7 1-1 .7-.2.8 2.9.4 3.3-.5 4.2-.4 3.7.5-.6.9.1 1.1 2.8.6 2.4-.5 3.6-.3 3.6.4 0 .6.7 1.1 1.5 1.1 1.1 0 1.5-1 1.4-3.8-.1-3.3-.2-3.4-.9-1.2-.5 1.5-.8-4.6-.9-14.8L74 315h-3.5c-2.9 0-3.6.4-4.1 2.6zm62.6 6.1c1.4.3 2.9.9 3.5 1.4.5.5 1.8.9 3 1 2 0 2 0 0 .9-1.9.8-1.9.9.3.9 1.2.1 2.2-.4 2.2-.9 0-.6.8-1 1.7-1 1.1 0 1.3-.3.8-.9-.6-.5-3.9-1.1-7.5-1.4-3.6-.2-5.4-.2-4 0z"/><path d="M146.5 325.1c-2.7.3-4.4.7-3.7.7 1.3.2 1.2 2.3-.2 3.3-.5.4-2.8.5-5.2.3-4-.4-4.4-.2-4.5 1.8 0 1.3-.3 1.7-.6 1-.2-.6-1.9-1.2-3.6-1.2-2.4 0-2.8.3-1.7 1 1.5 1 .2 1.3-5.2 1.3-1.9 0-2.5 2.3-.8 2.9.6.2-.1 1.5-1.5 3-1.6 1.8-3.1 2.5-4.4 2.1-3.8-1-6.9.5-7.6 3.6-.3 1.6-1.3 3.2-2.2 3.6-1.4.5-1.3.8.5 2.1 3.1 2.1 1.9 3.4-2.8 3-2.4-.2-4.1.1-4.4.9-.3.9.8 1.1 4.2.8 3.4-.3 4.3-.2 3.3.6-1.1.7-.3.8 2.7.4 2.6-.3 4.2-.2 4.2.5 0 .6 1.6.8 4.2.5 2.8-.4 3.9-.3 3.4.5-.4.7.5.9 2.9.5 2.1-.3 3.5-.2 3.5.5 0 .6 1.6.8 4.2.5 3.1-.5 3.9-.3 3.4.6-.6.9.1 1.1 2.7.6 2.2-.4 3.7-.3 4.2.4.4.7 2 .9 4.1.5 2-.4 4-.2 4.7.5.7.6 3.1.9 5.3.7 3-.3 3.8-.8 3.6-2.1-.2-1.1.1-1.4.9-.9.9.5 1 .2.6-1.1-.4-.9-.3-2.3.3-3 1.4-1.7-1.5-7.8-4.3-9.1-1.9-.8-2.3-2-2.8-8.9-.5-7-.6-7.4-.9-3l-.3 5-.4-4.3c-.2-2.3-.8-4.2-1.4-4.2-.5 0-.3-1 .5-2.3 2.2-3.3.8-4.3-4.9-3.6zm-19.4 30.6c1.3 1.5 1.2 1.5-.7.5-1.2-.6-2.4-.9-2.7-.6-.3.3-.8.1-1.2-.5-1-1.8 3.1-1.3 4.6.6zm-29.8-15.2c0 3.3.2 4.5.4 2.7.2-1.8.2-4.5 0-6s-.4 0-.4 3.3zm127.8-3c.3.2 3.6.7 7.5.9 5.9.4 6.2.4 2.4-.4-5-.9-10.6-1.3-9.9-.5zm-172.9 5.7c-.2 5.4-.1 5.8 2.1 5.7 1.6-.1 1.7-.3.5-.6-1.3-.3-1.8-1.8-2.1-5.6l-.3-5.2-.2 5.7zm205.3-1.6c2.2.7 5.8 1.3 8 1.3 4.3.1 8.9 2.1 4.9 2.1-1.1 0-2.3.3-2.7.6-.9 1 1.9 3.4 4 3.4 1.1 0 2.5.6 3.2 1.2 1.1 1 1.3 1 .7 0-1-1.8.5-1.5 1.9.4 1.4 2 .8 6.4-.9 6.4-.6 0-1.7.9-2.4 2.1-.9 1.4-2 1.9-3.3 1.6-1-.3-1.7-.1-1.4.3.3.5-.3 1-1.2 1.2-2.9.6-6.3-.3-6.3-1.8 0-.7-1.3-2.1-3-3.1-1.6-.9-3-2.3-3-2.9 0-.7-.6-1.5-1.2-1.7-1-.4-1-.6-.1-.6 1.7-.1.4-3.1-1.3-3.1-.8 0-1.3-.5-1.1-1.2.2-1-1.2-1.2-7.5-.9-1.9.1-2 .3-.8 1.1s1 1-.8 1c-1.3 0-2.1-.3-1.9-.8.6-.8-1.2-2.5-3.3-3.1-4.9-1.5-12.2.9-9 2.9 1 .7 1.1 1 .3 1-1.7 0-1.7 2.7-.1 3.2 1.8.6-1.3 3.5-4.6 4.4-1.7.4-2.6 1.3-2.6 2.5 0 1-.4 1.9-1 1.9-.5 0-1 .7-1 1.5s-.7 1.5-1.5 1.5c-.9 0-1.5.9-1.5 2.2 0 1.7-.3 1.9-.9 1-.6-1-1-.7-1.3 1.1-.5 2.4-.3 2.5 3 2 2.2-.4 3.3-.2 2.9.4-.4.6 1.2.8 4.5.5 3.3-.3 4.9-.1 4.5.5-.4.7 1 .9 4 .5 3-.3 4.4-.1 4 .5-.4.7.9.9 3.8.5 3-.3 4.5-.1 4.5.7 0 .8 1.3.9 4.2.5 2.9-.5 3.9-.4 3.4.4-.5.9.6 1 3.8.6 2.9-.4 4.6-.3 4.6.4 0 .6 1.6.8 4.2.5 2.8-.4 3.9-.3 3.4.5-.4.7 1.1.9 5.1.5 4.3-.3 5.4-.2 4.3.6-1.3.9-1.3 1.1.3 1.1 1.5 0 1.7-1.3 1.8-12.8.1-9.3.4-11.6 1-8.7.6 3 .7 2.3.3-3-.2-3.9-.4-8.1-.5-9.5v-2.5l-1 2.4c-.8 2-1.1 2.1-2.5 1-1.4-1.2-1.4-1.4.3-2 1.2-.5.2-.9-3.4-1.4-2.9-.4-5.1-1-4.9-1.4.2-.3-3.5-.6-8.3-.7-8.3-.1-8.5 0-4.6 1.2zm-87.7 21.6c.5 2.1.6 2.1 1.3.2.4-1 .8-1.3.8-.6.1.7.6 1 1.2.6.8-.4.7-.9-.2-1.5-2.5-1.5-3.7-1-3.1 1.3zm-44.6.8c12.5 2.4 12.8 3.2 1.3 3.2-6.8.1-11 2-8.8 4.2 2.6 2.5.1 9.6-3.4 9.6-.7 0-1.3.9-1.3 2 0 2.1-3.4 6.2-4.4 5.3-.3-.4-.6-.1-.6.5s1.2 1.3 2.8 1.5c1.5.2.4.5-2.5.6-3.3 0-5.3-.3-5.6-1.2-.3-.7-.6-.5-.6.5-.1 1.3.7 1.8 2.7 1.8 1.9 0 2.3.3 1.3.9-.8.5.4.7 3.3.4 3-.4 4.6-.2 4.6.5s1.1.9 3 .5c1.7-.3 3-.1 3 .5s1.9.7 4.6.4c3.2-.3 4.5-.1 4 .6-.4.7.8.8 3.6.5 2.9-.4 3.9-.3 3.4.5s.9 1 4.6.6c4.1-.4 4.9-.3 3.8.6-1.2.8-.7.9 2.1.4 2.2-.3 3.9-.1 4.3.5.4.6 2 .8 3.5.5 1.6-.4 3.2-.1 3.5.5.8 1.3 7.2 1.5 8 .2.3-.4-.6-1.8-1.9-3.1-2.2-2-2.4-3-2.2-9.6.1-4.1.1-7.4-.1-7.4-.1 0-.7 1-1.2 2.2-.6 1.7-.9 1.8-.9.6-.1-.9.9-2.4 2-3.2 2.1-1.4 2.1-1.4-.7-1.8-2.2-.2-3-.9-3.2-2.8-.2-1.4.1-2 .5-1.4.4.6 1.7 1.4 2.8 1.8 1.5.5 1.7.4.8-.5-.6-.6-.9-1.8-.6-2.7.5-1.1.3-1.3-.7-.7-1 .6-1.1.2-.6-1.9.5-2.2.2-2.8-1.8-3.6-1.4-.5-4.1-.6-6-.3-2 .3-3.6.2-3.6-.3s-1.9-.8-4.1-.6c-2.6.3-3.9.1-3.5-.6.3-.6-1.1-.8-4.1-.4-2.6.3-4.4.1-4.1-.4.4-.5-3-1-7.6-1l-8.1-.1 8.7 1.7zm46.8 1.8c0 1.6 12.7 2.7 15.3 1.4 1.8-1 1.2-1.1-3.8-1.1-3.3 0-7.2-.3-8.7-.6-1.7-.5-2.8-.3-2.8.3zm75 13.3c11.2 1.6 20.7 2.9 26.8 3.5l6.2.6-.1 9.1c-.1 6.4-.4 8.3-.9 6.2-.4-1.7-.8-2.4-.9-1.7 0 .7-.4 1.1-.8.9-.5-.3-1.7-.1-2.7.3-1.2.4-3.4-.1-5.5-1.1-2-.9-3.9-1.5-4.3-1.3-.4.3-.5-.2-.2-1.1.4-.9 1.8-2.1 3.2-2.6 2.8-1.1 2-2.5-1.6-3.1-1.2-.1-2.2-.7-2.2-1.2.3-1.4-2.1-2.4-4.7-2-1.4.3-2.2.1-2-.3.6-.9-7-.9-7.9 0-.4.3-1.5.2-2.4-.3-1.3-.7-2-.5-2.4.7-.4.9-.1 2 .6 2.5 1 .6 1 .8-.1.8-.8 0-1.1.6-.7 1.5.8 2.1-1.5 5.5-3.6 5.5-.9 0-2 .5-2.4 1.2-.5.7-.3.8.6.3.8-.5 1.1-.4.7.2-.3.5-1.9.8-3.6.5-2.3-.3-3 0-3.6 1.9-.4 1.3-1.7 3.1-2.9 4.1-1.6 1.3-1.7 1.8-.6 1.9.8.1.2.5-1.5.9l-3 .8 2.8.1c1.6 0 2.6.5 2.3 1-.4.5 1.1.7 3.4.4 2.5-.4 4-.2 4 .5s1.3.9 3.5.5c2.1-.3 3.5-.1 3.5.4 0 .6 1.9.9 4.8.6 3.5-.3 4.3-.2 3.2.6-1.1.8 0 .9 4 .5 3.7-.4 5-.2 4.1.4-.9.7.2.8 3.4.4 3.4-.3 4.6-.2 4.1.6s.2 1 2.4.6c1.8-.4 3-.2 3 .4 0 .7 1.4.9 3.7.5 2.8-.5 3.4-.3 2.8.7-.5.8-.3 1.1.6.8 1.7-.6 2.7-4.7 2.7-11.3-.1-4.7-.1-4.8-.8-1.5-.5 2.3-.8-.9-.9-9.1l-.1-12.6-4.7-.6c-2.7-.4-7.6-.9-11-1.3-3.5-.4-6.1-.9-5.9-1.3.2-.3-3.7-.7-8.8-.7-8.2-.1-8.6-.1-3.6.7zm21.6 31.6c-.7.7-7.7.5-8.5-.3-.2-.2 1.7-.4 4.4-.4s4.5.3 4.1.7zM122.5 399c-2.8.7-2.8.8-.5.9 1.4 0 3.2-.4 4-.9 1.7-1.1.8-1.1-3.5 0zm6.5 1c-3.5.7-3.5.7 1.8 1.5 8.2 1.2 8 3.5-.4 4-5.5.3-7.5 1.8-4.5 3.4 1.6.9 2.1.9 2.2-.1 0-.7.5-.3 1.1.9.8 1.6.7 2.9-.4 5.1-1.4 2.7-1.3 3 .6 4.5 1.9 1.7 1.9 1.7-1.9 1.7-2.2 0-4.7.5-5.5 1-1 .6-.3.8 2.3.3 2-.3 3.7-.1 3.7.4s1.6.7 3.6.5c2.5-.3 3.5-.1 3 .7-.5.7.2.9 2.4.5 1.8-.4 3-.2 3 .4 0 .7 1.3.9 3.4.5 1.9-.3 3.6-.1 4 .6.4.6 2 .8 3.6.4 1.7-.3 3-.1 3 .4 0 .4 1.9.7 4.1.5 3.2-.3 4-.1 3.4.8-.6.9-.4 1.1.4.5 1.8-1 14.3.4 13.5 1.6-.3.6.5.7 2.3.3 3.5-.9 4.2-1.4 1.7-1.4-1 0-3.7-.7-5.9-1.5l-4-1.4 4.3-.1c3.4 0 4.2-.3 4.2-1.9 0-1-.7-2.4-1.5-3.1-2.2-1.9-1.8-3.2.8-2.4 2.2.6 2.2.6.2-1.2-1.3-1.3-1.9-2.9-1.7-4.9.3-2.3.1-2.7-.8-1.9-.8.8-2.3.9-5.3.1-4.7-1.2-5.7-2.1-5.7-5.6 0-2.2-.2-2.3-4.6-1.7-2.5.3-4.3.2-4-.3.4-.5-1.2-.7-3.6-.4-2.7.4-3.9.3-3.5-.5.5-.7-.7-.8-3.5-.5-2.6.4-3.9.2-3.5-.4.4-.6-1.3-.8-4.6-.6-3.8.3-4.8.2-3.7-.6 1.6-1.2 1.2-1.2-4-.1zm39 26c1.2.8 1.1 1-.7 1-1.2 0-2.5-.5-2.8-1-.8-1.3 1.5-1.3 3.5 0zm137.7-20.3c-1 .9-.9 15.1.1 15.7.4.2 2.3.1 4.2-.3 2.8-.5 3.1-.8 1.6-1.4-1.3-.5-1.5-1.1-.8-2 .6-.7.7-1.8.2-2.6-.6-1-1.4-.4-2.9 2.5l-2.2 3.9.5-8.3c.2-4.5.3-8.2.2-8.2-.2 0-.6.3-.9.7zm10.6 6.8c0 3.3.2 4.5.4 2.7.2-1.8.2-4.5 0-6s-.4 0-.4 3.3zm-211.2-.5c-.1 1.4-.4 3.5-.7 4.8-.4 1.3-.3 2.2.2 2.1 1.9-.3 3.5.1 3 .9-.2.4 1.2.6 3.2.3 3.3-.5 3.4-.6 1-.9-1.6-.2-2.8-.7-2.8-1.2s-.7-.7-1.5-.4c-1 .4-1.3.2-1-.7.3-.8.1-2.8-.4-4.4-.9-2.8-.9-2.9-1-.5zm123.9 1c-4.3.5-4.7.7-1.9.8 2 .1 4.9.6 6.5 1.1 1.6.5 7 1.1 11.9 1.4 5 .2 7.8.2 6.2 0-1.5-.2-2.5-.7-2.3-1.1.2-.4-1.7-.6-4.2-.4-3.2.2-4.3 0-3.3-.6.9-.7-.2-.8-3.4-.4-3.5.3-4.6.2-4.1-.7.4-.6.6-1 .4-.9-.2.1-2.8.4-5.8.8zm-159 1c-1.1.7-.5.8 2 .4 4.3-.8 5.1-1.4 1.9-1.4-1.3 0-3.1.5-3.9 1zm189.5 2.9c-4.9.6-4.7.7 5.1 2 5.5.8 10.7 1.1 11.5.8.8-.3-.2-.6-2.1-.6-2.4-.1-3.1-.4-2.1-1 .8-.5-.5-.7-3.5-.4-3.6.3-4.5.2-3.4-.6.8-.6 1.1-1 .5-.9-.5.1-3.2.4-6 .7zm-32.4 2.2c-1.6 1.8-3.2 2.5-6.3 2.8-.3.1-.4.9-.1 1.9.2 1-.2 2.4-1 3-1.1.9-1.8.8-3.2-.8-1.6-1.7-3.1-2-11.1-2-6 0-9.4.4-9.6 1.1-.2.7-1.9 1.3-3.8 1.4-1.9.2-3.7.4-4 .5-.3.1-1.6.1-2.9 0-1.3-.1-2.1.3-1.7.8.3.6 0 1.2-.6 1.5-.7.2.1.8 1.7 1.2 1.7.3 3.7.9 4.5 1.2.8.3 2.8.5 4.4.4 1.7-.2 2.6.1 2.2.8-.4.6.6.8 2.9.4s3.5-.2 3.5.6c0 .7.9.9 2.4.5 1.4-.3 3.1-.2 3.8.2.7.4 2.8.7 4.6.5 2.3-.2 3.2.1 2.8.8-.5.7.8.9 4 .4 3.8-.5 4.5-.4 3.9.7-.6 1-.4 1.2.9.7 1-.4 3-.7 4.4-.8 2.3 0 2.1-.2-1.3-1.3l-4-1.2 6-.9c4.9-.7 5.5-.9 3.5-1.6l-2.5-.7 2.5-.2c2.4-.1 2.4-.2.4-1-2.7-1.1-3.8-2.7-2.4-3.5.6-.4.7-1.2.4-1.8-.5-.8-.3-.8.7 0 1.6 1.5 8.9 1.7 8.9.3 0-.6 1.2-1 2.6-1 2.2 0 2.5-.2 1.4-1.5-.7-.8-1.6-1.3-2-1-.4.2-1.7-.5-3-1.7-3.2-3-10.4-3.4-12.9-.7zm55.8 5.5c0 1.6-.3 2.2-.6 1.4-.8-2.2-2.6-3-3.8-2-1.8 1.5-5.8 1.8-7.9.8-1.3-.7-1.6-.7-1.1.2.5.8-.5 1-3.7.8-4.3-.4-4.4-.3-4 2 .4 2.2.2 2.4-1.7 1.9-1.1-.3-1.9-.1-1.5.4.3.5 1.4.9 2.4.9 3.8 0 2.8 1.8-1.3 2.4-8.8 1.3-11.2 1.9-12 3.2-.4.8-2.2 1.4-4 1.4-1.8 0-3.8.4-4.6.9-.8.5.5.7 3.5.4 3.7-.3 4.5-.2 3.4.6-1.1.9-.4 1 2.8.5 2.7-.4 4.2-.3 4.2.4s1.3.9 3.5.5c2.3-.4 3.5-.2 3.5.6s1.1 1 3.6.5c2.7-.5 3.5-.4 3 .5-.6.8.4 1 3.5.5 3.2-.6 4-.4 3.4.6-.6.9 0 1 2.5.5 2.1-.5 3.5-.3 4 .4 1.3 2.2 4 0 4-3.3 0-1.7.3-4.2.5-5.6.6-2.5.6-2.5-.5-.2-1.2 2.9-3 2-3-1.6 0-1.8.3-2.3.9-1.4.5.9 1-.7 1.5-4.4.3-3.1.4-5.9.1-6.2-.3-.3-.5.8-.6 2.4zm31.9 2.1c1.5.6 1.6 6.9.2 7.8-.6.4-1.8.1-2.7-.7-1.3-1-1.7-1-2-.1-.8 2.3-2.3 1.4-2.4-1.5l-.1-2.7-.8 3c-.4 1.6-.8 4.6-.8 6.5l.1 3.5.7-3.5c.6-2.8.8-2.1.9 3.7.1 5.1.5 7.3 1.4 7.3.8 0 .7.4-.3 1.1-1.1.7-.1.8 3.5.3 2.8-.4 5.1-.7 5.1-.8.1 0 .5-4.6.8-10.1.3-6.2.2-9-.3-7.5-.8 2.1-.9 1.8-1-2.3-.1-3.8-.4-4.7-1.8-4.6-1.1 0-1.3.3-.5.6zM232 438c-1.1.7-.5.8 2 .4 4.3-.8 5.1-1.4 1.9-1.4-1.3 0-3.1.5-3.9 1z"/></g><path fill="#630" stroke="#630" stroke-width=".1" d="M78.7 220.4c-1.5 1.3-2.4 2.6-2 3 .3.3.1.7-.5.7-.7.1-1.7.2-2.4.3-.6 0-1.2.7-1.4 1.4-.1.7 0 .8.3.2.2-.5.9-.7 1.5-.4.5.3.2 1.4-.9 2.6-1 1.1.4.5 3.3-1.4 3.3-2.1 4.8-3.7 4.3-4.4-.5-.6-.3-1.6.3-2.2 2.3-2.3.2-2.1-2.5.2zm7.3-1.5c-1.4.3-2.6 1.4-2.6 2.3-.2 1.9 1.1 1.5 5.1-1.6 2.1-1.6 1.6-1.8-2.5-.7zm-20.7 13.6c.4.5-.5 2.1-2 3.7-1.5 1.5-2.4 2.8-2.2 2.8.3 0 1.8-1.3 3.3-2.9 2.1-2.2 2.5-3.1 1.4-3.7-.7-.4-1-.3-.5.1zm319.2 44.9c-5.8 2.7-6.6 3.3-4.7 3.8 1.4.4 2 .2 1.5-.5-.4-.7 0-.8 1.1-.4s1.5.3 1-.4c-.4-.8.1-.9 1.6-.4 1.7.5 2.1.4 1.5-.6-.6-.9-.3-1.1.9-.6 1.1.5 1.5.3 1-.5s-.2-.9 1-.5c1.1.5 1.5.3 1-.5s-.2-.9 1-.5c1.1.5 1.5.3 1-.5s-.2-.9 1-.5c1 .4 1.5.3 1.1-.3-.9-1.5-2.4-1.2-10 2.4zm-202.6 7.7c1.6.6 2.8.6 3.5-.1.7-.7-.1-1-2.4-.9-3.3 0-3.4.1-1.1 1zm-159.1 9.6c.6.2 1 .8.7 1.2-.2.5.9 2.1 2.5 3.6 1.7 1.6 3 2.5 3 2.1 0-.5.8-.2 1.8.5 1.5 1.3 1.6 1.2.3-.3-.7-1-1.7-1.6-2.1-1.3-.4.2-1.5-.4-2.5-1.5s-1.5-2-1-2c.4 0 .2-.7-.5-1.5s-1.8-1.5-2.4-1.4c-.7 0-.6.2.2.6zm177.5 9.8c0 2.2.2 3 .4 1.7.2-1.2.2-3 0-4-.3-.9-.5.1-.4 2.3zm-163.6 1.7c-.3.9.9 1.4 3.7 1.5l4.1.2-3.4-1.4c-4-1.8-3.8-1.8-4.4-.3zm11.3 6c0 1.6.5 2.8 1 2.8 1.3 0 1.3-2 0-4-.8-1.2-1-.9-1 1.2zm14.4-.6c-1.9 1.5-1.9 1.6.1.9 1.1-.4 3.4-1.1 5-1.5l3-.8-3.1-.1c-1.6-.1-3.9.6-5 1.5zm100.9 3.9c0 2.2.2 3 .4 1.7.2-1.2.2-3 0-4-.3-.9-.5.1-.4 2.3zm-82.8-1.7c-3.7.7-4.1 2.3-.5 1.6 1.9-.4 3.6-.8 3.8-.9.8-.7-1.5-1.1-3.3-.7zm342.8 3.2c0 2.5.2 3.5.4 2.2.2-1.2.2-3.2 0-4.5-.2-1.2-.4-.2-.4 2.3zM86 315.1c1.2 1.1 3 1.3 8 .8 4.7-.4 5.4-.6 2.5-.8-2.2 0-5.8-.4-8-.8-3.5-.6-3.8-.5-2.5.8zm71.3 7.9c0 4.7.2 6.6.4 4.2.2-2.3.2-6.1 0-8.5-.2-2.3-.4-.4-.4 4.3zm-107.7 1.5c.3 4.9.9 10.6 1.4 12.5 1 4.4.1-10.5-1.1-17-.6-3.1-.7-1.7-.3 4.5zm151.7 1c0 2.2.2 3 .4 1.7.2-1.2.2-3 0-4-.3-.9-.5.1-.4 2.3zm-48.5 1.5c.2 1.6.6 3 .8 3 .2 0 .4-1.4.4-3 0-1.7-.4-3-.8-3-.5 0-.7 1.3-.4 3zm24 2.7c1.2.2 3 .2 4 0 .9-.3-.1-.5-2.3-.4-2.2 0-3 .2-1.7.4zM222 333c-1.2.8-1.2 1 .5.9 1.1 0 2.9-.4 4-.9 1.8-.8 1.8-.9-.5-.9-1.4 0-3.2.4-4 .9zm-67.8 5.6c-.2 4.8.2 6.5 1.6 7.5 1.5 1.2 1.6 1.2.5-.1-.7-.9-1.4-4.3-1.6-7.5l-.3-6-.2 6.1zm96.3-2.6c-.7 1.2 1.2 1.2 4 0 1.8-.8 1.7-.9-.7-.9-1.5-.1-3 .3-3.3.9zm81.8-.3c1.5.2 3.9.2 5.5 0 1.5-.2.2-.4-2.8-.4s-4.3.2-2.7.4zM259 337c-1 .7-.1.8 3 .4 5.6-.8 6.4-1.4 1.9-1.4-1.9 0-4.1.5-4.9 1zm-228.2 1.7c1.2.2 3 .2 4 0 .9-.3-.1-.5-2.3-.4-2.2 0-3 .2-1.7.4zm255.2 4c0 .6 3 1.3 6.8 1.6 3.7.4 7.9.9 9.5 1.3 2.1.5 2.7.3 2.7-1s-1.1-1.6-4.9-1.6c-2.6 0-6.9-.3-9.5-.6-2.8-.4-4.6-.3-4.6.3zm136.2 16.1c1.4 17.1 1.5 17.6 1.4 5.5 0-7-.5-12.7-1.1-13.2-.8-.8-.9 1.6-.3 7.7zm-14.2-6.9c0 .7-.5.9-1.2.5-.8-.5-.9-.2-.3 1.2.4 1 1 3.6 1.3 5.7.2 2 .8 3.9 1.2 4.2.5.3.7-.3.5-1.2-.2-1-.6-3.5-.9-5.6-.4-3.2-.3-3.7.9-2.7.7.6 1.2 2.2 1 3.5-.1 1.4.1 2.5.5 2.5 1.2 0 1.8-3.8.8-4.8-.6-.6-.6-1.2.1-1.6.6-.4 1.5.7 2 2.6l1.1 3.3-.3-3.2c-.3-2.3.1-3.3 1.2-3.6.9-.3.4-.5-1.1-.6-1.5 0-3 .4-3.4 1.1-.5.7-1.1.5-2.1-.7-.7-1.1-1.3-1.3-1.3-.6zm-92.4 3.6c.3 1.4 1 4.9 1.4 7.8.5 3.5.8 4.2.9 2.1.2-4.8-1.1-12.4-2.1-12.4-.4 0-.6 1.1-.2 2.5zm110.8-1.6c.4.5.2 1.1-.2 1.3-.4.1-.6 3.9-.4 8.3.3 5.3.7 7.3 1.3 6 1.2-3.1 1.1-16.5-.2-16.5-.5 0-.8.4-.5.9zm-6.1 7.1c0 3.6.2 5 .4 3.2.2-1.7.2-4.7 0-6.5-.2-1.7-.4-.3-.4 3.3zm-259.8-1.1c-.3 1.6-1.4 3.2-2.3 3.4-1.3.4-1.2.5.4.6 1.6.1 2.3-.6 2.8-3.1.8-4 0-4.9-.9-.9zm254.5 2.3c0 1.9-.2 2-1 .8-.6-.9-1-1-1-.3 0 .6.5 1.5 1.1 1.9.8.4.7.9-.2 1.5-1.1.7-1 .9.4.9 1.3 0 1.7-.8 1.7-3.5 0-1.9-.2-3.5-.5-3.5s-.5 1-.5 2.2zm-132.7 4.3c0 3.3.2 4.5.4 2.7.2-1.8.2-4.5 0-6s-.4 0-.4 3.3zm-230.5 2.2c.6 6.5 1 7 1.1 1.5 0-2.8-.3-5.2-.7-5.2-.4 0-.6 1.7-.4 3.7zm106-3c1.5.3 2.2 1.2 2.2 2.8 0 1.3.4 2.6.9 2.9.4.3.5-.9.2-2.7-.5-2.5-1.2-3.2-3.1-3.4-2.3-.1-2.3-.1-.2.4zm255.7 3.3c-.3.6 0 1 .7 1 .9 0 1.3 1.1 1.2 3.2-.1 2.3 0 2.5.3.8.3-1.4.9-2.7 1.4-3 .4-.3 0-1.1-1.1-1.8-1.2-.7-2.1-.8-2.5-.2zm-7.8 5.2c.8 4.4 1.3 4.8 1.3 1 0-1.7-.4-3.4-1-3.7-.6-.4-.7.6-.3 2.7zm15.3 2.5c0 1.7.5 3.5 1.2 3.9.6.4.8.3.4-.4-.3-.5-.2-1.2.2-1.4.4-.1.2-1.4-.5-2.8l-1.3-2.5v3.2zm-238.2 2c1.2.2 3.2.2 4.5 0 1.2-.2.2-.4-2.3-.4s-3.5.2-2.2.4zm8.5 7.8c0 2.7.2 3.8.4 2.2.2-1.5.2-3.7 0-5-.2-1.2-.4 0-.4 2.8zm-9.3.1c0 1.4.4 2.3 1 1.9.6-.3 1-1.5 1-2.6 0-1-.4-1.9-1-1.9-.5 0-1 1.2-1 2.6zm135.7 12.1c.6 14.7 1 14.9 1.4 1 .3-8.3.1-11.7-.7-11.7-.9 0-1 3.1-.7 10.7zM54.1 393c0 3.7.2 4.1.9 2.2.6-1.3.6-3.1 0-4.5-.7-1.8-.9-1.4-.9 2.3zm228.2 2c0 3.6.2 5 .4 3.2.2-1.7.2-4.7 0-6.5-.2-1.7-.4-.3-.4 3.3zM55 402.5c0 1.1.5 2.7 1 3.5.8 1.2 1 1.2 1-.5 0-1.1-.5-2.7-1-3.5-.8-1.2-1-1.2-1 .5zm-.5 8.5c1.1 1.4 2.1 2.7 2.2 2.9.2.2.3-.6.3-1.9 0-1.3-.3-2-.7-1.7-.3.4-1.3.1-2.2-.5-1-.8-.8-.3.4 1.2zm263.9 5.4c-.3 1.9-.1 4.3.5 5.3.8 1.4 1 .8 1.1-3.5 0-6-.6-6.7-1.6-1.8zM217 418.7c-.3 2.3-.2 3.9.3 3.4s.7-2.4.5-4.2c-.3-3.3-.4-3.3-.8.8zm-20.3 4c1.8.2 5 .2 7 0 2.1-.2.7-.4-3.2-.4-3.8 0-5.5.2-3.8.4z"/><g fill="#963" stroke="#963" stroke-width=".1"><path d="M141.5 195.1c1.5.7 1.1.8-1.7.5-2.8-.4-8.1 1-20.5 5.3-25.8 8.9-37.2 13.4-36.7 14.3.3.4-.1 1.1-1 1.4-.8.3-1.7 1.1-1.9 1.8-.3.8 1.4.3 4.1-1.1 6.3-3.1 33.8-12.7 49.5-17.1 7-2 12.7-4 12.7-4.5 0-.4-.4-.6-.9-.2-.5.3-1.2.1-1.6-.5-.3-.5-1.4-1-2.3-.9-1.4 0-1.4.2.3 1zm-83.7 45.7c-1.8 1.9-5.8 9.7-5.8 11 0 .5 4.2 1.2 9.3 1.6 5 .4 14.6 1.3 21.2 2.1s30.7 3.5 53.5 6 47.1 5.2 54 6c15.4 1.9 78.8 9.7 100.5 12.5 8.8 1.1 17.5 2 19.3 2 3.1 0 3.2-.1 3.2-4.5V273h-6.6c-6.7 0-12.9-.6-39.4-4.1-8-1-22.1-2.8-31.5-3.9-23.6-2.8-82.6-11-133.5-18.5-9.1-1.3-21.9-3.1-28.5-4.1-6.6-.9-12.5-2-13.1-2.5-.7-.6-1.7-.2-2.6.9zM294 273.6c0 .2-1.3.4-3 .4-1.6 0-3-.4-3-.8 0-.5 1.4-.7 3-.4 1.7.2 3 .6 3 .8zm120.5-29.4c-36.2 16-53.5 24.4-53.5 26.1 0 .5 1.6 2.9 3.5 5.2l3.5 4.3 8.7-3.3c4.9-1.8 14.4-5.7 21.3-8.8 6.9-3 17-7.4 22.5-9.8 5.5-2.4 10.2-4.4 10.4-4.6.8-.5-5.4-13.3-6.4-13.2-.5 0-5 1.9-10 4.1zm-363.9 17c-.7 5.8-6.7 27.3-10.1 36.1-2.6 6.6-2.1 8.5 2.8 9.8 2.3.6 5.6 1.2 7.2 1.2 6.6 0 20.6 2 19.3 2.8-.9.6-.2.9 1.8.9 1.7 0 7.5.7 13 1.5 5.4.8 12.4 1.5 15.4 1.5 3.8 0 5 .3 4 1-1 .6.6.8 4.5.5 4.7-.3 5.3-.2 3 .5-2.2.6-.8.8 5 .5 6.2-.3 7.1-.2 4 .5-3.1.7-2.3.8 4 .5 5.8-.2 7-.1 4.5.5s-1.1.7 5 .5c5.5-.2 7.1-.1 4.5.4-3.6.6-3.1.8 4.7 1.5 6.8.6 9.1.5 10.1-.6.9-1 1.1-4.2.6-13.6-.9-17.5.3-22.3 5.6-23.6 1.4-.4 2.5-1 2.5-1.4 0-.4 6.9-.7 15.3-.7 12.2.1 15.9.4 18.9 1.8 2 .9 4.1 2.3 4.5 3 .4.7 2 2 3.4 2.9 2.4 1.5 2.7 2.4 3.3 11 .4 5.1 1.2 14.2 1.8 20.3l1.1 11 5.6-.3c3.7-.2 5.1 0 4.2.6-.9.7 1 .9 5.5.6 5.2-.3 6.3-.1 4.4.6-1.9.7-1.4.8 2.3.4 6.1-.7 27.1 1.7 25.4 2.9-.7.5-.3.6 1.1.2 1.3-.4 6.2-.3 11 .1 7.7.7 8.2.9 4.7 1.5-3.4.6-3 .7 2.2.6 3.3-.1 5.9.1 5.7.4-.4.7 11.5 1.9 22.8 2.4 5.2.2 5.9 0 9.2-3.1 4.6-4.4 6-4.4 1.8-.1l-3.2 3.3 11.3 1.3c6.1.7 12.9 1.5 15 1.8l3.7.6V336l-7.7-.1c-4.3 0-9.6-.3-11.8-.7l-4-.7-.3-5.5c-.1-3-1.4-10-2.9-15.5-1.4-5.5-2.8-14-3.2-19l-.6-8.9-15.5-1.9c-8.5-1-37-4.5-63.3-7.7-26.4-3.3-49.1-6-50.5-5.9-3.9.2 3.5 1.5 13.2 2.4 4.6.4 7.4 1 6.6 1.5-.7.4.7.6 3.1.3 2.4-.2 6.4 0 8.9.5 2.5.6 3.5 1 2.3 1.1-1.3.1-2.3.5-2.3.9 0 .9-9.5.6-18-.5-6.8-.9-24-.8-29.7.2-3 .5-4.3.4-4.3-.5 0-.6-.4-.8-1-.5-.5.3-1 .1-1-.4 0-.6.5-1.1 1-1.1.6 0 1-.4 1-.8 0-1.2-7-3.2-11.1-3.2-1.9 0-4.7-.7-6.3-1.5-1.5-.8-4.2-1.5-5.9-1.5-1.7 0-2.8-.3-2.5-.6.9-.8 14.8.7 14.3 1.6-.4.6 8 .3 10.9-.4.8-.2-15.4-2-76.9-8.7-14.8-1.6-28.6-3.2-30.6-3.5l-3.6-.5-.7 6.3zm24.4-2.3c4.2.8 4.3.9 1 .9-1.9.1-5.3-.3-7.5-.7-3.5-.8-3.6-.9-1-.9 1.7 0 5 .3 7.5.7zm6.7 22.2c9.7 3.6 13.7 16.2 7.9 24.9-2.8 4.3-5.8 5.6-10.9 4.6-8.6-1.6-13.4-8.1-12.4-16.8.8-6 3-10.4 6.5-12.2 3.3-1.8 5.2-1.9 8.9-.5zm197.8 1.9c2.8.7 2.8.8.5.9-1.4.1-3.6.4-5 .7-1.8.4-2.1.3-1.1-.4 1.1-.8.9-1.1-1-1.5-2-.4-1.9-.4.6-.4 1.7-.1 4.4.3 6 .7zm16.3 24.9c9.7 5 12.6 15.3 7 25.2-2.5 4.4-6.1 6-11.5 5.2-9.6-1.5-13.7-7.2-13.8-19 0-8.2.8-9.6 7.1-11.8 5.2-1.9 6.8-1.8 11.2.4zm-146 12.8c-1 .2-2.8.2-4 0-1.3-.2-.5-.4 1.7-.4 2.2-.1 3.2.1 2.3.4zm265.4-56c-4.6 1.9-8.1 3.7-7.9 3.9.5.5 17.7-6.6 17.7-7.2 0-.8-1.5-.2-9.8 3.3zm-15.6 5.7c-4 1.8-1 2.7 3.2.9 1.7-.7 3.2-1.5 3.2-1.8 0-.9-3.4-.4-6.4.9zm-18.8 6.8c-6 2.3-10.8 4.7-10.8 5.4 0 .8 4.1-.6 11.3-3.8 6.1-2.8 11.4-5.3 11.6-5.4 1.2-1.1-2.5.1-12.1 3.8zM24.2 294.9c2.7 3.5 4.8 4.6 4.8 2.7 0-.8-1.6-2.4-3.6-3.5l-3.6-2.1 2.4 2.9z"/><path d="M22 296.8c.1 2.9 3.9 40.5 4.2 40.7.2.2 5.9.6 12.7 1l12.4.7-.6-2.3c-.3-1.3-1.1-7.8-1.7-14.4-.7-6.6-1.6-12.4-2-12.8-.4-.5-3.3-1.1-6.5-1.4-4.8-.5-5.7-.4-5 .8.5.8.6 1.2.3.9-.2-.3-3.4-3.7-7.1-7.7-4.1-4.4-6.7-6.6-6.7-5.5zm9.6 9.4c1.5 1.9 1.6 2 .2.9-1.5-1.1-1.8-1.1-1.8 0 0 .9-.3 1-1.1.2-.6-.6-.8-1.6-.5-2.2.9-1.5 1-1.4 3.2 1.1zm205.2 28.5c1.2.2 3.2.2 4.5 0 1.2-.2.2-.4-2.3-.4s-3.5.2-2.2.4zm78.3 10.5c.5 1 1.2 1.8 1.5 1.8.3 0 .3-.4-.1-.9-.3-.5.5-1.1 1.7-1.3 1.9-.3 1.7-.5-.9-.9-2.8-.5-3.1-.3-2.2 1.3zm21.7 2.5c.6.2 1.2.9 1.2 1.3 0 1.2-20.3.7-21.3-.5-.5-.6-.5 1-.1 3.5s1 7 1.3 10c.3 3 1.1 5.5 1.6 5.6.6 0 3 .3 5.5.7 2.5.3 7.3.9 10.8 1.2l6.2.6v-7.8c0-4.3-.3-9.5-.6-11.6-.6-3.2-1-3.7-3.3-3.6-1.4 0-2 .3-1.3.6zM28.5 361c-.2.4.2 7 1 14.6.8 7.7 1.5 15.8 1.5 18.1 0 6.3.7 7.3 5.1 7.3 2.3 0 6.1 1.1 8.9 2.5 2.8 1.4 5 2.2 5 1.8 0-.4.7.3 1.6 1.5 1.8 2.7 4.8 3 4 .4-.2-.9-1.2-9.4-2.1-18.7-2.1-23.3-2.2-23.5-4.6-23.5-1.1 0-1.8.4-1.5.9.4.5-.3.7-1.5.4-1.4-.4-1.7-.8-.9-1.3 1.7-1-3.6-2.2-6.2-1.4-1.5.4-1.8.3-1.3-.6.5-.9.4-1.1-.4-.6-.6.4-1.7.3-2.4-.2-1.8-1.3-5.6-2.1-6.2-1.2zm150.6 15.4c1 .9 7.9 1.4 7.9.5 0-.5-1.9-.9-4.2-.9-2.3 0-3.9.2-3.7.4zM319.6 409c.8 26.5 1.7 44.6 2.2 42.5.2-1.1.9-2.5 1.4-3 .8-.7.9-.6.4.2-.4.7-.5 1.3-.1 1.3.3 0 1.5-2.1 2.6-4.6l1.9-4.6 8.4.7c4.6.3 8.6.3 8.9-.2.3-.5-.1-9.6-.8-20.3-.8-10.7-1.4-20.7-1.5-22.3 0-3.2-4-5.8-6.2-3.9-.7.5-4.6 1.2-8.5 1.6-6.1.4-7.4.2-8.2-1.2-.7-1.1-.8 3.5-.5 13.8zm14 3.5c.8 3.3-1.2 5.6-4.5 5.3-2.4-.2-2.8-.7-3-3.9-.1-2.7.3-4 1.6-4.7 2.4-1.4 5.1.2 5.9 3.3zM58 414.9c0 .3 1.6 1.8 3.5 3.4 2.7 2.1 3.9 4.4 5.9 10.5 1.3 4.3 2.7 9.4 3.1 11.4.8 4.3-3.8 3 41 11.3 82.1 15.3 144.3 25.2 194.6 31l5.6.6.6-4.4c.4-2.5 2-8.7 3.6-13.8 1.7-5.1 2.8-9.6 2.5-10.1-.3-.4-2-.8-3.7-.8-1.8 0-7.8-.9-13.5-2-10.8-2.1-16.6-2.6-12.7-1.1 1.7.7 1.7.8-.7 1.3-1.5.3-2.5.1-2.2-.3.3-.5-.7-1-2.3-1l-2.8-.1 3-.8c1.7-.4 2.2-.8 1.3-.9-1.9-.1-20.5-2.9-67.3-10.1-18.1-2.8-43.6-6.6-56.5-8.5-50.6-7.4-64.8-9.5-69.9-10.5-5.4-1-10.1-.5-10.1 1.1 0 .5-1.8.9-4 .9s-4-.4-4-.9-.9-.7-2-.4c-1.1.3-2 .1-2-.5 0-.5 1.5-1.3 3.3-1.7 3-.8 3.1-.8.7-1.2-1.4-.3-5.3-1.1-8.7-1.8-3.5-.7-6.3-1-6.3-.6zM91 430c2.4 2.4 2.5 4.3.4 6.4-1.9 2-2.4 2-5.2 0-2.4-1.7-2.9-5.3-1-7.2 1.7-1.7 3.5-1.5 5.8.8zm211.4 33.2c2.3 3.2 2 5.5-.9 7.4-2.3 1.5-2.7 1.5-5 0-2.7-1.8-3.4-6.3-1.3-8.4 1.9-1.9 5.5-1.4 7.2 1z"/></g><path fill="#960" stroke="#960" stroke-width=".1" d="M140.5 195c-2.9.8-2.9.8.8.7 2-.1 3.7-.5 3.7-.9 0-.9-.3-.9-4.5.2zm-72 62.9c-3.9.7-3.8.7 2.8 1.5 3.7.5 7.1.6 7.4.2.4-.3-1-.6-3.1-.6-2.2 0-3.5-.4-3.1-1 .3-.6.5-.9.3-.9-.2.1-2.1.5-4.3.8zm71.5 8.8c1.4.2 3.9 1.1 5.7 1.9 1.7.7 4.6 1.4 6.3 1.4 4 0 11 2 11 3.2 0 .4-.4.8-1 .8-.5 0-1 .5-1 1.1 0 .5.5.7 1 .4.6-.3 1-.1 1 .5 0 .9 1.3 1 4.3.5 5.7-1 22.9-1.1 29.7-.2 8.5 1.1 18 1.4 18 .5 0-.4 1-.8 2.3-.9 1.2-.1.2-.5-2.3-1.1-2.5-.5-6.5-.7-8.9-.5-2.4.3-3.8.1-3.2-.3.7-.4-1.6-1-5.1-1.4-14.3-1.5-16.8-1.9-16.8-2.7 0-.5-1.3-.6-3-.3-1.6.4-3.7.3-4.7-.1s-3-.7-4.5-.6c-1.5.1-3.3-.1-4-.5-1.3-.8-9.1-.7-12.2.3-1.2.3-1.6.1-1.2-.6.5-.7-.2-1.1-1.6-1.1-1.3 0-4.5-.2-7.3-.4-2.7-.2-3.9-.2-2.5.1zm148 6.5c0 .4 1.4.8 3 .8 1.7 0 3-.2 3-.4s-1.3-.6-3-.8c-1.6-.3-3-.1-3 .4zm108-.2c0 .5-.7.6-1.7.3-1-.4-1.4-.2-.9.5.3.6-.3 1.3-1.5 1.7-1.1.4-1.8.9-1.6 1.2.6.5 8.7-3.4 8.7-4.2 0-.3-.7-.5-1.5-.5s-1.5.4-1.5 1zm-123.1 9.7c1.9.4 2.1.7 1 1.5-1 .7-.7.8 1.1.4 1.4-.3 3.6-.6 5-.7 2.3-.1 2.3-.2-.5-.9-1.6-.4-4.3-.8-6-.7-2.5 0-2.6 0-.6.4zm-117.5 3.8c-2.3 3.6-1.4 3.8 1.4.4 1.3-1.6 1.9-2.9 1.3-2.9-.6 0-1.8 1.1-2.7 2.5zM29 298.4c0 2 7 7.6 8.7 6.9 1.6-.6 1.1-2.9-.6-2.6-.6.2-1.1-.4-1.1-1.2 0-.8-1.3-2.1-3-3-3.6-1.9-4-1.9-4-.1zm0 6.1c-1 1.2-1 1.9-.2 2.7.9.9 1.2.9 1.2-.1s.3-1.1 1.4-.2c2.2 1.8 2.8-.4.7-2.3-1.6-1.5-1.9-1.5-3.1-.1zm125.3 22c0 3.8.2 5.3.4 3.2.2-2 .2-5.2 0-7-.2-1.7-.4-.1-.4 3.8zm242 3c0 2.2.2 3 .4 1.7.2-1.2.2-3 0-4-.3-.9-.5.1-.4 2.3zm-238.6 1.8c-.4 1-.7 3.3-.6 5l.1 3.2.9-3.3c1.2-4 .8-7.9-.4-4.9zm160.8 13.4c-3.1.7-3.9 2-2.4 3.5 1.7 1.5 21.9 2.2 21.9.7 0-.5-.5-.9-1.1-.9-.5 0-.8-.4-.4-.9.3-.6-.9-.7-3-.4-1.9.3-3.5.1-3.5-.4s-1.6-.7-3.5-.5c-2.1.3-3.5 0-3.5-.7 0-1.1-1-1.2-4.5-.4zm80.8 5.8c0 2.2.2 3 .4 1.7.2-1.2.2-3 0-4-.3-.9-.5.1-.4 2.3zm18 2.3c-.6.4-1.4 2.1-1.7 3.7-.3 1.7-.3 2.3 0 1.5.4-.8 1.5-2.2 2.7-3.1 2-1.6 1.1-3.4-1-2.1zm-381.9 9.7c2.4 1.8 3.3 1.9 4.2.3.5-.8.2-.9-.9-.5-.9.3-1.9.2-2.2-.3-.4-.6-1.2-1-1.8-1-.7 0-.3.7.7 1.5zm284.1 29.3c.3 4.6 1.1 5.2 6.8 4.7 2.9-.3 7.2-.6 9.7-.7 2.5 0 3.8-.3 3-.6-.8-.3-1.7-.8-2-1.2-.7-1-10-3.1-11-2.5-.4.3-1 .1-1.2-.3-.1-.5-1.5-1.2-2.9-1.5-2.3-.6-2.6-.4-2.4 2.1zM72.3 418.3c-3.5 1.2-4.6 3.3-1.3 2.4 1.1-.3 2-.1 2 .4s1.8.9 4 .9 4-.5 4-1c0-.6.8-1 1.8-1 .9-.1-.1-.7-2.3-1.5-2.2-.8-4.2-1.4-4.5-1.3-.3 0-2 .6-3.7 1.1zm247.8 32.4c0 1.8-.5 3.3-.9 3.3s-.8.8-.8 1.8c0 1.3.6 1.7 2.2 1.4 2.1-.4 4.9-6.5 3.8-8.4-.9-1.4-2.4.1-2.5 2.5-.1 1.7-.3 1.5-.9-.8l-.8-3-.1 3.2zm-36.8 0c1.5.2 2.5.8 2.2 1.2-.2.5.8.6 2.3.3 2.4-.5 2.4-.6.7-1.3-1.1-.4-3.3-.7-5-.7l-3 .1 2.8.4z"/><path fill="#660" stroke="#660" stroke-width=".1" d="M182.5 403.5c-.4 3.6-.5 6.8-.3 7.1.3.2.8-2.5 1.2-6.2.4-3.7.5-6.9.2-7.1-.2-.3-.7 2.5-1.1 6.2z"/><path fill="#930" stroke="#930" stroke-width=".1" d="M80.4 221.1c-.2.4 0 1 .6 1.4 1.1.7 3-.2 3-1.4 0-1-2.9-1-3.6 0zm-6.6 3.8c-.7 1-1.7 1.9-2.3 2.1-.5.1-.9.6-.7 1.2.1.5-.2.6-.8.3-1.2-.7-9 6.8-9 8.6 0 1.1 8-5.2 8-6.4 0-.4.6-.7 1.3-.7 1.5 0 5.5-4 4.1-4-.5 0 0-.7 1-1.5 1.1-.8 1.5-1.5.8-1.5-.6 0-1.7.8-2.4 1.9zm7 90.8c1.2.2 3.2.2 4.5 0 1.2-.2.2-.4-2.3-.4s-3.5.2-2.2.4zm91.5 14c.9 1.5 5.3 2.2 6.9 1.2.9-.6.8-.9-.7-.9-1.1 0-3.1-.3-4.4-.7-1.6-.4-2.2-.2-1.8.4zm234 18.3c0 2.5.2 3.5.4 2.2.2-1.2.2-3.2 0-4.5-.2-1.2-.4-.2-.4 2.3zm19.4-.4c.4 1.1.3 1.5-.5 1-.6-.3-1.4-.1-1.8.5-.4.8-.3.9.4.5.8-.5 1.2.3 1.2 2.3 0 1.7.4 3.1.8 3.1 1.2 0 1.4-7.7.2-8.5-.6-.4-.7.1-.3 1.1zm-232.4 10.6c2.2 9 2.9 11.4 3.6 12.1 1.5 1.5.3-8-1.3-11.2-1.9-3.6-3.1-4.1-2.3-.9zm220.2 1.8c-.3.5-.2 1.7.3 2.6.8 1.4 1 1.2 1.4-1 .5-2.6-.5-3.5-1.7-1.6zm-14.4 3.9c-.9.6-1.1 1.8-.5 4.2.4 1.9.8 3.8.8 4.4.1.5.7 2 1.4 3.3 1.1 1.9 1.1 2.6 0 3.9-1.1 1.4-1.1 1.5.2 1.1.8-.2 1.6-1.9 1.8-3.6.3-2.5-.1-3.2-1.4-3.2-1.3 0-1.5-.3-.7-1.1.7-.7.8-2.4.2-4.7-.5-2.5-.4-3.9.4-4.4.7-.4.8-.8.2-.8-.5 0-1.6.4-2.4.9zm-203.8 19.6c0 3.3.3 9.1.7 13l.7 7v-6c0-3.3-.3-9.2-.7-13l-.7-7v6z"/><path fill="#993" stroke="#993" stroke-width=".1" d="M178.6 375.8c-.2.4 1.3.6 3.5.4 2.1-.2 3.9-.6 3.9-.8 0-.7-6.9-.4-7.4.4zm8.9.3c-.9 1.4 0 2.2 1.8 1.7 1.3-.2 1.3-.5.2-1.5-1-.9-1.6-.9-2-.2z"/><path fill="#C96" stroke="#C96" stroke-width=".1" d="M79.5 216c-.4.6-1 .8-1.5.5-.4-.3-1 .4-1.3 1.5-.7 2.5-.5 2.5 2.7-.5 1.5-1.4 2.3-2.5 1.7-2.5-.5 0-1.3.5-1.6 1z"/><path fill="#C93" stroke="#C93" stroke-width=".1" d="M154.3 307c0 2.5.2 3.5.4 2.2.2-1.2.2-3.2 0-4.5-.2-1.2-.4-.2-.4 2.3zm263.1 48.8c.3.6.2 1.3-.4 1.7-.5.3-.9 2.3-.9 4.3.2 3.1.3 3.2.6.9.2-1.5.9-2.5 1.4-2.2.5.4.9-.5.9-1.9s-.5-2.8-1.2-3.2c-.6-.4-.8-.3-.4.4zM175.5 374c-.4.6-1.1.8-1.6.5-.5-.3-.6.1-.3.9.3.9 1.4 1.6 2.4 1.6s2 .4 2.2.8c.2.4 1.7.5 3.3.1l3-.7-3.3-.1c-2.2-.1-3.1-.5-2.6-1.2.4-.7 2.4-.9 5-.6 2.4.2 4.4.1 4.4-.3 0-1.9-11.4-2.8-12.5-1z"/><path fill="#F93" stroke="#F93" stroke-width=".1" d="M154.3 298.5c0 2.7.2 3.8.4 2.2.2-1.5.2-3.7 0-5-.2-1.2-.4 0-.4 2.8zm244 52c0 4.4.2 6.1.4 3.7.2-2.3.2-5.9 0-8-.2-2-.4-.1-.4 4.3z"/><path fill="#636" stroke="#636" stroke-width=".1" d="M399.8 436.1c-2.1 1.1-3.8 2.2-3.8 2.4 0 .3 1.8-.4 4-1.5s4-2.3 4-2.5c0-.7 0-.7-4.2 1.6zm-11 5.5c-2.7 1.3-4.8 2.7-4.8 2.9 0 .5 9.9-4.2 10.9-5.1 1.3-1.1-2 0-6.1 2.2z"/><path fill="#C90" stroke="#C90" stroke-width=".1" d="M176.8 281.7c1.2.2 3 .2 4 0 .9-.3-.1-.5-2.3-.4-2.2 0-3 .2-1.7.4zM409 351.2c0 1.1 4.7 1.1 5.4 0 .3-.5-.8-.9-2.4-.9-1.7 0-3 .4-3 .9zm9.6 10.1c-.5 2.1-.6 5.1-.2 6.7.3 1.8.1 3-.5 3-.5 0-.3 1 .5 2.2 2.1 3 2.2 6.5.2 4.8-.8-.6-1.3-1.7-1-2.5.3-.7.1-1.6-.5-2-.7-.4-1.1.7-1.1 2.9 0 2.7.3 3.4 1.5 3 .9-.4 1.5-.1 1.5.7 0 .9.3 1 1 .3s.8-4.7.2-12c-.7-9.2-1-10.3-1.6-7.1z"/><path fill="#C60" stroke="#C60" stroke-width=".1" d="M399.3 343.5c0 2.2.2 3 .4 1.7.2-1.2.2-3 0-4-.3-.9-.5.1-.4 2.3zm24.7 2.3c0 1-.6 2.4-1.2 3.2-1.1 1.2-1 1.2.3.2 1.9-1.4 3.2-5.2 1.8-5.2-.5 0-.9.8-.9 1.8zm-24.4 12.3c-.8 4.2 0 5 .9.9.4-1.7.5-3.4.2-3.6-.2-.3-.7 1-1.1 2.7z"/><g fill="#933" stroke="#933" stroke-width=".1"><path d="M50 313.2c0 1.3.7 9.6 1.7 18.5l1.8 16.3 3.3.6c1.8.4 3.6.4 3.9 0 .4-.3-.3-.6-1.5-.6s-2.2-.4-2.2-.8 2.5-.5 5.5-.2 5.5.2 5.5-.2-.9-.8-1.9-.8c-1.5 0-1.8-.5-1.3-2.3.3-1.2 1-2.5 1.6-2.9.7-.5.6-.8-.3-.8-1.1 0-1.1-.3-.1-1.5.7-.8.9-1.5.6-1.5-.4 0 0-.7.8-1.6.9-.8 1.6-2.4 1.6-3.4s.5-2.2 1.1-2.6c.8-.4.7-.9-.2-1.5-1-.6-1-.9-.2-.9 1.7 0 .5-3.1-2-5.1-1.5-1.2-1.8-2.3-1.3-4.3.5-2.2 1.2-2.6 4.1-2.6H74l.3 17.2.3 17.3.2-17.8.2-17.7h-3.4c-1.9 0-7-.7-11.3-1.5-10.1-1.9-10.3-1.9-10.3.7zm47.3 18c.4 6.6.7 14.9.8 18.2 0 3.4.3 5.6.5 5 .3-.7 2.2-1 4.4-.8 4.7.4 5.9-.9 2.8-3-1.8-1.3-1.9-1.6-.5-2.1.9-.4 1.9-2 2.2-3.6.7-3.1 3.8-4.6 7.6-3.6 1.3.4 2.8-.3 4.4-2.1 1.4-1.5 2.1-2.8 1.5-3-1.7-.6-1.1-2.9.8-2.9 5.4 0 6.7-.3 5.2-1.3-1.1-.7-.7-1 1.7-1 1.7 0 3.4.6 3.6 1.2.3.7.6.3.6-1 .1-2 .5-2.2 4.5-1.8 2.4.2 4.7.1 5.2-.3 1.4-1 1.5-3.1.2-3.3-.7 0 1-.4 3.7-.7 3.9-.5-.3-1.2-20-3.4-13.7-1.5-26.1-2.7-27.4-2.7h-2.4l.6 12.2zm43.2-6.1c.5.6.3.9-.8.9-.9 0-1.7.4-1.7 1 0 .5-1 1-2.2.9-2.2 0-2.2-.1-.3-.9 2-.9 2-.9 0-.9-1.2-.1-2.5-.5-3-1-.6-.5-2.1-1.1-3.5-1.4-1.4-.2.4-.2 4 0 3.6.3 6.9.9 7.5 1.4zm10.7 3.9c-.7 1.1-.8 2-.3 2 .6 0 1.2 1.9 1.4 4.2.3 3.4.4 3 .5-2 .1-3.4.1-6.2-.1-6.2-.1 0-.8.9-1.5 2zm60.4 9.7c.3 2.6 1.1 10.9 1.9 18.3.7 7.4 1.3 12.4 1.4 11 .1-2 .3-2.2 1.1-1 .8 1.2 1 1.1 1-.8 0-1.3.6-2.2 1.5-2.2.8 0 1.5-.7 1.5-1.5s.5-1.5 1-1.5c.6 0 1-.9 1-1.9 0-1.2.9-2.1 2.6-2.5 3.3-.9 6.4-3.8 4.6-4.4-1.6-.5-1.6-3.2.1-3.2.8 0 .7-.3-.3-1-3.2-2 4.1-4.4 9-2.9 2.1.6 3.9 2.3 3.3 3.1-.2.5.6.8 1.9.8 1.8 0 2-.2.8-1s-1.1-1 .8-1.1c6.3-.3 7.7-.1 7.4.9-.1.7.4 1.2 1.2 1.2 1.8 0 2.9 2.7 1.3 3.4-.9.3-.9.5.1.5.6.1 1.2.7 1.2 1.4s1.4 2.1 3 3c1.7 1 3 2.4 3 3.1 0 1.5 3.4 2.4 6.3 1.8.9-.2 1.5-.7 1.2-1.2-.3-.4.4-.6 1.4-.3 1.3.3 2.4-.2 3.3-1.6.7-1.2 1.8-2.1 2.4-2.1 1.7 0 2.3-4.4.9-6.4-1.4-1.9-2.9-2.2-1.9-.4.6 1 .4 1-.7 0-.7-.6-2.1-1.2-3.2-1.2-2.1 0-4.9-2.4-4-3.4.4-.3 1.6-.6 2.7-.6 4 0-.6-2-4.9-2.1-2.2 0-5.8-.7-8-1.4l-4-1.4 6.5.5c10.7.8 20.7 2.6 18.7 3.3-1.8.6-1.8.8-.2 2.1 1.4 1.2 1.7 1 2.3-1.1.6-1.9.8-1.4 1.3 2.6l.6 5 .1-5.3c.1-2.8-.2-5.2-.7-5.2-.5 0-4.3-.4-8.3-1-4-.5-18.1-2.1-31.3-3.5s-25.7-2.8-27.7-3.1l-3.7-.6.5 4.9zm23.4-.7c3.8.8 3.5.8-2.4.4-3.9-.2-7.2-.7-7.5-.9-.7-.8 4.9-.4 9.9.5zm72.3 5.8c-2.3.3-2.3.4-2.3 19.6v19.3l5.2.6c2.9.4 5.6.3 6.1-.2 1.4-1.4.2-23.7-1.7-31.7-1.8-7.4-2.6-8.3-7.3-7.6zM54.8 356c.2 2.8-.1 5.6-.7 6.4-.8.9-.5 7 .9 22.2 2.7 28.7 2.3 27.2 6.8 28.3 5.7 1.4 20.2 3.4 20.8 2.9.2-.3 0-2.5-.5-4.9-1.4-6.2-4.9-35.5-5.7-47.1l-.7-9.7-7.1-1.1c-3.9-.6-8.7-1.3-10.6-1.6l-3.5-.5.3 5.1zm119.5-2.3c-4.1 3.7-5.1 6.9-2.3 7.8 1.1.4 1.7 1.1 1.4 1.7-.4.6-1 .5-1.5-.3-.7-1.1-.9-.9-1 .6v2l-.9-2c-.7-1.7-.9-1.5-.9 1.2-.1 3.7 1 4.3 6.4 2.9 2.2-.5 7.3-.9 11.2-.9l7.3.1-.6-2.6c-.4-1.5-1.1-3.1-1.5-3.7-.5-.5-.9-1.5-.9-2.2 0-2.2-3.4-5.3-7.1-6.3-5-1.5-6.2-1.3-9.6 1.7zM177 366c1.1.7.7 1-1.7 1-1.8 0-3.3-.5-3.3-1 0-1.3 3-1.3 5 0zm-54.5-10.9c.4.6.9.8 1.2.5.3-.3 1.5 0 2.7.6 1.9 1 2 1 .7-.5-1.5-1.9-5.6-2.4-4.6-.6zm158.9 11.4c0 7.1.1 9.9.3 6.2.2-3.7.2-9.6 0-13-.2-3.4-.3-.4-.3 6.8zM104 356.1c6 1 10.8.9 5.5-.2-2.2-.4-5.3-.8-7-.7-2.2 0-1.9.3 1.5.9zm-4.3 14.6c.6 7.1 1.2 14.9 1.2 17.5l.1 4.6 6.1.7c3.3.4 6.2.5 6.5.2.3-.2-2.2-.7-5.6-1.1-4.8-.6-6-1-5.9-2.4 0-1 .3-1.2.6-.5.3.9 2.3 1.2 5.6 1.2 2.9-.1 4-.4 2.5-.6-1.6-.2-2.8-.9-2.8-1.5s.3-.9.6-.5c1 .9 4.4-3.2 4.4-5.3 0-1.1.6-2 1.3-2 3.5 0 6-7.1 3.4-9.6-2.2-2.2 2-4.1 8.8-4.2 11.5 0 11.2-.8-1.3-3.3l-8.7-1.8 7.5.4c5.9.3 4.4-.1-7.5-2-8.2-1.3-15.7-2.4-16.5-2.4-1.4-.1-1.4 1.4-.3 12.6zm34.1-7c1.2.2 3 .2 4 0 .9-.3-.1-.5-2.3-.4-2.2 0-3 .2-1.7.4zm8 1c1.2.2 3 .2 4 0 .9-.3-.1-.5-2.3-.4-2.2 0-3 .2-1.7.4zm82 7c1.2.2 3.2.2 4.5 0 1.2-.2.2-.4-2.3-.4s-3.5.2-2.2.4zm9 1c1.2.2 3 .2 4 0 .9-.3-.1-.5-2.3-.4-2.2 0-3 .2-1.7.4zm-75.6 2.3c.2 1.7 1 2.6 2.6 2.8 2.6.4 3-1.6.5-2.5-1-.4-2.2-1.1-2.6-1.7-.4-.6-.7 0-.5 1.4zm58.1 4.2c.4 3.5.9 11.3 1.3 17.4l.7 11.2 4.5.6c6.2.8 9.6.6 5.7-.4l-3-.8 3-.1c2.1-.1 2.6-.4 1.6-1-1-.7-.9-1.1.7-2.2 1-.8 2.2-2.5 2.7-3.7.6-2 1.2-2.3 3.6-2 1.7.3 3.3 0 3.6-.5.4-.6.1-.7-.7-.2-.9.5-1.1.4-.6-.3.4-.7 1.5-1.2 2.4-1.2 2.1 0 4.4-3.4 3.6-5.5-.4-.9-.1-1.5.7-1.5 1.1 0 1.1-.2.1-.8-.7-.5-1-1.6-.6-2.5.4-1.2 1.1-1.4 2.4-.7.9.5 2 .6 2.4.3.9-.9 8.5-.9 7.9 0-.2.4.6.6 2 .3 2.6-.4 5 .6 4.7 2 0 .5 1 1.1 2.2 1.2 3.6.6 4.4 2 1.6 3.1-1.4.5-2.8 1.7-3.2 2.6-.3.9-.2 1.4.2 1.1.4-.2 2.3.4 4.3 1.3 2.1 1 4.3 1.5 5.5 1.1 1-.4 2.2-.6 2.7-.3.4.2.8-.2.8-.9.1-.7.5 0 .9 1.7.5 2.1.8.2.9-6.2l.1-9.1-6.2-.6c-7.1-.7-18.6-2.3-26.8-3.6-5.3-.9-5.3-.9 1.5-.4 3.9.3 12.1 1.2 18.3 2 6.2.8 11.9 1.4 12.7 1.4 1.2 0 1.5 2.6 1.8 12.7l.3 12.8.2-13.3c.1-9-.1-13.2-.9-13.2-2 0-52.4-6.1-58.4-7-3.3-.6-6.4-1-6.9-1s-.6 2.8-.3 6.2zm25.5-5.5c1.2.2 3 .2 4 0 .9-.3-.1-.5-2.3-.4-2.2 0-3 .2-1.7.4zm33 4c1.2.2 3.2.2 4.5 0 1.2-.2.2-.4-2.3-.4s-3.5.2-2.2.4zM161 387.4c0 4.1 1.5 4.9 2.2 1.1.3-1.4-.1-3-.8-3.6-1.1-.9-1.4-.5-1.4 2.5zm144 8.2c0 6 .4 10.3.9 10 .5-.4.7 2.9.5 7.6l-.5 8.3 2.2-3.9c1.5-2.9 2.3-3.5 2.9-2.5.5.8.4 1.9-.2 2.6-.7.9-.5 1.5.8 2 1.6.6 1.4.8-1.1 1.4-3 .7-2.9.7.7.8 2 0 4.3.4 5.2.7 1.4.5 1.6-.7 1.6-9.8 0-5.8-.3-13.9-.6-18.1l-.7-7.5-4.3-1.1c-7.7-2-7.4-2.3-7.4 9.5zm11.7 19.6c-.2 1.8-.4.6-.4-2.7 0-3.3.2-4.8.4-3.3s.2 4.2 0 6zM102 397.3c.1 4.9 2.8 19.1 3 15.7l.2-3.5.9 3.4c.8 2.7.7 3.7-.7 5.2-.9 1-1.3 1.9-.8 1.9s5.4.7 10.9 1.5c10.6 1.6 15 1.8 10 .5-2.8-.7-2.6-.8 1.5-.9 4.3-.1 4.3-.2 2.4-1.8-1.9-1.5-2-1.8-.6-4.5 1.1-2.2 1.2-3.5.4-5.1-.6-1.2-1.1-1.6-1.1-.9-.1 1-.6 1-2.2.1-3-1.6-1-3.1 4.6-3.4 2.6-.2 5.2-.8 5.8-1.4 1.2-1.2.8-1.3-6.3-2.9-4.1-1-3.9-1 3-.6 6.8.3-.5-1-27.7-5-2.9-.4-3.3-.2-3.3 1.7zm9.8 21.8c1.9.1 2.1.3.9.6-1 .3-3 .2-4.5-.2-2-.5-2.3-.8-1.1-1.5.8-.6 1.5-.6 1.7 0 .2.6 1.6 1.1 3 1.1zm12-23.4c1.2.2 3 .2 4 0 .9-.3-.1-.5-2.3-.4-2.2 0-3 .2-1.7.4zm39.4.9c.9.9 2.1 1.3 2.8.9 1.4-.9-.5-2.5-3-2.5-1.2 0-1.2.3.2 1.6zm-23.4 1.1c1.2.2 3 .2 4 0 .9-.3-.1-.5-2.3-.4-2.2 0-3 .2-1.7.4zm78.2 18.8.5 6.5h-12.1c-10.4 0-12.5.3-14.5 1.9l-2.3 1.9 2.9-.4c1.6-.1 3.1-.8 3.3-1.3.2-.7 4-1.1 9.6-1.1 8 0 9.5.3 11.1 2 1.4 1.6 2.1 1.7 3.2.8.8-.6 1.2-2 1-3-.3-1-.2-1.8.1-1.9 3.1-.3 4.7-1 6.3-2.8 2.5-2.7 9.7-2.3 12.9.7 1.3 1.2 2.6 1.9 3 1.7.4-.3 1.3.2 2 1 1.1 1.3.8 1.5-1.4 1.5-1.4 0-2.6.4-2.6 1 0 1.4-7.3 1.2-8.9-.3-1-.8-1.2-.8-.7 0 .3.6.2 1.4-.4 1.8-1.4.8-.3 2.4 2.4 3.5 2 .8 2 .9-.4 1l-2.5.2 2.5.7c2 .7 1.4.9-3.5 1.6l-6 .9 4 1.2 4 1.2-3.5.2c-2.2.2-.4.7 5 1.5 9.2 1.4 17.9 1.8 10.5.5l-4-.7 3.7-.2c2 0 4.1-.7 4.5-1.5.8-1.3 3.2-1.9 12-3.2 4.1-.6 5.1-2.4 1.3-2.4-1 0-2.1-.4-2.4-.9-.4-.5.4-.7 1.5-.4 1.9.5 2.1.3 1.7-1.9-.4-2.3-.3-2.4 4-2 3.2.2 4.2 0 3.7-.8-.5-.9-.2-.9 1.1-.2 2.1 1 6.1.7 7.9-.8 2-1.6 3.7.7 4.2 5.6.3 3.8.2 4.5-.7 3.4-.9-1.2-1-.9-.8 1.5.2 1.8.8 2.9 1.6 2.7.8-.1 1.2 1.1 1.2 3.7 0 2.2-.5 4.2-1.2 4.4-.7.3-.4.6.7.6 2 .1 2-.1.6-13.3l-1.4-13.4-3.6-.6c-2-.3-8.8-1.2-15.1-2-35.9-4.7-42.7-5.7-44.5-6.1-1.9-.4-2-.1-1.5 6zm24-1.9c6.3.9 11.7 1.8 12 2.1.7.7-14.7-.6-20.5-1.7-2.7-.6-6.1-1.2-7.5-1.4-1.8-.2-1.5-.4 1-.5 2 0 8.7.6 15 1.5zm28 3.8c5.7 1 6.6 1.4 3.5 1.4-2.2 0-7.4-.5-11.5-1.2-5.7-1-6.6-1.4-3.5-1.4 2.2 0 7.4.5 11.5 1.2zm-9.9-8c.8.8 7.8 1 8.5.3.4-.4-1.4-.7-4.1-.7-2.7 0-4.6.2-4.4.4zm-12.3 1.3c1.2.2 3 .2 4 0 .9-.3-.1-.5-2.3-.4-2.2 0-3 .2-1.7.4zm34 2.3c-.3 1.6-.1 3 .4 3 .4 0 .8-1.4.8-3 0-1.7-.2-3-.4-3s-.6 1.3-.8 3zm-23.8-.9c2.5.4 5.9.7 7.5.7 2.2 0 1.8-.3-1.5-.9-2.5-.4-5.8-.7-7.5-.7-2.2 0-1.8.3 1.5.9zm-83 5.7c0 .5.7 1.5 1.5 2.2.8.7 1.5 2.1 1.5 3.1 0 1.6-.8 1.9-4.2 1.9l-4.3.1 4 1.4c2.2.8 4.9 1.5 6 1.6 1.6.1 1.5.2-.5.8-2 .6-1.4.9 3.3 1.5 3.2.4 6.1.5 6.5.2.3-.3-.4-.6-1.6-.6-1.1 0-2.8-.3-3.7-.6-1.3-.5-1.4-.8-.3-1.5 1-.7.8-.9-.6-.9-1.6 0-1.8-.6-1.4-4.5.5-3.9.3-4.5-1.2-4.5-1 0-2.5-.3-3.4-.6-.9-.3-1.6-.2-1.6.4zm131.1 10.9c.1 4.8.3 5.3.9 2.8l.8-3 .1 2.7c.1 2.9 1.6 3.8 2.4 1.5.3-.9.7-.9 2 .1.9.8 2.1 1.1 2.7.7 1.4-.9 1.3-7.2-.2-7.8-.8-.3-.6-.6.4-.6 1.3-.1 1.8 1 2.1 4.6l.3 4.8.2-5.1.2-5.1-4.6-.7c-7.7-1-7.4-1.2-7.3 5.1zM164.5 426c.3.5 1.6 1 2.8 1 1.8 0 1.9-.2.7-1-2-1.3-4.3-1.3-3.5 0z"/><path d="M162.5 428.5c8.8 1.5 17.3 1.9 10 .5-2.2-.5-7.1-1.1-11-1.3l-7-.6 8 1.4zm144.7 14.7c-.2 6.8 0 7.8 1.6 7.8 1.1 0 1.3-.3.5-.8-.7-.4-1.4-3.8-1.6-7.7l-.3-7-.2 7.7zm10.8 2.7c0 4.9-.1 5-3.2 5.4-3.2.4-3.2.4.5.5l3.7.2v-5.5c0-3-.2-5.5-.5-5.5s-.5 2.2-.5 4.9z"/></g><g fill="#FC3" stroke="#FC3" stroke-width=".1"><path d="M163.5 283.5c-8.4 2.2-8.4 2.1-8.4 29.3 0 13 .4 25.7.9 28.2.5 2.9.8-3.1.7-17.5-.2-22.5.6-28.6 4.1-30.8.7-.5 1-1.3.6-1.8-.3-.5-.2-.8.3-.7.4.2 2.4-.7 4.4-1.9 4.2-2.6 15.3-5.7 18-5 1.1.3 1.7.1 1.3-.4-.8-1.4-16.2-1-21.9.6zm33.4 15.7c0 1.8-.3 2.8-.5 2.1-.4-.8-1-.7-2.3.5-1.7 1.7-1.7 4.6.2 7 .6.7 1 3.4.9 6-.1 3.4.1 4.3.8 3.2.8-1.3 1-1.2 1 .2 0 2 1.5 2.4 2.5.7 1-1.5-.5-22.9-1.6-22.9-.5 0-.9 1.5-1 3.2z"/><path d="M181.5 298.8c.4.4-1 1.2-3.2 1.9-2.1.6-3 1.2-2.1 1.2 3.5.2 8.7 4.3 10.7 8.5 2.5 5.1 2.6 7.3.5 12.6-2 4.9-1.2 6.2 1.9 3.2 1.9-2 2.2-3.3 2.2-10 0-7-.3-8.1-3.2-12.3-1.8-2.6-4.2-4.9-5.4-5.2-1.1-.3-1.8-.3-1.4.1zm215.9 18.5c0 10 .2 17.2.4 15.9.2-1.2.7-2.2 1.2-2.2.4 0 1.5-1.6 2.4-3.5 1.1-2.3 3.4-4.5 6.8-6.4l5.1-2.9-5.2-2.7c-3.8-1.9-5.6-3.5-6.5-5.8-.7-1.8-1.7-4.1-2.1-5.2-.5-1.1-.7-2.5-.6-3.2.1-.6-.2-1.4-.7-1.6-.4-.3-.8 7.6-.8 17.6zm-238.2 17.2c-.2 5.3 0 6.1 1.7 6.2 1.4.1 1.7-.3 1.3-1.9-.3-1.4-.7-1.6-1.3-.7-.5.8-.9-.9-1.2-4.1l-.3-5.5-.2 6zm40.4 9.8c-.5 2.6-.6 5.1-.2 5.4 1.2 1.3 1.7-.6 1.4-5.3l-.3-4.9-.9 4.8zm201.1-3c-.4 1-.7 3.3-.6 5l.1 3.2.9-3.3c1.2-4 .8-7.9-.4-4.9zM194 348c2 1.3 4 1.3 4 0 0-.6-1.2-1-2.7-1-2.2 0-2.5.2-1.3 1zm207.3 9.5c0 2.2.2 3 .4 1.7.2-1.2.2-3 0-4-.3-.9-.5.1-.4 2.3zm15.5 7c-.2 2.5 0 4.5.4 4.5.5 0 .8-2 .8-4.5s-.2-4.5-.4-4.5-.6 2-.8 4.5zM162 381.8c0 .5 1 1.7 2.2 2.8 1.9 1.7 2.1 1.7 1.5.1-.4-.9-.2-1.7.4-1.7.6 0 .7-.5.4-1-.7-1.2-4.5-1.3-4.5-.2zm8 .4c0 .7-.3 2.4-.7 3.7-.5 1.8-.2 2.2 1.2 2 2.3-.5 3.2-6.9 1-6.9-.8 0-1.5.6-1.5 1.2zm-1 10.2c0 1.5 2.4 2.8 3.4 1.9 1.3-1.4.5-3.3-1.4-3.3-1.1 0-2 .6-2 1.4z"/></g><path fill="#FC0" stroke="#FC0" stroke-width=".1" d="M185 282.5c0 .3 1.2 1.1 2.8 1.7 1.6.7 2.1 1.2 1.2 1.4-.8.1-4.7.7-8.7 1.4-6.8 1.1-12.3 3.9-17 8.6-2.4 2.4-5.3 11.9-5.2 17.4.1 7.7 2.4 26.8 3 25 .4-1 .7-.8 1.2.9.4 1.7.2 2.1-.9 1.7-1.6-.6-1.9 1-.4 1.9.6.4.8 1 .5 1.5-.9 1.4 2.8 2.2 13 2.7 8.8.3 17.6 1.8 22.6 3.8 1.3.5 1.7-.3 2.2-3.7.3-2.4.9-6.2 1.3-8.5 1-6.4-.4-19.3-2.1-18.7-.7.3-1.5-.2-1.7-1.3-.3-1.1-1.1.2-2.2 3.5-1.3 3.8-2.6 5.6-4.6 6.7-3.2 1.7-4.4 1.9-3.6.7.2-.4.1-1.4-.5-2.2-.7-1.2-.9-1-.9.7 0 3.3-4.2 5.7-8.4 4.9-4.7-.9-10.9-5.7-12.9-9.9-.9-1.9-1.7-5.4-1.7-7.6 0-2.7-.5-4.4-1.4-4.7-2-.8-.9-3.3 1.2-3 .9.2 3-.7 4.5-1.8 2.1-1.5 4.4-2.1 8.2-2.1 5 0 6.9-1.4 2.2-1.6-1.5 0-.9-.5 1.6-1.2 2.2-.7 3.5-1.6 3.1-2-1.1-1.1 2.5.3 5.6 2.2 1.4.8 3.3 2.4 4.3 3.5 1.2 1.3 1.7 1.6 1.5.6-.6-1.9 2.9-5.4 3.6-3.7.2.7.5-.3.5-2.1.1-1.7.6-3.2 1.1-3.2.6 0 1-2.2 1-5 0-4.6-.2-5-3.2-6.4-3.6-1.6-10.8-3-10.8-2.1zm13 65.5c0 1.3-2 1.3-4 0-1.2-.8-.9-1 1.3-1 1.5 0 2.7.4 2.7 1zm-30.9 2.1c-3.3 3.1-5.1 8-5.1 13.9 0 6.4 1.5 6.4 3 0 1.4-5.7 5.9-12.5 8.9-13.5 3.2-1 2.5-2.5-1.2-2.5-2 0-4.2.8-5.6 2.1z"/><path fill="#F90" stroke="#F90" stroke-width=".1" d="M199.3 299.5c0 2.7.2 3.8.4 2.2.2-1.5.2-3.7 0-5-.2-1.2-.4 0-.4 2.8zm-34.3 7c-.7.8-1.9 1.5-2.6 1.5-1.6 0-1.8 1.8-.4 4 .8 1.3 1 1.3 1-.1 0-.9.9-2.8 2.1-4.3 2.1-2.7 2.1-3.7-.1-1.1zm254.2 6.3-3.3 4.2 3.3 3.9 3.3 4 .3-3.9c.2-2.2.2-5.9 0-8.2l-.3-4.2-3.3 4.2zm-218.9 8.7c0 2.7.2 3.8.4 2.2.2-1.5.2-3.7 0-5-.2-1.2-.4 0-.4 2.8zm-12.3 6c-1.3 1.4-1.8 2.5-1.2 2.5.7 0 1.2-.5 1.2-1.1 0-.5.6-.7 1.3-.3.6.4.9.4.5-.1-.4-.4-.3-1.4.3-2.2 2-2.3.4-1.4-2.1 1.2zm210.1 11.2c.1 4.3.2 4.5.9 1.8 1.1-4.4 1.1-6.5 0-6.5-.5 0-.9 2.1-.9 4.7zM201.3 348c0 3 .2 4.3.4 2.7.2-1.5.2-3.9 0-5.5-.2-1.5-.4-.2-.4 2.8zm209.7 1.9c0 1 6.7.8 7.7-.3.3-.3-1.2-.6-3.5-.6s-4.2.4-4.2.9zm-8.7 6.1c0 2.5.2 3.5.4 2.2.2-1.2.2-3.2 0-4.5-.2-1.2-.4-.2-.4 2.3zm-238.2 11.2c0 .9-.6 1.8-1.3 2-.7.3-.9 1.2-.4 2.3 1 2.8 2.8.4 2.3-3.1-.2-1.6-.5-2.2-.6-1.2z"/><path fill="#FF3" stroke="#FF3" stroke-width=".1" d="M401.3 349.5c0 2.7.2 3.8.4 2.2.2-1.5.2-3.7 0-5-.2-1.2-.4 0-.4 2.8zm7.7 18.1c0 1.6.9 1.8 2.8.5 1-.6.9-1-.7-1.4-1.4-.3-2.1 0-2.1.9zm-242.5 15.2c-1.6 1.2-1.4 3.9.4 3.8 1.8-.1 3.1-1.5 3.1-3.4 0-1.3-1.9-1.6-3.5-.4zm-3.8 9.6c-.4.9.3 1.6 1.6 2 2.7.7 7.7.7 6-.1-.7-.2-1.3-1.1-1.3-1.9 0-1.9-5.6-1.9-6.3 0zm5.7 7.5c.4.6-.1 1.1-1.1 1.1-1.7.1-1.7.1 0 1.4 2.3 1.8 5.9.9 5.5-1.3-.2-.9-1.4-1.8-2.7-1.9-1.5-.2-2.1 0-1.7.7zm10.4 8.4c-.3 1.3-.1 3.2.3 4.3.5 1.3.8.7.8-2.4.1-4.6-.4-5.5-1.1-1.9z"/><path fill="#FF6" stroke="#FF6" stroke-width=".1" d="M396.3 302c0 3.6.2 5 .4 3.2.2-1.7.2-4.7 0-6.5-.2-1.7-.4-.3-.4 3.3zm1 16c0 2.5.2 3.5.4 2.2.2-1.2.2-3.2 0-4.5-.2-1.2-.4-.2-.4 2.3zm-219 81c0 3 .2 4.3.4 2.7.2-1.5.2-3.9 0-5.5-.2-1.5-.4-.2-.4 2.8z"/><path fill="#600" stroke="#600" stroke-width=".1" d="M416.6 311.6c-2.6 1.8-5.3 3.1-6 2.8-.6-.3-.3.1.7 1 1.1.8 2.5 1.2 3.2 1 1.1-.4 8.2-8.5 7.3-8.3-.2 0-2.5 1.6-5.2 3.5zM68 313c3.4 1.1 6 1.1 3.5 0-1.1-.5-2.9-.8-4-.8-1.6 0-1.5.2.5.8zm339.7 9.7c-.4.3-.6 2.9-.6 5.7l.2 5.1.7-4c.4-2.2 1-4.8 1.5-5.8.7-1.7-.5-2.4-1.8-1zm-5.2 15.7c0 1.3.4 2.2.8 1.9.5-.3.5 4.3.1 10.2-.5 7.5-.4 10.6.4 10.1.6-.3 1.3 0 1.5.6.3.7.5-.7.5-3.2 0-3.7-.1-4-.8-2-.7 2.2-.8 2.1-.9-1.3-.1-2.1.3-3.6.8-3.3 1.4.9.5-12.4-1-14-1.2-1.1-1.4-1-1.4 1zm18.8 12.4c-1.2.8-1.2 3.6 0 4.8.4.4.8-.6.8-2.2.1-1.7.3-2.2.6-1.1.5 2 2.3 1.3 2.3-.9 0-1.5-1.8-1.8-3.7-.6zm-367 5.2c0 2.5.2 3.5.4 2.2.2-1.2.2-3.2 0-4.5-.2-1.2-.4-.2-.4 2.3zm371.1 10.5c0 4.9.1 7.1.3 4.8.2-2.3.2-6.4 0-9-.2-2.6-.3-.8-.3 4.2zm-21.4 2.4c0 3.4.5 6.3 1.1 6.7.9.5 1-.1.5-2-.4-1.5-.3-2.5.2-2.2 1 .6 1.3-1.8.5-5.7-.9-4.8-2.3-2.9-2.3 3.2zm18.3 1.1c0 4.1.2 5.8.4 3.7.2-2 .2-5.4 0-7.5-.2-2-.4-.3-.4 3.8zm-369 4.5c0 2.2.2 3 .4 1.7.2-1.2.2-3 0-4-.3-.9-.5.1-.4 2.3z"/><path fill="#FFC" stroke="#FFC" stroke-width=".1" d="M403.8 326c-2.2 3-2.3 7.9-.3 8.6 2.6 1 3 0 2.5-5.6l-.5-5.5-1.7 2.5zM34.5 350c-.7 1.1.2 3 1.3 3 .4 0 .8-.9.9-2 .2-2.1-1.1-2.7-2.2-1z"/></svg>